<?xml version="1.0" encoding="UTF-8"?>
<svg width="729px" height="86px" viewBox="0 0 729 86" version="1.1" xmlns="http://www.w3.org/2000/svg" xmlns:xlink="http://www.w3.org/1999/xlink">
    <!-- Generator: Sketch 49.3 (51167) - http://www.bohemiancoding.com/sketch -->
    <title>Type_tracking4</title>
    <desc>Created with Sketch.</desc>
    <defs></defs>
    <g id="Sketches" stroke="none" stroke-width="1" fill="none" fill-rule="evenodd">
        <g id="Type_tracking4">
            <path d="M4.78,12.66 L8.44,12.66 C8.9800027,12.66 9.4999975,12.6200004 10,12.54 C10.5000025,12.4599996 10.9399981,12.3050011 11.32,12.075 C11.7000019,11.8449989 12.0049989,11.5200021 12.235,11.1 C12.4650011,10.6799979 12.58,10.1300034 12.58,9.45 C12.58,8.7699966 12.4650011,8.2200021 12.235,7.8 C12.0049989,7.3799979 11.7000019,7.05500115 11.32,6.825 C10.9399981,6.59499885 10.5000025,6.4400004 10,6.36 C9.4999975,6.2799996 8.9800027,6.24 8.44,6.24 L4.78,6.24 L4.78,12.66 Z M0.07,2.58 L9.73,2.58 C11.0700067,2.58 12.2099953,2.77499805 13.15,3.165 C14.0900047,3.55500195 14.854997,4.0699968 15.445,4.71 C16.0350029,5.3500032 16.4649986,6.0799959 16.735,6.9 C17.0050014,7.7200041 17.14,8.5699956 17.14,9.45 C17.14,10.3100043 17.0050014,11.1549958 16.735,11.985 C16.4649986,12.8150041 16.0350029,13.5499968 15.445,14.19 C14.854997,14.8300032 14.0900047,15.344998 13.15,15.735 C12.2099953,16.1250019 11.0700067,16.32 9.73,16.32 L4.78,16.32 L4.78,24 L0.07,24 L0.07,2.58 Z M23.41,16.26 C23.41,16.8800031 23.4699994,17.484997 23.59,18.075 C23.7100006,18.665003 23.9149985,19.1949977 24.205,19.665 C24.4950015,20.1350023 24.8799976,20.5099986 25.36,20.79 C25.8400024,21.0700014 26.4399964,21.21 27.16,21.21 C27.8800036,21.21 28.4849976,21.0700014 28.975,20.79 C29.4650024,20.5099986 29.8549986,20.1350023 30.145,19.665 C30.4350014,19.1949977 30.6399994,18.665003 30.76,18.075 C30.8800006,17.484997 30.94,16.8800031 30.94,16.26 C30.94,15.6399969 30.8800006,15.030003 30.76,14.43 C30.6399994,13.829997 30.4350014,13.3000023 30.145,12.84 C29.8549986,12.3799977 29.4650024,12.0050014 28.975,11.715 C28.4849976,11.4249986 27.8800036,11.28 27.16,11.28 C26.4399964,11.28 25.8400024,11.4249986 25.36,11.715 C24.8799976,12.0050014 24.4950015,12.3799977 24.205,12.84 C23.9149985,13.3000023 23.7100006,13.829997 23.59,14.43 C23.4699994,15.030003 23.41,15.6399969 23.41,16.26 Z M19.15,16.26 C19.15,15.0199938 19.3399981,13.895005 19.72,12.885 C20.1000019,11.874995 20.6399965,11.0150036 21.34,10.305 C22.0400035,9.59499645 22.8799951,9.04500195 23.86,8.655 C24.8400049,8.26499805 25.9399939,8.07 27.16,8.07 C28.3800061,8.07 29.4849951,8.26499805 30.475,8.655 C31.4650049,9.04500195 32.3099965,9.59499645 33.01,10.305 C33.7100035,11.0150036 34.2499981,11.874995 34.63,12.885 C35.0100019,13.895005 35.2,15.0199938 35.2,16.26 C35.2,17.5000062 35.0100019,18.619995 34.63,19.62 C34.2499981,20.620005 33.7100035,21.4749965 33.01,22.185 C32.3099965,22.8950036 31.4650049,23.4399981 30.475,23.82 C29.4849951,24.2000019 28.3800061,24.39 27.16,24.39 C25.9399939,24.39 24.8400049,24.2000019 23.86,23.82 C22.8799951,23.4399981 22.0400035,22.8950036 21.34,22.185 C20.6399965,21.4749965 20.1000019,20.620005 19.72,19.62 C19.3399981,18.619995 19.15,17.5000062 19.15,16.26 Z M45.79,21.21 C46.4900035,21.21 47.0749977,21.0700014 47.545,20.79 C48.0150024,20.5099986 48.3949986,20.1450022 48.685,19.695 C48.9750014,19.2449978 49.1799994,18.720003 49.3,18.12 C49.4200006,17.519997 49.48,16.9100031 49.48,16.29 C49.48,15.6699969 49.4150007,15.060003 49.285,14.46 C49.1549994,13.859997 48.9400015,13.3250023 48.64,12.855 C48.3399985,12.3849977 47.9550023,12.0050014 47.485,11.715 C47.0149976,11.4249986 46.4400034,11.28 45.76,11.28 C45.0599965,11.28 44.4750024,11.4249986 44.005,11.715 C43.5349977,12.0050014 43.1550014,12.3799977 42.865,12.84 C42.5749985,13.3000023 42.3700006,13.829997 42.25,14.43 C42.1299994,15.030003 42.07,15.6499968 42.07,16.29 C42.07,16.9100031 42.1349993,17.519997 42.265,18.12 C42.3950006,18.720003 42.6049986,19.2449978 42.895,19.695 C43.1850014,20.1450022 43.5699976,20.5099986 44.05,20.79 C44.5300024,21.0700014 45.1099966,21.21 45.79,21.21 Z M37.96,8.49 L42.01,8.49 L42.01,10.47 L42.07,10.47 C42.5900026,9.6299958 43.249996,9.0200019 44.05,8.64 C44.850004,8.2599981 45.7299952,8.07 46.69,8.07 C47.9100061,8.07 48.9599956,8.2999977 49.84,8.76 C50.7200044,9.2200023 51.4499971,9.8299962 52.03,10.59 C52.6100029,11.3500038 53.0399986,12.2349949 53.32,13.245 C53.6000014,14.255005 53.74,15.3099945 53.74,16.41 C53.74,17.4500052 53.6000014,18.4499952 53.32,19.41 C53.0399986,20.3700048 52.6150028,21.2199963 52.045,21.96 C51.4749971,22.7000037 50.7650042,23.2899978 49.915,23.73 C49.0649957,24.1700022 48.0700057,24.39 46.93,24.39 C45.9699952,24.39 45.085004,24.195002 44.275,23.805 C43.464996,23.4149981 42.8000026,22.8400038 42.28,22.08 L42.22,22.08 L42.22,29.43 L37.96,29.43 L37.96,8.49 Z M70.84,24 L66.79,24 L66.79,21.84 L66.7,21.84 C66.1599973,22.7400045 65.4600043,23.389998 64.6,23.79 C63.7399957,24.190002 62.8600045,24.39 61.96,24.39 C60.8199943,24.39 59.8850036,24.2400015 59.155,23.94 C58.4249963,23.6399985 57.8500021,23.2150028 57.43,22.665 C57.0099979,22.1149973 56.7150009,21.4450039 56.545,20.655 C56.3749991,19.8649961 56.29,18.9900048 56.29,18.03 L56.29,8.49 L60.55,8.49 L60.55,17.25 C60.55,18.5300064 60.749998,19.4849968 61.15,20.115 C61.550002,20.7450032 62.2599949,21.06 63.28,21.06 C64.4400058,21.06 65.2799974,20.7150035 65.8,20.025 C66.3200026,19.3349966 66.58,18.2000079 66.58,16.62 L66.58,8.49 L70.84,8.49 L70.84,24 Z M74.2,2.58 L78.46,2.58 L78.46,24 L74.2,24 L74.2,2.58 Z M83.71,2.58 L87.76,2.58 L87.76,6.09 L83.71,6.09 L83.71,2.58 Z M89.89,2.58 L93.94,2.58 L93.94,6.09 L89.89,6.09 L89.89,2.58 Z M81.64,13.26 C81.7000003,12.259995 81.9499978,11.4300033 82.39,10.77 C82.8300022,10.1099967 83.3899966,9.580002 84.07,9.18 C84.7500034,8.779998 85.5149957,8.49500085 86.365,8.325 C87.2150042,8.15499915 88.0699957,8.07 88.93,8.07 C89.7100039,8.07 90.499996,8.12499945 91.3,8.235 C92.100004,8.34500055 92.8299967,8.5599984 93.49,8.88 C94.1500033,9.2000016 94.6899979,9.64499715 95.11,10.215 C95.5300021,10.7850029 95.74,11.5399953 95.74,12.48 L95.74,20.55 C95.74,21.2500035 95.7799996,21.9199968 95.86,22.56 C95.9400004,23.2000032 96.079999,23.6799984 96.28,24 L91.96,24 C91.8799996,23.7599988 91.8150002,23.5150012 91.765,23.265 C91.7149998,23.0149987 91.6800001,22.7600013 91.66,22.5 C90.9799966,23.2000035 90.1800046,23.6899986 89.26,23.97 C88.3399954,24.2500014 87.4000048,24.39 86.44,24.39 C85.6999963,24.39 85.0100032,24.3000009 84.37,24.12 C83.7299968,23.9399991 83.1700024,23.6600019 82.69,23.28 C82.2099976,22.8999981 81.8350014,22.4200029 81.565,21.84 C81.2949986,21.2599971 81.16,20.570004 81.16,19.77 C81.16,18.8899956 81.3149984,18.1650028 81.625,17.595 C81.9350016,17.0249972 82.3349975,16.5700017 82.825,16.23 C83.3150025,15.8899983 83.8749968,15.6350008 84.505,15.465 C85.1350031,15.2949991 85.7699968,15.1600005 86.41,15.06 C87.0500032,14.9599995 87.6799969,14.8800003 88.3,14.82 C88.9200031,14.7599997 89.4699976,14.6700006 89.95,14.55 C90.4300024,14.4299994 90.8099986,14.2550011 91.09,14.025 C91.3700014,13.7949988 91.5000001,13.4600022 91.48,13.02 C91.48,12.5599977 91.4050007,12.1950013 91.255,11.925 C91.1049993,11.6549986 90.9050013,11.4450007 90.655,11.295 C90.4049988,11.1449993 90.1150016,11.0450003 89.785,10.995 C89.4549984,10.9449998 89.1000019,10.92 88.72,10.92 C87.8799958,10.92 87.2200024,11.0999982 86.74,11.46 C86.2599976,11.8200018 85.9800004,12.4199958 85.9,13.26 L81.64,13.26 Z M91.48,16.41 C91.2999991,16.5700008 91.0750014,16.6949995 90.805,16.785 C90.5349986,16.8750004 90.2450015,16.9499997 89.935,17.01 C89.6249985,17.0700003 89.3000017,17.1199998 88.96,17.16 C88.6199983,17.2000002 88.2800017,17.2499997 87.94,17.31 C87.6199984,17.3700003 87.3050016,17.4499995 86.995,17.55 C86.6849985,17.6500005 86.4150011,17.7849992 86.185,17.955 C85.9549989,18.1250009 85.7700007,18.3399987 85.63,18.6 C85.4899993,18.8600013 85.42,19.189998 85.42,19.59 C85.42,19.9700019 85.4899993,20.2899987 85.63,20.55 C85.7700007,20.8100013 85.9599988,21.0149993 86.2,21.165 C86.4400012,21.3150007 86.7199984,21.4199997 87.04,21.48 C87.3600016,21.5400003 87.6899983,21.57 88.03,21.57 C88.8700042,21.57 89.5199977,21.4300014 89.98,21.15 C90.4400023,20.8699986 90.7799989,20.535002 91,20.145 C91.2200011,19.754998 91.3549998,19.360002 91.405,18.96 C91.4550003,18.559998 91.48,18.2400012 91.48,18 L91.48,16.41 Z M99.04,8.49 L103.09,8.49 L103.09,11.37 L103.15,11.37 C103.350001,10.8899976 103.619998,10.445002 103.96,10.035 C104.300002,9.62499795 104.689998,9.27500145 105.13,8.985 C105.570002,8.69499855 106.039998,8.4700008 106.54,8.31 C107.040002,8.1499992 107.559997,8.07 108.1,8.07 C108.380001,8.07 108.689998,8.1199995 109.03,8.22 L109.03,12.18 C108.829999,12.1399998 108.590001,12.1050001 108.31,12.075 C108.029999,12.0449998 107.760001,12.03 107.5,12.03 C106.719996,12.03 106.060003,12.1599987 105.52,12.42 C104.979997,12.6800013 104.545002,13.0349978 104.215,13.485 C103.884998,13.9350022 103.650001,14.459997 103.51,15.06 C103.369999,15.660003 103.3,16.3099965 103.3,17.01 L103.3,24 L99.04,24 L99.04,8.49 Z M110.53,13.26 C110.59,12.259995 110.839998,11.4300033 111.28,10.77 C111.720002,10.1099967 112.279997,9.580002 112.96,9.18 C113.640003,8.779998 114.404996,8.49500085 115.255,8.325 C116.105004,8.15499915 116.959996,8.07 117.82,8.07 C118.600004,8.07 119.389996,8.12499945 120.19,8.235 C120.990004,8.34500055 121.719997,8.5599984 122.38,8.88 C123.040003,9.2000016 123.579998,9.64499715 124,10.215 C124.420002,10.7850029 124.63,11.5399953 124.63,12.48 L124.63,20.55 C124.63,21.2500035 124.67,21.9199968 124.75,22.56 C124.83,23.2000032 124.969999,23.6799984 125.17,24 L120.85,24 C120.77,23.7599988 120.705,23.5150012 120.655,23.265 C120.605,23.0149987 120.57,22.7600013 120.55,22.5 C119.869997,23.2000035 119.070005,23.6899986 118.15,23.97 C117.229995,24.2500014 116.290005,24.39 115.33,24.39 C114.589996,24.39 113.900003,24.3000009 113.26,24.12 C112.619997,23.9399991 112.060002,23.6600019 111.58,23.28 C111.099998,22.8999981 110.725001,22.4200029 110.455,21.84 C110.184999,21.2599971 110.05,20.570004 110.05,19.77 C110.05,18.8899956 110.204998,18.1650028 110.515,17.595 C110.825002,17.0249972 111.224998,16.5700017 111.715,16.23 C112.205002,15.8899983 112.764997,15.6350008 113.395,15.465 C114.025003,15.2949991 114.659997,15.1600005 115.3,15.06 C115.940003,14.9599995 116.569997,14.8800003 117.19,14.82 C117.810003,14.7599997 118.359998,14.6700006 118.84,14.55 C119.320002,14.4299994 119.699999,14.2550011 119.98,14.025 C120.260001,13.7949988 120.39,13.4600022 120.37,13.02 C120.37,12.5599977 120.295001,12.1950013 120.145,11.925 C119.994999,11.6549986 119.795001,11.4450007 119.545,11.295 C119.294999,11.1449993 119.005002,11.0450003 118.675,10.995 C118.344998,10.9449998 117.990002,10.92 117.61,10.92 C116.769996,10.92 116.110002,11.0999982 115.63,11.46 C115.149998,11.8200018 114.87,12.4199958 114.79,13.26 L110.53,13.26 Z M120.37,16.41 C120.189999,16.5700008 119.965001,16.6949995 119.695,16.785 C119.424999,16.8750004 119.135002,16.9499997 118.825,17.01 C118.514998,17.0700003 118.190002,17.1199998 117.85,17.16 C117.509998,17.2000002 117.170002,17.2499997 116.83,17.31 C116.509998,17.3700003 116.195002,17.4499995 115.885,17.55 C115.574998,17.6500005 115.305001,17.7849992 115.075,17.955 C114.844999,18.1250009 114.660001,18.3399987 114.52,18.6 C114.379999,18.8600013 114.31,19.189998 114.31,19.59 C114.31,19.9700019 114.379999,20.2899987 114.52,20.55 C114.660001,20.8100013 114.849999,21.0149993 115.09,21.165 C115.330001,21.3150007 115.609998,21.4199997 115.93,21.48 C116.250002,21.5400003 116.579998,21.57 116.92,21.57 C117.760004,21.57 118.409998,21.4300014 118.87,21.15 C119.330002,20.8699986 119.669999,20.535002 119.89,20.145 C120.110001,19.754998 120.245,19.360002 120.295,18.96 C120.345,18.559998 120.37,18.2400012 120.37,18 L120.37,16.41 Z M144.1,21.21 C144.800004,21.21 145.384998,21.0700014 145.855,20.79 C146.325002,20.5099986 146.704999,20.1450022 146.995,19.695 C147.285001,19.2449978 147.489999,18.720003 147.61,18.12 C147.730001,17.519997 147.79,16.9100031 147.79,16.29 C147.79,15.6699969 147.725001,15.060003 147.595,14.46 C147.464999,13.859997 147.250001,13.3250023 146.95,12.855 C146.649999,12.3849977 146.265002,12.0050014 145.795,11.715 C145.324998,11.4249986 144.750003,11.28 144.07,11.28 C143.369996,11.28 142.785002,11.4249986 142.315,11.715 C141.844998,12.0050014 141.465001,12.3799977 141.175,12.84 C140.884999,13.3000023 140.680001,13.829997 140.56,14.43 C140.439999,15.030003 140.38,15.6499968 140.38,16.29 C140.38,16.9100031 140.444999,17.519997 140.575,18.12 C140.705001,18.720003 140.914999,19.2449978 141.205,19.695 C141.495001,20.1450022 141.879998,20.5099986 142.36,20.79 C142.840002,21.0700014 143.419997,21.21 144.1,21.21 Z M136.27,8.49 L140.32,8.49 L140.32,10.47 L140.38,10.47 C140.900003,9.6299958 141.559996,9.0200019 142.36,8.64 C143.160004,8.2599981 144.039995,8.07 145,8.07 C146.220006,8.07 147.269996,8.2999977 148.15,8.76 C149.030004,9.2200023 149.759997,9.8299962 150.34,10.59 C150.920003,11.3500038 151.349999,12.2349949 151.63,13.245 C151.910001,14.255005 152.05,15.3099945 152.05,16.41 C152.05,17.4500052 151.910001,18.4499952 151.63,19.41 C151.349999,20.3700048 150.925003,21.2199963 150.355,21.96 C149.784997,22.7000037 149.075004,23.2899978 148.225,23.73 C147.374996,24.1700022 146.380006,24.39 145.24,24.39 C144.279995,24.39 143.395004,24.195002 142.585,23.805 C141.774996,23.4149981 141.110003,22.8400038 140.59,22.08 L140.53,22.08 L140.53,29.43 L136.27,29.43 L136.27,8.49 Z M154.6,8.49 L158.65,8.49 L158.65,11.37 L158.71,11.37 C158.910001,10.8899976 159.179998,10.445002 159.52,10.035 C159.860002,9.62499795 160.249998,9.27500145 160.69,8.985 C161.130002,8.69499855 161.599998,8.4700008 162.1,8.31 C162.600003,8.1499992 163.119997,8.07 163.66,8.07 C163.940001,8.07 164.249998,8.1199995 164.59,8.22 L164.59,12.18 C164.389999,12.1399998 164.150001,12.1050001 163.87,12.075 C163.589999,12.0449998 163.320001,12.03 163.06,12.03 C162.279996,12.03 161.620003,12.1599987 161.08,12.42 C160.539997,12.6800013 160.105002,13.0349978 159.775,13.485 C159.444998,13.9350022 159.210001,14.459997 159.07,15.06 C158.929999,15.660003 158.86,16.3099965 158.86,17.01 L158.86,24 L154.6,24 L154.6,8.49 Z M170.05,16.26 C170.05,16.8800031 170.109999,17.484997 170.23,18.075 C170.350001,18.665003 170.554999,19.1949977 170.845,19.665 C171.135001,20.1350023 171.519998,20.5099986 172,20.79 C172.480002,21.0700014 173.079996,21.21 173.8,21.21 C174.520004,21.21 175.124998,21.0700014 175.615,20.79 C176.105002,20.5099986 176.494999,20.1350023 176.785,19.665 C177.075001,19.1949977 177.279999,18.665003 177.4,18.075 C177.520001,17.484997 177.58,16.8800031 177.58,16.26 C177.58,15.6399969 177.520001,15.030003 177.4,14.43 C177.279999,13.829997 177.075001,13.3000023 176.785,12.84 C176.494999,12.3799977 176.105002,12.0050014 175.615,11.715 C175.124998,11.4249986 174.520004,11.28 173.8,11.28 C173.079996,11.28 172.480002,11.4249986 172,11.715 C171.519998,12.0050014 171.135001,12.3799977 170.845,12.84 C170.554999,13.3000023 170.350001,13.829997 170.23,14.43 C170.109999,15.030003 170.05,15.6399969 170.05,16.26 Z M165.79,16.26 C165.79,15.0199938 165.979998,13.895005 166.36,12.885 C166.740002,11.874995 167.279997,11.0150036 167.98,10.305 C168.680003,9.59499645 169.519995,9.04500195 170.5,8.655 C171.480005,8.26499805 172.579994,8.07 173.8,8.07 C175.020006,8.07 176.124995,8.26499805 177.115,8.655 C178.105005,9.04500195 178.949996,9.59499645 179.65,10.305 C180.350003,11.0150036 180.889998,11.874995 181.27,12.885 C181.650002,13.895005 181.84,15.0199938 181.84,16.26 C181.84,17.5000062 181.650002,18.619995 181.27,19.62 C180.889998,20.620005 180.350003,21.4749965 179.65,22.185 C178.949996,22.8950036 178.105005,23.4399981 177.115,23.82 C176.124995,24.2000019 175.020006,24.39 173.8,24.39 C172.579994,24.39 171.480005,24.2000019 170.5,23.82 C169.519995,23.4399981 168.680003,22.8950036 167.98,22.185 C167.279997,21.4749965 166.740002,20.620005 166.36,19.62 C165.979998,18.619995 165.79,17.5000062 165.79,16.26 Z M195.61,16.2 C195.61,15.5599968 195.550001,14.9450029 195.43,14.355 C195.309999,13.7649971 195.105001,13.2450023 194.815,12.795 C194.524999,12.3449977 194.150002,11.9800014 193.69,11.7 C193.229998,11.4199986 192.650003,11.28 191.95,11.28 C191.249996,11.28 190.660002,11.4199986 190.18,11.7 C189.699998,11.9800014 189.315001,12.3499977 189.025,12.81 C188.734999,13.2700023 188.525001,13.794997 188.395,14.385 C188.264999,14.975003 188.2,15.5899968 188.2,16.23 C188.2,16.830003 188.269999,17.429997 188.41,18.03 C188.550001,18.630003 188.774998,19.1649976 189.085,19.635 C189.395002,20.1050024 189.784998,20.4849986 190.255,20.775 C190.725002,21.0650015 191.289997,21.21 191.95,21.21 C192.650003,21.21 193.234998,21.0700014 193.705,20.79 C194.175002,20.5099986 194.549999,20.1350023 194.83,19.665 C195.110001,19.1949977 195.309999,18.660003 195.43,18.06 C195.550001,17.459997 195.61,16.8400032 195.61,16.2 Z M195.67,22.02 L195.61,22.02 C195.109997,22.8600042 194.455004,23.4649982 193.645,23.835 C192.834996,24.2050018 191.920005,24.39 190.9,24.39 C189.739994,24.39 188.720004,24.1650022 187.84,23.715 C186.959996,23.2649978 186.235003,22.6550038 185.665,21.885 C185.094997,21.1149962 184.665001,20.230005 184.375,19.23 C184.084999,18.229995 183.94,17.1900054 183.94,16.11 C183.94,15.0699948 184.084999,14.0650049 184.375,13.095 C184.665001,12.1249951 185.094997,11.2700037 185.665,10.53 C186.235003,9.7899963 186.949996,9.19500225 187.81,8.745 C188.670004,8.29499775 189.669994,8.07 190.81,8.07 C191.730005,8.07 192.604996,8.26499805 193.435,8.655 C194.265004,9.04500195 194.919998,9.6199962 195.4,10.38 L195.46,10.38 L195.46,2.58 L199.72,2.58 L199.72,24 L195.67,24 L195.67,22.02 Z M217.48,24 L213.43,24 L213.43,21.84 L213.34,21.84 C212.799997,22.7400045 212.100004,23.389998 211.24,23.79 C210.379996,24.190002 209.500004,24.39 208.6,24.39 C207.459994,24.39 206.525004,24.2400015 205.795,23.94 C205.064996,23.6399985 204.490002,23.2150028 204.07,22.665 C203.649998,22.1149973 203.355001,21.4450039 203.185,20.655 C203.014999,19.8649961 202.93,18.9900048 202.93,18.03 L202.93,8.49 L207.19,8.49 L207.19,17.25 C207.19,18.5300064 207.389998,19.4849968 207.79,20.115 C208.190002,20.7450032 208.899995,21.06 209.92,21.06 C211.080006,21.06 211.919997,20.7150035 212.44,20.025 C212.960003,19.3349966 213.22,18.2000079 213.22,16.62 L213.22,8.49 L217.48,8.49 L217.48,24 Z M221.11,2.58 L225.37,2.58 L225.37,14.07 L230.74,8.49 L235.78,8.49 L229.93,14.19 L236.44,24 L231.28,24 L227.02,17.07 L225.37,18.66 L225.37,24 L221.11,24 L221.11,2.58 Z M243.34,8.49 L246.46,8.49 L246.46,11.34 L243.34,11.34 L243.34,19.02 C243.34,19.7400036 243.459999,20.2199988 243.7,20.46 C243.940001,20.7000012 244.419996,20.82 245.14,20.82 C245.380001,20.82 245.609999,20.8100001 245.83,20.79 C246.050001,20.7699999 246.259999,20.7400002 246.46,20.7 L246.46,24 C246.099998,24.0600003 245.700002,24.0999999 245.26,24.12 C244.819998,24.1400001 244.390002,24.15 243.97,24.15 C243.309997,24.15 242.685003,24.1050004 242.095,24.015 C241.504997,23.9249995 240.985002,23.7500013 240.535,23.49 C240.084998,23.2299987 239.730001,22.8600024 239.47,22.38 C239.209999,21.8999976 239.08,21.2700039 239.08,20.49 L239.08,11.34 L236.5,11.34 L236.5,8.49 L239.08,8.49 L239.08,3.84 L243.34,3.84 L243.34,8.49 Z M258.94,14.58 C258.739999,13.4999946 258.385003,12.6800028 257.875,12.12 C257.364997,11.5599972 256.590005,11.28 255.55,11.28 C254.869997,11.28 254.305002,11.3949988 253.855,11.625 C253.404998,11.8550012 253.045001,12.1399983 252.775,12.48 C252.504999,12.8200017 252.315001,13.1799981 252.205,13.56 C252.094999,13.9400019 252.03,14.2799985 252.01,14.58 L258.94,14.58 Z M252.01,17.28 C252.07,18.6600069 252.419997,19.6599969 253.06,20.28 C253.700003,20.9000031 254.619994,21.21 255.82,21.21 C256.680004,21.21 257.419997,20.9950021 258.04,20.565 C258.660003,20.1349979 259.039999,19.6800024 259.18,19.2 L262.93,19.2 C262.329997,21.0600093 261.410006,22.389996 260.17,23.19 C258.929994,23.990004 257.430009,24.39 255.67,24.39 C254.449994,24.39 253.350005,24.195002 252.37,23.805 C251.389995,23.4149981 250.560003,22.8600036 249.88,22.14 C249.199997,21.4199964 248.675002,20.560005 248.305,19.56 C247.934998,18.559995 247.75,17.460006 247.75,16.26 C247.75,15.0999942 247.939998,14.020005 248.32,13.02 C248.700002,12.019995 249.239997,11.1550036 249.94,10.425 C250.640003,9.69499635 251.474995,9.1200021 252.445,8.7 C253.415005,8.2799979 254.489994,8.07 255.67,8.07 C256.990007,8.07 258.139995,8.32499745 259.12,8.835 C260.100005,9.34500255 260.904997,10.0299957 261.535,10.89 C262.165003,11.7500043 262.619999,12.7299945 262.9,13.83 C263.180001,14.9300055 263.28,16.079994 263.2,17.28 L252.01,17.28 Z M265.72,8.49 L269.77,8.49 L269.77,11.37 L269.83,11.37 C270.030001,10.8899976 270.299998,10.445002 270.64,10.035 C270.980002,9.62499795 271.369998,9.27500145 271.81,8.985 C272.250002,8.69499855 272.719998,8.4700008 273.22,8.31 C273.720003,8.1499992 274.239997,8.07 274.78,8.07 C275.060001,8.07 275.369998,8.1199995 275.71,8.22 L275.71,12.18 C275.509999,12.1399998 275.270001,12.1050001 274.99,12.075 C274.709999,12.0449998 274.440001,12.03 274.18,12.03 C273.399996,12.03 272.740003,12.1599987 272.2,12.42 C271.659997,12.6800013 271.225002,13.0349978 270.895,13.485 C270.564998,13.9350022 270.330001,14.459997 270.19,15.06 C270.049999,15.660003 269.98,16.3099965 269.98,17.01 L269.98,24 L265.72,24 L265.72,8.49 Z M277.57,19.38 L282.28,19.38 L282.28,24 L277.57,24 L277.57,19.38 Z" id="Populära-produkter." fill="#191611" opacity="0.200000003"></path>
            <path d="M4.78,48.66 L8.44,48.66 C8.9800027,48.66 9.4999975,48.6200004 10,48.54 C10.5000025,48.4599996 10.9399981,48.3050011 11.32,48.075 C11.7000019,47.8449989 12.0049989,47.5200021 12.235,47.1 C12.4650011,46.6799979 12.58,46.1300034 12.58,45.45 C12.58,44.7699966 12.4650011,44.2200021 12.235,43.8 C12.0049989,43.3799979 11.7000019,43.0550011 11.32,42.825 C10.9399981,42.5949989 10.5000025,42.4400004 10,42.36 C9.4999975,42.2799996 8.9800027,42.24 8.44,42.24 L4.78,42.24 L4.78,48.66 Z M0.07,38.58 L9.73,38.58 C11.0700067,38.58 12.2099953,38.774998 13.15,39.165 C14.0900047,39.555002 14.854997,40.0699968 15.445,40.71 C16.0350029,41.3500032 16.4649986,42.0799959 16.735,42.9 C17.0050014,43.7200041 17.14,44.5699956 17.14,45.45 C17.14,46.3100043 17.0050014,47.1549958 16.735,47.985 C16.4649986,48.8150041 16.0350029,49.5499968 15.445,50.19 C14.854997,50.8300032 14.0900047,51.344998 13.15,51.735 C12.2099953,52.1250019 11.0700067,52.32 9.73,52.32 L4.78,52.32 L4.78,60 L0.07,60 L0.07,38.58 Z M22.81,52.26 C22.81,52.8800031 22.8699994,53.484997 22.99,54.075 C23.1100006,54.665003 23.3149985,55.1949977 23.605,55.665 C23.8950014,56.1350023 24.2799976,56.5099986 24.76,56.79 C25.2400024,57.0700014 25.8399964,57.21 26.56,57.21 C27.2800036,57.21 27.8849975,57.0700014 28.375,56.79 C28.8650024,56.5099986 29.2549985,56.1350023 29.545,55.665 C29.8350014,55.1949977 30.0399994,54.665003 30.16,54.075 C30.2800006,53.484997 30.34,52.8800031 30.34,52.26 C30.34,51.6399969 30.2800006,51.030003 30.16,50.43 C30.0399994,49.829997 29.8350014,49.3000023 29.545,48.84 C29.2549985,48.3799977 28.8650024,48.0050014 28.375,47.715 C27.8849975,47.4249986 27.2800036,47.28 26.56,47.28 C25.8399964,47.28 25.2400024,47.4249986 24.76,47.715 C24.2799976,48.0050014 23.8950014,48.3799977 23.605,48.84 C23.3149985,49.3000023 23.1100006,49.829997 22.99,50.43 C22.8699994,51.030003 22.81,51.6399969 22.81,52.26 Z M18.55,52.26 C18.55,51.0199938 18.7399981,49.895005 19.12,48.885 C19.5000019,47.874995 20.0399965,47.0150036 20.74,46.305 C21.4400035,45.5949965 22.2799951,45.0450019 23.26,44.655 C24.2400049,44.2649981 25.3399939,44.07 26.56,44.07 C27.7800061,44.07 28.884995,44.2649981 29.875,44.655 C30.8650049,45.0450019 31.7099965,45.5949965 32.41,46.305 C33.1100035,47.0150036 33.6499981,47.874995 34.03,48.885 C34.4100019,49.895005 34.6,51.0199938 34.6,52.26 C34.6,53.5000062 34.4100019,54.619995 34.03,55.62 C33.6499981,56.620005 33.1100035,57.4749965 32.41,58.185 C31.7099965,58.8950036 30.8650049,59.4399981 29.875,59.82 C28.884995,60.2000019 27.7800061,60.39 26.56,60.39 C25.3399939,60.39 24.2400049,60.2000019 23.26,59.82 C22.2799951,59.4399981 21.4400035,58.8950036 20.74,58.185 C20.0399965,57.4749965 19.5000019,56.620005 19.12,55.62 C18.7399981,54.619995 18.55,53.5000062 18.55,52.26 Z M44.59,57.21 C45.2900035,57.21 45.8749976,57.0700014 46.345,56.79 C46.8150023,56.5099986 47.1949985,56.1450022 47.485,55.695 C47.7750014,55.2449978 47.9799994,54.720003 48.1,54.12 C48.2200006,53.519997 48.28,52.9100031 48.28,52.29 C48.28,51.6699969 48.2150006,51.060003 48.085,50.46 C47.9549993,49.859997 47.7400015,49.3250023 47.44,48.855 C47.1399985,48.3849977 46.7550023,48.0050014 46.285,47.715 C45.8149976,47.4249986 45.2400034,47.28 44.56,47.28 C43.8599965,47.28 43.2750023,47.4249986 42.805,47.715 C42.3349976,48.0050014 41.9550014,48.3799977 41.665,48.84 C41.3749985,49.3000023 41.1700006,49.829997 41.05,50.43 C40.9299994,51.030003 40.87,51.6499968 40.87,52.29 C40.87,52.9100031 40.9349993,53.519997 41.065,54.12 C41.1950006,54.720003 41.4049985,55.2449978 41.695,55.695 C41.9850014,56.1450022 42.3699976,56.5099986 42.85,56.79 C43.3300024,57.0700014 43.9099966,57.21 44.59,57.21 Z M36.76,44.49 L40.81,44.49 L40.81,46.47 L40.87,46.47 C41.3900026,45.6299958 42.049996,45.0200019 42.85,44.64 C43.650004,44.2599981 44.5299952,44.07 45.49,44.07 C46.7100061,44.07 47.7599956,44.2999977 48.64,44.76 C49.5200044,45.2200023 50.2499971,45.8299962 50.83,46.59 C51.4100029,47.3500038 51.8399986,48.2349949 52.12,49.245 C52.4000014,50.255005 52.54,51.3099945 52.54,52.41 C52.54,53.4500052 52.4000014,54.4499952 52.12,55.41 C51.8399986,56.3700048 51.4150028,57.2199963 50.845,57.96 C50.2749971,58.7000037 49.5650042,59.2899978 48.715,59.73 C47.8649957,60.1700022 46.8700057,60.39 45.73,60.39 C44.7699952,60.39 43.885004,60.195002 43.075,59.805 C42.2649959,59.4149981 41.6000026,58.8400038 41.08,58.08 L41.02,58.08 L41.02,65.43 L36.76,65.43 L36.76,44.49 Z M69.0399999,60 L64.9899999,60 L64.9899999,57.84 L64.8999999,57.84 C64.3599972,58.7400045 63.6600042,59.389998 62.7999999,59.79 C61.9399956,60.190002 61.0600044,60.39 60.1599999,60.39 C59.0199942,60.39 58.0850036,60.2400015 57.3549999,59.94 C56.6249963,59.6399985 56.050002,59.2150028 55.6299999,58.665 C55.2099978,58.1149973 54.9150008,57.4450039 54.7449999,56.655 C54.5749991,55.8649961 54.4899999,54.9900048 54.4899999,54.03 L54.4899999,44.49 L58.7499999,44.49 L58.7499999,53.25 C58.7499999,54.5300064 58.9499979,55.4849968 59.3499999,56.115 C59.7500019,56.7450032 60.4599948,57.06 61.4799999,57.06 C62.6400057,57.06 63.4799973,56.7150035 63.9999999,56.025 C64.5200025,55.3349966 64.7799999,54.2000079 64.7799999,52.62 L64.7799999,44.49 L69.0399999,44.49 L69.0399999,60 Z M71.7999999,38.58 L76.0599999,38.58 L76.0599999,60 L71.7999999,60 L71.7999999,38.58 Z M80.7099999,38.58 L84.7599999,38.58 L84.7599999,42.09 L80.7099999,42.09 L80.7099999,38.58 Z M86.8899999,38.58 L90.9399999,38.58 L90.9399999,42.09 L86.8899999,42.09 L86.8899999,38.58 Z M78.6399999,49.26 C78.7000002,48.259995 78.9499977,47.4300033 79.3899999,46.77 C79.8300021,46.1099967 80.3899965,45.580002 81.0699999,45.18 C81.7500033,44.779998 82.5149956,44.4950008 83.3649999,44.325 C84.2150041,44.1549992 85.0699956,44.07 85.9299999,44.07 C86.7100038,44.07 87.4999959,44.1249994 88.2999999,44.235 C89.1000039,44.3450005 89.8299966,44.5599984 90.4899999,44.88 C91.1500032,45.2000016 91.6899978,45.6449972 92.1099999,46.215 C92.530002,46.7850029 92.7399999,47.5399953 92.7399999,48.48 L92.7399999,56.55 C92.7399999,57.2500035 92.7799995,57.9199968 92.8599999,58.56 C92.9400003,59.2000032 93.0799989,59.6799984 93.2799999,60 L88.9599999,60 C88.8799995,59.7599988 88.8150001,59.5150012 88.7649999,59.265 C88.7149996,59.0149987 88.68,58.7600013 88.6599999,58.5 C87.9799965,59.2000035 87.1800045,59.6899986 86.2599999,59.97 C85.3399953,60.2500014 84.4000047,60.39 83.4399999,60.39 C82.6999962,60.39 82.0100031,60.3000009 81.3699999,60.12 C80.7299967,59.9399991 80.1700023,59.6600019 79.6899999,59.28 C79.2099975,58.8999981 78.8350012,58.4200029 78.5649999,57.84 C78.2949985,57.2599971 78.1599999,56.570004 78.1599999,55.77 C78.1599999,54.8899956 78.3149983,54.1650028 78.6249999,53.595 C78.9350014,53.0249972 79.3349974,52.5700017 79.8249999,52.23 C80.3150023,51.8899983 80.8749967,51.6350008 81.5049999,51.465 C82.135003,51.2949991 82.7699967,51.1600005 83.4099999,51.06 C84.0500031,50.9599995 84.6799968,50.8800003 85.2999999,50.82 C85.920003,50.7599997 86.4699975,50.6700006 86.9499999,50.55 C87.4300023,50.4299994 87.8099985,50.2550011 88.0899999,50.025 C88.3700013,49.7949988 88.5,49.4600022 88.4799999,49.02 C88.4799999,48.5599977 88.4050006,48.1950013 88.2549999,47.925 C88.1049991,47.6549986 87.9050011,47.4450007 87.6549999,47.295 C87.4049986,47.1449993 87.1150015,47.0450003 86.7849999,46.995 C86.4549982,46.9449998 86.1000018,46.92 85.7199999,46.92 C84.8799957,46.92 84.2200023,47.0999982 83.7399999,47.46 C83.2599975,47.8200018 82.9800003,48.4199958 82.8999999,49.26 L78.6399999,49.26 Z M88.4799999,52.41 C88.299999,52.5700008 88.0750012,52.6949995 87.8049999,52.785 C87.5349985,52.8750004 87.2450014,52.9499997 86.9349999,53.01 C86.6249983,53.0700003 86.3000016,53.1199998 85.9599999,53.16 C85.6199982,53.2000002 85.2800016,53.2499997 84.9399999,53.31 C84.6199983,53.3700003 84.3050014,53.4499995 83.9949999,53.55 C83.6849983,53.6500005 83.415001,53.7849992 83.1849999,53.955 C82.9549987,54.1250009 82.7700006,54.3399987 82.6299999,54.6 C82.4899992,54.8600013 82.4199999,55.189998 82.4199999,55.59 C82.4199999,55.9700019 82.4899992,56.2899987 82.6299999,56.55 C82.7700006,56.8100013 82.9599987,57.0149993 83.1999999,57.165 C83.4400011,57.3150007 83.7199983,57.4199997 84.0399999,57.48 C84.3600015,57.5400003 84.6899982,57.57 85.0299999,57.57 C85.8700041,57.57 86.5199976,57.4300014 86.9799999,57.15 C87.4400022,56.8699986 87.7799988,56.535002 87.9999999,56.145 C88.220001,55.754998 88.3549996,55.360002 88.4049999,54.96 C88.4550001,54.559998 88.4799999,54.2400012 88.4799999,54 L88.4799999,52.41 Z M95.4399999,44.49 L99.4899999,44.49 L99.4899999,47.37 L99.5499999,47.37 C99.7500009,46.8899976 100.019998,46.445002 100.36,46.035 C100.700002,45.6249979 101.089998,45.2750015 101.53,44.985 C101.970002,44.6949986 102.439997,44.4700008 102.94,44.31 C103.440002,44.1499992 103.959997,44.07 104.5,44.07 C104.780001,44.07 105.089998,44.1199995 105.43,44.22 L105.43,48.18 C105.229999,48.1399998 104.990001,48.1050001 104.71,48.075 C104.429998,48.0449998 104.160001,48.03 103.9,48.03 C103.119996,48.03 102.460003,48.1599987 101.92,48.42 C101.379997,48.6800013 100.945002,49.0349978 100.615,49.485 C100.284998,49.9350022 100.050001,50.459997 99.9099999,51.06 C99.7699992,51.660003 99.6999999,52.3099965 99.6999999,53.01 L99.6999999,60 L95.4399999,60 L95.4399999,44.49 Z M106.33,49.26 C106.39,48.259995 106.639998,47.4300033 107.08,46.77 C107.520002,46.1099967 108.079996,45.580002 108.76,45.18 C109.440003,44.779998 110.204996,44.4950008 111.055,44.325 C111.905004,44.1549992 112.759996,44.07 113.62,44.07 C114.400004,44.07 115.189996,44.1249994 115.99,44.235 C116.790004,44.3450005 117.519997,44.5599984 118.18,44.88 C118.840003,45.2000016 119.379998,45.6449972 119.8,46.215 C120.220002,46.7850029 120.43,47.5399953 120.43,48.48 L120.43,56.55 C120.43,57.2500035 120.469999,57.9199968 120.55,58.56 C120.63,59.2000032 120.769999,59.6799984 120.97,60 L116.65,60 C116.569999,59.7599988 116.505,59.5150012 116.455,59.265 C116.405,59.0149987 116.37,58.7600013 116.35,58.5 C115.669996,59.2000035 114.870004,59.6899986 113.95,59.97 C113.029995,60.2500014 112.090005,60.39 111.13,60.39 C110.389996,60.39 109.700003,60.3000009 109.06,60.12 C108.419997,59.9399991 107.860002,59.6600019 107.38,59.28 C106.899997,58.8999981 106.525001,58.4200029 106.255,57.84 C105.984998,57.2599971 105.85,56.570004 105.85,55.77 C105.85,54.8899956 106.004998,54.1650028 106.315,53.595 C106.625001,53.0249972 107.024997,52.5700017 107.515,52.23 C108.005002,51.8899983 108.564997,51.6350008 109.195,51.465 C109.825003,51.2949991 110.459997,51.1600005 111.1,51.06 C111.740003,50.9599995 112.369997,50.8800003 112.99,50.82 C113.610003,50.7599997 114.159997,50.6700006 114.64,50.55 C115.120002,50.4299994 115.499998,50.2550011 115.78,50.025 C116.060001,49.7949988 116.19,49.4600022 116.17,49.02 C116.17,48.5599977 116.095001,48.1950013 115.945,47.925 C115.794999,47.6549986 115.595001,47.4450007 115.345,47.295 C115.094999,47.1449993 114.805001,47.0450003 114.475,46.995 C114.144998,46.9449998 113.790002,46.92 113.41,46.92 C112.569996,46.92 111.910002,47.0999982 111.43,47.46 C110.949997,47.8200018 110.67,48.4199958 110.59,49.26 L106.33,49.26 Z M116.17,52.41 C115.989999,52.5700008 115.765001,52.6949995 115.495,52.785 C115.224998,52.8750004 114.935001,52.9499997 114.625,53.01 C114.314998,53.0700003 113.990002,53.1199998 113.65,53.16 C113.309998,53.2000002 112.970002,53.2499997 112.63,53.31 C112.309998,53.3700003 111.995001,53.4499995 111.685,53.55 C111.374998,53.6500005 111.105001,53.7849992 110.875,53.955 C110.644999,54.1250009 110.460001,54.3399987 110.32,54.6 C110.179999,54.8600013 110.11,55.189998 110.11,55.59 C110.11,55.9700019 110.179999,56.2899987 110.32,56.55 C110.460001,56.8100013 110.649999,57.0149993 110.89,57.165 C111.130001,57.3150007 111.409998,57.4199997 111.73,57.48 C112.050001,57.5400003 112.379998,57.57 112.72,57.57 C113.560004,57.57 114.209998,57.4300014 114.67,57.15 C115.130002,56.8699986 115.469999,56.535002 115.69,56.145 C115.910001,55.754998 116.045,55.360002 116.095,54.96 C116.145,54.559998 116.17,54.2400012 116.17,54 L116.17,52.41 Z M138.7,57.21 C139.400003,57.21 139.984997,57.0700014 140.455,56.79 C140.925002,56.5099986 141.304998,56.1450022 141.595,55.695 C141.885001,55.2449978 142.089999,54.720003 142.21,54.12 C142.33,53.519997 142.39,52.9100031 142.39,52.29 C142.39,51.6699969 142.325,51.060003 142.195,50.46 C142.064999,49.859997 141.850001,49.3250023 141.55,48.855 C141.249998,48.3849977 140.865002,48.0050014 140.395,47.715 C139.924997,47.4249986 139.350003,47.28 138.67,47.28 C137.969996,47.28 137.385002,47.4249986 136.915,47.715 C136.444997,48.0050014 136.065001,48.3799977 135.775,48.84 C135.484998,49.3000023 135.28,49.829997 135.16,50.43 C135.039999,51.030003 134.98,51.6499968 134.98,52.29 C134.98,52.9100031 135.044999,53.519997 135.175,54.12 C135.305,54.720003 135.514998,55.2449978 135.805,55.695 C136.095001,56.1450022 136.479997,56.5099986 136.96,56.79 C137.440002,57.0700014 138.019996,57.21 138.7,57.21 Z M130.87,44.49 L134.92,44.49 L134.92,46.47 L134.98,46.47 C135.500002,45.6299958 136.159996,45.0200019 136.96,44.64 C137.760004,44.2599981 138.639995,44.07 139.6,44.07 C140.820006,44.07 141.869995,44.2999977 142.75,44.76 C143.630004,45.2200023 144.359997,45.8299962 144.94,46.59 C145.520003,47.3500038 145.949998,48.2349949 146.23,49.245 C146.510001,50.255005 146.65,51.3099945 146.65,52.41 C146.65,53.4500052 146.510001,54.4499952 146.23,55.41 C145.949998,56.3700048 145.525003,57.2199963 144.955,57.96 C144.384997,58.7000037 143.675004,59.2899978 142.825,59.73 C141.974996,60.1700022 140.980005,60.39 139.84,60.39 C138.879995,60.39 137.995004,60.195002 137.185,59.805 C136.374996,59.4149981 135.710002,58.8400038 135.19,58.08 L135.13,58.08 L135.13,65.43 L130.87,65.43 L130.87,44.49 Z M148.6,44.49 L152.65,44.49 L152.65,47.37 L152.71,47.37 C152.910001,46.8899976 153.179998,46.445002 153.52,46.035 C153.860001,45.6249979 154.249998,45.2750015 154.69,44.985 C155.130002,44.6949986 155.599997,44.4700008 156.1,44.31 C156.600002,44.1499992 157.119997,44.07 157.66,44.07 C157.940001,44.07 158.249998,44.1199995 158.59,44.22 L158.59,48.18 C158.389999,48.1399998 158.150001,48.1050001 157.87,48.075 C157.589998,48.0449998 157.320001,48.03 157.06,48.03 C156.279996,48.03 155.620002,48.1599987 155.08,48.42 C154.539997,48.6800013 154.105001,49.0349978 153.775,49.485 C153.444998,49.9350022 153.21,50.459997 153.07,51.06 C152.929999,51.660003 152.86,52.3099965 152.86,53.01 L152.86,60 L148.6,60 L148.6,44.49 Z M162.91,52.26 C162.91,52.8800031 162.969999,53.484997 163.09,54.075 C163.21,54.665003 163.414998,55.1949977 163.705,55.665 C163.995001,56.1350023 164.379997,56.5099986 164.86,56.79 C165.340002,57.0700014 165.939996,57.21 166.66,57.21 C167.380003,57.21 167.984997,57.0700014 168.475,56.79 C168.965002,56.5099986 169.354998,56.1350023 169.645,55.665 C169.935001,55.1949977 170.139999,54.665003 170.26,54.075 C170.38,53.484997 170.44,52.8800031 170.44,52.26 C170.44,51.6399969 170.38,51.030003 170.26,50.43 C170.139999,49.829997 169.935001,49.3000023 169.645,48.84 C169.354998,48.3799977 168.965002,48.0050014 168.475,47.715 C167.984997,47.4249986 167.380003,47.28 166.66,47.28 C165.939996,47.28 165.340002,47.4249986 164.86,47.715 C164.379997,48.0050014 163.995001,48.3799977 163.705,48.84 C163.414998,49.3000023 163.21,49.829997 163.09,50.43 C162.969999,51.030003 162.91,51.6399969 162.91,52.26 Z M158.65,52.26 C158.65,51.0199938 158.839998,49.895005 159.22,48.885 C159.600002,47.874995 160.139996,47.0150036 160.84,46.305 C161.540003,45.5949965 162.379995,45.0450019 163.36,44.655 C164.340005,44.2649981 165.439994,44.07 166.66,44.07 C167.880006,44.07 168.984995,44.2649981 169.975,44.655 C170.965005,45.0450019 171.809996,45.5949965 172.51,46.305 C173.210003,47.0150036 173.749998,47.874995 174.13,48.885 C174.510002,49.895005 174.7,51.0199938 174.7,52.26 C174.7,53.5000062 174.510002,54.619995 174.13,55.62 C173.749998,56.620005 173.210003,57.4749965 172.51,58.185 C171.809996,58.8950036 170.965005,59.4399981 169.975,59.82 C168.984995,60.2000019 167.880006,60.39 166.66,60.39 C165.439994,60.39 164.340005,60.2000019 163.36,59.82 C162.379995,59.4399981 161.540003,58.8950036 160.84,58.185 C160.139996,57.4749965 159.600002,56.620005 159.22,55.62 C158.839998,54.619995 158.65,53.5000062 158.65,52.26 Z M187.87,52.2 C187.87,51.5599968 187.81,50.9450029 187.69,50.355 C187.569999,49.7649971 187.365001,49.2450023 187.075,48.795 C186.784998,48.3449977 186.410002,47.9800014 185.95,47.7 C185.489997,47.4199986 184.910003,47.28 184.21,47.28 C183.509996,47.28 182.920002,47.4199986 182.44,47.7 C181.959997,47.9800014 181.575001,48.3499977 181.285,48.81 C180.994998,49.2700023 180.785,49.794997 180.655,50.385 C180.524999,50.975003 180.46,51.5899968 180.46,52.23 C180.46,52.830003 180.529999,53.429997 180.67,54.03 C180.81,54.630003 181.034998,55.1649976 181.345,55.635 C181.655001,56.1050024 182.044997,56.4849986 182.515,56.775 C182.985002,57.0650015 183.549996,57.21 184.21,57.21 C184.910003,57.21 185.494997,57.0700014 185.965,56.79 C186.435002,56.5099986 186.809998,56.1350023 187.09,55.665 C187.370001,55.1949977 187.569999,54.660003 187.69,54.06 C187.81,53.459997 187.87,52.8400032 187.87,52.2 Z M187.93,58.02 L187.87,58.02 C187.369997,58.8600042 186.715004,59.4649982 185.905,59.835 C185.094996,60.2050018 184.180005,60.39 183.16,60.39 C181.999994,60.39 180.980004,60.1650022 180.1,59.715 C179.219995,59.2649978 178.495003,58.6550038 177.925,57.885 C177.354997,57.1149962 176.925001,56.230005 176.635,55.23 C176.344998,54.229995 176.2,53.1900054 176.2,52.11 C176.2,51.0699948 176.344998,50.0650049 176.635,49.095 C176.925001,48.1249951 177.354997,47.2700037 177.925,46.53 C178.495003,45.7899963 179.209995,45.1950023 180.07,44.745 C180.930004,44.2949978 181.929994,44.07 183.07,44.07 C183.990004,44.07 184.864996,44.2649981 185.695,44.655 C186.525004,45.0450019 187.179997,45.6199962 187.66,46.38 L187.72,46.38 L187.72,38.58 L191.98,38.58 L191.98,60 L187.93,60 L187.93,58.02 Z M209.14,60 L205.09,60 L205.09,57.84 L205,57.84 C204.459997,58.7400045 203.760004,59.389998 202.9,59.79 C202.039995,60.190002 201.160004,60.39 200.26,60.39 C199.119994,60.39 198.185003,60.2400015 197.455,59.94 C196.724996,59.6399985 196.150002,59.2150028 195.73,58.665 C195.309998,58.1149973 195.015001,57.4450039 194.845,56.655 C194.674999,55.8649961 194.59,54.9900048 194.59,54.03 L194.59,44.49 L198.85,44.49 L198.85,53.25 C198.85,54.5300064 199.049998,55.4849968 199.45,56.115 C199.850002,56.7450032 200.559995,57.06 201.58,57.06 C202.740005,57.06 203.579997,56.7150035 204.1,56.025 C204.620002,55.3349966 204.88,54.2000079 204.88,52.62 L204.88,44.49 L209.14,44.49 L209.14,60 Z M212.17,38.58 L216.43,38.58 L216.43,50.07 L221.8,44.49 L226.84,44.49 L220.99,50.19 L227.5,60 L222.34,60 L218.08,53.07 L216.43,54.66 L216.43,60 L212.17,60 L212.17,38.58 Z M233.8,44.49 L236.92,44.49 L236.92,47.34 L233.8,47.34 L233.8,55.02 C233.8,55.7400036 233.919998,56.2199988 234.16,56.46 C234.400001,56.7000012 234.879996,56.82 235.6,56.82 C235.840001,56.82 236.069999,56.8100001 236.29,56.79 C236.510001,56.7699999 236.719999,56.7400002 236.92,56.7 L236.92,60 C236.559998,60.0600003 236.160002,60.0999999 235.72,60.12 C235.279997,60.1400001 234.850002,60.15 234.43,60.15 C233.769996,60.15 233.145003,60.1050004 232.555,60.015 C231.964997,59.9249995 231.445002,59.7500013 230.995,59.49 C230.544997,59.2299987 230.190001,58.8600024 229.93,58.38 C229.669998,57.8999976 229.54,57.2700039 229.54,56.49 L229.54,47.34 L226.96,47.34 L226.96,44.49 L229.54,44.49 L229.54,39.84 L233.8,39.84 L233.8,44.49 Z M248.8,50.58 C248.599999,49.4999946 248.245002,48.6800028 247.735,48.12 C247.224997,47.5599972 246.450005,47.28 245.41,47.28 C244.729996,47.28 244.165002,47.3949988 243.715,47.625 C243.264997,47.8550012 242.905001,48.1399983 242.635,48.48 C242.364998,48.8200017 242.175,49.1799981 242.065,49.56 C241.954999,49.9400019 241.89,50.2799985 241.87,50.58 L248.8,50.58 Z M241.87,53.28 C241.93,54.6600069 242.279996,55.6599969 242.92,56.28 C243.560003,56.9000031 244.479994,57.21 245.68,57.21 C246.540004,57.21 247.279997,56.9950021 247.9,56.565 C248.520003,56.1349979 248.899999,55.6800024 249.04,55.2 L252.79,55.2 C252.189997,57.0600093 251.270006,58.389996 250.03,59.19 C248.789993,59.990004 247.290008,60.39 245.53,60.39 C244.309994,60.39 243.210005,60.195002 242.23,59.805 C241.249995,59.4149981 240.420003,58.8600036 239.74,58.14 C239.059996,57.4199964 238.535001,56.560005 238.165,55.56 C237.794998,54.559995 237.61,53.460006 237.61,52.26 C237.61,51.0999942 237.799998,50.020005 238.18,49.02 C238.560002,48.019995 239.099996,47.1550036 239.8,46.425 C240.500003,45.6949964 241.334995,45.1200021 242.305,44.7 C243.275004,44.2799979 244.349994,44.07 245.53,44.07 C246.850006,44.07 247.999995,44.3249974 248.98,44.835 C249.960005,45.3450026 250.764996,46.0299957 251.395,46.89 C252.025003,47.7500043 252.479998,48.7299945 252.76,49.83 C253.040001,50.9300055 253.14,52.079994 253.06,53.28 L241.87,53.28 Z M254.98,44.49 L259.03,44.49 L259.03,47.37 L259.09,47.37 C259.290001,46.8899976 259.559998,46.445002 259.9,46.035 C260.240001,45.6249979 260.629997,45.2750015 261.07,44.985 C261.510002,44.6949986 261.979997,44.4700008 262.48,44.31 C262.980002,44.1499992 263.499997,44.07 264.04,44.07 C264.320001,44.07 264.629998,44.1199995 264.97,44.22 L264.97,48.18 C264.769999,48.1399998 264.530001,48.1050001 264.25,48.075 C263.969998,48.0449998 263.700001,48.03 263.44,48.03 C262.659996,48.03 262.000002,48.1599987 261.46,48.42 C260.919997,48.6800013 260.485001,49.0349978 260.155,49.485 C259.824998,49.9350022 259.59,50.459997 259.45,51.06 C259.309999,51.660003 259.24,52.3099965 259.24,53.01 L259.24,60 L254.98,60 L254.98,44.49 Z M266.23,55.38 L270.94,55.38 L270.94,60 L266.23,60 L266.23,55.38 Z" id="Populära-produkter.-Copy-3" fill="#191611"></path>
            <path d="M599.242,0.148 L602.068,0.148 L602.068,10.624 L608.332,10.624 L608.332,13 L599.242,13 L599.242,0.148 Z M609.538,6.556 C609.574,5.955997 609.723999,5.45800198 609.988,5.062 C610.252001,4.66599802 610.587998,4.3480012 610.996,4.108 C611.404002,3.8679988 611.862997,3.69700051 612.373,3.595 C612.883003,3.49299949 613.395997,3.442 613.912,3.442 C614.380002,3.442 614.853998,3.47499967 615.334,3.541 C615.814002,3.60700033 616.251998,3.73599904 616.648,3.928 C617.044002,4.12000096 617.367999,4.38699829 617.62,4.729 C617.872001,5.07100171 617.998,5.52399718 617.998,6.088 L617.998,10.93 C617.998,11.3500021 618.022,11.7519981 618.07,12.136 C618.118,12.5200019 618.201999,12.807999 618.322,13 L615.73,13 C615.682,12.8559993 615.643,12.7090008 615.613,12.559 C615.583,12.4089992 615.562,12.2560008 615.55,12.1 C615.141998,12.5200021 614.662003,12.8139992 614.11,12.982 C613.557997,13.1500008 612.994003,13.234 612.418,13.234 C611.973998,13.234 611.560002,13.1800005 611.176,13.072 C610.791998,12.9639995 610.456001,12.7960011 610.168,12.568 C609.879999,12.3399989 609.655001,12.0520017 609.493,11.704 C609.330999,11.3559983 609.25,10.9420024 609.25,10.462 C609.25,9.93399736 609.342999,9.49900171 609.529,9.157 C609.715001,8.81499829 609.954999,8.54200102 610.249,8.338 C610.543001,8.13399898 610.878998,7.98100051 611.257,7.879 C611.635002,7.77699949 612.015998,7.6960003 612.4,7.636 C612.784002,7.5759997 613.161998,7.52800018 613.534,7.492 C613.906002,7.45599982 614.235999,7.40200036 614.524,7.33 C614.812001,7.25799964 615.039999,7.15300069 615.208,7.015 C615.376001,6.87699931 615.454,6.67600132 615.442,6.412 C615.442,6.13599862 615.397,5.91700081 615.307,5.755 C615.217,5.59299919 615.097001,5.46700045 614.947,5.377 C614.796999,5.28699955 614.623001,5.22700015 614.425,5.197 C614.226999,5.16699985 614.014001,5.152 613.786,5.152 C613.281997,5.152 612.886001,5.25999892 612.598,5.476 C612.309999,5.69200108 612.142,6.05199748 612.094,6.556 L609.538,6.556 Z M615.442,8.446 C615.333999,8.54200048 615.199001,8.61699973 615.037,8.671 C614.874999,8.72500027 614.701001,8.76999982 614.515,8.806 C614.328999,8.84200018 614.134001,8.87199988 613.93,8.896 C613.725999,8.92000012 613.522001,8.94999982 613.318,8.986 C613.125999,9.02200018 612.937001,9.0699997 612.751,9.13 C612.564999,9.1900003 612.403001,9.27099949 612.265,9.373 C612.126999,9.47500051 612.016,9.60399922 611.932,9.76 C611.848,9.91600078 611.806,10.1139988 611.806,10.354 C611.806,10.5820011 611.848,10.7739992 611.932,10.93 C612.016,11.0860008 612.129999,11.2089996 612.274,11.299 C612.418001,11.3890004 612.585999,11.4519998 612.778,11.488 C612.970001,11.5240002 613.167999,11.542 613.372,11.542 C613.876003,11.542 614.265999,11.4580008 614.542,11.29 C614.818001,11.1219992 615.021999,10.9210012 615.154,10.687 C615.286001,10.4529988 615.367,10.2160012 615.397,9.976 C615.427,9.7359988 615.442,9.54400072 615.442,9.4 L615.442,8.446 Z M619.978,3.694 L622.408,3.694 L622.408,5.422 L622.444,5.422 C622.564001,5.13399856 622.725999,4.86700123 622.93,4.621 C623.134001,4.37499877 623.367999,4.16500087 623.632,3.991 C623.896001,3.81699913 624.177999,3.68200048 624.478,3.586 C624.778001,3.48999952 625.089998,3.442 625.414,3.442 C625.582001,3.442 625.767999,3.4719997 625.972,3.532 L625.972,5.908 C625.851999,5.88399988 625.708001,5.86300009 625.54,5.845 C625.371999,5.82699991 625.210001,5.818 625.054,5.818 C624.585998,5.818 624.190002,5.89599922 623.866,6.052 C623.541998,6.20800078 623.281001,6.42099865 623.083,6.691 C622.884999,6.96100135 622.744,7.2759982 622.66,7.636 C622.576,7.9960018 622.534,8.3859979 622.534,8.806 L622.534,13 L619.978,13 L619.978,3.694 Z M630.814,10.804 C631.174002,10.804 631.491999,10.7320007 631.768,10.588 C632.044001,10.4439993 632.271999,10.2520012 632.452,10.012 C632.632001,9.7719988 632.767,9.49900153 632.857,9.193 C632.947,8.88699847 632.992,8.56600168 632.992,8.23 C632.992,7.84599808 632.956,7.48300171 632.884,7.141 C632.812,6.79899829 632.692001,6.49600132 632.524,6.232 C632.355999,5.96799868 632.134001,5.75800078 631.858,5.602 C631.581999,5.44599922 631.234002,5.368 630.814,5.368 C630.453998,5.368 630.145001,5.43999928 629.887,5.584 C629.628999,5.72800072 629.413001,5.92299877 629.239,6.169 C629.064999,6.41500123 628.939,6.69699841 628.861,7.015 C628.783,7.33300159 628.744,7.66599826 628.744,8.014 C628.744,8.35000168 628.777,8.68299835 628.843,9.013 C628.909,9.34300165 629.022999,9.63999868 629.185,9.904 C629.347001,10.1680013 629.559999,10.3839992 629.824,10.552 C630.088001,10.7200008 630.417998,10.804 630.814,10.804 Z M635.422,12.406 C635.422,12.7780019 635.371001,13.2039976 635.269,13.684 C635.166999,14.1640024 634.948002,14.6109979 634.612,15.025 C634.275998,15.4390021 633.790003,15.7899986 633.154,16.078 C632.517997,16.3660014 631.666005,16.51 630.598,16.51 C630.141998,16.51 629.677002,16.4530006 629.203,16.339 C628.728998,16.2249994 628.297002,16.0480012 627.907,15.808 C627.516998,15.5679988 627.193001,15.2590019 626.935,14.881 C626.676999,14.5029981 626.53,14.0500026 626.494,13.522 L629.032,13.522 C629.152001,14.0020024 629.385998,14.3349991 629.734,14.521 C630.082002,14.7070009 630.483998,14.8 630.94,14.8 C631.660004,14.8 632.184998,14.5840022 632.515,14.152 C632.845002,13.7199978 633.004,13.1740033 632.992,12.514 L632.992,11.29 L632.956,11.29 C632.679999,11.7820025 632.287003,12.1449988 631.777,12.379 C631.266997,12.6130012 630.730003,12.73 630.166,12.73 C629.469997,12.73 628.870003,12.6070012 628.366,12.361 C627.861997,12.1149988 627.448002,11.7790021 627.124,11.353 C626.799998,10.9269979 626.563001,10.4290028 626.413,9.859 C626.262999,9.28899715 626.188,8.68600318 626.188,8.05 C626.188,7.449997 626.274999,6.87100279 626.449,6.313 C626.623001,5.75499721 626.877998,5.26300213 627.214,4.837 C627.550002,4.41099787 627.966998,4.07200126 628.465,3.82 C628.963002,3.56799874 629.535997,3.442 630.184,3.442 C630.796003,3.442 631.332998,3.55599886 631.795,3.784 C632.257002,4.01200114 632.643998,4.3959973 632.956,4.936 L632.992,4.936 L632.992,3.694 L635.422,3.694 L635.422,12.406 Z M643.738,7.348 C643.617999,6.69999676 643.405002,6.20800168 643.099,5.872 C642.792998,5.53599832 642.328003,5.368 641.704,5.368 C641.295998,5.368 640.957001,5.43699931 640.687,5.575 C640.416999,5.71300069 640.201001,5.88399898 640.039,6.088 C639.876999,6.29200102 639.763,6.50799886 639.697,6.736 C639.631,6.96400114 639.592,7.1679991 639.58,7.348 L643.738,7.348 Z M639.58,8.968 C639.616,9.79600414 639.825998,10.3959981 640.21,10.768 C640.594002,11.1400019 641.145996,11.326 641.866,11.326 C642.382003,11.326 642.825998,11.1970013 643.198,10.939 C643.570002,10.6809987 643.798,10.4080014 643.882,10.12 L646.132,10.12 C645.771998,11.2360056 645.220004,12.0339976 644.476,12.514 C643.731996,12.9940024 642.832005,13.234 641.776,13.234 C641.043996,13.234 640.384003,13.1170012 639.796,12.883 C639.207997,12.6489988 638.710002,12.3160022 638.302,11.884 C637.893998,11.4519978 637.579001,10.936003 637.357,10.336 C637.134999,9.735997 637.024,9.0760036 637.024,8.356 C637.024,7.65999652 637.137999,7.012003 637.366,6.412 C637.594001,5.811997 637.917998,5.29300219 638.338,4.855 C638.758002,4.41699781 639.258997,4.07200126 639.841,3.82 C640.423003,3.56799874 641.067996,3.442 641.776,3.442 C642.568004,3.442 643.257997,3.59499847 643.846,3.901 C644.434003,4.20700153 644.916998,4.61799742 645.295,5.134 C645.673002,5.65000258 645.945999,6.2379967 646.114,6.898 C646.282001,7.5580033 646.342,8.2479964 646.294,8.968 L639.58,8.968 Z M647.932,10.228 L650.758,10.228 L650.758,13 C650.758,13.408002 650.683001,13.7829983 650.533,14.125 C650.382999,14.4670017 650.182001,14.7639987 649.93,15.016 C649.677999,15.2680013 649.381002,15.4749992 649.039,15.637 C648.696998,15.7990008 648.334002,15.9099997 647.95,15.97 L647.95,14.674 C648.130001,14.6379998 648.300999,14.5660005 648.463,14.458 C648.625001,14.3499995 648.765999,14.2210007 648.886,14.071 C649.006001,13.9209993 649.096,13.7530009 649.156,13.567 C649.216,13.3809991 649.24,13.192001 649.228,13 L647.932,13 L647.932,10.228 Z M665.842,2.506 L660.64,2.506 L660.136,5.368 L660.172,5.404 C660.520002,5.05599826 660.891998,4.80700075 661.288,4.657 C661.684002,4.50699925 662.133997,4.432 662.638,4.432 C663.262003,4.432 663.813998,4.54599886 664.294,4.774 C664.774002,5.00200114 665.178998,5.30799808 665.509,5.692 C665.839002,6.07600192 666.090999,6.52899739 666.265,7.051 C666.439001,7.57300261 666.526,8.12799706 666.526,8.716 C666.526,9.36400324 666.400001,9.96699721 666.148,10.525 C665.895999,11.0830028 665.557002,11.565998 665.131,11.974 C664.704998,12.382002 664.210003,12.6969989 663.646,12.919 C663.081997,13.1410011 662.482003,13.2460001 661.846,13.234 C661.233997,13.234 660.649003,13.1530008 660.091,12.991 C659.532997,12.8289992 659.038002,12.5800017 658.606,12.244 C658.173998,11.9079983 657.829001,11.4910025 657.571,10.993 C657.312999,10.4949975 657.178,9.9160033 657.166,9.256 L659.722,9.256 C659.782,9.83200288 659.997998,10.2909983 660.37,10.633 C660.742002,10.9750017 661.215997,11.146 661.792,11.146 C662.128002,11.146 662.430999,11.0770007 662.701,10.939 C662.971001,10.8009993 663.198999,10.6210011 663.385,10.399 C663.571001,10.1769989 663.714999,9.91900147 663.817,9.625 C663.919001,9.33099853 663.97,9.02800156 663.97,8.716 C663.97,8.39199838 663.922,8.08600144 663.826,7.798 C663.73,7.50999856 663.586001,7.25800108 663.394,7.042 C663.201999,6.82599892 662.974001,6.6580006 662.71,6.538 C662.445999,6.4179994 662.140002,6.358 661.792,6.358 C661.335998,6.358 660.964001,6.43899919 660.676,6.601 C660.387999,6.76300081 660.118001,7.01799826 659.866,7.366 L657.562,7.366 L658.804,0.4 L665.842,0.4 L665.842,2.506 Z M675.922,5.962 L679.018,5.962 C679.666003,5.962 680.151998,5.81800144 680.476,5.53 C680.800002,5.24199856 680.962,4.77400324 680.962,4.126 C680.962,3.50199688 680.800002,3.04900141 680.476,2.767 C680.151998,2.48499859 679.666003,2.344 679.018,2.344 L675.922,2.344 L675.922,5.962 Z M673.096,0.148 L680.026,0.148 C680.602003,0.148 681.120998,0.24099907 681.583,0.427 C682.045002,0.61300093 682.440998,0.86799838 682.771,1.192 C683.101002,1.51600162 683.352999,1.89099787 683.527,2.317 C683.701001,2.74300213 683.788,3.20199754 683.788,3.694 C683.788,4.45000378 683.629002,5.10399724 683.311,5.656 C682.992998,6.20800276 682.474004,6.62799856 681.754,6.916 L681.754,6.952 C682.102002,7.04800048 682.389999,7.19499901 682.618,7.393 C682.846001,7.59100099 683.031999,7.82499865 683.176,8.095 C683.320001,8.36500135 683.425,8.66199838 683.491,8.986 C683.557,9.31000162 683.602,9.63399838 683.626,9.958 C683.638,10.162001 683.65,10.4019986 683.662,10.678 C683.674,10.9540014 683.695,11.2359986 683.725,11.524 C683.755,11.8120014 683.803,12.0849987 683.869,12.343 C683.935,12.6010013 684.033999,12.8199991 684.166,13 L681.34,13 C681.183999,12.591998 681.088,12.1060028 681.052,11.542 C681.016,10.9779972 680.962,10.4380026 680.89,9.922 C680.794,9.24999664 680.590002,8.75800156 680.278,8.446 C679.965998,8.13399844 679.456004,7.978 678.748,7.978 L675.922,7.978 L675.922,13 L673.096,13 L673.096,0.148 Z M686.092,0.148 L695.704,0.148 L695.704,2.524 L688.918,2.524 L688.918,5.278 L695.146,5.278 L695.146,7.474 L688.918,7.474 L688.918,10.624 L695.848,10.624 L695.848,13 L686.092,13 L686.092,0.148 Z M697.558,3.694 L699.97,3.694 L699.97,4.954 L700.006,4.954 C700.342002,4.4739976 700.746998,4.10200132 701.221,3.838 C701.695002,3.57399868 702.237997,3.442 702.85,3.442 C703.438003,3.442 703.974998,3.55599886 704.461,3.784 C704.947002,4.01200114 705.315999,4.41399712 705.568,4.99 C705.844001,4.58199796 706.218998,4.22200156 706.693,3.91 C707.167002,3.59799844 707.727997,3.442 708.376,3.442 C708.868002,3.442 709.323998,3.5019994 709.744,3.622 C710.164002,3.7420006 710.523998,3.93399868 710.824,4.198 C711.124002,4.46200132 711.357999,4.80699787 711.526,5.233 C711.694001,5.65900213 711.778,6.171997 711.778,6.772 L711.778,13 L709.222,13 L709.222,7.726 C709.222,7.41399844 709.21,7.12000138 709.186,6.844 C709.162,6.56799862 709.096001,6.32800102 708.988,6.124 C708.879999,5.91999898 708.721001,5.7580006 708.511,5.638 C708.300999,5.5179994 708.016002,5.458 707.656,5.458 C707.295998,5.458 707.005001,5.52699931 706.783,5.665 C706.560999,5.80300069 706.387001,5.98299889 706.261,6.205 C706.134999,6.42700111 706.051,6.67899859 706.009,6.961 C705.967,7.24300141 705.946,7.52799856 705.946,7.816 L705.946,13 L703.39,13 L703.39,7.78 C703.39,7.50399862 703.384,7.23100135 703.372,6.961 C703.36,6.69099865 703.309,6.44200114 703.219,6.214 C703.129,5.98599886 702.979001,5.80300069 702.769,5.665 C702.558999,5.52699931 702.250002,5.458 701.842,5.458 C701.721999,5.458 701.563001,5.48499973 701.365,5.539 C701.166999,5.59300027 700.975001,5.69499925 700.789,5.845 C700.602999,5.99500075 700.444001,6.21099859 700.312,6.493 C700.179999,6.77500141 700.114,7.14399772 700.114,7.6 L700.114,13 L697.558,13 L697.558,3.694 Z M598.144,36.148 L608.548,36.148 L608.548,38.092 L604.462,38.092 L604.462,49 L602.212,49 L602.212,38.092 L598.144,38.092 L598.144,36.148 Z M614.02,38.704 L614.416,37.534 L616.396,38.308 L616.396,36.148 L617.62,36.148 L617.62,38.308 L619.582,37.534 L620.014,38.704 L617.962,39.388 L619.222,41.08 L618.268,41.782 L616.99,40.018 L615.766,41.782 L614.758,41.08 L616.018,39.388 L614.02,38.704 Z M627.556,36.4 L634.072,36.4 L634.072,38.236 L629.086,38.236 L628.438,41.44 L628.474,41.476 C628.750001,41.1639984 629.100998,40.9270008 629.527,40.765 C629.953002,40.6029992 630.375998,40.522 630.796,40.522 C631.420003,40.522 631.977998,40.626999 632.47,40.837 C632.962002,41.047001 633.375998,41.3409981 633.712,41.719 C634.048002,42.0970019 634.302999,42.5439974 634.477,43.06 C634.651001,43.5760026 634.738,44.133997 634.738,44.734 C634.738,45.2380025 634.657001,45.7569973 634.495,46.291 C634.332999,46.8250027 634.075002,47.3109978 633.721,47.749 C633.366998,48.1870022 632.914003,48.5469986 632.362,48.829 C631.809997,49.1110014 631.150004,49.252 630.382,49.252 C629.769997,49.252 629.203003,49.1710008 628.681,49.009 C628.158997,48.8469992 627.700002,48.6040016 627.304,48.28 C626.907998,47.9559984 626.593001,47.5570024 626.359,47.083 C626.124999,46.6089976 625.996,46.0540032 625.972,45.418 L628.024,45.418 C628.084,46.1020034 628.317998,46.6269982 628.726,46.993 C629.134002,47.3590018 629.673997,47.542 630.346,47.542 C630.778002,47.542 631.143998,47.4700007 631.444,47.326 C631.744002,47.1819993 631.986999,46.9840013 632.173,46.732 C632.359001,46.4799987 632.491,46.1860017 632.569,45.85 C632.647,45.5139983 632.686,45.1540019 632.686,44.77 C632.686,44.4219983 632.638,44.0890016 632.542,43.771 C632.446,43.4529984 632.302001,43.1740012 632.11,42.934 C631.917999,42.6939988 631.669002,42.5020007 631.363,42.358 C631.056998,42.2139993 630.700002,42.142 630.292,42.142 C629.859998,42.142 629.455002,42.2229992 629.077,42.385 C628.698998,42.5470008 628.426001,42.8499978 628.258,43.294 L626.206,43.294 L627.556,36.4 Z M636.718,36.148 L642.856,36.148 C644.272007,36.148 645.333996,36.4539969 646.042,37.066 C646.750004,37.6780031 647.104,38.5299945 647.104,39.622 C647.104,40.2340031 647.014001,40.740998 646.834,41.143 C646.653999,41.545002 646.444001,41.8689988 646.204,42.115 C645.963999,42.3610012 645.727001,42.5379995 645.493,42.646 C645.258999,42.7540005 645.088001,42.8259998 644.98,42.862 L644.98,42.898 C645.172001,42.9220001 645.378999,42.9819995 645.601,43.078 C645.823001,43.1740005 646.029999,43.3269989 646.222,43.537 C646.414001,43.7470011 646.572999,44.0199983 646.699,44.356 C646.825001,44.6920017 646.888,45.1119975 646.888,45.616 C646.888,46.3720038 646.944999,47.0589969 647.059,47.677 C647.173001,48.2950031 647.349999,48.7359987 647.59,49 L645.178,49 C645.009999,48.7239986 644.911,48.4180017 644.881,48.082 C644.851,47.7459983 644.836,47.4220016 644.836,47.11 C644.836,46.5219971 644.8,46.0150021 644.728,45.589 C644.656,45.1629979 644.524001,44.8090014 644.332,44.527 C644.139999,44.2449986 643.879002,44.0380007 643.549,43.906 C643.218998,43.7739993 642.796003,43.708 642.28,43.708 L638.968,43.708 L638.968,49 L636.718,49 L636.718,36.148 Z M638.968,41.998 L642.658,41.998 C643.378004,41.998 643.923998,41.8270017 644.296,41.485 C644.668002,41.1429983 644.854,40.6300034 644.854,39.946 C644.854,39.537998 644.794001,39.2050013 644.674,38.947 C644.553999,38.6889987 644.389001,38.4880007 644.179,38.344 C643.968999,38.1999993 643.729001,38.1040002 643.459,38.056 C643.188999,38.0079998 642.910001,37.984 642.622,37.984 L638.968,37.984 L638.968,41.998 Z M598.882,79.132 L604.12,79.132 L604.12,81.076 L598.882,81.076 L598.882,79.132 Z M610.006,72.148 C610.906004,72.148 611.640997,72.3549979 612.211,72.769 C612.781003,73.1830021 613.224998,73.7109968 613.543,74.353 C613.861002,74.9950032 614.076999,75.6999962 614.191,76.468 C614.305001,77.2360038 614.362,77.9799964 614.362,78.7 C614.362,79.4200036 614.305001,80.1639962 614.191,80.932 C614.076999,81.7000038 613.861002,82.4049968 613.543,83.047 C613.224998,83.6890032 612.781003,84.2169979 612.211,84.631 C611.640997,85.0450021 610.906004,85.252 610.006,85.252 C609.105996,85.252 608.371003,85.0450021 607.801,84.631 C607.230997,84.2169979 606.787002,83.6890032 606.469,83.047 C606.150998,82.4049968 605.935001,81.7000038 605.821,80.932 C605.706999,80.1639962 605.65,79.4200036 605.65,78.7 C605.65,77.9799964 605.706999,77.2360038 605.821,76.468 C605.935001,75.6999962 606.150998,74.9950032 606.469,74.353 C606.787002,73.7109968 607.230997,73.1830021 607.801,72.769 C608.371003,72.3549979 609.105996,72.148 610.006,72.148 Z M610.006,83.542 C610.450002,83.542 610.821998,83.4130013 611.122,83.155 C611.422002,82.8969987 611.658999,82.5490022 611.833,82.111 C612.007001,81.6729978 612.13,81.1600029 612.202,80.572 C612.274,79.9839971 612.31,79.3600033 612.31,78.7 C612.31,78.0399967 612.274,77.4190029 612.202,76.837 C612.13,76.2549971 612.007001,75.7420022 611.833,75.298 C611.658999,74.8539978 611.422002,74.5030013 611.122,74.245 C610.821998,73.9869987 610.450002,73.858 610.006,73.858 C609.549998,73.858 609.175001,73.9869987 608.881,74.245 C608.586999,74.5030013 608.353001,74.8539978 608.179,75.298 C608.004999,75.7420022 607.882,76.2549971 607.81,76.837 C607.738,77.4190029 607.702,78.0399967 607.702,78.7 C607.702,79.3600033 607.738,79.9839971 607.81,80.572 C607.882,81.1600029 608.004999,81.6729978 608.179,82.111 C608.353001,82.5490022 608.586999,82.8969987 608.881,83.155 C609.175001,83.4130013 609.549998,83.542 610.006,83.542 Z M616.252,82.57 L618.754,82.57 L618.754,85 L616.252,85 L616.252,82.57 Z M625.018,72.148 C625.918005,72.148 626.652997,72.3549979 627.223,72.769 C627.793003,73.1830021 628.236998,73.7109968 628.555,74.353 C628.873002,74.9950032 629.088999,75.6999962 629.203,76.468 C629.317001,77.2360038 629.374,77.9799964 629.374,78.7 C629.374,79.4200036 629.317001,80.1639962 629.203,80.932 C629.088999,81.7000038 628.873002,82.4049968 628.555,83.047 C628.236998,83.6890032 627.793003,84.2169979 627.223,84.631 C626.652997,85.0450021 625.918005,85.252 625.018,85.252 C624.117995,85.252 623.383003,85.0450021 622.813,84.631 C622.242997,84.2169979 621.799002,83.6890032 621.481,83.047 C621.162998,82.4049968 620.947001,81.7000038 620.833,80.932 C620.718999,80.1639962 620.662,79.4200036 620.662,78.7 C620.662,77.9799964 620.718999,77.2360038 620.833,76.468 C620.947001,75.6999962 621.162998,74.9950032 621.481,74.353 C621.799002,73.7109968 622.242997,73.1830021 622.813,72.769 C623.383003,72.3549979 624.117995,72.148 625.018,72.148 Z M625.018,83.542 C625.462002,83.542 625.833999,83.4130013 626.134,83.155 C626.434001,82.8969987 626.670999,82.5490022 626.845,82.111 C627.019001,81.6729978 627.142,81.1600029 627.214,80.572 C627.286,79.9839971 627.322,79.3600033 627.322,78.7 C627.322,78.0399967 627.286,77.4190029 627.214,76.837 C627.142,76.2549971 627.019001,75.7420022 626.845,75.298 C626.670999,74.8539978 626.434001,74.5030013 626.134,74.245 C625.833999,73.9869987 625.462002,73.858 625.018,73.858 C624.561998,73.858 624.187001,73.9869987 623.893,74.245 C623.598999,74.5030013 623.365001,74.8539978 623.191,75.298 C623.016999,75.7420022 622.894,76.2549971 622.822,76.837 C622.75,77.4190029 622.714,78.0399967 622.714,78.7 C622.714,79.3600033 622.75,79.9839971 622.822,80.572 C622.894,81.1600029 623.016999,81.6729978 623.191,82.111 C623.365001,82.5490022 623.598999,82.8969987 623.893,83.155 C624.187001,83.4130013 624.561998,83.542 625.018,83.542 Z M639.328,85 L630.724,85 C630.736,83.9559948 630.987998,83.0440039 631.48,82.264 C631.972002,81.4839961 632.643996,80.8060029 633.496,80.23 C633.904002,79.9299985 634.329998,79.6390014 634.774,79.357 C635.218002,79.0749986 635.625998,78.7720016 635.998,78.448 C636.370002,78.1239984 636.675999,77.7730019 636.916,77.395 C637.156001,77.0169981 637.282,76.5820025 637.294,76.09 C637.294,75.8619989 637.267,75.6190013 637.213,75.361 C637.159,75.1029987 637.054001,74.8630011 636.898,74.641 C636.741999,74.4189989 636.526001,74.2330007 636.25,74.083 C635.973999,73.9329993 635.614002,73.858 635.17,73.858 C634.761998,73.858 634.423001,73.9389992 634.153,74.101 C633.882999,74.2630008 633.667001,74.4849986 633.505,74.767 C633.342999,75.0490014 633.223,75.3819981 633.145,75.766 C633.067,76.1500019 633.022,76.5639978 633.01,77.008 L630.958,77.008 C630.958,76.3119965 631.050999,75.667003 631.237,75.073 C631.423001,74.478997 631.701998,73.9660022 632.074,73.534 C632.446002,73.1019978 632.898997,72.7630012 633.433,72.517 C633.967003,72.2709988 634.587996,72.148 635.296,72.148 C636.064004,72.148 636.705997,72.2739987 637.222,72.526 C637.738003,72.7780013 638.154998,73.0959981 638.473,73.48 C638.791002,73.8640019 639.015999,74.2809978 639.148,74.731 C639.280001,75.1810022 639.346,75.609998 639.346,76.018 C639.346,76.5220025 639.268001,76.977998 639.112,77.386 C638.955999,77.794002 638.746001,78.1689983 638.482,78.511 C638.217999,78.8530017 637.918002,79.1679986 637.582,79.456 C637.245998,79.7440014 636.898002,80.0139987 636.538,80.266 C636.177998,80.5180013 635.818002,80.7579989 635.458,80.986 C635.097998,81.2140011 634.765002,81.4419989 634.459,81.67 C634.152998,81.8980011 633.886001,82.1349988 633.658,82.381 C633.429999,82.6270012 633.274,82.8879986 633.19,83.164 L639.328,83.164 L639.328,85 Z M645.376,74.704 L645.772,73.534 L647.752,74.308 L647.752,72.148 L648.976,72.148 L648.976,74.308 L650.938,73.534 L651.37,74.704 L649.318,75.388 L650.578,77.08 L649.624,77.782 L648.346,76.018 L647.122,77.782 L646.114,77.08 L647.374,75.388 L645.376,74.704 Z M660.802,77.62 C661.138002,77.6320001 661.473998,77.6080003 661.81,77.548 C662.146002,77.4879997 662.445999,77.3830008 662.71,77.233 C662.974001,77.0829992 663.186999,76.8760013 663.349,76.612 C663.511001,76.3479987 663.592,76.0240019 663.592,75.64 C663.592,75.0999973 663.409002,74.6680016 663.043,74.344 C662.676998,74.0199984 662.206003,73.858 661.63,73.858 C661.269998,73.858 660.958001,73.9299993 660.694,74.074 C660.429999,74.2180007 660.211001,74.4129988 660.037,74.659 C659.862999,74.9050012 659.734,75.1809985 659.65,75.487 C659.566,75.7930015 659.53,76.1079984 659.542,76.432 L657.49,76.432 C657.514,75.8199969 657.627999,75.2530026 657.832,74.731 C658.036001,74.2089974 658.314998,73.7560019 658.669,73.372 C659.023002,72.9879981 659.451997,72.6880011 659.956,72.472 C660.460003,72.2559989 661.029997,72.148 661.666,72.148 C662.158002,72.148 662.640998,72.2199993 663.115,72.364 C663.589002,72.5080007 664.014998,72.7179986 664.393,72.994 C664.771002,73.2700014 665.073999,73.6209979 665.302,74.047 C665.530001,74.4730021 665.644,74.9619972 665.644,75.514 C665.644,76.1500032 665.500001,76.7049976 665.212,77.179 C664.923999,77.6530024 664.474003,77.9979989 663.862,78.214 L663.862,78.25 C664.582004,78.3940007 665.142998,78.7509971 665.545,79.321 C665.947002,79.8910028 666.148,80.5839959 666.148,81.4 C666.148,82.000003 666.028001,82.5369976 665.788,83.011 C665.547999,83.4850024 665.224002,83.8869983 664.816,84.217 C664.407998,84.5470016 663.934003,84.8019991 663.394,84.982 C662.853997,85.1620009 662.284003,85.252 661.684,85.252 C660.951996,85.252 660.313003,85.1470011 659.767,84.937 C659.220997,84.726999 658.765002,84.4300019 658.399,84.046 C658.032998,83.6619981 657.754001,83.2000027 657.562,82.66 C657.369999,82.1199973 657.268,81.5200033 657.256,80.86 L659.308,80.86 C659.284,81.6280038 659.472998,82.2669974 659.875,82.777 C660.277002,83.2870026 660.879996,83.542 661.684,83.542 C662.368003,83.542 662.940998,83.347002 663.403,82.957 C663.865002,82.5669981 664.096,82.0120036 664.096,81.292 C664.096,80.7999975 664.000001,80.4100014 663.808,80.122 C663.615999,79.8339986 663.364002,79.6150008 663.052,79.465 C662.739998,79.3149992 662.389002,79.2220002 661.999,79.186 C661.608998,79.1499998 661.210002,79.1379999 660.802,79.15 L660.802,77.62 Z M671.71,72.148 C672.610005,72.148 673.344997,72.3549979 673.915,72.769 C674.485003,73.1830021 674.928998,73.7109968 675.247,74.353 C675.565002,74.9950032 675.780999,75.6999962 675.895,76.468 C676.009001,77.2360038 676.066,77.9799964 676.066,78.7 C676.066,79.4200036 676.009001,80.1639962 675.895,80.932 C675.780999,81.7000038 675.565002,82.4049968 675.247,83.047 C674.928998,83.6890032 674.485003,84.2169979 673.915,84.631 C673.344997,85.0450021 672.610005,85.252 671.71,85.252 C670.809995,85.252 670.075003,85.0450021 669.505,84.631 C668.934997,84.2169979 668.491002,83.6890032 668.173,83.047 C667.854998,82.4049968 667.639001,81.7000038 667.525,80.932 C667.410999,80.1639962 667.354,79.4200036 667.354,78.7 C667.354,77.9799964 667.410999,77.2360038 667.525,76.468 C667.639001,75.6999962 667.854998,74.9950032 668.173,74.353 C668.491002,73.7109968 668.934997,73.1830021 669.505,72.769 C670.075003,72.3549979 670.809995,72.148 671.71,72.148 Z M671.71,83.542 C672.154002,83.542 672.525999,83.4130013 672.826,83.155 C673.126001,82.8969987 673.362999,82.5490022 673.537,82.111 C673.711001,81.6729978 673.834,81.1600029 673.906,80.572 C673.978,79.9839971 674.014,79.3600033 674.014,78.7 C674.014,78.0399967 673.978,77.4190029 673.906,76.837 C673.834,76.2549971 673.711001,75.7420022 673.537,75.298 C673.362999,74.8539978 673.126001,74.5030013 672.826,74.245 C672.525999,73.9869987 672.154002,73.858 671.71,73.858 C671.253998,73.858 670.879001,73.9869987 670.585,74.245 C670.290999,74.5030013 670.057001,74.8539978 669.883,75.298 C669.708999,75.7420022 669.586,76.2549971 669.514,76.837 C669.442,77.4190029 669.406,78.0399967 669.406,78.7 C669.406,79.3600033 669.442,79.9839971 669.514,80.572 C669.586,81.1600029 669.708999,81.6729978 669.883,82.111 C670.057001,82.5490022 670.290999,82.8969987 670.585,83.155 C670.879001,83.4130013 671.253998,83.542 671.71,83.542 Z M691.654,83.182 L682.582,83.182 L682.582,81.346 L691.654,81.346 L691.654,83.182 Z M691.654,79.546 L682.582,79.546 L682.582,77.71 L691.654,77.71 L691.654,79.546 Z M698.404,79.132 L703.642,79.132 L703.642,81.076 L698.404,81.076 L698.404,79.132 Z M709.528,72.148 C710.428004,72.148 711.162997,72.3549979 711.733,72.769 C712.303003,73.1830021 712.746998,73.7109968 713.065,74.353 C713.383002,74.9950032 713.598999,75.6999962 713.713,76.468 C713.827001,77.2360038 713.884,77.9799964 713.884,78.7 C713.884,79.4200036 713.827001,80.1639962 713.713,80.932 C713.598999,81.7000038 713.383002,82.4049968 713.065,83.047 C712.746998,83.6890032 712.303003,84.2169979 711.733,84.631 C711.162997,85.0450021 710.428004,85.252 709.528,85.252 C708.627995,85.252 707.893003,85.0450021 707.323,84.631 C706.752997,84.2169979 706.309002,83.6890032 705.991,83.047 C705.672998,82.4049968 705.457001,81.7000038 705.343,80.932 C705.228999,80.1639962 705.172,79.4200036 705.172,78.7 C705.172,77.9799964 705.228999,77.2360038 705.343,76.468 C705.457001,75.6999962 705.672998,74.9950032 705.991,74.353 C706.309002,73.7109968 706.752997,73.1830021 707.323,72.769 C707.893003,72.3549979 708.627995,72.148 709.528,72.148 Z M709.528,83.542 C709.972002,83.542 710.343999,83.4130013 710.644,83.155 C710.944002,82.8969987 711.180999,82.5490022 711.355,82.111 C711.529001,81.6729978 711.652,81.1600029 711.724,80.572 C711.796,79.9839971 711.832,79.3600033 711.832,78.7 C711.832,78.0399967 711.796,77.4190029 711.724,76.837 C711.652,76.2549971 711.529001,75.7420022 711.355,75.298 C711.180999,74.8539978 710.944002,74.5030013 710.644,74.245 C710.343999,73.9869987 709.972002,73.858 709.528,73.858 C709.071998,73.858 708.697001,73.9869987 708.403,74.245 C708.108999,74.5030013 707.875001,74.8539978 707.701,75.298 C707.526999,75.7420022 707.404,76.2549971 707.332,76.837 C707.26,77.4190029 707.224,78.0399967 707.224,78.7 C707.224,79.3600033 707.26,79.9839971 707.332,80.572 C707.404,81.1600029 707.526999,81.6729978 707.701,82.111 C707.875001,82.5490022 708.108999,82.8969987 708.403,83.155 C708.697001,83.4130013 709.071998,83.542 709.528,83.542 Z M715.774,82.57 L718.276,82.57 L718.276,85 L715.774,85 L715.774,82.57 Z M726.646,75.586 C726.598,75.0699974 726.415002,74.6530016 726.097,74.335 C725.778998,74.0169984 725.350003,73.858 724.81,73.858 C724.437998,73.858 724.117001,73.9269993 723.847,74.065 C723.576999,74.2030007 723.349001,74.3859989 723.163,74.614 C722.976999,74.8420011 722.827001,75.1029985 722.713,75.397 C722.598999,75.6910015 722.506,75.9999984 722.434,76.324 C722.362,76.6480016 722.311,76.9689984 722.281,77.287 C722.251,77.6050016 722.224,77.9019986 722.2,78.178 L722.236,78.214 C722.512001,77.7099975 722.892998,77.3350012 723.379,77.089 C723.865002,76.8429988 724.389997,76.72 724.954,76.72 C725.578003,76.72 726.135998,76.8279989 726.628,77.044 C727.120002,77.2600011 727.536998,77.5569981 727.879,77.935 C728.221002,78.3130019 728.481999,78.7599974 728.662,79.276 C728.842001,79.7920026 728.932,80.349997 728.932,80.95 C728.932,81.5620031 728.833001,82.1289974 728.635,82.651 C728.436999,83.1730026 728.152002,83.6289981 727.78,84.019 C727.407998,84.4090019 726.964003,84.7119989 726.448,84.928 C725.931997,85.1440011 725.362003,85.252 724.738,85.252 C723.813995,85.252 723.055003,85.0810017 722.461,84.739 C721.866997,84.3969983 721.399002,83.929003 721.057,83.335 C720.714998,82.740997 720.478001,82.045004 720.346,81.247 C720.213999,80.448996 720.148,79.5880046 720.148,78.664 C720.148,77.9079962 720.228999,77.1460038 720.391,76.378 C720.553001,75.6099962 720.819998,74.9110031 721.192,74.281 C721.564002,73.6509968 722.052997,73.138002 722.659,72.742 C723.265003,72.345998 724.011996,72.148 724.9,72.148 C725.404003,72.148 725.877998,72.2319992 726.322,72.4 C726.766002,72.5680008 727.158998,72.8019985 727.501,73.102 C727.843002,73.4020015 728.121999,73.7619979 728.338,74.182 C728.554001,74.6020021 728.674,75.0699974 728.698,75.586 L726.646,75.586 Z M724.666,83.542 C725.038002,83.542 725.361999,83.4670007 725.638,83.317 C725.914001,83.1669993 726.144999,82.9720012 726.331,82.732 C726.517001,82.4919988 726.655,82.2130016 726.745,81.895 C726.835,81.5769984 726.88,81.2500017 726.88,80.914 C726.88,80.5779983 726.835,80.2540016 726.745,79.942 C726.655,79.6299984 726.517001,79.3570012 726.331,79.123 C726.144999,78.8889988 725.914001,78.7000007 725.638,78.556 C725.361999,78.4119993 725.038002,78.34 724.666,78.34 C724.293998,78.34 723.967001,78.4089993 723.685,78.547 C723.402999,78.6850007 723.166001,78.8709988 722.974,79.105 C722.781999,79.3390012 722.638,79.6119984 722.542,79.924 C722.446,80.2360016 722.398,80.5659983 722.398,80.914 C722.398,81.2620017 722.446,81.5919984 722.542,81.904 C722.638,82.2160016 722.781999,82.4949988 722.974,82.741 C723.166001,82.9870012 723.402999,83.1819993 723.685,83.326 C723.967001,83.4700007 724.293998,83.542 724.666,83.542 Z" id="Large,-5-REm-T-*-5R" fill="#000000"></path>
        </g>
    </g>
</svg>