<?xml version="1.0" encoding="UTF-8"?>
<svg width="174px" height="235px" viewBox="0 0 174 235" version="1.1" xmlns="http://www.w3.org/2000/svg" xmlns:xlink="http://www.w3.org/1999/xlink">
    <!-- Generator: Sketch 49.3 (51167) - http://www.bohemiancoding.com/sketch -->
    <title>Type_Helvetica</title>
    <desc>Created with Sketch.</desc>
    <defs></defs>
    <g id="Sketches" stroke="none" stroke-width="1" fill="none" fill-rule="evenodd">
        <g id="Type_Helvetica" fill="#000000">
            <path d="M0,139.325444 L0,113.159763 L5.34904908,113.159763 L5.34904908,123.136095 L15.4508598,123.136095 L15.4508598,113.159763 L20.8174468,113.159763 L20.8174468,139.325444 L15.4508598,139.325444 L15.4508598,127.64497 L5.34904908,127.64497 L5.34904908,139.325444 L0,139.325444 Z M33.1114907,123.633136 C31.9539858,123.633136 31.0566406,123.999996 30.4194283,124.733728 C29.782216,125.467459 29.3817721,126.461532 29.2180845,127.715976 L36.9873591,127.715976 C36.9055153,126.378692 36.5050714,125.363909 35.7860153,124.671598 C35.0669592,123.979286 34.1754599,123.633136 33.1114907,123.633136 Z M33.1114907,119.461538 C34.7015985,119.461538 36.1338432,119.763311 37.4082679,120.366864 C38.6826925,120.970417 39.7349539,121.92307 40.5650837,123.224852 C41.3133697,124.372787 41.7985792,125.704134 42.0207266,127.218935 C42.1493382,128.106513 42.2019513,129.384607 42.1785674,131.053254 L29.0953194,131.053254 C29.1654713,132.994093 29.7675986,134.355026 30.9017196,135.136095 C31.5915458,135.621304 32.4216631,135.863905 33.3920966,135.863905 C34.4209898,135.863905 35.2569531,135.56805 35.9000114,134.976331 C36.2507705,134.656803 36.560603,134.213021 36.8295183,133.64497 L41.9330372,133.64497 C41.8044256,134.792905 41.21399,135.958574 40.1617128,137.142012 C38.5248371,139.023678 36.2332456,139.964497 33.2868694,139.964497 C30.8549398,139.964497 28.7094957,139.171606 26.8504726,137.585799 C24.9914495,135.999992 24.0619519,133.420136 24.0619519,129.846154 C24.0619519,126.497025 24.9008381,123.929003 26.5786357,122.142012 C28.2564332,120.355021 30.4340298,119.461538 33.1114907,119.461538 Z M50.6493566,139.325444 L45.6510648,139.325444 L45.6510648,113.159763 L50.6493566,113.159763 L50.6493566,139.325444 Z M67.3103291,119.976331 L72.6769161,119.976331 L65.7845348,139.325444 L60.5056372,139.325444 L53.6483316,119.976331 L59.2604487,119.976331 L63.2415442,134.248521 L67.3103291,119.976331 Z M83.0417948,123.633136 C81.8842899,123.633136 80.9869447,123.999996 80.3497324,124.733728 C79.7125201,125.467459 79.3120761,126.461532 79.1483886,127.715976 L86.9176631,127.715976 C86.8358194,126.378692 86.4353754,125.363909 85.7163193,124.671598 C84.9972632,123.979286 84.105764,123.633136 83.0417948,123.633136 Z M83.0417948,119.461538 C84.6319026,119.461538 86.0641473,119.763311 87.3385719,120.366864 C88.6129965,120.970417 89.665258,121.92307 90.4953878,123.224852 C91.2436738,124.372787 91.7288832,125.704134 91.9510306,127.218935 C92.0796423,128.106513 92.1322554,129.384607 92.1088714,131.053254 L79.0256235,131.053254 C79.0957753,132.994093 79.6979027,134.355026 80.8320237,135.136095 C81.5218499,135.621304 82.3519672,135.863905 83.3224006,135.863905 C84.3512939,135.863905 85.1872572,135.56805 85.8303155,134.976331 C86.1810745,134.656803 86.4909071,134.213021 86.7598223,133.64497 L91.8633413,133.64497 C91.7347296,134.792905 91.1442941,135.958574 90.0920169,137.142012 C88.4551412,139.023678 86.1635496,139.964497 83.2171734,139.964497 C80.7852439,139.964497 78.6397998,139.171606 76.7807767,137.585799 C74.9217536,135.999992 73.992256,133.420136 73.992256,129.846154 C73.992256,126.497025 74.8311422,123.929003 76.5089398,122.142012 C78.1867373,120.355021 80.3643339,119.461538 83.0417948,119.461538 Z M93.5119007,123.757396 L93.5119007,120.153846 L96.1776563,120.153846 L96.1776563,114.757396 L101.123334,114.757396 L101.123334,120.153846 L104.227537,120.153846 L104.227537,123.757396 L101.123334,123.757396 L101.123334,133.982249 C101.123334,134.775152 101.222715,135.26923 101.421478,135.464497 C101.620242,135.659764 102.228215,135.757396 103.245416,135.757396 C103.397412,135.757396 103.558174,135.754438 103.727708,135.748521 C103.897241,135.742604 104.063849,135.733728 104.227537,135.721893 L104.227537,139.502959 L101.859925,139.591716 C99.4981471,139.674557 97.8846796,139.26036 97.0194739,138.349112 C96.4582594,137.769228 96.1776563,136.875746 96.1776563,135.668639 L96.1776563,123.757396 L93.5119007,123.757396 Z M112.575561,117.668639 L107.507118,117.668639 L107.507118,113 L112.575561,113 L112.575561,117.668639 Z M107.507118,119.976331 L112.575561,119.976331 L112.575561,139.325444 L107.507118,139.325444 L107.507118,119.976331 Z M128.833163,126.91716 C128.739627,126.195263 128.499945,125.544382 128.11411,124.964497 C127.552895,124.183428 126.681857,123.792899 125.500968,123.792899 C123.817324,123.792899 122.665683,124.639045 122.046008,126.331361 C121.718633,127.230774 121.554948,128.426028 121.554948,129.91716 C121.554948,131.337285 121.718633,132.479286 122.046008,133.343195 C122.642299,134.952671 123.764711,135.757396 125.413279,135.757396 C126.582476,135.757396 127.412593,135.437873 127.903656,134.798817 C128.394718,134.15976 128.692859,133.331366 128.798087,132.313609 L133.901606,132.313609 C133.784686,133.852079 133.235172,135.307685 132.253046,136.680473 C130.686323,138.893502 128.365501,140 125.290514,140 C122.215526,140 119.953164,139.076932 118.50336,137.230769 C117.053555,135.384606 116.328664,132.98818 116.328664,130.04142 C116.328664,126.71596 117.129552,124.130187 118.731352,122.284024 C120.333152,120.437861 122.542901,119.514793 125.360665,119.514793 C127.757519,119.514793 129.718817,120.059166 131.244619,121.147929 C132.770421,122.236692 133.673612,124.15975 133.954219,126.91716 L128.833163,126.91716 Z M147.931898,129.91716 C147.616215,130.118344 147.297614,130.281064 146.976085,130.405325 C146.654556,130.529586 146.21319,130.64497 145.651976,130.751479 L144.529552,130.964497 C143.477275,131.153847 142.723155,131.384614 142.267168,131.656805 C141.495498,132.118346 141.109669,132.834315 141.109669,133.804734 C141.109669,134.668643 141.346427,135.292897 141.819952,135.677515 C142.293477,136.062132 142.869298,136.254438 143.547432,136.254438 C144.623093,136.254438 145.613973,135.934914 146.5201,135.295858 C147.426228,134.656802 147.896823,133.491133 147.931898,131.798817 L147.931898,129.91716 Z M144.897848,127.556213 C145.821513,127.437869 146.4821,127.289942 146.879626,127.112426 C147.592837,126.804732 147.949436,126.325447 147.949436,125.674556 C147.949436,124.881653 147.677602,124.334321 147.133926,124.032544 C146.590249,123.730768 145.792284,123.579882 144.740007,123.579882 C143.559118,123.579882 142.723155,123.875737 142.232092,124.467456 C141.881333,124.905328 141.647497,125.497038 141.530577,126.242604 L136.707664,126.242604 C136.812892,124.550287 137.280564,123.159769 138.110694,122.071006 C139.431886,120.366855 141.700094,119.514793 144.915385,119.514793 C147.008248,119.514793 148.867243,119.934907 150.492427,120.775148 C152.117611,121.615389 152.93019,123.201172 152.93019,125.532544 L152.93019,134.408284 C152.93019,135.023672 152.941882,135.769226 152.965266,136.64497 C153.000342,137.307696 153.099722,137.757395 153.26341,137.994083 C153.427097,138.23077 153.672625,138.426035 154,138.579882 L154,139.325444 L148.563262,139.325444 C148.411266,138.934909 148.30604,138.568049 148.24758,138.224852 C148.18912,137.881655 148.142353,137.491126 148.107277,137.053254 C147.417451,137.810655 146.622409,138.455619 145.722127,138.988166 C144.646466,139.615388 143.43052,139.928994 142.074251,139.928994 C140.34384,139.928994 138.914518,139.428999 137.786243,138.428994 C136.657968,137.428989 136.093839,136.011843 136.093839,134.177515 C136.093839,131.798805 136.999953,130.076928 138.812208,129.011834 C139.806026,128.43195 141.2675,128.017753 143.196675,127.769231 L144.897848,127.556213 Z" id="Helvetica"></path>
            <text id="Sans-serif" font-family="HelveticaNeue-Bold, Helvetica Neue" font-size="36" font-weight="bold">
                <tspan x="0" y="234">Sans-serif</tspan>
            </text>
            <path d="M30.3350618,54.7281167 L52.7124053,54.7281167 L41.703231,20.1127321 L30.3350618,54.7281167 Z M31.4718787,0 L52.293578,0 L83.5261268,87.9708223 L63.5420822,87.9708223 L57.8579976,69.8872679 L25.3689669,69.8872679 L19.266055,87.9708223 L0,87.9708223 L31.4718787,0 Z M129.297966,56.3395225 C128.220976,57.0159185 127.13403,57.5629953 126.037096,57.9807692 C124.940162,58.3985432 123.434393,58.7864704 121.519745,59.1445623 L117.690467,59.8607427 C114.100501,60.4973507 111.52773,61.273205 109.972078,62.1883289 C107.339436,63.7400608 106.023135,66.1471985 106.023135,69.4098143 C106.023135,72.3143381 106.830865,74.4131235 108.44635,75.7062334 C110.061835,76.9993433 112.026315,77.6458886 114.339848,77.6458886 C118.009592,77.6458886 121.390092,76.5716288 124.481452,74.4230769 C127.572812,72.2745251 129.1783,68.3554661 129.297966,62.6657825 L129.297966,56.3395225 Z M118.946949,48.4018568 C122.098141,48.0039768 124.351808,47.5066343 125.708018,46.9098143 C128.141217,45.8753264 129.357798,44.2639367 129.357798,42.0755968 C129.357798,39.409801 128.430404,37.5696337 126.575588,36.5550398 C124.720773,35.5404459 121.998422,35.0331565 118.408456,35.0331565 C114.379717,35.0331565 111.527731,36.0278415 109.852413,38.0172414 C108.655758,39.4893973 107.858,41.4787673 107.459114,43.9854111 L91.0051855,43.9854111 C91.3641821,38.2957275 92.9596986,33.620708 95.791783,29.9602122 C100.299185,24.2307406 108.03744,21.3660477 119.006781,21.3660477 C126.146825,21.3660477 132.489003,22.7785005 138.033506,25.6034483 C143.578009,28.4283961 146.350219,33.7599078 146.350219,41.5981432 L146.350219,71.438992 C146.350219,73.5079679 146.390107,76.0145741 146.469884,78.9588859 C146.58955,81.1870138 146.928597,82.698935 147.487036,83.494695 C148.045475,84.2904549 148.883122,84.946947 150,85.464191 L150,87.9708223 L131.451935,87.9708223 C130.933384,86.6578184 130.574393,85.424409 130.37495,84.270557 C130.175508,83.1167051 130.015956,81.8037209 129.89629,80.331565 C127.542868,82.8779968 124.83049,85.0464101 121.759075,86.83687 C118.089331,88.9456339 113.940988,90 109.313921,90 C103.410421,90 98.5341238,88.3189823 94.6848823,84.9568966 C90.8356409,81.5948108 88.9110491,76.8302696 88.9110491,70.66313 C88.9110491,62.6657425 92.0023624,56.8766757 98.1850818,53.295756 C101.575605,51.3461441 106.561595,49.9535851 113.143199,49.1180371 L118.946949,48.4018568 Z" id="Aa"></path>
            <path d="M0,161 L1.76101241,161 L1.76101241,166.236231 L8.45461183,166.236231 L8.45461183,161 L10.2156242,161 L10.2156242,173.672196 L8.45461183,173.672196 L8.45461183,167.745853 L1.76101241,167.745853 L1.76101241,173.672196 L0,173.672196 L0,161 Z M16.611341,164.226277 C17.2771997,164.226277 17.9226058,164.380113 18.5475785,164.68779 C19.1725512,164.995467 19.6485747,165.393716 19.9756632,165.882548 C20.29107,166.348377 20.501338,166.891835 20.6064736,167.51294 C20.6999275,167.938511 20.7466537,168.617115 20.7466537,169.548772 L13.8690679,169.548772 C13.8982722,170.48618 14.1231422,171.238108 14.5436846,171.804579 C14.964227,172.371049 15.6154738,172.65428 16.4974446,172.65428 C17.3210068,172.65428 17.9780944,172.386864 18.4687272,171.852024 C18.7490888,171.541472 18.9476752,171.182041 19.0644926,170.773723 L20.6152349,170.773723 C20.5743488,171.11303 20.4385507,171.49115 20.2078365,171.908096 C19.9771222,172.325041 19.7186678,172.665781 19.4324653,172.930325 C18.9535143,173.390403 18.3606752,173.70095 17.6539304,173.861977 C17.2742741,173.953993 16.8449768,174 16.3660258,174 C15.1978525,174 14.2078405,173.581623 13.3959601,172.744857 C12.5840797,171.908091 12.1781455,170.736349 12.1781455,169.229595 C12.1781455,167.745845 12.587,166.541035 13.4047213,165.615129 C14.2224426,164.689223 15.2913052,164.226277 16.611341,164.226277 Z M19.1258214,168.315196 C19.0615718,167.642332 18.912632,167.104625 18.6789973,166.702057 C18.2467732,165.954431 17.525437,165.580624 16.5149671,165.580624 C15.7906997,165.580624 15.1832587,165.837976 14.6926259,166.352687 C14.2019932,166.867399 13.9420785,167.521562 13.9128742,168.315196 L19.1258214,168.315196 Z M22.7266975,161 L24.3037235,161 L24.3037235,173.672196 L22.7266975,173.672196 L22.7266975,161 Z M27.4402531,164.433311 L29.9459723,171.955541 L32.5655877,164.433311 L34.2915551,164.433311 L30.7520078,173.672196 L29.0698467,173.672196 L25.6091506,164.433311 L27.4402531,164.433311 Z M39.5483086,164.226277 C40.2141674,164.226277 40.8595734,164.380113 41.4845461,164.68779 C42.1095188,164.995467 42.5855423,165.393716 42.9126308,165.882548 C43.2280376,166.348377 43.4383056,166.891835 43.5434412,167.51294 C43.6368951,167.938511 43.6836213,168.617115 43.6836213,169.548772 L36.8060355,169.548772 C36.8352399,170.48618 37.0601098,171.238108 37.4806522,171.804579 C37.9011946,172.371049 38.5524414,172.65428 39.4344123,172.65428 C40.2579744,172.65428 40.915062,172.386864 41.4056948,171.852024 C41.6860564,171.541472 41.8846429,171.182041 42.0014602,170.773723 L43.5522025,170.773723 C43.5113164,171.11303 43.3755183,171.49115 43.1448041,171.908096 C42.9140899,172.325041 42.6556354,172.665781 42.369433,172.930325 C41.8904819,173.390403 41.2976429,173.70095 40.590898,173.861977 C40.2112417,173.953993 39.7819445,174 39.3029934,174 C38.1348202,174 37.1448081,173.581623 36.3329277,172.744857 C35.5210473,171.908091 35.1151132,170.736349 35.1151132,169.229595 C35.1151132,167.745845 35.5239677,166.541035 36.341689,165.615129 C37.1594103,164.689223 38.2282728,164.226277 39.5483086,164.226277 Z M42.062789,168.315196 C41.9985395,167.642332 41.8495996,167.104625 41.615965,166.702057 C41.1837408,165.954431 40.4624047,165.580624 39.4519348,165.580624 C38.7276673,165.580624 38.1202264,165.837976 37.6295936,166.352687 C37.1389608,166.867399 36.8790461,167.521562 36.8498418,168.315196 L42.062789,168.315196 Z M45.9352641,161.854015 L47.5298126,161.854015 L47.5298126,164.433311 L49.0279873,164.433311 L49.0279873,165.701393 L47.5298126,165.701393 L47.5298126,171.731254 C47.5298126,172.053308 47.6407874,172.268966 47.8627403,172.378235 C47.9853985,172.441496 48.1898258,172.473125 48.4760282,172.473125 C48.5519595,172.473125 48.6337304,172.471688 48.7213434,172.468812 C48.8089564,172.465937 48.91117,172.458748 49.0279873,172.447246 L49.0279873,173.672196 C48.8469205,173.723955 48.6585554,173.761336 48.4628863,173.78434 C48.2672173,173.807344 48.0554891,173.818845 47.8276953,173.818845 C47.0917461,173.818845 46.5923596,173.633379 46.3295206,173.262442 C46.0666816,172.891504 45.9352641,172.409868 45.9352641,171.817518 L45.9352641,165.701393 L44.664882,165.701393 L44.664882,164.433311 L45.9352641,164.433311 L45.9352641,161.854015 Z M50.6050134,164.476443 L52.2083232,164.476443 L52.2083232,173.672196 L50.6050134,173.672196 L50.6050134,164.476443 Z M50.6050134,161 L52.2083232,161 L52.2083232,162.759788 L50.6050134,162.759788 L50.6050134,161 Z M58.2097834,164.165893 C59.2669802,164.165893 60.1270349,164.418931 60.7899732,164.925017 C61.4529116,165.431102 61.8515447,166.302361 61.9858846,167.538819 L60.4526649,167.538819 C60.359211,166.969473 60.1460226,166.496463 59.8130932,166.119774 C59.4801638,165.743086 58.9457326,165.554745 58.2097834,165.554745 C57.2051544,165.554745 56.4867386,166.037819 56.0545145,167.003981 C55.7741529,167.630837 55.6339742,168.404331 55.6339742,169.324486 C55.6339742,170.250392 55.8325607,171.029636 56.2297396,171.662243 C56.6269185,172.294849 57.2518818,172.611148 58.1046483,172.611148 C58.7588254,172.611148 59.2771945,172.41418 59.6597712,172.020239 C60.042348,171.626298 60.3066432,171.087152 60.4526649,170.402787 L61.9858846,170.402787 C61.8106587,171.627743 61.3726002,172.523443 60.6716963,173.089914 C59.9707923,173.656384 59.0742328,173.939615 57.9819908,173.939615 C56.7554088,173.939615 55.7770784,173.498235 55.0469701,172.615461 C54.3168618,171.732687 53.9518131,170.629956 53.9518131,169.307233 C53.9518131,167.68546 54.3519064,166.423141 55.1521051,165.520239 C55.9523038,164.617337 56.9715197,164.165893 58.2097834,164.165893 Z M64.771964,171.21367 C64.771964,171.662245 64.9384262,172.015924 65.2713556,172.274718 C65.6042849,172.533512 65.9985375,172.662906 66.4541251,172.662906 C67.0090074,172.662906 67.546359,172.536387 68.0661962,172.283344 C68.9423261,171.863524 69.3803845,171.176293 69.3803845,170.221632 L69.3803845,168.970803 C69.1876359,169.091573 68.9394028,169.192214 68.6356778,169.272727 C68.3319527,169.353241 68.034073,169.41075 67.7420297,169.445255 L66.7870528,169.566025 C66.2146479,169.640788 65.7853507,169.758681 65.4991482,169.919708 C65.0143563,170.190004 64.771964,170.62132 64.771964,171.21367 Z M68.5918715,168.073656 C68.9540052,168.027649 69.1963975,167.878126 69.3190557,167.625083 C69.3891461,167.48706 69.4241908,167.288654 69.4241908,167.029861 C69.4241908,166.500772 69.2329053,166.1169 68.8503285,165.878235 C68.4677518,165.63957 67.9201788,165.520239 67.2075931,165.520239 C66.3840309,165.520239 65.799953,165.738772 65.4553419,166.175846 C65.2625933,166.417387 65.1370166,166.776817 65.0786079,167.254147 L63.606717,167.254147 C63.6359213,166.115455 64.0111913,165.323271 64.7325383,164.877571 C65.4538853,164.431871 66.2905769,164.209025 67.2426381,164.209025 C68.3465619,164.209025 69.2431214,164.416056 69.9323436,164.830126 C70.615725,165.244196 70.9574106,165.888295 70.9574106,166.762442 L70.9574106,172.084937 C70.9574106,172.245964 70.990995,172.375359 71.058165,172.473125 C71.125335,172.570892 71.2669739,172.619774 71.4830859,172.619774 C71.5531763,172.619774 71.6320268,172.615461 71.7196398,172.606835 C71.8072528,172.598208 71.9007053,172.585269 72,172.568016 L72,173.715328 C71.7546836,173.78434 71.5677787,173.827472 71.4392796,173.844725 C71.3107806,173.861978 71.1355572,173.870604 70.9136043,173.870604 C70.3704037,173.870604 69.9761511,173.680825 69.7308348,173.301261 C69.6023357,173.099977 69.5118036,172.815308 69.4592358,172.447246 C69.1379882,172.861316 68.6765666,173.220746 68.0749574,173.525547 C67.4733482,173.830349 66.8104198,173.982747 66.0861523,173.982747 C65.2158633,173.982747 64.5047484,173.72252 63.9527866,173.202057 C63.4008247,172.681594 63.1248479,172.030307 63.1248479,171.248175 C63.1248479,170.391281 63.3964441,169.727054 63.9396447,169.255474 C64.4828453,168.783895 65.1954203,168.493475 66.0773911,168.384207 L68.5918715,168.073656 Z" id="Helvetica-Copy"></path>
        </g>
    </g>
</svg>