<?xml version="1.0" encoding="UTF-8"?>
<svg width="233px" height="235px" viewBox="0 0 233 235" version="1.1" xmlns="http://www.w3.org/2000/svg" xmlns:xlink="http://www.w3.org/1999/xlink">
    <!-- Generator: Sketch 49.3 (51167) - http://www.bohemiancoding.com/sketch -->
    <title>Type_SanFrancisco</title>
    <desc>Created with Sketch.</desc>
    <defs></defs>
    <g id="Sketches" stroke="none" stroke-width="1" fill="none" fill-rule="evenodd">
        <g id="Type_SanFrancisco" fill="#000000">
            <path d="M0,131.410058 L5.11219181,131.410058 C5.35813918,133.481625 7.5365302,134.839458 10.3473573,134.839458 C13.1757521,134.839458 15.1081957,133.499033 15.1081957,131.653772 C15.1081957,130.017408 13.8960265,129.112186 10.8392521,128.433269 L7.5365302,127.719536 C2.86353012,126.727273 0.562165423,124.377176 0.562165423,120.704062 C0.562165423,116.073501 4.6027294,113.009671 10.259519,113.009671 C16.1622559,113.009671 19.8690342,116.021277 19.9568725,120.564797 L14.985222,120.564797 C14.8095454,118.441006 12.9298047,117.152805 10.2770866,117.152805 C7.65950388,117.152805 5.90273694,118.388781 5.90273694,120.251451 C5.90273694,121.800774 7.1324738,122.67118 10.0487069,123.332689 L13.1230491,123.976789 C18.2001056,125.056093 20.4136319,127.2147 20.4136319,131.044487 C20.4136319,135.918762 16.4257709,139 10.1365453,139 C4.04056397,139 0.158109025,136.12766 0,131.410058 Z M30.6907185,135.083172 C33.0623539,135.083172 34.9596622,133.62089 34.9596622,131.531915 L34.9596622,130.121857 L30.9015306,130.400387 C28.7582749,130.539652 27.6163764,131.375242 27.6163764,132.7853 C27.6163764,134.195358 28.8285456,135.083172 30.6907185,135.083172 Z M29.0217899,138.791103 C25.297444,138.791103 22.5041846,136.475822 22.5041846,133.046422 C22.5041846,129.564797 25.192038,127.597679 30.1285531,127.301741 L34.9596622,127.005803 L34.9596622,125.73501 C34.9596622,123.889749 33.6772223,122.880077 31.569102,122.880077 C29.7069291,122.880077 28.4069215,123.854932 28.1609741,125.247582 L23.4704064,125.247582 C23.6109477,121.591876 26.9488049,119.067698 31.779914,119.067698 C36.7515645,119.067698 40.0015834,121.591876 40.0015834,125.421663 L40.0015834,138.564797 L35.0475006,138.564797 L35.0475006,135.605416 L34.9420945,135.605416 C33.8880344,137.60735 31.4988313,138.791103 29.0217899,138.791103 Z M43.4448466,138.564797 L43.4448466,119.398453 L48.3989294,119.398453 L48.3989294,122.827853 L48.5043354,122.827853 C49.6110985,120.408124 51.5786775,119.119923 54.5476137,119.119923 C58.834125,119.119923 61.2584634,121.800774 61.2584634,126.274662 L61.2584634,138.564797 L56.1287039,138.564797 L56.1287039,127.336557 C56.1287039,124.794971 54.9341024,123.350097 52.509764,123.350097 C50.0502903,123.350097 48.574606,125.090909 48.574606,127.632495 L48.574606,138.564797 L43.4448466,138.564797 Z M78.0531554,138.564797 L72.7477192,138.564797 L72.7477192,113.444874 L89.3491669,113.444874 L89.3491669,117.779497 L78.0531554,117.779497 L78.0531554,124.516441 L88.3653774,124.516441 L88.3653774,128.676983 L78.0531554,128.676983 L78.0531554,138.564797 Z M92.107291,138.564797 L92.107291,119.398453 L97.0613737,119.398453 L97.0613737,122.827853 L97.1667798,122.827853 C97.8167835,120.460348 99.4857121,119.172147 101.769509,119.172147 C102.36681,119.172147 102.89384,119.241779 103.262761,119.363636 L103.262761,123.854932 C102.823569,123.680851 102.120863,123.558994 101.365453,123.558994 C98.7654377,123.558994 97.2370504,125.160542 97.2370504,127.841393 L97.2370504,138.564797 L92.107291,138.564797 Z M112.837141,135.083172 C115.208776,135.083172 117.106085,133.62089 117.106085,131.531915 L117.106085,130.121857 L113.047953,130.400387 C110.904697,130.539652 109.762799,131.375242 109.762799,132.7853 C109.762799,134.195358 110.974968,135.083172 112.837141,135.083172 Z M111.168212,138.791103 C107.443866,138.791103 104.650607,136.475822 104.650607,133.046422 C104.650607,129.564797 107.33846,127.597679 112.274975,127.301741 L117.106085,127.005803 L117.106085,125.73501 C117.106085,123.889749 115.823645,122.880077 113.715524,122.880077 C111.853351,122.880077 110.553344,123.854932 110.307397,125.247582 L105.616829,125.247582 C105.75737,121.591876 109.095227,119.067698 113.926336,119.067698 C118.897987,119.067698 122.148006,121.591876 122.148006,125.421663 L122.148006,138.564797 L117.193923,138.564797 L117.193923,135.605416 L117.088517,135.605416 C116.034457,137.60735 113.645254,138.791103 111.168212,138.791103 Z M125.591269,138.564797 L125.591269,119.398453 L130.545352,119.398453 L130.545352,122.827853 L130.650758,122.827853 C131.757521,120.408124 133.7251,119.119923 136.694036,119.119923 C140.980547,119.119923 143.404886,121.800774 143.404886,126.274662 L143.404886,138.564797 L138.275126,138.564797 L138.275126,127.336557 C138.275126,124.794971 137.080525,123.350097 134.656186,123.350097 C132.196713,123.350097 130.721028,125.090909 130.721028,127.632495 L130.721028,138.564797 L125.591269,138.564797 Z M164.275277,126.466151 L159.496871,126.466151 C159.215788,124.481625 157.810375,123.071567 155.579281,123.071567 C152.94413,123.071567 151.275202,125.299807 151.275202,128.972921 C151.275202,132.715667 152.94413,134.874275 155.596848,134.874275 C157.757672,134.874275 159.180653,133.70793 159.514439,131.601547 L164.292845,131.601547 C163.994194,136.058027 160.621202,138.895551 155.544145,138.895551 C149.764382,138.895551 146.075172,135.135397 146.075172,128.972921 C146.075172,122.897485 149.764382,119.067698 155.50901,119.067698 C160.70904,119.067698 164.02933,122.201161 164.275277,126.466151 Z M166.945563,138.564797 L166.945563,119.398453 L172.075322,119.398453 L172.075322,138.564797 L166.945563,138.564797 Z M169.510443,117.309478 C167.999623,117.309478 166.752318,116.160542 166.752318,114.646035 C166.752318,113.131528 167.999623,112 169.510443,112 C171.03883,112 172.286134,113.131528 172.286134,114.646035 C172.286134,116.160542 171.03883,117.309478 169.510443,117.309478 Z M175.307774,125.038685 C175.307774,121.435203 178.505089,119.067698 183.406469,119.067698 C188.184875,119.067698 191.364623,121.487427 191.434894,125.143133 L186.691623,125.143133 C186.586217,123.628627 185.303777,122.67118 183.336198,122.67118 C181.491593,122.67118 180.261856,123.489362 180.261856,124.725338 C180.261856,125.682785 181.105104,126.326886 182.844304,126.727273 L186.480811,127.510638 C190.363266,128.381044 191.909221,129.860735 191.909221,132.715667 C191.909221,136.441006 188.44839,138.895551 183.388901,138.895551 C178.294277,138.895551 175.096961,136.458414 174.833446,132.767892 L179.840232,132.767892 C180.08618,134.386847 181.403755,135.29207 183.529443,135.29207 C185.567292,135.29207 186.814597,134.508704 186.814597,133.255319 C186.814597,132.263056 186.147026,131.740812 184.390259,131.323017 L180.824022,130.522244 C177.187514,129.704062 175.307774,127.841393 175.307774,125.038685 Z M212.059338,126.466151 L207.280932,126.466151 C206.999849,124.481625 205.594436,123.071567 203.363342,123.071567 C200.728191,123.071567 199.059263,125.299807 199.059263,128.972921 C199.059263,132.715667 200.728191,134.874275 203.380909,134.874275 C205.541733,134.874275 206.964714,133.70793 207.2985,131.601547 L212.076906,131.601547 C211.778255,136.058027 208.405263,138.895551 203.328206,138.895551 C197.548443,138.895551 193.859232,135.135397 193.859232,128.972921 C193.859232,122.897485 197.548443,119.067698 203.293071,119.067698 C208.493101,119.067698 211.813391,122.201161 212.059338,126.466151 Z M223.460755,138.895551 C217.593154,138.895551 213.921511,135.170213 213.921511,128.972921 C213.921511,122.845261 217.645857,119.067698 223.460755,119.067698 C229.293222,119.067698 233,122.827853 233,128.972921 C233,135.187621 229.328357,138.895551 223.460755,138.895551 Z M223.460755,134.978723 C226.166177,134.978723 227.782402,132.7853 227.782402,128.972921 C227.782402,125.195358 226.148609,122.967118 223.460755,122.967118 C220.755334,122.967118 219.121541,125.212766 219.121541,128.972921 C219.121541,132.7853 220.755334,134.978723 223.460755,134.978723 Z" id="San-Francisco"></path>
            <text id="Sans-serif" font-family="HelveticaNeue-Bold, Helvetica Neue" font-size="36" font-weight="bold">
                <tspan x="0" y="234">Sans-serif</tspan>
            </text>
            <path d="M64.3067762,89.1964286 L57.4854209,67.5618132 L26.0451745,67.5618132 L19.2238193,89.1964286 L0,89.1964286 L31.0681725,0 L53.0825462,0 L84.212731,89.1964286 L64.3067762,89.1964286 Z M41.5482546,17.0604396 L30.0759754,53.592033 L53.4546201,53.592033 L41.9823409,17.0604396 L41.5482546,17.0604396 Z M118.13347,76.8337912 C126.505133,76.8337912 133.202464,71.6414835 133.202464,64.2239011 L133.202464,59.217033 L118.877618,60.206044 C111.312115,60.7005495 107.281314,63.6675824 107.281314,68.6744505 C107.281314,73.6813187 111.560164,76.8337912 118.13347,76.8337912 Z M112.2423,90 C99.0956879,90 89.235729,81.7788462 89.235729,69.6016484 C89.235729,57.239011 98.723614,50.2541209 116.149076,49.2032967 L133.202464,48.1524725 L133.202464,43.6401099 C133.202464,37.0879121 128.675565,33.5027473 121.234086,33.5027473 C114.66078,33.5027473 110.071869,36.9642857 109.203696,41.9093407 L92.6464066,41.9093407 C93.1425051,28.9285714 104.924846,19.9656593 121.978234,19.9656593 C139.527721,19.9656593 151,28.9285714 151,42.5274725 L151,89.1964286 L133.512526,89.1964286 L133.512526,78.6881868 L133.140452,78.6881868 C129.419713,85.7967033 120.986037,90 112.2423,90 Z" id="Aa"></path>
            <path d="M0,170.341578 L1.5877193,170.341578 C1.73684211,171.697193 3.03508772,172.592246 4.84210526,172.592246 C6.55263158,172.592246 7.79824561,171.697193 7.79824561,170.463235 C7.79824561,169.403075 7.05263158,168.751337 5.35087719,168.316845 L3.72807018,167.899733 C1.39473684,167.308824 0.359649123,166.292112 0.359649123,164.588904 C0.359649123,162.503342 2.20175439,161.043449 4.83333333,161.043449 C7.35087719,161.043449 9.1754386,162.520722 9.24561404,164.623663 L7.66666667,164.623663 C7.52631579,163.276738 6.42982456,162.451203 4.78070175,162.451203 C3.14035088,162.451203 2,163.294118 2,164.519385 C2,165.466578 2.70175439,166.031417 4.42105263,166.474599 L5.74561404,166.822193 C8.36842105,167.47393 9.42982456,168.473262 9.42982456,170.272059 C9.42982456,172.566176 7.60526316,174 4.69298246,174 C2.00877193,174 0.149122807,172.557487 0,170.341578 Z M14.1666667,172.566176 C15.7105263,172.566176 16.8421053,171.575535 16.8421053,170.22861 L16.8421053,169.472594 L14.3684211,169.629011 C12.9473684,169.715909 12.2105263,170.22861 12.2105263,171.132353 C12.2105263,172.001337 12.9736842,172.566176 14.1666667,172.566176 Z M13.8421053,173.878342 C11.9210526,173.878342 10.6491228,172.783422 10.6491228,171.123663 C10.6491228,169.516043 11.8947368,168.56885 14.1929825,168.429813 L16.8421053,168.273396 L16.8421053,167.49131 C16.8421053,166.326872 16.0701754,165.683824 14.6754386,165.683824 C13.5789474,165.683824 12.7631579,166.239973 12.5789474,167.126337 L11.1140351,167.126337 C11.1578947,165.544786 12.7105263,164.336898 14.6929825,164.336898 C16.9298246,164.336898 18.3684211,165.518717 18.3684211,167.360963 L18.3684211,173.791444 L16.9210526,173.791444 L16.9210526,172.166444 L16.8859649,172.166444 C16.3508772,173.209225 15.1666667,173.878342 13.8421053,173.878342 Z M20.3947368,173.791444 L20.3947368,164.423797 L21.8333333,164.423797 L21.8333333,165.944519 L21.8684211,165.944519 C22.4649123,164.884358 23.4035088,164.336898 24.8684211,164.336898 C26.9473684,164.336898 28.1491228,165.657754 28.1491228,167.786765 L28.1491228,173.791444 L26.622807,173.791444 L26.622807,168.04746 C26.622807,166.518048 25.9035088,165.683824 24.4122807,165.683824 C22.8596491,165.683824 21.9210526,166.743984 21.9210526,168.351604 L21.9210526,173.791444 L20.3947368,173.791444 Z M36.245614,173.791444 L34.6666667,173.791444 L34.6666667,161.252005 L42.3508772,161.252005 L42.3508772,162.659759 L36.245614,162.659759 L36.245614,166.96992 L41.8508772,166.96992 L41.8508772,168.360294 L36.245614,168.360294 L36.245614,173.791444 Z M43.9561404,173.791444 L43.9561404,164.423797 L45.3947368,164.423797 L45.3947368,165.944519 L45.4298246,165.944519 C45.7105263,164.962567 46.6140351,164.336898 47.7192982,164.336898 C47.9912281,164.336898 48.2192982,164.362968 48.3508772,164.389037 L48.3508772,165.875 C48.2280702,165.831551 47.8947368,165.788102 47.5175439,165.788102 C46.2894737,165.788102 45.4824561,166.674465 45.4824561,167.995321 L45.4824561,173.791444 L43.9561404,173.791444 Z M52.7368421,172.566176 C54.2807018,172.566176 55.4122807,171.575535 55.4122807,170.22861 L55.4122807,169.472594 L52.9385965,169.629011 C51.5175439,169.715909 50.7807018,170.22861 50.7807018,171.132353 C50.7807018,172.001337 51.5438596,172.566176 52.7368421,172.566176 Z M52.4122807,173.878342 C50.4912281,173.878342 49.2192982,172.783422 49.2192982,171.123663 C49.2192982,169.516043 50.4649123,168.56885 52.7631579,168.429813 L55.4122807,168.273396 L55.4122807,167.49131 C55.4122807,166.326872 54.6403509,165.683824 53.245614,165.683824 C52.1491228,165.683824 51.3333333,166.239973 51.1491228,167.126337 L49.6842105,167.126337 C49.7280702,165.544786 51.2807018,164.336898 53.2631579,164.336898 C55.5,164.336898 56.9385965,165.518717 56.9385965,167.360963 L56.9385965,173.791444 L55.4912281,173.791444 L55.4912281,172.166444 L55.4561404,172.166444 C54.9210526,173.209225 53.7368421,173.878342 52.4122807,173.878342 Z M58.9649123,173.791444 L58.9649123,164.423797 L60.4035088,164.423797 L60.4035088,165.944519 L60.4385965,165.944519 C61.0350877,164.884358 61.9736842,164.336898 63.4385965,164.336898 C65.5175439,164.336898 66.7192982,165.657754 66.7192982,167.786765 L66.7192982,173.791444 L65.1929825,173.791444 L65.1929825,168.04746 C65.1929825,166.518048 64.4736842,165.683824 62.9824561,165.683824 C61.4298246,165.683824 60.4912281,166.743984 60.4912281,168.351604 L60.4912281,173.791444 L58.9649123,173.791444 Z M76.5614035,167.47393 L75.0614035,167.47393 C74.8684211,166.474599 74.0263158,165.683824 72.6052632,165.683824 C70.9561404,165.683824 69.8333333,167.039439 69.8333333,169.10762 C69.8333333,171.236631 70.9736842,172.531417 72.622807,172.531417 C73.9385965,172.531417 74.8157895,171.923128 75.0789474,170.793449 L76.5789474,170.793449 C76.3245614,172.618316 74.7719298,173.878342 72.6140351,173.878342 C70.0175439,173.878342 68.2807018,172.053476 68.2807018,169.10762 C68.2807018,166.231283 70.0087719,164.336898 72.5964912,164.336898 C74.9385965,164.336898 76.3684211,165.831551 76.5614035,167.47393 Z M78.1315789,173.791444 L78.1315789,164.423797 L79.6578947,164.423797 L79.6578947,173.791444 L78.1315789,173.791444 Z M78.8947368,162.911765 C78.3684211,162.911765 77.9298246,162.477273 77.9298246,161.955882 C77.9298246,161.425802 78.3684211,161 78.8947368,161 C79.4298246,161 79.8596491,161.425802 79.8596491,161.955882 C79.8596491,162.477273 79.4298246,162.911765 78.8947368,162.911765 Z M81.6578947,167.039439 C81.6578947,165.457888 83.1052632,164.345588 85.1578947,164.345588 C87.0789474,164.345588 88.5350877,165.483957 88.5964912,167.022059 L87.1315789,167.022059 C87.0350877,166.144385 86.2631579,165.596925 85.1052632,165.596925 C83.9385965,165.596925 83.1578947,166.144385 83.1578947,166.96123 C83.1578947,167.595588 83.6666667,168.02139 84.754386,168.290775 L86.1929825,168.647059 C88.1052632,169.125 88.7894737,169.785428 88.7894737,171.149733 C88.7894737,172.748663 87.2368421,173.878342 85.0526316,173.878342 C83.0175439,173.878342 81.5438596,172.783422 81.3947368,171.158422 L82.9298246,171.158422 C83.0877193,172.114305 83.8684211,172.627005 85.1578947,172.627005 C86.4473684,172.627005 87.254386,172.096925 87.254386,171.254011 C87.254386,170.593583 86.8596491,170.245989 85.7807018,169.967914 L84.122807,169.542112 C82.4649123,169.11631 81.6578947,168.290775 81.6578947,167.039439 Z M98.2631579,167.47393 L96.7631579,167.47393 C96.5701754,166.474599 95.7280702,165.683824 94.3070175,165.683824 C92.6578947,165.683824 91.5350877,167.039439 91.5350877,169.10762 C91.5350877,171.236631 92.6754386,172.531417 94.3245614,172.531417 C95.6403509,172.531417 96.5175439,171.923128 96.7807018,170.793449 L98.2807018,170.793449 C98.0263158,172.618316 96.4736842,173.878342 94.3157895,173.878342 C91.7192982,173.878342 89.9824561,172.053476 89.9824561,169.10762 C89.9824561,166.231283 91.7105263,164.336898 94.2982456,164.336898 C96.6403509,164.336898 98.0701754,165.831551 98.2631579,167.47393 Z M103.640351,173.878342 C100.982456,173.878342 99.2807018,172.010027 99.2807018,169.10762 C99.2807018,166.196524 100.982456,164.336898 103.640351,164.336898 C106.298246,164.336898 108,166.196524 108,169.10762 C108,172.010027 106.298246,173.878342 103.640351,173.878342 Z M103.640351,172.531417 C105.403509,172.531417 106.447368,171.254011 106.447368,169.10762 C106.447368,166.95254 105.403509,165.683824 103.640351,165.683824 C101.877193,165.683824 100.833333,166.96123 100.833333,169.10762 C100.833333,171.254011 101.885965,172.531417 103.640351,172.531417 Z" id="San-Francisco-Copy"></path>
        </g>
    </g>
</svg>