<?xml version="1.0" encoding="UTF-8"?>
<svg width="749px" height="100px" viewBox="0 0 749 100" version="1.1" xmlns="http://www.w3.org/2000/svg" xmlns:xlink="http://www.w3.org/1999/xlink">
    <!-- Generator: Sketch 49.3 (51167) - http://www.bohemiancoding.com/sketch -->
    <title>Type_tracking_1</title>
    <desc>Created with Sketch.</desc>
    <defs></defs>
    <g id="Sketches" stroke="none" stroke-width="1" fill="none" fill-rule="evenodd">
        <g id="Type_tracking_1">
            <path d="M9.848,16.856 L15.704,16.856 C16.5680043,16.856 17.399996,16.7920006 18.2,16.664 C19.000004,16.5359994 19.703997,16.2880018 20.312,15.92 C20.920003,15.5519982 21.4079982,15.0320034 21.776,14.36 C22.1440018,13.6879966 22.328,12.8080054 22.328,11.72 C22.328,10.6319946 22.1440018,9.75200336 21.776,9.08 C21.4079982,8.40799664 20.920003,7.88800184 20.312,7.52 C19.703997,7.15199816 19.000004,6.90400064 18.2,6.776 C17.399996,6.64799936 16.5680043,6.584 15.704,6.584 L9.848,6.584 L9.848,16.856 Z M2.312,0.728 L17.768,0.728 C19.9120107,0.728 21.7359925,1.03999688 23.24,1.664 C24.7440075,2.28800312 25.9679953,3.11199488 26.912,4.136 C27.8560047,5.16000512 28.5439978,6.32799344 28.976,7.64 C29.4080022,8.95200656 29.624,10.311993 29.624,11.72 C29.624,13.0960069 29.4080022,14.4479934 28.976,15.776 C28.5439978,17.1040066 27.8560047,18.2799949 26.912,19.304 C25.9679953,20.3280051 24.7440075,21.1519969 23.24,21.776 C21.7359925,22.4000031 19.9120107,22.712 17.768,22.712 L9.848,22.712 L9.848,35 L2.312,35 L2.312,0.728 Z M39.656,22.616 C39.656,23.608005 39.751999,24.5759953 39.944,25.52 C40.136001,26.4640047 40.4639977,27.3119962 40.928,28.064 C41.3920023,28.8160038 42.0079962,29.4159978 42.776,29.864 C43.5440038,30.3120022 44.5039942,30.536 45.656,30.536 C46.8080058,30.536 47.7759961,30.3120022 48.56,29.864 C49.3440039,29.4159978 49.9679977,28.8160038 50.432,28.064 C50.8960023,27.3119962 51.223999,26.4640047 51.416,25.52 C51.608001,24.5759953 51.704,23.608005 51.704,22.616 C51.704,21.623995 51.608001,20.6480048 51.416,19.688 C51.223999,18.7279952 50.8960023,17.8800037 50.432,17.144 C49.9679977,16.4079963 49.3440039,15.8080023 48.56,15.344 C47.7759961,14.8799977 46.8080058,14.648 45.656,14.648 C44.5039942,14.648 43.5440038,14.8799977 42.776,15.344 C42.0079962,15.8080023 41.3920023,16.4079963 40.928,17.144 C40.4639977,17.8800037 40.136001,18.7279952 39.944,19.688 C39.751999,20.6480048 39.656,21.623995 39.656,22.616 Z M32.84,22.616 C32.84,20.6319901 33.143997,18.8320081 33.752,17.216 C34.360003,15.5999919 35.2239944,14.2240057 36.344,13.088 C37.4640056,11.9519943 38.8079922,11.0720031 40.376,10.448 C41.9440078,9.82399688 43.7039902,9.512 45.656,9.512 C47.6080098,9.512 49.3759921,9.82399688 50.96,10.448 C52.5440079,11.0720031 53.8959944,11.9519943 55.016,13.088 C56.1360056,14.2240057 56.999997,15.5999919 57.608,17.216 C58.216003,18.8320081 58.52,20.6319901 58.52,22.616 C58.52,24.6000099 58.216003,26.391992 57.608,27.992 C56.999997,29.592008 56.1360056,30.9599943 55.016,32.096 C53.8959944,33.2320057 52.5440079,34.103997 50.96,34.712 C49.3759921,35.320003 47.6080098,35.624 45.656,35.624 C43.7039902,35.624 41.9440078,35.320003 40.376,34.712 C38.8079922,34.103997 37.4640056,33.2320057 36.344,32.096 C35.2239944,30.9599943 34.360003,29.592008 33.752,27.992 C33.143997,26.391992 32.84,24.6000099 32.84,22.616 Z M75.464,30.536 C76.5840056,30.536 77.5199962,30.3120022 78.272,29.864 C79.0240038,29.4159978 79.6319977,28.8320036 80.096,28.112 C80.5600023,27.3919964 80.887999,26.5520048 81.08,25.592 C81.272001,24.6319952 81.368,23.656005 81.368,22.664 C81.368,21.671995 81.264001,20.6960048 81.056,19.736 C80.847999,18.7759952 80.5040024,17.9200038 80.024,17.168 C79.5439976,16.4159962 78.9280038,15.8080023 78.176,15.344 C77.4239962,14.8799977 76.5040054,14.648 75.416,14.648 C74.2959944,14.648 73.3600038,14.8799977 72.608,15.344 C71.8559962,15.8080023 71.2480023,16.4079963 70.784,17.144 C70.3199977,17.8800037 69.992001,18.7279952 69.8,19.688 C69.607999,20.6480048 69.512,21.6399949 69.512,22.664 C69.512,23.656005 69.615999,24.6319952 69.824,25.592 C70.032001,26.5520048 70.3679977,27.3919964 70.832,28.112 C71.2960023,28.8320036 71.9119962,29.4159978 72.68,29.864 C73.4480038,30.3120022 74.3759946,30.536 75.464,30.536 Z M62.936,10.184 L69.416,10.184 L69.416,13.352 L69.512,13.352 C70.3440042,12.0079933 71.3999936,11.032003 72.68,10.424 C73.9600064,9.81599696 75.3679923,9.512 76.904,9.512 C78.8560098,9.512 80.535993,9.87999632 81.944,10.616 C83.352007,11.3520037 84.5199954,12.3279939 85.448,13.544 C86.3760046,14.7600061 87.0639978,16.1759919 87.512,17.792 C87.9600022,19.4080081 88.184,21.0959912 88.184,22.856 C88.184,24.5200083 87.9600022,26.1199923 87.512,27.656 C87.0639978,29.1920077 86.3840046,30.5519941 85.472,31.736 C84.5599954,32.9200059 83.4240068,33.8639965 82.064,34.568 C80.7039932,35.2720035 79.1120091,35.624 77.288,35.624 C75.7519923,35.624 74.3360065,35.3120031 73.04,34.688 C71.7439935,34.0639969 70.6800042,33.1440061 69.848,31.928 L69.752,31.928 L69.752,43.688 L62.936,43.688 L62.936,10.184 Z M115.544,35 L109.064,35 L109.064,31.544 L108.92,31.544 C108.055996,32.9840072 106.936007,34.0239968 105.56,34.664 C104.183993,35.3040032 102.776007,35.624 101.336,35.624 C99.5119909,35.624 98.0160058,35.3840024 96.848,34.904 C95.6799942,34.4239976 94.7600034,33.7440044 94.088,32.864 C93.4159966,31.9839956 92.9440014,30.9120063 92.672,29.648 C92.3999986,28.3839937 92.264,26.9840077 92.264,25.448 L92.264,10.184 L99.08,10.184 L99.08,24.2 C99.08,26.2480102 99.3999968,27.775995 100.04,28.784 C100.680003,29.792005 101.815992,30.296 103.448,30.296 C105.304009,30.296 106.647996,29.7440055 107.48,28.64 C108.312004,27.5359945 108.728,25.7200126 108.728,23.192 L108.728,10.184 L115.544,10.184 L115.544,35 Z M120.92,0.728 L127.736,0.728 L127.736,35 L120.92,35 L120.92,0.728 Z M136.136,0.728 L142.616,0.728 L142.616,6.344 L136.136,6.344 L136.136,0.728 Z M146.024,0.728 L152.504,0.728 L152.504,6.344 L146.024,6.344 L146.024,0.728 Z M132.824,17.816 C132.92,16.215992 133.319996,14.8880053 134.024,13.832 C134.728004,12.7759947 135.623995,11.9280032 136.712,11.288 C137.800005,10.6479968 139.023993,10.1920014 140.384,9.92 C141.744007,9.64799864 143.111993,9.512 144.488,9.512 C145.736006,9.512 146.999994,9.59999912 148.28,9.776 C149.560006,9.95200088 150.727995,10.2959974 151.784,10.808 C152.840005,11.3200026 153.703997,12.0319954 154.376,12.944 C155.048003,13.8560046 155.384,15.0639925 155.384,16.568 L155.384,29.48 C155.384,30.6000056 155.447999,31.6719949 155.576,32.696 C155.704001,33.7200051 155.927998,34.4879974 156.248,35 L149.336,35 C149.207999,34.6159981 149.104,34.224002 149.024,33.824 C148.944,33.423998 148.888,33.0160021 148.856,32.6 C147.767995,33.7200056 146.488007,34.5039978 145.016,34.952 C143.543993,35.4000022 142.040008,35.624 140.504,35.624 C139.319994,35.624 138.216005,35.4800014 137.192,35.192 C136.167995,34.9039986 135.272004,34.456003 134.504,33.848 C133.735996,33.239997 133.136002,32.4720046 132.704,31.544 C132.271998,30.6159954 132.056,29.5120064 132.056,28.232 C132.056,26.823993 132.303998,25.6640046 132.8,24.752 C133.296002,23.8399954 133.935996,23.1120027 134.72,22.568 C135.504004,22.0239973 136.399995,21.6160014 137.408,21.344 C138.416005,21.0719986 139.431995,20.8560008 140.456,20.696 C141.480005,20.5359992 142.487995,20.4080005 143.48,20.312 C144.472005,20.2159995 145.351996,20.072001 146.12,19.88 C146.888004,19.687999 147.495998,19.4080018 147.944,19.04 C148.392002,18.6719982 148.6,18.1360035 148.568,17.432 C148.568,16.6959963 148.448001,16.1120022 148.208,15.68 C147.967999,15.2479978 147.648002,14.9120012 147.248,14.672 C146.847998,14.4319988 146.384003,14.2720004 145.856,14.192 C145.327997,14.1119996 144.760003,14.072 144.152,14.072 C142.807993,14.072 141.752004,14.3599971 140.984,14.936 C140.215996,15.5120029 139.768001,16.4719933 139.64,17.816 L132.824,17.816 Z M148.568,22.856 C148.279999,23.1120013 147.920002,23.3119993 147.488,23.456 C147.055998,23.6000007 146.592002,23.7199995 146.096,23.816 C145.599998,23.9120005 145.080003,23.9919997 144.536,24.056 C143.991997,24.1200003 143.448003,24.1999995 142.904,24.296 C142.391997,24.3920005 141.888002,24.5199992 141.392,24.68 C140.895998,24.8400008 140.464002,25.0559986 140.096,25.328 C139.727998,25.6000014 139.432001,25.9439979 139.208,26.36 C138.983999,26.7760021 138.872,27.3039968 138.872,27.944 C138.872,28.552003 138.983999,29.0639979 139.208,29.48 C139.432001,29.8960021 139.735998,30.2239988 140.12,30.464 C140.504002,30.7040012 140.951997,30.8719995 141.464,30.968 C141.976003,31.0640005 142.503997,31.112 143.048,31.112 C144.392007,31.112 145.431996,30.8880022 146.168,30.44 C146.904004,29.9919978 147.447998,29.4560031 147.8,28.832 C148.152002,28.2079969 148.368,27.5760032 148.448,26.936 C148.528,26.2959968 148.568,25.7840019 148.568,25.4 L148.568,22.856 Z M160.664,10.184 L167.144,10.184 L167.144,14.792 L167.24,14.792 C167.560002,14.0239962 167.991997,13.3120033 168.536,12.656 C169.080003,11.9999967 169.703996,11.4400023 170.408,10.976 C171.112004,10.5119977 171.863996,10.1520013 172.664,9.896 C173.464004,9.63999872 174.295996,9.512 175.16,9.512 C175.608002,9.512 176.103997,9.5919992 176.648,9.752 L176.648,16.088 C176.327998,16.0239997 175.944002,15.9680002 175.496,15.92 C175.047998,15.8719998 174.616002,15.848 174.2,15.848 C172.951994,15.848 171.896004,16.0559979 171.032,16.472 C170.167996,16.8880021 169.472003,17.4559964 168.944,18.176 C168.415997,18.8960036 168.040001,19.7359952 167.816,20.696 C167.591999,21.6560048 167.48,22.6959944 167.48,23.816 L167.48,35 L160.664,35 L160.664,10.184 Z M179.048,17.816 C179.144,16.215992 179.543996,14.8880053 180.248,13.832 C180.952004,12.7759947 181.847995,11.9280032 182.936,11.288 C184.024005,10.6479968 185.247993,10.1920014 186.608,9.92 C187.968007,9.64799864 189.335993,9.512 190.712,9.512 C191.960006,9.512 193.223994,9.59999912 194.504,9.776 C195.784006,9.95200088 196.951995,10.2959974 198.008,10.808 C199.064005,11.3200026 199.927997,12.0319954 200.6,12.944 C201.272003,13.8560046 201.608,15.0639925 201.608,16.568 L201.608,29.48 C201.608,30.6000056 201.671999,31.6719949 201.8,32.696 C201.928001,33.7200051 202.151998,34.4879974 202.472,35 L195.56,35 C195.431999,34.6159981 195.328,34.224002 195.248,33.824 C195.168,33.423998 195.112,33.0160021 195.08,32.6 C193.991995,33.7200056 192.712007,34.5039978 191.24,34.952 C189.767993,35.4000022 188.264008,35.624 186.728,35.624 C185.543994,35.624 184.440005,35.4800014 183.416,35.192 C182.391995,34.9039986 181.496004,34.456003 180.728,33.848 C179.959996,33.239997 179.360002,32.4720046 178.928,31.544 C178.495998,30.6159954 178.28,29.5120064 178.28,28.232 C178.28,26.823993 178.527998,25.6640046 179.024,24.752 C179.520002,23.8399954 180.159996,23.1120027 180.944,22.568 C181.728004,22.0239973 182.623995,21.6160014 183.632,21.344 C184.640005,21.0719986 185.655995,20.8560008 186.68,20.696 C187.704005,20.5359992 188.711995,20.4080005 189.704,20.312 C190.696005,20.2159995 191.575996,20.072001 192.344,19.88 C193.112004,19.687999 193.719998,19.4080018 194.168,19.04 C194.616002,18.6719982 194.824,18.1360035 194.792,17.432 C194.792,16.6959963 194.672001,16.1120022 194.432,15.68 C194.191999,15.2479978 193.872002,14.9120012 193.472,14.672 C193.071998,14.4319988 192.608003,14.2720004 192.08,14.192 C191.551997,14.1119996 190.984003,14.072 190.376,14.072 C189.031993,14.072 187.976004,14.3599971 187.208,14.936 C186.439996,15.5120029 185.992001,16.4719933 185.864,17.816 L179.048,17.816 Z M194.792,22.856 C194.503999,23.1120013 194.144002,23.3119993 193.712,23.456 C193.279998,23.6000007 192.816002,23.7199995 192.32,23.816 C191.823998,23.9120005 191.304003,23.9919997 190.76,24.056 C190.215997,24.1200003 189.672003,24.1999995 189.128,24.296 C188.615997,24.3920005 188.112002,24.5199992 187.616,24.68 C187.119998,24.8400008 186.688002,25.0559986 186.32,25.328 C185.951998,25.6000014 185.656001,25.9439979 185.432,26.36 C185.207999,26.7760021 185.096,27.3039968 185.096,27.944 C185.096,28.552003 185.207999,29.0639979 185.432,29.48 C185.656001,29.8960021 185.959998,30.2239988 186.344,30.464 C186.728002,30.7040012 187.175997,30.8719995 187.688,30.968 C188.200003,31.0640005 188.727997,31.112 189.272,31.112 C190.616007,31.112 191.655996,30.8880022 192.392,30.44 C193.128004,29.9919978 193.671998,29.4560031 194.024,28.832 C194.376002,28.2079969 194.592,27.5760032 194.672,26.936 C194.752,26.2959968 194.792,25.7840019 194.792,25.4 L194.792,22.856 Z M232.76,30.536 C233.880006,30.536 234.815996,30.3120022 235.568,29.864 C236.320004,29.4159978 236.927998,28.8320036 237.392,28.112 C237.856002,27.3919964 238.183999,26.5520048 238.376,25.592 C238.568001,24.6319952 238.664,23.656005 238.664,22.664 C238.664,21.671995 238.560001,20.6960048 238.352,19.736 C238.143999,18.7759952 237.800002,17.9200038 237.32,17.168 C236.839998,16.4159962 236.224004,15.8080023 235.472,15.344 C234.719996,14.8799977 233.800005,14.648 232.712,14.648 C231.591994,14.648 230.656004,14.8799977 229.904,15.344 C229.151996,15.8080023 228.544002,16.4079963 228.08,17.144 C227.615998,17.8800037 227.288001,18.7279952 227.096,19.688 C226.903999,20.6480048 226.808,21.6399949 226.808,22.664 C226.808,23.656005 226.911999,24.6319952 227.12,25.592 C227.328001,26.5520048 227.663998,27.3919964 228.128,28.112 C228.592002,28.8320036 229.207996,29.4159978 229.976,29.864 C230.744004,30.3120022 231.671995,30.536 232.76,30.536 Z M220.232,10.184 L226.712,10.184 L226.712,13.352 L226.808,13.352 C227.640004,12.0079933 228.695994,11.032003 229.976,10.424 C231.256006,9.81599696 232.663992,9.512 234.2,9.512 C236.15201,9.512 237.831993,9.87999632 239.24,10.616 C240.648007,11.3520037 241.815995,12.3279939 242.744,13.544 C243.672005,14.7600061 244.359998,16.1759919 244.808,17.792 C245.256002,19.4080081 245.48,21.0959912 245.48,22.856 C245.48,24.5200083 245.256002,26.1199923 244.808,27.656 C244.359998,29.1920077 243.680005,30.5519941 242.768,31.736 C241.855995,32.9200059 240.720007,33.8639965 239.36,34.568 C237.999993,35.2720035 236.408009,35.624 234.584,35.624 C233.047992,35.624 231.632006,35.3120031 230.336,34.688 C229.039994,34.0639969 227.976004,33.1440061 227.144,31.928 L227.048,31.928 L227.048,43.688 L220.232,43.688 L220.232,10.184 Z M249.56,10.184 L256.04,10.184 L256.04,14.792 L256.136,14.792 C256.456002,14.0239962 256.887997,13.3120033 257.432,12.656 C257.976003,11.9999967 258.599996,11.4400023 259.304,10.976 C260.008004,10.5119977 260.759996,10.1520013 261.56,9.896 C262.360004,9.63999872 263.191996,9.512 264.056,9.512 C264.504002,9.512 264.999997,9.5919992 265.544,9.752 L265.544,16.088 C265.223998,16.0239997 264.840002,15.9680002 264.392,15.92 C263.943998,15.8719998 263.512002,15.848 263.096,15.848 C261.847994,15.848 260.792004,16.0559979 259.928,16.472 C259.063996,16.8880021 258.368003,17.4559964 257.84,18.176 C257.311997,18.8960036 256.936001,19.7359952 256.712,20.696 C256.487999,21.6560048 256.376,22.6959944 256.376,23.816 L256.376,35 L249.56,35 L249.56,10.184 Z M274.28,22.616 C274.28,23.608005 274.375999,24.5759953 274.568,25.52 C274.760001,26.4640047 275.087998,27.3119962 275.552,28.064 C276.016002,28.8160038 276.631996,29.4159978 277.4,29.864 C278.168004,30.3120022 279.127994,30.536 280.28,30.536 C281.432006,30.536 282.399996,30.3120022 283.184,29.864 C283.968004,29.4159978 284.591998,28.8160038 285.056,28.064 C285.520002,27.3119962 285.847999,26.4640047 286.04,25.52 C286.232001,24.5759953 286.328,23.608005 286.328,22.616 C286.328,21.623995 286.232001,20.6480048 286.04,19.688 C285.847999,18.7279952 285.520002,17.8800037 285.056,17.144 C284.591998,16.4079963 283.968004,15.8080023 283.184,15.344 C282.399996,14.8799977 281.432006,14.648 280.28,14.648 C279.127994,14.648 278.168004,14.8799977 277.4,15.344 C276.631996,15.8080023 276.016002,16.4079963 275.552,17.144 C275.087998,17.8800037 274.760001,18.7279952 274.568,19.688 C274.375999,20.6480048 274.28,21.623995 274.28,22.616 Z M267.464,22.616 C267.464,20.6319901 267.767997,18.8320081 268.376,17.216 C268.984003,15.5999919 269.847994,14.2240057 270.968,13.088 C272.088006,11.9519943 273.431992,11.0720031 275,10.448 C276.568008,9.82399688 278.32799,9.512 280.28,9.512 C282.23201,9.512 283.999992,9.82399688 285.584,10.448 C287.168008,11.0720031 288.519994,11.9519943 289.64,13.088 C290.760006,14.2240057 291.623997,15.5999919 292.232,17.216 C292.840003,18.8320081 293.144,20.6319901 293.144,22.616 C293.144,24.6000099 292.840003,26.391992 292.232,27.992 C291.623997,29.592008 290.760006,30.9599943 289.64,32.096 C288.519994,33.2320057 287.168008,34.103997 285.584,34.712 C283.999992,35.320003 282.23201,35.624 280.28,35.624 C278.32799,35.624 276.568008,35.320003 275,34.712 C273.431992,34.103997 272.088006,33.2320057 270.968,32.096 C269.847994,30.9599943 268.984003,29.592008 268.376,27.992 C267.767997,26.391992 267.464,24.6000099 267.464,22.616 Z M315.176,22.52 C315.176,21.4959949 315.080001,20.5120047 314.888,19.568 C314.695999,18.6239953 314.368002,17.7920036 313.904,17.072 C313.439998,16.3519964 312.840004,15.7680022 312.104,15.32 C311.367996,14.8719978 310.440006,14.648 309.32,14.648 C308.199994,14.648 307.256004,14.8719978 306.488,15.32 C305.719996,15.7680022 305.104002,16.3599963 304.64,17.096 C304.175998,17.8320037 303.840001,18.6719953 303.632,19.616 C303.423999,20.5600047 303.32,21.5439949 303.32,22.568 C303.32,23.5280048 303.431999,24.4879952 303.656,25.448 C303.880001,26.4080048 304.239998,27.2639962 304.736,28.016 C305.232002,28.7680038 305.855996,29.3759977 306.608,29.84 C307.360004,30.3040023 308.263995,30.536 309.32,30.536 C310.440006,30.536 311.375996,30.3120022 312.128,29.864 C312.880004,29.4159978 313.479998,28.8160038 313.928,28.064 C314.376002,27.3119962 314.695999,26.4560048 314.888,25.496 C315.080001,24.5359952 315.176,23.5440051 315.176,22.52 Z M315.272,31.832 L315.176,31.832 C314.375996,33.1760067 313.328006,34.143997 312.032,34.736 C310.735994,35.328003 309.272008,35.624 307.64,35.624 C305.783991,35.624 304.152007,35.2640036 302.744,34.544 C301.335993,33.8239964 300.176005,32.8480062 299.264,31.616 C298.351995,30.3839938 297.664002,28.968008 297.2,27.368 C296.735998,25.767992 296.504,24.1040086 296.504,22.376 C296.504,20.7119917 296.735998,19.1040078 297.2,17.552 C297.664002,15.9999922 298.351995,14.6320059 299.264,13.448 C300.176005,12.2639941 301.319993,11.3120036 302.696,10.592 C304.072007,9.8719964 305.671991,9.512 307.496,9.512 C308.968007,9.512 310.367993,9.82399688 311.696,10.448 C313.024007,11.0720031 314.071996,11.9919939 314.84,13.208 L314.936,13.208 L314.936,0.728 L321.752,0.728 L321.752,35 L315.272,35 L315.272,31.832 Z M350.168,35 L343.688,35 L343.688,31.544 L343.544,31.544 C342.679996,32.9840072 341.560007,34.0239968 340.184,34.664 C338.807993,35.3040032 337.400007,35.624 335.96,35.624 C334.135991,35.624 332.640006,35.3840024 331.472,34.904 C330.303994,34.4239976 329.384003,33.7440044 328.712,32.864 C328.039997,31.9839956 327.568001,30.9120063 327.296,29.648 C327.023999,28.3839937 326.888,26.9840077 326.888,25.448 L326.888,10.184 L333.704,10.184 L333.704,24.2 C333.704,26.2480102 334.023997,27.775995 334.664,28.784 C335.304003,29.792005 336.439992,30.296 338.072,30.296 C339.928009,30.296 341.271996,29.7440055 342.104,28.64 C342.936004,27.5359945 343.352,25.7200126 343.352,23.192 L343.352,10.184 L350.168,10.184 L350.168,35 Z M355.976,0.728 L362.792,0.728 L362.792,19.112 L371.384,10.184 L379.448,10.184 L370.088,19.304 L380.504,35 L372.248,35 L365.432,23.912 L362.792,26.456 L362.792,35 L355.976,35 L355.976,0.728 Z M391.544,10.184 L396.536,10.184 L396.536,14.744 L391.544,14.744 L391.544,27.032 C391.544,28.1840058 391.735998,28.9519981 392.12,29.336 C392.504002,29.7200019 393.271994,29.912 394.424,29.912 C394.808002,29.912 395.175998,29.8960002 395.528,29.864 C395.880002,29.8319998 396.215998,29.7840003 396.536,29.72 L396.536,35 C395.959997,35.0960005 395.320004,35.1599998 394.616,35.192 C393.911996,35.2240002 393.224003,35.24 392.552,35.24 C391.495995,35.24 390.496005,35.1680007 389.552,35.024 C388.607995,34.8799993 387.776004,34.6000021 387.056,34.184 C386.335996,33.7679979 385.768002,33.1760038 385.352,32.408 C384.935998,31.6399962 384.728,30.6320062 384.728,29.384 L384.728,14.744 L380.6,14.744 L380.6,10.184 L384.728,10.184 L384.728,2.744 L391.544,2.744 L391.544,10.184 Z M416.504,19.928 C416.183998,18.1999914 415.616004,16.8880045 414.8,15.992 C413.983996,15.0959955 412.744008,14.648 411.08,14.648 C409.991995,14.648 409.088004,14.8319982 408.368,15.2 C407.647996,15.5680018 407.072002,16.0239973 406.64,16.568 C406.207998,17.1120027 405.904001,17.687997 405.728,18.296 C405.551999,18.904003 405.448,19.4479976 405.416,19.928 L416.504,19.928 Z M405.416,24.248 C405.512,26.456011 406.071995,28.055995 407.096,29.048 C408.120005,30.040005 409.59199,30.536 411.512,30.536 C412.888007,30.536 414.071995,30.1920034 415.064,29.504 C416.056005,28.8159966 416.663999,28.0880038 416.888,27.32 L422.888,27.32 C421.927995,30.2960149 420.45601,32.4239936 418.472,33.704 C416.48799,34.9840064 414.088014,35.624 411.272,35.624 C409.31999,35.624 407.560008,35.3120031 405.992,34.688 C404.423992,34.0639969 403.096005,33.1760058 402.008,32.024 C400.919995,30.8719942 400.080003,29.496008 399.488,27.896 C398.895997,26.295992 398.6,24.5360096 398.6,22.616 C398.6,20.7599907 398.903997,19.032008 399.512,17.432 C400.120003,15.831992 400.983994,14.4480058 402.104,13.28 C403.224006,12.1119942 404.559992,11.1920034 406.112,10.52 C407.664008,9.84799664 409.383991,9.512 411.272,9.512 C413.384011,9.512 415.223992,9.91999592 416.792,10.736 C418.360008,11.5520041 419.647995,12.6479931 420.656,14.024 C421.664005,15.4000069 422.391998,16.9679912 422.84,18.728 C423.288002,20.4880088 423.448001,22.3279904 423.32,24.248 L405.416,24.248 Z M427.352,10.184 L433.832,10.184 L433.832,14.792 L433.928,14.792 C434.248002,14.0239962 434.679997,13.3120033 435.224,12.656 C435.768003,11.9999967 436.391996,11.4400023 437.096,10.976 C437.800004,10.5119977 438.551996,10.1520013 439.352,9.896 C440.152004,9.63999872 440.983996,9.512 441.848,9.512 C442.296002,9.512 442.791997,9.5919992 443.336,9.752 L443.336,16.088 C443.015998,16.0239997 442.632002,15.9680002 442.184,15.92 C441.735998,15.8719998 441.304002,15.848 440.888,15.848 C439.639994,15.848 438.584004,16.0559979 437.72,16.472 C436.855996,16.8880021 436.160003,17.4559964 435.632,18.176 C435.103997,18.8960036 434.728001,19.7359952 434.504,20.696 C434.279999,21.6560048 434.168,22.6959944 434.168,23.816 L434.168,35 L427.352,35 L427.352,10.184 Z M446.312,27.608 L453.848,27.608 L453.848,35 L446.312,35 L446.312,27.608 Z" id="Populära-produkter." fill="#191611" opacity="0.200000003"></path>
            <path d="M7.848,69.856 L13.704,69.856 C14.5680043,69.856 15.399996,69.7920006 16.2,69.664 C17.000004,69.5359994 17.703997,69.2880018 18.312,68.92 C18.920003,68.5519982 19.4079982,68.0320034 19.776,67.36 C20.1440018,66.6879966 20.328,65.8080054 20.328,64.72 C20.328,63.6319946 20.1440018,62.7520034 19.776,62.08 C19.4079982,61.4079966 18.920003,60.8880018 18.312,60.52 C17.703997,60.1519982 17.000004,59.9040006 16.2,59.776 C15.399996,59.6479994 14.5680043,59.584 13.704,59.584 L7.848,59.584 L7.848,69.856 Z M0.312,53.728 L15.768,53.728 C17.9120107,53.728 19.7359925,54.0399969 21.24,54.664 C22.7440075,55.2880031 23.9679953,56.1119949 24.912,57.136 C25.8560047,58.1600051 26.5439978,59.3279934 26.976,60.64 C27.4080022,61.9520066 27.624,63.311993 27.624,64.72 C27.624,66.0960069 27.4080022,67.4479934 26.976,68.776 C26.5439978,70.1040066 25.8560047,71.2799949 24.912,72.304 C23.9679953,73.3280051 22.7440075,74.1519969 21.24,74.776 C19.7359925,75.4000031 17.9120107,75.712 15.768,75.712 L7.848,75.712 L7.848,88 L0.312,88 L0.312,53.728 Z M36.696,75.616 C36.696,76.608005 36.7919991,77.5759953 36.984,78.52 C37.176001,79.4640047 37.5039977,80.3119962 37.968,81.064 C38.4320023,81.8160038 39.0479962,82.4159978 39.816,82.864 C40.5840039,83.3120022 41.5439943,83.536 42.696,83.536 C43.8480058,83.536 44.8159961,83.3120022 45.6,82.864 C46.3840039,82.4159978 47.0079977,81.8160038 47.472,81.064 C47.9360023,80.3119962 48.2639991,79.4640047 48.456,78.52 C48.648001,77.5759953 48.744,76.608005 48.744,75.616 C48.744,74.623995 48.648001,73.6480048 48.456,72.688 C48.2639991,71.7279952 47.9360023,70.8800037 47.472,70.144 C47.0079977,69.4079963 46.3840039,68.8080023 45.6,68.344 C44.8159961,67.8799977 43.8480058,67.648 42.696,67.648 C41.5439943,67.648 40.5840039,67.8799977 39.816,68.344 C39.0479962,68.8080023 38.4320023,69.4079963 37.968,70.144 C37.5039977,70.8800037 37.176001,71.7279952 36.984,72.688 C36.7919991,73.6480048 36.696,74.623995 36.696,75.616 Z M29.88,75.616 C29.88,73.6319901 30.183997,71.8320081 30.792,70.216 C31.4000031,68.5999919 32.2639944,67.2240057 33.384,66.088 C34.5040056,64.9519943 35.8479922,64.0720031 37.416,63.448 C38.9840079,62.8239969 40.7439903,62.512 42.696,62.512 C44.6480098,62.512 46.4159921,62.8239969 48,63.448 C49.5840079,64.0720031 50.9359944,64.9519943 52.056,66.088 C53.1760056,67.2240057 54.039997,68.5999919 54.648,70.216 C55.2560031,71.8320081 55.56,73.6319901 55.56,75.616 C55.56,77.6000099 55.2560031,79.391992 54.648,80.992 C54.039997,82.592008 53.1760056,83.9599943 52.056,85.096 C50.9359944,86.2320057 49.5840079,87.103997 48,87.712 C46.4159921,88.320003 44.6480098,88.624 42.696,88.624 C40.7439903,88.624 38.9840079,88.320003 37.416,87.712 C35.8479922,87.103997 34.5040056,86.2320057 33.384,85.096 C32.2639944,83.9599943 31.4000031,82.592008 30.792,80.992 C30.183997,79.391992 29.88,77.6000099 29.88,75.616 Z M71.544,83.536 C72.6640056,83.536 73.5999963,83.3120022 74.352,82.864 C75.1040038,82.4159978 75.7119977,81.8320036 76.176,81.112 C76.6400024,80.3919964 76.9679991,79.5520048 77.16,78.592 C77.352001,77.6319952 77.448,76.656005 77.448,75.664 C77.448,74.671995 77.3440011,73.6960048 77.136,72.736 C76.927999,71.7759952 76.5840024,70.9200038 76.104,70.168 C75.6239976,69.4159962 75.0080038,68.8080023 74.256,68.344 C73.5039963,67.8799977 72.5840055,67.648 71.496,67.648 C70.3759944,67.648 69.4400038,67.8799977 68.688,68.344 C67.9359963,68.8080023 67.3280024,69.4079963 66.864,70.144 C66.3999977,70.8800037 66.072001,71.7279952 65.88,72.688 C65.6879991,73.6480048 65.592,74.6399949 65.592,75.664 C65.592,76.656005 65.695999,77.6319952 65.904,78.592 C66.1120011,79.5520048 66.4479977,80.3919964 66.912,81.112 C67.3760024,81.8320036 67.9919962,82.4159978 68.76,82.864 C69.5280039,83.3120022 70.4559946,83.536 71.544,83.536 Z M59.016,63.184 L65.496,63.184 L65.496,66.352 L65.592,66.352 C66.4240042,65.0079933 67.4799936,64.032003 68.76,63.424 C70.0400064,62.815997 71.4479924,62.512 72.984,62.512 C74.9360098,62.512 76.615993,62.8799963 78.024,63.616 C79.4320071,64.3520037 80.5999954,65.3279939 81.528,66.544 C82.4560047,67.7600061 83.1439978,69.1759919 83.592,70.792 C84.0400023,72.4080081 84.264,74.0959912 84.264,75.856 C84.264,77.5200083 84.0400023,79.1199923 83.592,80.656 C83.1439978,82.1920077 82.4640046,83.5519941 81.552,84.736 C80.6399955,85.9200059 79.5040068,86.8639965 78.144,87.568 C76.7839932,88.2720035 75.1920092,88.624 73.368,88.624 C71.8319924,88.624 70.4160065,88.3120031 69.12,87.688 C67.8239936,87.0639969 66.7600042,86.1440061 65.928,84.928 L65.832,84.928 L65.832,96.688 L59.016,96.688 L59.016,63.184 Z M110.664,88 L104.184,88 L104.184,84.544 L104.04,84.544 C103.175996,85.9840072 102.056007,87.0239968 100.68,87.664 C99.3039932,88.3040032 97.8960073,88.624 96.4560001,88.624 C94.6319909,88.624 93.1360059,88.3840024 91.9680001,87.904 C90.7999942,87.4239976 89.8800034,86.7440044 89.2080001,85.864 C88.5359967,84.9839956 88.0640014,83.9120063 87.7920001,82.648 C87.5199987,81.3839937 87.3840001,79.9840077 87.3840001,78.448 L87.3840001,63.184 L94.2000001,63.184 L94.2000001,77.2 C94.2000001,79.2480102 94.5199969,80.775995 95.1600001,81.784 C95.8000033,82.792005 96.9359919,83.296 98.5680001,83.296 C100.424009,83.296 101.767996,82.7440055 102.6,81.64 C103.432004,80.5359945 103.848,78.7200126 103.848,76.192 L103.848,63.184 L110.664,63.184 L110.664,88 Z M115.08,53.728 L121.896,53.728 L121.896,88 L115.08,88 L115.08,53.728 Z M129.336,53.728 L135.816,53.728 L135.816,59.344 L129.336,59.344 L129.336,53.728 Z M139.224,53.728 L145.704,53.728 L145.704,59.344 L139.224,59.344 L139.224,53.728 Z M126.024,70.816 C126.120001,69.215992 126.519997,67.8880053 127.224,66.832 C127.928004,65.7759947 128.823995,64.9280032 129.912,64.288 C131.000006,63.6479968 132.223993,63.1920014 133.584,62.92 C134.944007,62.6479986 136.311993,62.512 137.688,62.512 C138.936006,62.512 140.199994,62.5999991 141.48,62.776 C142.760007,62.9520009 143.927995,63.2959974 144.984,63.808 C146.040005,64.3200026 146.903997,65.0319954 147.576,65.944 C148.248003,66.8560046 148.584,68.0639925 148.584,69.568 L148.584,82.48 C148.584,83.6000056 148.647999,84.6719949 148.776,85.696 C148.904001,86.7200051 149.127999,87.4879974 149.448,88 L142.536,88 C142.407999,87.6159981 142.304001,87.224002 142.224,86.824 C142.144,86.423998 142.088,86.0160021 142.056,85.6 C140.967995,86.7200056 139.688007,87.5039978 138.216,87.952 C136.743993,88.4000022 135.240008,88.624 133.704,88.624 C132.519994,88.624 131.416005,88.4800014 130.392,88.192 C129.367995,87.9039986 128.472004,87.456003 127.704,86.848 C126.935996,86.239997 126.336002,85.4720046 125.904,84.544 C125.471998,83.6159954 125.256,82.5120064 125.256,81.232 C125.256,79.823993 125.503998,78.6640046 126,77.752 C126.496003,76.8399954 127.135996,76.1120027 127.92,75.568 C128.704004,75.0239973 129.599995,74.6160014 130.608,74.344 C131.616005,74.0719986 132.631995,73.8560008 133.656,73.696 C134.680005,73.5359992 135.687995,73.4080005 136.68,73.312 C137.672005,73.2159995 138.551996,73.072001 139.32,72.88 C140.088004,72.687999 140.695998,72.4080018 141.144,72.04 C141.592002,71.6719982 141.8,71.1360035 141.768,70.432 C141.768,69.6959963 141.648001,69.1120022 141.408,68.68 C141.167999,68.2479978 140.848002,67.9120012 140.448,67.672 C140.047998,67.4319988 139.584003,67.2720004 139.056,67.192 C138.527997,67.1119996 137.960003,67.072 137.352,67.072 C136.007993,67.072 134.952004,67.3599971 134.184,67.936 C133.415996,68.5120029 132.968001,69.4719933 132.84,70.816 L126.024,70.816 Z M141.768,75.856 C141.479999,76.1120013 141.120002,76.3119993 140.688,76.456 C140.255998,76.6000007 139.792003,76.7199995 139.296,76.816 C138.799998,76.9120005 138.280003,76.9919997 137.736,77.056 C137.191997,77.1200003 136.648003,77.1999995 136.104,77.296 C135.591998,77.3920005 135.088003,77.5199992 134.592,77.68 C134.095998,77.8400008 133.664002,78.0559986 133.296,78.328 C132.927998,78.6000014 132.632001,78.9439979 132.408,79.36 C132.183999,79.7760021 132.072,80.3039968 132.072,80.944 C132.072,81.552003 132.183999,82.0639979 132.408,82.48 C132.632001,82.8960021 132.935998,83.2239988 133.32,83.464 C133.704002,83.7040012 134.151998,83.8719995 134.664,83.968 C135.176003,84.0640005 135.703997,84.112 136.248,84.112 C137.592007,84.112 138.631996,83.8880022 139.368,83.44 C140.104004,82.9919978 140.647998,82.4560031 141,81.832 C141.352002,81.2079969 141.568,80.5760032 141.648,79.936 C141.728001,79.2959968 141.768,78.7840019 141.768,78.4 L141.768,75.856 Z M152.904,63.184 L159.384,63.184 L159.384,67.792 L159.48,67.792 C159.800002,67.0239962 160.231997,66.3120033 160.776,65.656 C161.320003,64.9999967 161.943997,64.4400023 162.648,63.976 C163.352004,63.5119977 164.103996,63.1520013 164.904,62.896 C165.704004,62.6399987 166.535996,62.512 167.4,62.512 C167.848002,62.512 168.343997,62.5919992 168.888,62.752 L168.888,69.088 C168.567999,69.0239997 168.184002,68.9680002 167.736,68.92 C167.287998,68.8719998 166.856002,68.848 166.44,68.848 C165.191994,68.848 164.136004,69.0559979 163.272,69.472 C162.407996,69.8880021 161.712003,70.4559964 161.184,71.176 C160.655997,71.8960036 160.280001,72.7359952 160.056,73.696 C159.831999,74.6560048 159.72,75.6959944 159.72,76.816 L159.72,88 L152.904,88 L152.904,63.184 Z M170.328,70.816 C170.424001,69.215992 170.823997,67.8880053 171.528,66.832 C172.232004,65.7759947 173.127995,64.9280032 174.216,64.288 C175.304006,63.6479968 176.527993,63.1920014 177.888,62.92 C179.248007,62.6479986 180.615993,62.512 181.992,62.512 C183.240006,62.512 184.503994,62.5999991 185.784,62.776 C187.064007,62.9520009 188.231995,63.2959974 189.288,63.808 C190.344005,64.3200026 191.207997,65.0319954 191.88,65.944 C192.552004,66.8560046 192.888,68.0639925 192.888,69.568 L192.888,82.48 C192.888,83.6000056 192.952,84.6719949 193.08,85.696 C193.208001,86.7200051 193.431999,87.4879974 193.752,88 L186.84,88 C186.712,87.6159981 186.608001,87.224002 186.528,86.824 C186.448,86.423998 186.392,86.0160021 186.36,85.6 C185.271995,86.7200056 183.992008,87.5039978 182.52,87.952 C181.047993,88.4000022 179.544008,88.624 178.008,88.624 C176.823994,88.624 175.720005,88.4800014 174.696,88.192 C173.671995,87.9039986 172.776004,87.456003 172.008,86.848 C171.239996,86.239997 170.640002,85.4720046 170.208,84.544 C169.775998,83.6159954 169.56,82.5120064 169.56,81.232 C169.56,79.823993 169.807998,78.6640046 170.304,77.752 C170.800003,76.8399954 171.439996,76.1120027 172.224,75.568 C173.008004,75.0239973 173.903995,74.6160014 174.912,74.344 C175.920005,74.0719986 176.935995,73.8560008 177.96,73.696 C178.984005,73.5359992 179.991995,73.4080005 180.984,73.312 C181.976005,73.2159995 182.855996,73.072001 183.624,72.88 C184.392004,72.687999 184.999998,72.4080018 185.448,72.04 C185.896002,71.6719982 186.104,71.1360035 186.072,70.432 C186.072,69.6959963 185.952001,69.1120022 185.712,68.68 C185.471999,68.2479978 185.152002,67.9120012 184.752,67.672 C184.351998,67.4319988 183.888003,67.2720004 183.36,67.192 C182.831998,67.1119996 182.264003,67.072 181.656,67.072 C180.311993,67.072 179.256004,67.3599971 178.488,67.936 C177.719996,68.5120029 177.272001,69.4719933 177.144,70.816 L170.328,70.816 Z M186.072,75.856 C185.783999,76.1120013 185.424002,76.3119993 184.992,76.456 C184.559998,76.6000007 184.096003,76.7199995 183.6,76.816 C183.103998,76.9120005 182.584003,76.9919997 182.04,77.056 C181.495997,77.1200003 180.952003,77.1999995 180.408,77.296 C179.895998,77.3920005 179.392003,77.5199992 178.896,77.68 C178.399998,77.8400008 177.968002,78.0559986 177.6,78.328 C177.231998,78.6000014 176.936001,78.9439979 176.712,79.36 C176.487999,79.7760021 176.376,80.3039968 176.376,80.944 C176.376,81.552003 176.487999,82.0639979 176.712,82.48 C176.936001,82.8960021 177.239998,83.2239988 177.624,83.464 C178.008002,83.7040012 178.455998,83.8719995 178.968,83.968 C179.480003,84.0640005 180.007997,84.112 180.552,84.112 C181.896007,84.112 182.935996,83.8880022 183.672,83.44 C184.408004,82.9919978 184.951998,82.4560031 185.304,81.832 C185.656002,81.2079969 185.872,80.5760032 185.952,79.936 C186.032001,79.2959968 186.072,78.7840019 186.072,78.4 L186.072,75.856 Z M222.12,83.536 C223.240006,83.536 224.175996,83.3120022 224.928,82.864 C225.680004,82.4159978 226.287998,81.8320036 226.752,81.112 C227.216003,80.3919964 227.543999,79.5520048 227.736,78.592 C227.928001,77.6319952 228.024,76.656005 228.024,75.664 C228.024,74.671995 227.920001,73.6960048 227.712,72.736 C227.503999,71.7759952 227.160003,70.9200038 226.68,70.168 C226.199998,69.4159962 225.584004,68.8080023 224.832,68.344 C224.079996,67.8799977 223.160006,67.648 222.072,67.648 C220.951995,67.648 220.016004,67.8799977 219.264,68.344 C218.511996,68.8080023 217.904003,69.4079963 217.44,70.144 C216.975998,70.8800037 216.648001,71.7279952 216.456,72.688 C216.263999,73.6480048 216.168,74.6399949 216.168,75.664 C216.168,76.656005 216.271999,77.6319952 216.48,78.592 C216.688001,79.5520048 217.023998,80.3919964 217.488,81.112 C217.952003,81.8320036 218.567996,82.4159978 219.336,82.864 C220.104004,83.3120022 221.031995,83.536 222.12,83.536 Z M209.592,63.184 L216.072,63.184 L216.072,66.352 L216.168,66.352 C217.000004,65.0079933 218.055994,64.032003 219.336,63.424 C220.616007,62.815997 222.023993,62.512 223.56,62.512 C225.51201,62.512 227.191993,62.8799963 228.6,63.616 C230.008007,64.3520037 231.175996,65.3279939 232.104,66.544 C233.032005,67.7600061 233.719998,69.1759919 234.168,70.792 C234.616002,72.4080081 234.84,74.0959912 234.84,75.856 C234.84,77.5200083 234.616002,79.1199923 234.168,80.656 C233.719998,82.1920077 233.040005,83.5519941 232.128,84.736 C231.215996,85.9200059 230.080007,86.8639965 228.72,87.568 C227.359993,88.2720035 225.768009,88.624 223.944,88.624 C222.407993,88.624 220.992007,88.3120031 219.696,87.688 C218.399994,87.0639969 217.336004,86.1440061 216.504,84.928 L216.408,84.928 L216.408,96.688 L209.592,96.688 L209.592,63.184 Z M237.96,63.184 L244.44,63.184 L244.44,67.792 L244.536,67.792 C244.856002,67.0239962 245.287997,66.3120033 245.832,65.656 C246.376003,64.9999967 246.999997,64.4400023 247.704,63.976 C248.408004,63.5119977 249.159996,63.1520013 249.96,62.896 C250.760004,62.6399987 251.591996,62.512 252.456,62.512 C252.904002,62.512 253.399997,62.5919992 253.944,62.752 L253.944,69.088 C253.623999,69.0239997 253.240002,68.9680002 252.792,68.92 C252.343998,68.8719998 251.912002,68.848 251.496,68.848 C250.247994,68.848 249.192005,69.0559979 248.328,69.472 C247.463996,69.8880021 246.768003,70.4559964 246.24,71.176 C245.711998,71.8960036 245.336001,72.7359952 245.112,73.696 C244.887999,74.6560048 244.776,75.6959944 244.776,76.816 L244.776,88 L237.96,88 L237.96,63.184 Z M260.856,75.616 C260.856,76.608005 260.951999,77.5759953 261.144,78.52 C261.336001,79.4640047 261.663998,80.3119962 262.128,81.064 C262.592003,81.8160038 263.207996,82.4159978 263.976,82.864 C264.744004,83.3120022 265.703994,83.536 266.856,83.536 C268.008006,83.536 268.975996,83.3120022 269.76,82.864 C270.544004,82.4159978 271.167998,81.8160038 271.632,81.064 C272.096003,80.3119962 272.423999,79.4640047 272.616,78.52 C272.808001,77.5759953 272.904,76.608005 272.904,75.616 C272.904,74.623995 272.808001,73.6480048 272.616,72.688 C272.423999,71.7279952 272.096003,70.8800037 271.632,70.144 C271.167998,69.4079963 270.544004,68.8080023 269.76,68.344 C268.975996,67.8799977 268.008006,67.648 266.856,67.648 C265.703994,67.648 264.744004,67.8799977 263.976,68.344 C263.207996,68.8080023 262.592003,69.4079963 262.128,70.144 C261.663998,70.8800037 261.336001,71.7279952 261.144,72.688 C260.951999,73.6480048 260.856,74.623995 260.856,75.616 Z M254.04,75.616 C254.04,73.6319901 254.343997,71.8320081 254.952,70.216 C255.560003,68.5999919 256.423995,67.2240057 257.544,66.088 C258.664006,64.9519943 260.007992,64.0720031 261.576,63.448 C263.144008,62.8239969 264.90399,62.512 266.856,62.512 C268.80801,62.512 270.575992,62.8239969 272.16,63.448 C273.744008,64.0720031 275.095995,64.9519943 276.216,66.088 C277.336006,67.2240057 278.199997,68.5999919 278.808,70.216 C279.416003,71.8320081 279.72,73.6319901 279.72,75.616 C279.72,77.6000099 279.416003,79.391992 278.808,80.992 C278.199997,82.592008 277.336006,83.9599943 276.216,85.096 C275.095995,86.2320057 273.744008,87.103997 272.16,87.712 C270.575992,88.320003 268.80801,88.624 266.856,88.624 C264.90399,88.624 263.144008,88.320003 261.576,87.712 C260.007992,87.103997 258.664006,86.2320057 257.544,85.096 C256.423995,83.9599943 255.560003,82.592008 254.952,80.992 C254.343997,79.391992 254.04,77.6000099 254.04,75.616 Z M300.792,75.52 C300.792,74.4959949 300.696001,73.5120047 300.504,72.568 C300.311999,71.6239953 299.984003,70.7920036 299.52,70.072 C299.055998,69.3519964 298.456004,68.7680022 297.72,68.32 C296.983997,67.8719978 296.056006,67.648 294.936,67.648 C293.815995,67.648 292.872004,67.8719978 292.104,68.32 C291.335996,68.7680022 290.720003,69.3599963 290.256,70.096 C289.791998,70.8320037 289.456001,71.6719953 289.248,72.616 C289.039999,73.5600047 288.936,74.5439949 288.936,75.568 C288.936,76.5280048 289.047999,77.4879952 289.272,78.448 C289.496001,79.4080048 289.855998,80.2639962 290.352,81.016 C290.848003,81.7680038 291.471996,82.3759977 292.224,82.84 C292.976004,83.3040023 293.879995,83.536 294.936,83.536 C296.056006,83.536 296.991996,83.3120022 297.744,82.864 C298.496004,82.4159978 299.095998,81.8160038 299.544,81.064 C299.992002,80.3119962 300.311999,79.4560048 300.504,78.496 C300.696001,77.5359952 300.792,76.5440051 300.792,75.52 Z M300.888,84.832 L300.792,84.832 C299.991996,86.1760067 298.944007,87.143997 297.648,87.736 C296.351994,88.328003 294.888008,88.624 293.256,88.624 C291.399991,88.624 289.768007,88.2640036 288.36,87.544 C286.951993,86.8239964 285.792005,85.8480062 284.88,84.616 C283.967996,83.3839938 283.280003,81.968008 282.816,80.368 C282.351998,78.767992 282.12,77.1040086 282.12,75.376 C282.12,73.7119917 282.351998,72.1040078 282.816,70.552 C283.280003,68.9999922 283.967996,67.6320059 284.88,66.448 C285.792005,65.2639941 286.935993,64.3120036 288.312,63.592 C289.688007,62.8719964 291.287991,62.512 293.112,62.512 C294.584008,62.512 295.983994,62.8239969 297.312,63.448 C298.640007,64.0720031 299.687996,64.9919939 300.456,66.208 L300.552,66.208 L300.552,53.728 L307.368,53.728 L307.368,88 L300.888,88 L300.888,84.832 Z M334.824,88 L328.344,88 L328.344,84.544 L328.2,84.544 C327.335996,85.9840072 326.216007,87.0239968 324.84,87.664 C323.463993,88.3040032 322.056007,88.624 320.616,88.624 C318.791991,88.624 317.296006,88.3840024 316.128,87.904 C314.959994,87.4239976 314.040004,86.7440044 313.368,85.864 C312.695997,84.9839956 312.224002,83.9120063 311.952,82.648 C311.679999,81.3839937 311.544,79.9840077 311.544,78.448 L311.544,63.184 L318.36,63.184 L318.36,77.2 C318.36,79.2480102 318.679997,80.775995 319.32,81.784 C319.960003,82.792005 321.095992,83.296 322.728,83.296 C324.58401,83.296 325.927996,82.7440055 326.76,81.64 C327.592004,80.5359945 328.008,78.7200126 328.008,76.192 L328.008,63.184 L334.824,63.184 L334.824,88 Z M339.672,53.728 L346.488,53.728 L346.488,72.112 L355.08,63.184 L363.144,63.184 L353.784,72.304 L364.2,88 L355.944,88 L349.128,76.912 L346.488,79.456 L346.488,88 L339.672,88 L339.672,53.728 Z M374.28,63.184 L379.272,63.184 L379.272,67.744 L374.28,67.744 L374.28,80.032 C374.28,81.1840058 374.471998,81.9519981 374.856,82.336 C375.240002,82.7200019 376.007995,82.912 377.16,82.912 C377.544002,82.912 377.911999,82.8960002 378.264,82.864 C378.616002,82.8319998 378.951999,82.7840003 379.272,82.72 L379.272,88 C378.695997,88.0960005 378.056004,88.1599998 377.352,88.192 C376.647997,88.2240002 375.960004,88.24 375.288,88.24 C374.231995,88.24 373.232005,88.1680007 372.288,88.024 C371.343996,87.8799993 370.512004,87.6000021 369.792,87.184 C369.071997,86.7679979 368.504002,86.1760038 368.088,85.408 C367.671998,84.6399962 367.464,83.6320062 367.464,82.384 L367.464,67.744 L363.336,67.744 L363.336,63.184 L367.464,63.184 L367.464,55.744 L374.28,55.744 L374.28,63.184 Z M398.28,72.928 C397.959999,71.1999914 397.392004,69.8880045 396.576,68.992 C395.759996,68.0959955 394.520009,67.648 392.856,67.648 C391.767995,67.648 390.864004,67.8319982 390.144,68.2 C389.423997,68.5680018 388.848003,69.0239973 388.416,69.568 C387.983998,70.1120027 387.680001,70.687997 387.504,71.296 C387.327999,71.904003 387.224001,72.4479976 387.192,72.928 L398.28,72.928 Z M387.192,77.248 C387.288001,79.456011 387.847995,81.055995 388.872,82.048 C389.896005,83.040005 391.367991,83.536 393.288,83.536 C394.664007,83.536 395.847995,83.1920034 396.84,82.504 C397.832005,81.8159966 398.439999,81.0880038 398.664,80.32 L404.664,80.32 C403.703996,83.2960149 402.23201,85.4239936 400.248,86.704 C398.26399,87.9840064 395.864014,88.624 393.048,88.624 C391.095991,88.624 389.336008,88.3120031 387.768,87.688 C386.199993,87.0639969 384.872006,86.1760058 383.784,85.024 C382.695995,83.8719942 381.856003,82.496008 381.264,80.896 C380.671997,79.295992 380.376,77.5360096 380.376,75.616 C380.376,73.7599907 380.679997,72.032008 381.288,70.432 C381.896003,68.831992 382.759995,67.4480058 383.88,66.28 C385.000006,65.1119942 386.335993,64.1920034 387.888,63.52 C389.440008,62.8479966 391.159991,62.512 393.048,62.512 C395.160011,62.512 396.999993,62.9199959 398.568,63.736 C400.136008,64.5520041 401.423995,65.6479931 402.432,67.024 C403.440005,68.4000069 404.167998,69.9679912 404.616,71.728 C405.064003,73.4880088 405.224001,75.3279904 405.096,77.248 L387.192,77.248 Z M408.168,63.184 L414.648,63.184 L414.648,67.792 L414.744,67.792 C415.064002,67.0239962 415.495998,66.3120033 416.04,65.656 C416.584003,64.9999967 417.207997,64.4400023 417.912,63.976 C418.616004,63.5119977 419.367996,63.1520013 420.168,62.896 C420.968004,62.6399987 421.799996,62.512 422.664,62.512 C423.112003,62.512 423.607998,62.5919992 424.152,62.752 L424.152,69.088 C423.831999,69.0239997 423.448003,68.9680002 423,68.92 C422.551998,68.8719998 422.120002,68.848 421.704,68.848 C420.455994,68.848 419.400005,69.0559979 418.536,69.472 C417.671996,69.8880021 416.976003,70.4559964 416.448,71.176 C415.919998,71.8960036 415.544001,72.7359952 415.32,73.696 C415.095999,74.6560048 414.984,75.6959944 414.984,76.816 L414.984,88 L408.168,88 L408.168,63.184 Z M426.168,80.608 L433.704,80.608 L433.704,88 L426.168,88 L426.168,80.608 Z" id="Populära-produkter." fill="#191611"></path>
            <path d="M603.392,20.268 L599.252,14.148 L602.528,14.148 L605.048,18.252 L607.658,14.148 L610.754,14.148 L606.632,20.286 L611.114,27 L607.748,27 L604.94,22.554 L602.078,27 L598.91,27 L603.392,20.268 Z M615.398,20.268 L611.258,14.148 L614.534,14.148 L617.054,18.252 L619.664,14.148 L622.76,14.148 L618.638,20.286 L623.12,27 L619.754,27 L616.946,22.554 L614.084,27 L610.916,27 L615.398,20.268 Z M627.404,20.268 L623.264,14.148 L626.54,14.148 L629.06,18.252 L631.67,14.148 L634.766,14.148 L630.644,20.286 L635.126,27 L631.76,27 L628.952,22.554 L626.09,27 L622.922,27 L627.404,20.268 Z M636.26,14.148 L639.086,14.148 L639.086,24.624 L645.35,24.624 L645.35,27 L636.26,27 L636.26,14.148 Z M646.556,20.556 C646.592,19.955997 646.741999,19.458002 647.006,19.062 C647.270001,18.665998 647.605998,18.3480012 648.014,18.108 C648.422002,17.8679988 648.880997,17.6970005 649.391,17.595 C649.901003,17.4929995 650.413997,17.442 650.93,17.442 C651.398002,17.442 651.871998,17.4749997 652.352,17.541 C652.832002,17.6070003 653.269998,17.735999 653.666,17.928 C654.062002,18.120001 654.385999,18.3869983 654.638,18.729 C654.890001,19.0710017 655.016,19.5239972 655.016,20.088 L655.016,24.93 C655.016,25.3500021 655.04,25.7519981 655.088,26.136 C655.136,26.5200019 655.219999,26.807999 655.34,27 L652.748,27 C652.7,26.8559993 652.661,26.7090008 652.631,26.559 C652.601,26.4089992 652.58,26.2560008 652.568,26.1 C652.159998,26.5200021 651.680003,26.8139992 651.128,26.982 C650.575997,27.1500008 650.012003,27.234 649.436,27.234 C648.991998,27.234 648.578002,27.1800005 648.194,27.072 C647.809998,26.9639995 647.474001,26.7960011 647.186,26.568 C646.897999,26.3399989 646.673001,26.0520017 646.511,25.704 C646.348999,25.3559983 646.268,24.9420024 646.268,24.462 C646.268,23.9339974 646.360999,23.4990017 646.547,23.157 C646.733001,22.8149983 646.972999,22.542001 647.267,22.338 C647.561001,22.133999 647.896998,21.9810005 648.275,21.879 C648.653002,21.7769995 649.033998,21.6960003 649.418,21.636 C649.802002,21.5759997 650.179998,21.5280002 650.552,21.492 C650.924002,21.4559998 651.253999,21.4020004 651.542,21.33 C651.830001,21.2579996 652.057999,21.1530007 652.226,21.015 C652.394001,20.8769993 652.472,20.6760013 652.46,20.412 C652.46,20.1359986 652.415,19.9170008 652.325,19.755 C652.235,19.5929992 652.115001,19.4670004 651.965,19.377 C651.814999,19.2869996 651.641001,19.2270002 651.443,19.197 C651.244999,19.1669999 651.032001,19.152 650.804,19.152 C650.299997,19.152 649.904001,19.2599989 649.616,19.476 C649.327999,19.6920011 649.16,20.0519975 649.112,20.556 L646.556,20.556 Z M652.46,22.446 C652.351999,22.5420005 652.217001,22.6169997 652.055,22.671 C651.892999,22.7250003 651.719001,22.7699998 651.533,22.806 C651.346999,22.8420002 651.152001,22.8719999 650.948,22.896 C650.743999,22.9200001 650.540001,22.9499998 650.336,22.986 C650.143999,23.0220002 649.955001,23.0699997 649.769,23.13 C649.582999,23.1900003 649.421001,23.2709995 649.283,23.373 C649.144999,23.4750005 649.034,23.6039992 648.95,23.76 C648.866,23.9160008 648.824,24.1139988 648.824,24.354 C648.824,24.5820011 648.866,24.7739992 648.95,24.93 C649.034,25.0860008 649.147999,25.2089996 649.292,25.299 C649.436001,25.3890004 649.603999,25.4519998 649.796,25.488 C649.988001,25.5240002 650.185999,25.542 650.39,25.542 C650.894003,25.542 651.283999,25.4580008 651.56,25.29 C651.836001,25.1219992 652.039999,24.9210012 652.172,24.687 C652.304001,24.4529988 652.385,24.2160012 652.415,23.976 C652.445,23.7359988 652.46,23.5440007 652.46,23.4 L652.46,22.446 Z M656.996,17.694 L659.426,17.694 L659.426,19.422 L659.462,19.422 C659.582001,19.1339986 659.743999,18.8670012 659.948,18.621 C660.152001,18.3749988 660.385999,18.1650009 660.65,17.991 C660.914001,17.8169991 661.195999,17.6820005 661.496,17.586 C661.796001,17.4899995 662.107998,17.442 662.432,17.442 C662.600001,17.442 662.785999,17.4719997 662.99,17.532 L662.99,19.908 C662.869999,19.8839999 662.726001,19.8630001 662.558,19.845 C662.389999,19.8269999 662.228001,19.818 662.072,19.818 C661.603998,19.818 661.208002,19.8959992 660.884,20.052 C660.559998,20.2080008 660.299001,20.4209987 660.101,20.691 C659.902999,20.9610014 659.762,21.2759982 659.678,21.636 C659.594,21.9960018 659.552,22.3859979 659.552,22.806 L659.552,27 L656.996,27 L656.996,17.694 Z M667.832,24.804 C668.192002,24.804 668.509999,24.7320007 668.786,24.588 C669.062001,24.4439993 669.289999,24.2520012 669.47,24.012 C669.650001,23.7719988 669.785,23.4990015 669.875,23.193 C669.965,22.8869985 670.01,22.5660017 670.01,22.23 C670.01,21.8459981 669.974,21.4830017 669.902,21.141 C669.83,20.7989983 669.710001,20.4960013 669.542,20.232 C669.373999,19.9679987 669.152001,19.7580008 668.876,19.602 C668.599999,19.4459992 668.252002,19.368 667.832,19.368 C667.471998,19.368 667.163001,19.4399993 666.905,19.584 C666.646999,19.7280007 666.431001,19.9229988 666.257,20.169 C666.082999,20.4150012 665.957,20.6969984 665.879,21.015 C665.801,21.3330016 665.762,21.6659983 665.762,22.014 C665.762,22.3500017 665.795,22.6829984 665.861,23.013 C665.927,23.3430017 666.040999,23.6399987 666.203,23.904 C666.365001,24.1680013 666.577999,24.3839992 666.842,24.552 C667.106001,24.7200008 667.435998,24.804 667.832,24.804 Z M672.44,26.406 C672.44,26.7780019 672.389001,27.2039976 672.287,27.684 C672.184999,28.1640024 671.966002,28.6109979 671.63,29.025 C671.293998,29.4390021 670.808003,29.7899986 670.172,30.078 C669.535997,30.3660014 668.684005,30.51 667.616,30.51 C667.159998,30.51 666.695002,30.4530006 666.221,30.339 C665.746998,30.2249994 665.315002,30.0480012 664.925,29.808 C664.534998,29.5679988 664.211001,29.2590019 663.953,28.881 C663.694999,28.5029981 663.548,28.0500026 663.512,27.522 L666.05,27.522 C666.170001,28.0020024 666.403998,28.3349991 666.752,28.521 C667.100002,28.7070009 667.501998,28.8 667.958,28.8 C668.678004,28.8 669.202998,28.5840022 669.533,28.152 C669.863002,27.7199978 670.022,27.1740033 670.01,26.514 L670.01,25.29 L669.974,25.29 C669.697999,25.7820025 669.305003,26.1449988 668.795,26.379 C668.284997,26.6130012 667.748003,26.73 667.184,26.73 C666.487997,26.73 665.888003,26.6070012 665.384,26.361 C664.879997,26.1149988 664.466002,25.7790021 664.142,25.353 C663.817998,24.9269979 663.581001,24.4290028 663.431,23.859 C663.280999,23.2889971 663.206,22.6860032 663.206,22.05 C663.206,21.449997 663.292999,20.8710028 663.467,20.313 C663.641001,19.7549972 663.895998,19.2630021 664.232,18.837 C664.568002,18.4109979 664.984998,18.0720013 665.483,17.82 C665.981002,17.5679987 666.553997,17.442 667.202,17.442 C667.814003,17.442 668.350998,17.5559989 668.813,17.784 C669.275002,18.0120011 669.661998,18.3959973 669.974,18.936 L670.01,18.936 L670.01,17.694 L672.44,17.694 L672.44,26.406 Z M680.756,21.348 C680.635999,20.6999968 680.423002,20.2080017 680.117,19.872 C679.810998,19.5359983 679.346003,19.368 678.722,19.368 C678.313998,19.368 677.975001,19.4369993 677.705,19.575 C677.434999,19.7130007 677.219001,19.883999 677.057,20.088 C676.894999,20.292001 676.781,20.5079989 676.715,20.736 C676.649,20.9640011 676.61,21.1679991 676.598,21.348 L680.756,21.348 Z M676.598,22.968 C676.634,23.7960041 676.843998,24.3959981 677.228,24.768 C677.612002,25.1400019 678.163996,25.326 678.884,25.326 C679.400003,25.326 679.843998,25.1970013 680.216,24.939 C680.588002,24.6809987 680.816,24.4080014 680.9,24.12 L683.15,24.12 C682.789998,25.2360056 682.238004,26.0339976 681.494,26.514 C680.749996,26.9940024 679.850005,27.234 678.794,27.234 C678.061996,27.234 677.402003,27.1170012 676.814,26.883 C676.225997,26.6489988 675.728002,26.3160022 675.32,25.884 C674.911998,25.4519978 674.597001,24.936003 674.375,24.336 C674.152999,23.735997 674.042,23.0760036 674.042,22.356 C674.042,21.6599965 674.155999,21.012003 674.384,20.412 C674.612001,19.811997 674.935998,19.2930022 675.356,18.855 C675.776002,18.4169978 676.276997,18.0720013 676.859,17.82 C677.441003,17.5679987 678.085996,17.442 678.794,17.442 C679.586004,17.442 680.275997,17.5949985 680.864,17.901 C681.452003,18.2070015 681.934998,18.6179974 682.313,19.134 C682.691002,19.6500026 682.963999,20.2379967 683.132,20.898 C683.300001,21.5580033 683.36,22.2479964 683.312,22.968 L676.598,22.968 Z M684.95,24.228 L687.776,24.228 L687.776,27 C687.776,27.408002 687.701001,27.7829983 687.551,28.125 C687.400999,28.4670017 687.200001,28.7639987 686.948,29.016 C686.695999,29.2680013 686.399002,29.4749992 686.057,29.637 C685.714998,29.7990008 685.352002,29.9099997 684.968,29.97 L684.968,28.674 C685.148001,28.6379998 685.318999,28.5660005 685.481,28.458 C685.643001,28.3499995 685.783999,28.2210007 685.904,28.071 C686.024001,27.9209993 686.114,27.7530009 686.174,27.567 C686.234,27.3809991 686.258,27.192001 686.246,27 L684.95,27 L684.95,24.228 Z M696.956,17.82 C696.956,18.3600027 697.147998,18.7709986 697.532,19.053 C697.916002,19.3350014 698.365997,19.476 698.882,19.476 C699.422003,19.476 699.871998,19.3350014 700.232,19.053 C700.592002,18.7709986 700.772,18.3600027 700.772,17.82 C700.772,17.6519992 700.748,17.469001 700.7,17.271 C700.652,17.072999 700.559001,16.8840009 700.421,16.704 C700.282999,16.5239991 700.091001,16.3740006 699.845,16.254 C699.598999,16.1339994 699.278002,16.074 698.882,16.074 C698.629999,16.074 698.387001,16.1129996 698.153,16.191 C697.918999,16.2690004 697.712001,16.3799993 697.532,16.524 C697.351999,16.6680007 697.211001,16.8479989 697.109,17.064 C697.006999,17.2800011 696.956,17.5319986 696.956,17.82 Z M694.634,17.586 C694.634,17.0219972 694.759999,16.5240022 695.012,16.092 C695.264001,15.6599978 695.590998,15.3000014 695.993,15.012 C696.395002,14.7239986 696.847997,14.5080007 697.352,14.364 C697.856003,14.2199993 698.365997,14.148 698.882,14.148 C699.662004,14.148 700.321997,14.2679988 700.862,14.508 C701.402003,14.7480012 701.836998,15.0389983 702.167,15.381 C702.497002,15.7230017 702.733999,16.0889981 702.878,16.479 C703.022001,16.8690019 703.094,17.2199984 703.094,17.532 C703.094,18.1560031 702.941002,18.7019977 702.635,19.17 C702.328998,19.6380023 701.870003,19.973999 701.258,20.178 L701.258,20.214 C702.014004,20.3820008 702.595998,20.7389973 703.004,21.285 C703.412002,21.8310027 703.616,22.499996 703.616,23.292 C703.616,23.9640034 703.481001,24.5459975 703.211,25.038 C702.940999,25.5300025 702.584002,25.9379984 702.14,26.262 C701.695998,26.5860016 701.192003,26.8289992 700.628,26.991 C700.063997,27.1530008 699.488003,27.234 698.9,27.234 C698.287997,27.234 697.697003,27.1590007 697.127,27.009 C696.556997,26.8589993 696.047002,26.6220016 695.597,26.298 C695.146998,25.9739984 694.787001,25.5660025 694.517,25.074 C694.246999,24.5819975 694.112,23.9940034 694.112,23.31 C694.112,22.505996 694.318998,21.8340027 694.733,21.294 C695.147002,20.7539973 695.731996,20.3940009 696.488,20.214 L696.488,20.178 C695.875997,20.0099992 695.414002,19.6920023 695.102,19.224 C694.789998,18.7559977 694.634,18.2100031 694.634,17.586 Z M696.668,23.184 C696.668,23.5080016 696.727999,23.8019987 696.848,24.066 C696.968001,24.3300013 697.126999,24.5549991 697.325,24.741 C697.523001,24.9270009 697.759999,25.0709995 698.036,25.173 C698.312001,25.2750005 698.599998,25.326 698.9,25.326 C699.212002,25.326 699.496999,25.2750005 699.755,25.173 C700.013001,25.0709995 700.240999,24.9270009 700.439,24.741 C700.637001,24.5549991 700.789999,24.3300013 700.898,24.066 C701.006001,23.8019987 701.06,23.5140016 701.06,23.202 C701.06,22.9019985 701.003001,22.6290012 700.889,22.383 C700.774999,22.1369988 700.619001,21.9240009 700.421,21.744 C700.222999,21.5639991 699.995001,21.4260005 699.737,21.33 C699.478999,21.2339995 699.200002,21.186 698.9,21.186 C698.275997,21.186 697.748002,21.3569983 697.316,21.699 C696.883998,22.0410017 696.668,22.5359968 696.668,23.184 Z M712.94,19.962 L716.036,19.962 C716.684003,19.962 717.169998,19.8180014 717.494,19.53 C717.818002,19.2419986 717.98,18.7740032 717.98,18.126 C717.98,17.5019969 717.818002,17.0490014 717.494,16.767 C717.169998,16.4849986 716.684003,16.344 716.036,16.344 L712.94,16.344 L712.94,19.962 Z M710.114,14.148 L717.044,14.148 C717.620003,14.148 718.138998,14.2409991 718.601,14.427 C719.063002,14.6130009 719.458998,14.8679984 719.789,15.192 C720.119002,15.5160016 720.370999,15.8909979 720.545,16.317 C720.719001,16.7430021 720.806,17.2019975 720.806,17.694 C720.806,18.4500038 720.647002,19.1039972 720.329,19.656 C720.010998,20.2080028 719.492004,20.6279986 718.772,20.916 L718.772,20.952 C719.120002,21.0480005 719.407999,21.194999 719.636,21.393 C719.864001,21.591001 720.049999,21.8249986 720.194,22.095 C720.338001,22.3650014 720.443,22.6619984 720.509,22.986 C720.575,23.3100016 720.62,23.6339984 720.644,23.958 C720.656,24.162001 720.668,24.4019986 720.68,24.678 C720.692,24.9540014 720.713,25.2359986 720.743,25.524 C720.773,25.8120014 720.821,26.0849987 720.887,26.343 C720.953,26.6010013 721.051999,26.8199991 721.184,27 L718.358,27 C718.201999,26.591998 718.106,26.1060028 718.07,25.542 C718.034,24.9779972 717.98,24.4380026 717.908,23.922 C717.812,23.2499966 717.608002,22.7580016 717.296,22.446 C716.983998,22.1339984 716.474004,21.978 715.766,21.978 L712.94,21.978 L712.94,27 L710.114,27 L710.114,14.148 Z M723.11,14.148 L732.722,14.148 L732.722,16.524 L725.936,16.524 L725.936,19.278 L732.164,19.278 L732.164,21.474 L725.936,21.474 L725.936,24.624 L732.866,24.624 L732.866,27 L723.11,27 L723.11,14.148 Z M734.576,17.694 L736.988,17.694 L736.988,18.954 L737.024,18.954 C737.360002,18.4739976 737.764998,18.1020013 738.239,17.838 C738.713002,17.5739987 739.255997,17.442 739.868,17.442 C740.456003,17.442 740.992998,17.5559989 741.479,17.784 C741.965002,18.0120011 742.333999,18.4139971 742.586,18.99 C742.862001,18.581998 743.236998,18.2220016 743.711,17.91 C744.185002,17.5979984 744.745997,17.442 745.394,17.442 C745.886002,17.442 746.341998,17.5019994 746.762,17.622 C747.182002,17.7420006 747.541998,17.9339987 747.842,18.198 C748.142002,18.4620013 748.375999,18.8069979 748.544,19.233 C748.712001,19.6590021 748.796,20.171997 748.796,20.772 L748.796,27 L746.24,27 L746.24,21.726 C746.24,21.4139984 746.228,21.1200014 746.204,20.844 C746.18,20.5679986 746.114001,20.328001 746.006,20.124 C745.897999,19.919999 745.739001,19.7580006 745.529,19.638 C745.318999,19.5179994 745.034002,19.458 744.674,19.458 C744.313998,19.458 744.023001,19.5269993 743.801,19.665 C743.578999,19.8030007 743.405001,19.9829989 743.279,20.205 C743.152999,20.4270011 743.069,20.6789986 743.027,20.961 C742.985,21.2430014 742.964,21.5279986 742.964,21.816 L742.964,27 L740.408,27 L740.408,21.78 C740.408,21.5039986 740.402,21.2310014 740.39,20.961 C740.378,20.6909986 740.327,20.4420011 740.237,20.214 C740.147,19.9859989 739.997001,19.8030007 739.787,19.665 C739.576999,19.5269993 739.268002,19.458 738.86,19.458 C738.739999,19.458 738.581001,19.4849997 738.383,19.539 C738.184999,19.5930003 737.993001,19.6949992 737.807,19.845 C737.620999,19.9950008 737.462001,20.2109986 737.33,20.493 C737.197999,20.7750014 737.132,21.1439977 737.132,21.6 L737.132,27 L734.576,27 L734.576,17.694 Z M599.144,50.148 L609.548,50.148 L609.548,52.092 L605.462,52.092 L605.462,63 L603.212,63 L603.212,52.092 L599.144,52.092 L599.144,50.148 Z M615.02,52.704 L615.416,51.534 L617.396,52.308 L617.396,50.148 L618.62,50.148 L618.62,52.308 L620.582,51.534 L621.014,52.704 L618.962,53.388 L620.222,55.08 L619.268,55.782 L617.99,54.018 L616.766,55.782 L615.758,55.08 L617.018,53.388 L615.02,52.704 Z M631.346,51.768 C630.793997,51.768 630.326002,51.9329984 629.942,52.263 C629.557998,52.5930017 629.366,53.0699969 629.366,53.694 C629.366,54.294003 629.551998,54.7529984 629.924,55.071 C630.296002,55.3890016 630.769997,55.548 631.346,55.548 C631.922003,55.548 632.395998,55.3890016 632.768,55.071 C633.140002,54.7529984 633.326,54.294003 633.326,53.694 C633.326,53.0699969 633.134002,52.5930017 632.75,52.263 C632.365998,51.9329984 631.898003,51.768 631.346,51.768 Z M631.346,63.252 C630.709997,63.252 630.119003,63.1620009 629.573,62.982 C629.026997,62.8019991 628.556002,62.5410017 628.16,62.199 C627.763998,61.8569983 627.455001,61.4400025 627.233,60.948 C627.010999,60.4559975 626.9,59.9040031 626.9,59.292 C626.9,58.499996 627.106998,57.8340027 627.521,57.294 C627.935002,56.7539973 628.495996,56.3940009 629.204,56.214 L629.204,56.178 C628.627997,55.9619989 628.187002,55.6290023 627.881,55.179 C627.574998,54.7289977 627.422,54.1980031 627.422,53.586 C627.422,52.5059946 627.760997,51.663003 628.439,51.057 C629.117003,50.450997 630.085994,50.148 631.346,50.148 C632.606006,50.148 633.574997,50.450997 634.253,51.057 C634.931003,51.663003 635.27,52.5059946 635.27,53.586 C635.27,54.1980031 635.117002,54.7289977 634.811,55.179 C634.504998,55.6290023 634.064003,55.9619989 633.488,56.178 L633.488,56.214 C634.196004,56.3940009 634.756998,56.7539973 635.171,57.294 C635.585002,57.8340027 635.792,58.499996 635.792,59.292 C635.792,59.9040031 635.681001,60.4559975 635.459,60.948 C635.236999,61.4400025 634.928002,61.8569983 634.532,62.199 C634.135998,62.5410017 633.665003,62.8019991 633.119,62.982 C632.572997,63.1620009 631.982003,63.252 631.346,63.252 Z M631.346,61.632 C632.030003,61.632 632.599998,61.428002 633.056,61.02 C633.512002,60.611998 633.74,60.0360037 633.74,59.292 C633.74,58.5959965 633.512002,58.053002 633.056,57.663 C632.599998,57.272998 632.030003,57.078 631.346,57.078 C630.661997,57.078 630.092002,57.272998 629.636,57.663 C629.179998,58.053002 628.952,58.5959965 628.952,59.292 C628.952,60.0360037 629.179998,60.611998 629.636,61.02 C630.092002,61.428002 630.661997,61.632 631.346,61.632 Z M637.718,50.148 L643.856,50.148 C645.272007,50.148 646.333996,50.4539969 647.042,51.066 C647.750004,51.6780031 648.104,52.5299945 648.104,53.622 C648.104,54.2340031 648.014001,54.740998 647.834,55.143 C647.653999,55.545002 647.444001,55.8689988 647.204,56.115 C646.963999,56.3610012 646.727001,56.5379995 646.493,56.646 C646.258999,56.7540005 646.088001,56.8259998 645.98,56.862 L645.98,56.898 C646.172001,56.9220001 646.378999,56.9819995 646.601,57.078 C646.823001,57.1740005 647.029999,57.3269989 647.222,57.537 C647.414001,57.7470011 647.572999,58.0199983 647.699,58.356 C647.825001,58.6920017 647.888,59.1119975 647.888,59.616 C647.888,60.3720038 647.944999,61.0589969 648.059,61.677 C648.173001,62.2950031 648.349999,62.7359987 648.59,63 L646.178,63 C646.009999,62.7239986 645.911,62.4180017 645.881,62.082 C645.851,61.7459983 645.836,61.4220016 645.836,61.11 C645.836,60.5219971 645.8,60.0150021 645.728,59.589 C645.656,59.1629979 645.524001,58.8090014 645.332,58.527 C645.139999,58.2449986 644.879002,58.0380007 644.549,57.906 C644.218998,57.7739993 643.796003,57.708 643.28,57.708 L639.968,57.708 L639.968,63 L637.718,63 L637.718,50.148 Z M639.968,55.998 L643.658,55.998 C644.378004,55.998 644.923998,55.8270017 645.296,55.485 C645.668002,55.1429983 645.854,54.6300034 645.854,53.946 C645.854,53.537998 645.794001,53.2050013 645.674,52.947 C645.553999,52.6889987 645.389001,52.4880007 645.179,52.344 C644.968999,52.1999993 644.729001,52.1040002 644.459,52.056 C644.188999,52.0079998 643.910001,51.984 643.622,51.984 L639.968,51.984 L639.968,55.998 Z M599.882,93.132 L605.12,93.132 L605.12,95.076 L599.882,95.076 L599.882,93.132 Z M611.006,86.148 C611.906004,86.148 612.640997,86.3549979 613.211,86.769 C613.781003,87.1830021 614.224998,87.7109968 614.543,88.353 C614.861002,88.9950032 615.076999,89.6999962 615.191,90.468 C615.305001,91.2360038 615.362,91.9799964 615.362,92.7 C615.362,93.4200036 615.305001,94.1639962 615.191,94.932 C615.076999,95.7000038 614.861002,96.4049968 614.543,97.047 C614.224998,97.6890032 613.781003,98.2169979 613.211,98.631 C612.640997,99.0450021 611.906004,99.252 611.006,99.252 C610.105996,99.252 609.371003,99.0450021 608.801,98.631 C608.230997,98.2169979 607.787002,97.6890032 607.469,97.047 C607.150998,96.4049968 606.935001,95.7000038 606.821,94.932 C606.706999,94.1639962 606.65,93.4200036 606.65,92.7 C606.65,91.9799964 606.706999,91.2360038 606.821,90.468 C606.935001,89.6999962 607.150998,88.9950032 607.469,88.353 C607.787002,87.7109968 608.230997,87.1830021 608.801,86.769 C609.371003,86.3549979 610.105996,86.148 611.006,86.148 Z M611.006,97.542 C611.450002,97.542 611.821998,97.4130013 612.122,97.155 C612.422002,96.8969987 612.658999,96.5490022 612.833,96.111 C613.007001,95.6729978 613.13,95.1600029 613.202,94.572 C613.274,93.9839971 613.31,93.3600033 613.31,92.7 C613.31,92.0399967 613.274,91.4190029 613.202,90.837 C613.13,90.2549971 613.007001,89.7420022 612.833,89.298 C612.658999,88.8539978 612.422002,88.5030013 612.122,88.245 C611.821998,87.9869987 611.450002,87.858 611.006,87.858 C610.549998,87.858 610.175001,87.9869987 609.881,88.245 C609.586999,88.5030013 609.353001,88.8539978 609.179,89.298 C609.004999,89.7420022 608.882,90.2549971 608.81,90.837 C608.738,91.4190029 608.702,92.0399967 608.702,92.7 C608.702,93.3600033 608.738,93.9839971 608.81,94.572 C608.882,95.1600029 609.004999,95.6729978 609.179,96.111 C609.353001,96.5490022 609.586999,96.8969987 609.881,97.155 C610.175001,97.4130013 610.549998,97.542 611.006,97.542 Z M617.252,96.57 L619.754,96.57 L619.754,99 L617.252,99 L617.252,96.57 Z M626.018,86.148 C626.918005,86.148 627.652997,86.3549979 628.223,86.769 C628.793003,87.1830021 629.236998,87.7109968 629.555,88.353 C629.873002,88.9950032 630.088999,89.6999962 630.203,90.468 C630.317001,91.2360038 630.374,91.9799964 630.374,92.7 C630.374,93.4200036 630.317001,94.1639962 630.203,94.932 C630.088999,95.7000038 629.873002,96.4049968 629.555,97.047 C629.236998,97.6890032 628.793003,98.2169979 628.223,98.631 C627.652997,99.0450021 626.918005,99.252 626.018,99.252 C625.117995,99.252 624.383003,99.0450021 623.813,98.631 C623.242997,98.2169979 622.799002,97.6890032 622.481,97.047 C622.162998,96.4049968 621.947001,95.7000038 621.833,94.932 C621.718999,94.1639962 621.662,93.4200036 621.662,92.7 C621.662,91.9799964 621.718999,91.2360038 621.833,90.468 C621.947001,89.6999962 622.162998,88.9950032 622.481,88.353 C622.799002,87.7109968 623.242997,87.1830021 623.813,86.769 C624.383003,86.3549979 625.117995,86.148 626.018,86.148 Z M626.018,97.542 C626.462002,97.542 626.833999,97.4130013 627.134,97.155 C627.434001,96.8969987 627.670999,96.5490022 627.845,96.111 C628.019001,95.6729978 628.142,95.1600029 628.214,94.572 C628.286,93.9839971 628.322,93.3600033 628.322,92.7 C628.322,92.0399967 628.286,91.4190029 628.214,90.837 C628.142,90.2549971 628.019001,89.7420022 627.845,89.298 C627.670999,88.8539978 627.434001,88.5030013 627.134,88.245 C626.833999,87.9869987 626.462002,87.858 626.018,87.858 C625.561998,87.858 625.187001,87.9869987 624.893,88.245 C624.598999,88.5030013 624.365001,88.8539978 624.191,89.298 C624.016999,89.7420022 623.894,90.2549971 623.822,90.837 C623.75,91.4190029 623.714,92.0399967 623.714,92.7 C623.714,93.3600033 623.75,93.9839971 623.822,94.572 C623.894,95.1600029 624.016999,95.6729978 624.191,96.111 C624.365001,96.5490022 624.598999,96.8969987 624.893,97.155 C625.187001,97.4130013 625.561998,97.542 626.018,97.542 Z M640.328,99 L631.724,99 C631.736,97.9559948 631.987998,97.0440039 632.48,96.264 C632.972002,95.4839961 633.643996,94.8060029 634.496,94.23 C634.904002,93.9299985 635.329998,93.6390014 635.774,93.357 C636.218002,93.0749986 636.625998,92.7720016 636.998,92.448 C637.370002,92.1239984 637.675999,91.7730019 637.916,91.395 C638.156001,91.0169981 638.282,90.5820025 638.294,90.09 C638.294,89.8619989 638.267,89.6190013 638.213,89.361 C638.159,89.1029987 638.054001,88.8630011 637.898,88.641 C637.741999,88.4189989 637.526001,88.2330007 637.25,88.083 C636.973999,87.9329993 636.614002,87.858 636.17,87.858 C635.761998,87.858 635.423001,87.9389992 635.153,88.101 C634.882999,88.2630008 634.667001,88.4849986 634.505,88.767 C634.342999,89.0490014 634.223,89.3819981 634.145,89.766 C634.067,90.1500019 634.022,90.5639978 634.01,91.008 L631.958,91.008 C631.958,90.3119965 632.050999,89.667003 632.237,89.073 C632.423001,88.478997 632.701998,87.9660022 633.074,87.534 C633.446002,87.1019978 633.898997,86.7630012 634.433,86.517 C634.967003,86.2709988 635.587996,86.148 636.296,86.148 C637.064004,86.148 637.705997,86.2739987 638.222,86.526 C638.738003,86.7780013 639.154998,87.0959981 639.473,87.48 C639.791002,87.8640019 640.015999,88.2809978 640.148,88.731 C640.280001,89.1810022 640.346,89.609998 640.346,90.018 C640.346,90.5220025 640.268001,90.977998 640.112,91.386 C639.955999,91.794002 639.746001,92.1689983 639.482,92.511 C639.217999,92.8530017 638.918002,93.1679986 638.582,93.456 C638.245998,93.7440014 637.898002,94.0139987 637.538,94.266 C637.177998,94.5180013 636.818002,94.7579989 636.458,94.986 C636.097998,95.2140011 635.765002,95.4419989 635.459,95.67 C635.152998,95.8980011 634.886001,96.1349988 634.658,96.381 C634.429999,96.6270012 634.274,96.8879986 634.19,97.164 L640.328,97.164 L640.328,99 Z M646.376,88.704 L646.772,87.534 L648.752,88.308 L648.752,86.148 L649.976,86.148 L649.976,88.308 L651.938,87.534 L652.37,88.704 L650.318,89.388 L651.578,91.08 L650.624,91.782 L649.346,90.018 L648.122,91.782 L647.114,91.08 L648.374,89.388 L646.376,88.704 Z M659.714,94.392 L663.53,94.392 L663.53,88.848 L663.494,88.848 L659.714,94.392 Z M667.094,96.012 L665.474,96.012 L665.474,99 L663.53,99 L663.53,96.012 L658.13,96.012 L658.13,93.978 L663.53,86.4 L665.474,86.4 L665.474,94.392 L667.094,94.392 L667.094,96.012 Z M672.71,87.768 C672.157997,87.768 671.690002,87.9329984 671.306,88.263 C670.921998,88.5930017 670.73,89.0699969 670.73,89.694 C670.73,90.294003 670.915998,90.7529984 671.288,91.071 C671.660002,91.3890016 672.133997,91.548 672.71,91.548 C673.286003,91.548 673.759998,91.3890016 674.132,91.071 C674.504002,90.7529984 674.69,90.294003 674.69,89.694 C674.69,89.0699969 674.498002,88.5930017 674.114,88.263 C673.729998,87.9329984 673.262003,87.768 672.71,87.768 Z M672.71,99.252 C672.073997,99.252 671.483003,99.1620009 670.937,98.982 C670.390997,98.8019991 669.920002,98.5410017 669.524,98.199 C669.127998,97.8569983 668.819001,97.4400025 668.597,96.948 C668.374999,96.4559975 668.264,95.9040031 668.264,95.292 C668.264,94.499996 668.470998,93.8340027 668.885,93.294 C669.299002,92.7539973 669.859996,92.3940009 670.568,92.214 L670.568,92.178 C669.991997,91.9619989 669.551002,91.6290023 669.245,91.179 C668.938998,90.7289977 668.786,90.1980031 668.786,89.586 C668.786,88.5059946 669.124997,87.663003 669.803,87.057 C670.481003,86.450997 671.449994,86.148 672.71,86.148 C673.970006,86.148 674.938997,86.450997 675.617,87.057 C676.295003,87.663003 676.634,88.5059946 676.634,89.586 C676.634,90.1980031 676.481002,90.7289977 676.175,91.179 C675.868998,91.6290023 675.428003,91.9619989 674.852,92.178 L674.852,92.214 C675.560004,92.3940009 676.120998,92.7539973 676.535,93.294 C676.949002,93.8340027 677.156,94.499996 677.156,95.292 C677.156,95.9040031 677.045001,96.4559975 676.823,96.948 C676.600999,97.4400025 676.292002,97.8569983 675.896,98.199 C675.499998,98.5410017 675.029003,98.8019991 674.483,98.982 C673.936997,99.1620009 673.346003,99.252 672.71,99.252 Z M672.71,97.632 C673.394003,97.632 673.963998,97.428002 674.42,97.02 C674.876002,96.611998 675.104,96.0360037 675.104,95.292 C675.104,94.5959965 674.876002,94.053002 674.42,93.663 C673.963998,93.272998 673.394003,93.078 672.71,93.078 C672.025997,93.078 671.456002,93.272998 671,93.663 C670.543998,94.053002 670.316,94.5959965 670.316,95.292 C670.316,96.0360037 670.543998,96.611998 671,97.02 C671.456002,97.428002 672.025997,97.632 672.71,97.632 Z M692.654,97.182 L683.582,97.182 L683.582,95.346 L692.654,95.346 L692.654,97.182 Z M692.654,93.546 L683.582,93.546 L683.582,91.71 L692.654,91.71 L692.654,93.546 Z M699.404,93.132 L704.642,93.132 L704.642,95.076 L699.404,95.076 L699.404,93.132 Z M710.528,86.148 C711.428004,86.148 712.162997,86.3549979 712.733,86.769 C713.303003,87.1830021 713.746998,87.7109968 714.065,88.353 C714.383002,88.9950032 714.598999,89.6999962 714.713,90.468 C714.827001,91.2360038 714.884,91.9799964 714.884,92.7 C714.884,93.4200036 714.827001,94.1639962 714.713,94.932 C714.598999,95.7000038 714.383002,96.4049968 714.065,97.047 C713.746998,97.6890032 713.303003,98.2169979 712.733,98.631 C712.162997,99.0450021 711.428004,99.252 710.528,99.252 C709.627995,99.252 708.893003,99.0450021 708.323,98.631 C707.752997,98.2169979 707.309002,97.6890032 706.991,97.047 C706.672998,96.4049968 706.457001,95.7000038 706.343,94.932 C706.228999,94.1639962 706.172,93.4200036 706.172,92.7 C706.172,91.9799964 706.228999,91.2360038 706.343,90.468 C706.457001,89.6999962 706.672998,88.9950032 706.991,88.353 C707.309002,87.7109968 707.752997,87.1830021 708.323,86.769 C708.893003,86.3549979 709.627995,86.148 710.528,86.148 Z M710.528,97.542 C710.972002,97.542 711.343999,97.4130013 711.644,97.155 C711.944002,96.8969987 712.180999,96.5490022 712.355,96.111 C712.529001,95.6729978 712.652,95.1600029 712.724,94.572 C712.796,93.9839971 712.832,93.3600033 712.832,92.7 C712.832,92.0399967 712.796,91.4190029 712.724,90.837 C712.652,90.2549971 712.529001,89.7420022 712.355,89.298 C712.180999,88.8539978 711.944002,88.5030013 711.644,88.245 C711.343999,87.9869987 710.972002,87.858 710.528,87.858 C710.071998,87.858 709.697001,87.9869987 709.403,88.245 C709.108999,88.5030013 708.875001,88.8539978 708.701,89.298 C708.526999,89.7420022 708.404,90.2549971 708.332,90.837 C708.26,91.4190029 708.224,92.0399967 708.224,92.7 C708.224,93.3600033 708.26,93.9839971 708.332,94.572 C708.404,95.1600029 708.526999,95.6729978 708.701,96.111 C708.875001,96.5490022 709.108999,96.8969987 709.403,97.155 C709.697001,97.4130013 710.071998,97.542 710.528,97.542 Z M716.774,96.57 L719.276,96.57 L719.276,99 L716.774,99 L716.774,96.57 Z M723.434,95.814 C723.482,96.3300026 723.664998,96.7469984 723.983,97.065 C724.301002,97.3830016 724.729997,97.542 725.27,97.542 C725.822003,97.542 726.262998,97.3950015 726.593,97.101 C726.923002,96.8069985 727.177999,96.4410022 727.358,96.003 C727.538001,95.5649978 727.661,95.0970025 727.727,94.599 C727.793,94.1009975 727.844,93.6420021 727.88,93.222 L727.844,93.186 C727.567999,93.6780025 727.190002,94.0529987 726.71,94.311 C726.229998,94.5690013 725.702003,94.698 725.126,94.698 C724.525997,94.698 723.983002,94.596001 723.497,94.392 C723.010998,94.187999 722.594002,93.9030018 722.246,93.537 C721.897998,93.1709982 721.628001,92.7270026 721.436,92.205 C721.243999,91.6829974 721.148,91.0980032 721.148,90.45 C721.148,89.8379969 721.243999,89.2710026 721.436,88.749 C721.628001,88.2269974 721.909998,87.771002 722.282,87.381 C722.654002,86.9909981 723.109997,86.6880011 723.65,86.472 C724.190003,86.2559989 724.801997,86.148 725.486,86.148 C726.374004,86.148 727.105997,86.3189983 727.682,86.661 C728.258003,87.0030017 728.710998,87.470997 729.041,88.065 C729.371002,88.659003 729.601999,89.357996 729.734,90.162 C729.866001,90.966004 729.932,91.8239954 729.932,92.736 C729.932,93.4920038 729.851001,94.2539962 729.689,95.022 C729.526999,95.7900038 729.260002,96.4889969 728.888,97.119 C728.515998,97.7490032 728.027003,98.261998 727.421,98.658 C726.814997,99.054002 726.068004,99.252 725.18,99.252 C724.675997,99.252 724.202002,99.1680008 723.758,99 C723.313998,98.8319992 722.921002,98.5980015 722.579,98.298 C722.236998,97.9979985 721.958001,97.6380021 721.742,97.218 C721.525999,96.7979979 721.406,96.3300026 721.382,95.814 L723.434,95.814 Z M725.396,87.858 C725.023998,87.858 724.700001,87.9269993 724.424,88.065 C724.147999,88.2030007 723.920001,88.3919988 723.74,88.632 C723.559999,88.8720012 723.425,89.1479984 723.335,89.46 C723.245,89.7720016 723.2,90.0959983 723.2,90.432 C723.2,90.7800017 723.245,91.1129984 723.335,91.431 C723.425,91.7490016 723.559999,92.0279988 723.74,92.268 C723.920001,92.5080012 724.147999,92.7029993 724.424,92.853 C724.700001,93.0030007 725.023998,93.078 725.396,93.078 C725.780002,93.078 726.115999,93.0060007 726.404,92.862 C726.692001,92.7179993 726.928999,92.5230012 727.115,92.277 C727.301001,92.0309988 727.442,91.7490016 727.538,91.431 C727.634,91.1129984 727.682,90.7800017 727.682,90.432 C727.682,90.0959983 727.634,89.7720016 727.538,89.46 C727.442,89.1479984 727.301001,88.8750012 727.115,88.641 C726.928999,88.4069988 726.692001,88.2180007 726.404,88.074 C726.115999,87.9299993 725.780002,87.858 725.396,87.858 Z M737.654,89.586 C737.606,89.0699974 737.423002,88.6530016 737.105,88.335 C736.786998,88.0169984 736.358003,87.858 735.818,87.858 C735.445998,87.858 735.125001,87.9269993 734.855,88.065 C734.584999,88.2030007 734.357001,88.3859989 734.171,88.614 C733.984999,88.8420011 733.835001,89.1029985 733.721,89.397 C733.606999,89.6910015 733.514,89.9999984 733.442,90.324 C733.37,90.6480016 733.319,90.9689984 733.289,91.287 C733.259,91.6050016 733.232,91.9019986 733.208,92.178 L733.244,92.214 C733.520001,91.7099975 733.900998,91.3350012 734.387,91.089 C734.873002,90.8429988 735.397997,90.72 735.962,90.72 C736.586003,90.72 737.143998,90.8279989 737.636,91.044 C738.128002,91.2600011 738.544998,91.5569981 738.887,91.935 C739.229002,92.3130019 739.489999,92.7599974 739.67,93.276 C739.850001,93.7920026 739.94,94.349997 739.94,94.95 C739.94,95.5620031 739.841001,96.1289974 739.643,96.651 C739.444999,97.1730026 739.160002,97.6289981 738.788,98.019 C738.415998,98.4090019 737.972003,98.7119989 737.456,98.928 C736.939997,99.1440011 736.370003,99.252 735.746,99.252 C734.821995,99.252 734.063003,99.0810017 733.469,98.739 C732.874997,98.3969983 732.407002,97.929003 732.065,97.335 C731.722998,96.740997 731.486001,96.045004 731.354,95.247 C731.221999,94.448996 731.156,93.5880046 731.156,92.664 C731.156,91.9079962 731.236999,91.1460038 731.399,90.378 C731.561001,89.6099962 731.827998,88.9110031 732.2,88.281 C732.572002,87.6509968 733.060997,87.138002 733.667,86.742 C734.273003,86.345998 735.019996,86.148 735.908,86.148 C736.412003,86.148 736.885998,86.2319992 737.33,86.4 C737.774002,86.5680008 738.166998,86.8019985 738.509,87.102 C738.851002,87.4020015 739.129999,87.7619979 739.346,88.182 C739.562001,88.6020021 739.682,89.0699974 739.706,89.586 L737.654,89.586 Z M735.674,97.542 C736.046002,97.542 736.369999,97.4670007 736.646,97.317 C736.922001,97.1669993 737.152999,96.9720012 737.339,96.732 C737.525001,96.4919988 737.663,96.2130016 737.753,95.895 C737.843,95.5769984 737.888,95.2500017 737.888,94.914 C737.888,94.5779983 737.843,94.2540016 737.753,93.942 C737.663,93.6299984 737.525001,93.3570012 737.339,93.123 C737.152999,92.8889988 736.922001,92.7000007 736.646,92.556 C736.369999,92.4119993 736.046002,92.34 735.674,92.34 C735.301998,92.34 734.975001,92.4089993 734.693,92.547 C734.410999,92.6850007 734.174001,92.8709988 733.982,93.105 C733.789999,93.3390012 733.646,93.6119984 733.55,93.924 C733.454,94.2360016 733.406,94.5659983 733.406,94.914 C733.406,95.2620017 733.454,95.5919984 733.55,95.904 C733.646,96.2160016 733.789999,96.4949988 733.982,96.741 C734.174001,96.9870012 734.410999,97.1819993 734.693,97.326 C734.975001,97.4700007 735.301998,97.542 735.674,97.542 Z" id="XXXLarge,-8-REm-T-*" fill="#000000"></path>
        </g>
    </g>
</svg>