<?xml version="1.0" encoding="UTF-8"?>
<svg width="174px" height="235px" viewBox="0 0 174 235" version="1.1" xmlns="http://www.w3.org/2000/svg" xmlns:xlink="http://www.w3.org/1999/xlink">
    <!-- Generator: Sketch 49.3 (51167) - http://www.bohemiancoding.com/sketch -->
    <title>Type_Arial</title>
    <desc>Created with Sketch.</desc>
    <defs></defs>
    <g id="Sketches" stroke="none" stroke-width="1" fill="none" fill-rule="evenodd">
        <g id="Type_Arial" fill="#000000">
            <path d="M0,173.884766 L4.94824219,161 L6.78515625,161 L12.0585938,173.884766 L10.1162109,173.884766 L8.61328125,169.982422 L3.22558594,169.982422 L1.81054688,173.884766 L0,173.884766 Z M3.71777344,168.59375 L8.0859375,168.59375 L6.74121094,165.025391 C6.33105264,163.941401 6.02636818,163.050785 5.82714844,162.353516 C5.66308512,163.179692 5.43164212,163.999996 5.1328125,164.814453 L3.71777344,168.59375 Z M13.2011719,173.884766 L13.2011719,164.550781 L14.625,164.550781 L14.625,165.96582 C14.9882831,165.303708 15.3237289,164.867189 15.6313477,164.65625 C15.9389664,164.445311 16.2773419,164.339844 16.6464844,164.339844 C17.1796902,164.339844 17.7216769,164.509764 18.2724609,164.849609 L17.7275391,166.317383 C17.3408184,166.088866 16.9541035,165.974609 16.5673828,165.974609 C16.221678,165.974609 15.9111342,166.078612 15.6357422,166.286621 C15.3603502,166.49463 15.1640631,166.783201 15.046875,167.152344 C14.8710929,167.714847 14.7832031,168.330075 14.7832031,168.998047 L14.7832031,173.884766 L13.2011719,173.884766 Z M19.2216797,162.819336 L19.2216797,161 L20.8037109,161 L20.8037109,162.819336 L19.2216797,162.819336 Z M19.2216797,173.884766 L19.2216797,164.550781 L20.8037109,164.550781 L20.8037109,173.884766 L19.2216797,173.884766 Z M29.3027344,172.733398 C28.7167939,173.231448 28.1528347,173.583007 27.6108398,173.788086 C27.0688449,173.993165 26.4873078,174.095703 25.8662109,174.095703 C24.8408152,174.095703 24.0527371,173.845217 23.5019531,173.344238 C22.9511691,172.843259 22.6757812,172.203129 22.6757812,171.423828 C22.6757812,170.966795 22.7797841,170.549318 22.987793,170.171387 C23.1958018,169.793455 23.46826,169.490236 23.8051758,169.261719 C24.1420915,169.033202 24.5214823,168.860352 24.9433594,168.743164 C25.2539078,168.661132 25.7226531,168.582032 26.3496094,168.505859 C27.6269595,168.353515 28.5673798,168.171876 29.1708984,167.960938 C29.1767578,167.74414 29.1796875,167.606446 29.1796875,167.547852 C29.1796875,166.903317 29.0302749,166.44922 28.7314453,166.185547 C28.3271464,165.828123 27.7265665,165.649414 26.9296875,165.649414 C26.1855432,165.649414 25.6362322,165.779784 25.2817383,166.040527 C24.9272443,166.301271 24.6650399,166.762692 24.4951172,167.424805 L22.9482422,167.213867 C23.0888679,166.551755 23.3203109,166.017092 23.6425781,165.609863 C23.9648454,165.202635 24.430661,164.889161 25.0400391,164.669434 C25.6494171,164.449706 26.3554647,164.339844 27.1582031,164.339844 C27.9550821,164.339844 28.6025366,164.433593 29.1005859,164.621094 C29.5986353,164.808595 29.9648426,165.044432 30.1992188,165.328613 C30.4335949,165.612794 30.5976558,165.971678 30.6914062,166.405273 C30.7441409,166.674806 30.7705078,167.161129 30.7705078,167.864258 L30.7705078,169.973633 C30.7705078,171.444343 30.8041989,172.37451 30.871582,172.76416 C30.9389652,173.153811 31.0722646,173.527342 31.2714844,173.884766 L29.6191406,173.884766 C29.4550773,173.556639 29.3496096,173.172854 29.3027344,172.733398 Z M29.1708984,169.200195 C28.5966768,169.434571 27.7353573,169.633788 26.5869141,169.797852 C25.9365202,169.891602 25.4765638,169.99707 25.2070312,170.114258 C24.9374987,170.231446 24.7294929,170.402831 24.5830078,170.628418 C24.4365227,170.854005 24.3632812,171.104491 24.3632812,171.379883 C24.3632812,171.80176 24.5229476,172.153319 24.8422852,172.43457 C25.1616227,172.715822 25.6289032,172.856445 26.2441406,172.856445 C26.8535187,172.856445 27.3955054,172.723146 27.8701172,172.456543 C28.3447289,172.18994 28.6933583,171.825198 28.9160156,171.362305 C29.0859383,171.004881 29.1708984,170.477543 29.1708984,169.780273 L29.1708984,169.200195 Z M33.1875,173.884766 L33.1875,161 L34.7695312,161 L34.7695312,173.884766 L33.1875,173.884766 Z" id="Arial"></path>
            <path d="M26.005893,139.581208 L20.3132366,139.581208 L18.0503173,133.77047 L7.69038985,133.77047 L5.55122393,139.581208 L0,139.581208 L10.0947416,114 L15.6282865,114 L26.005893,139.581208 Z M16.3708069,129.460403 L12.7996374,119.967785 L9.29918404,129.460403 L16.3708069,129.460403 Z M33.5018132,139.581208 L28.5339982,139.581208 L28.5339982,121.049664 L33.1482321,121.049664 L33.1482321,123.684564 C33.9379006,122.439815 34.6480023,121.619689 35.2785585,121.224161 C35.9091147,120.828633 36.6251093,120.630872 37.4265639,120.630872 C38.5580292,120.630872 39.6482268,120.939147 40.6971895,121.555705 L39.1591115,125.830872 C38.3222986,125.295747 37.5444279,125.028188 36.825476,125.028188 C36.1300963,125.028188 35.5408002,125.217224 35.0575703,125.595302 C34.5743403,125.97338 34.1942444,126.656818 33.9172711,127.645638 C33.6402978,128.634457 33.5018132,130.70513 33.5018132,133.857718 L33.5018132,139.581208 Z M42.8363554,118.536913 L42.8363554,114 L47.8041704,114 L47.8041704,118.536913 L42.8363554,118.536913 Z M42.8363554,139.581208 L42.8363554,121.049664 L47.8041704,121.049664 L47.8041704,139.581208 L42.8363554,139.581208 Z M56.6083409,126.703356 L52.1001813,125.900671 C52.6069835,124.109163 53.4791416,122.783002 54.7166818,121.922148 C55.954222,121.061293 57.7928255,120.630872 60.2325476,120.630872 C62.4483338,120.630872 64.0983627,120.889707 65.1826836,121.407383 C66.2670045,121.925059 67.0301428,122.582323 67.4721215,123.379195 C67.9141001,124.176067 68.1350861,125.638916 68.1350861,127.767785 L68.082049,133.491275 C68.082049,135.119919 68.1616039,136.321025 68.3207162,137.094631 C68.4798285,137.868237 68.777423,138.697087 69.2135086,139.581208 L64.2987307,139.581208 C64.1690837,139.255479 64.0099737,138.77271 63.8213962,138.132886 C63.7388935,137.842057 63.6799639,137.650112 63.6446056,137.557047 C62.7960066,138.371369 61.8884908,138.982101 60.9220308,139.389262 C59.9555709,139.796423 58.9243029,140 57.8281958,140 C55.8952759,140 54.3719457,139.482332 53.2581596,138.44698 C52.1443734,137.411628 51.5874887,136.102916 51.5874887,134.520805 C51.5874887,133.47382 51.840886,132.540273 52.3476881,131.720134 C52.8544903,130.899996 53.564592,130.271814 54.4780145,129.83557 C55.391437,129.399327 56.7085136,129.018346 58.4292838,128.692617 C60.7511449,128.26219 62.359923,127.860852 63.2556664,127.488591 L63.2556664,127 C63.2556664,126.057713 63.019948,125.385908 62.5485041,124.984564 C62.0770602,124.583219 61.1872232,124.38255 59.8789665,124.38255 C58.9950092,124.38255 58.3055328,124.554137 57.8105168,124.897315 C57.3155007,125.240494 56.9147794,125.842501 56.6083409,126.703356 Z M63.2556664,130.681879 C62.6192171,130.891276 61.6115209,131.141386 60.2325476,131.432215 C58.8535742,131.723044 57.9519514,132.008052 57.5276519,132.287248 C56.8794165,132.740942 56.5553037,133.316775 56.5553037,134.014765 C56.5553037,134.701122 56.814594,135.294405 57.3331822,135.794631 C57.8517705,136.294857 58.511782,136.544966 59.3132366,136.544966 C60.20898,136.544966 61.0634592,136.254142 61.8766999,135.672483 C62.4777909,135.230423 62.8726192,134.689489 63.0611967,134.049664 C63.1908438,133.63087 63.2556664,132.83401 63.2556664,131.65906 L63.2556664,130.681879 Z M73.032185,139.581208 L73.032185,114 L78,114 L78,139.581208 L73.032185,139.581208 Z" id="Arial"></path>
            <text id="Sans-serif" font-family="HelveticaNeue-Bold, Helvetica Neue" font-size="36" font-weight="bold">
                <tspan x="0" y="234">Sans-serif</tspan>
            </text>
            <path d="M88.8717144,88.5503356 L69.4178109,88.5503356 L61.6845822,68.4362416 L26.2808945,68.4362416 L18.9705767,88.5503356 L0,88.5503356 L34.49745,0 L53.4076108,0 L88.8717144,88.5503356 Z M55.9450765,53.5167785 L43.7410749,20.6577181 L31.7787368,53.5167785 L55.9450765,53.5167785 Z M110.923499,43.9731544 L95.5174578,41.1946309 C97.2493875,34.9932576 100.229873,30.4026995 104.459004,27.4228188 C108.688134,24.4429381 114.97132,22.9530201 123.308749,22.9530201 C130.880906,22.9530201 136.519662,23.8489843 140.225186,25.6409396 C143.93071,27.4328949 146.538635,29.7080399 148.049039,32.466443 C149.559443,35.224846 150.314633,40.2885538 150.314633,47.6577181 L150.133386,67.4697987 C150.133386,73.1074107 150.405254,77.2650873 150.949,79.942953 C151.492745,82.6208188 152.509735,85.4899176 154,88.5503356 L137.204394,88.5503356 C136.761342,87.4228132 136.217605,85.7516889 135.573166,83.5369128 C135.291224,82.5301963 135.08984,81.8657734 134.969007,81.5436242 C132.069032,84.3624302 128.967716,86.476503 125.664967,87.885906 C122.362217,89.2953091 118.837994,90 115.092193,90 C108.486694,90 103.280913,88.2080716 99.474696,84.6241611 C95.6684784,81.0402505 93.7653982,76.5100945 93.7653982,71.033557 C93.7653982,67.4093779 94.63135,64.1778665 96.3632797,61.3389262 C98.0952094,58.4999858 100.521888,56.3255109 103.64339,54.8154362 C106.764891,53.3053616 111.265826,51.9865828 117.146332,50.8590604 C125.080986,49.3691201 130.578774,47.9798722 133.639859,46.6912752 L133.639859,45 C133.639859,41.7382387 132.834322,39.4127586 131.223225,38.0234899 C129.612127,36.6342212 126.571227,35.9395973 122.100432,35.9395973 C119.079624,35.9395973 116.723429,36.5335511 115.031777,37.7214765 C113.340125,38.9094019 111.970713,40.9932737 110.923499,43.9731544 Z M133.639859,57.7449664 C131.464877,58.4698023 128.021208,59.3355654 123.308749,60.3422819 C118.596289,61.3489983 115.515111,62.3355656 114.065124,63.3020134 C111.849865,64.8724911 110.742252,66.8657597 110.742252,69.2818792 C110.742252,71.65773 111.628342,73.7114007 113.400549,75.442953 C115.172756,77.1745053 117.428259,78.0402685 120.167124,78.0402685 C123.228209,78.0402685 126.14828,77.0335671 128.927423,75.0201342 C130.981572,73.4899252 132.330845,71.6174607 132.975284,69.4026846 C133.418336,67.9530129 133.639859,65.1946512 133.639859,61.1275168 L133.639859,57.7449664 Z" id="Aa"></path>
        </g>
    </g>
</svg>