<?xml version="1.0" encoding="UTF-8"?>
<svg width="739px" height="87px" viewBox="0 0 739 87" version="1.1" xmlns="http://www.w3.org/2000/svg" xmlns:xlink="http://www.w3.org/1999/xlink">
    <!-- Generator: Sketch 49.3 (51167) - http://www.bohemiancoding.com/sketch -->
    <title>Type_tracking2</title>
    <desc>Created with Sketch.</desc>
    <defs></defs>
    <g id="Sketches" stroke="none" stroke-width="1" fill="none" fill-rule="evenodd">
        <g id="Type_tracking2">
            <path d="M7.492,63.124 L12.616,63.124 C13.3720038,63.124 14.0999965,63.0680006 14.8,62.956 C15.5000035,62.8439994 16.1159973,62.6270016 16.648,62.305 C17.1800027,61.9829984 17.6069984,61.5280029 17.929,60.94 C18.2510016,60.3519971 18.412,59.5820048 18.412,58.63 C18.412,57.6779952 18.2510016,56.9080029 17.929,56.32 C17.6069984,55.7319971 17.1800027,55.2770016 16.648,54.955 C16.1159973,54.6329984 15.5000035,54.4160006 14.8,54.304 C14.0999965,54.1919994 13.3720038,54.136 12.616,54.136 L7.492,54.136 L7.492,63.124 Z M0.898,49.012 L14.422,49.012 C16.2980094,49.012 17.8939934,49.2849973 19.21,49.831 C20.5260066,50.3770027 21.5969959,51.0979955 22.423,51.994 C23.2490041,52.8900045 23.8509981,53.9119943 24.229,55.06 C24.6070019,56.2080057 24.796,57.3979938 24.796,58.63 C24.796,59.834006 24.6070019,61.0169942 24.229,62.179 C23.8509981,63.3410058 23.2490041,64.3699955 22.423,65.266 C21.5969959,66.1620045 20.5260066,66.8829973 19.21,67.429 C17.8939934,67.9750027 16.2980094,68.248 14.422,68.248 L7.492,68.248 L7.492,79 L0.898,79 L0.898,49.012 Z M32.734,68.164 C32.734,69.0320043 32.8179992,69.8789959 32.986,70.705 C33.1540009,71.5310041 33.440998,72.2729967 33.847,72.931 C34.2530021,73.5890033 34.7919967,74.113998 35.464,74.506 C36.1360034,74.898002 36.975995,75.094 37.984,75.094 C38.9920051,75.094 39.8389966,74.898002 40.525,74.506 C41.2110035,74.113998 41.756998,73.5890033 42.163,72.931 C42.5690021,72.2729967 42.8559992,71.5310041 43.024,70.705 C43.1920009,69.8789959 43.276,69.0320043 43.276,68.164 C43.276,67.2959957 43.1920009,66.4420042 43.024,65.602 C42.8559992,64.7619958 42.5690021,64.0200032 42.163,63.376 C41.756998,62.7319968 41.2110035,62.207002 40.525,61.801 C39.8389966,61.394998 38.9920051,61.192 37.984,61.192 C36.975995,61.192 36.1360034,61.394998 35.464,61.801 C34.7919967,62.207002 34.2530021,62.7319968 33.847,63.376 C33.440998,64.0200032 33.1540009,64.7619958 32.986,65.602 C32.8179992,66.4420042 32.734,67.2959957 32.734,68.164 Z M26.77,68.164 C26.77,66.4279913 27.0359974,64.8530071 27.568,63.439 C28.1000027,62.0249929 28.8559951,60.821005 29.836,59.827 C30.8160049,58.832995 31.9919932,58.0630027 33.364,57.517 C34.7360069,56.9709973 36.2759915,56.698 37.984,56.698 C39.6920086,56.698 41.2389931,56.9709973 42.625,57.517 C44.011007,58.0630027 45.1939951,58.832995 46.174,59.827 C47.1540049,60.821005 47.9099974,62.0249929 48.442,63.439 C48.9740027,64.8530071 49.24,66.4279913 49.24,68.164 C49.24,69.9000087 48.9740027,71.467993 48.442,72.868 C47.9099974,74.268007 47.1540049,75.464995 46.174,76.459 C45.1939951,77.453005 44.011007,78.2159973 42.625,78.748 C41.2389931,79.2800027 39.6920086,79.546 37.984,79.546 C36.2759915,79.546 34.7360069,79.2800027 33.364,78.748 C31.9919932,78.2159973 30.8160049,77.453005 29.836,76.459 C28.8559951,75.464995 28.1000027,74.268007 27.568,72.868 C27.0359974,71.467993 26.77,69.9000087 26.77,68.164 Z M63.2260001,75.094 C64.206005,75.094 65.0249968,74.898002 65.6830001,74.506 C66.3410033,74.113998 66.872998,73.6030031 67.2790001,72.973 C67.6850021,72.3429968 67.9719992,71.6080042 68.1400001,70.768 C68.3080009,69.9279958 68.3920001,69.0740043 68.3920001,68.206 C68.3920001,67.3379957 68.301001,66.4840042 68.1190001,65.644 C67.9369991,64.8039958 67.6360022,64.0550033 67.2160001,63.397 C66.795998,62.7389967 66.2570033,62.207002 65.5990001,61.801 C64.9409968,61.394998 64.1360048,61.192 63.1840001,61.192 C62.2039952,61.192 61.3850033,61.394998 60.7270001,61.801 C60.0689968,62.207002 59.5370021,62.7319968 59.1310001,63.376 C58.724998,64.0200032 58.4380009,64.7619958 58.2700001,65.602 C58.1019992,66.4420042 58.0180001,67.3099955 58.0180001,68.206 C58.0180001,69.0740043 58.1089991,69.9279958 58.2910001,70.768 C58.473001,71.6080042 58.766998,72.3429968 59.1730001,72.973 C59.5790021,73.6030031 60.1179967,74.113998 60.7900001,74.506 C61.4620034,74.898002 62.2739953,75.094 63.2260001,75.094 Z M52.2640001,57.286 L57.9340001,57.286 L57.9340001,60.058 L58.0180001,60.058 C58.7460037,58.8819941 59.6699945,58.0280027 60.7900001,57.496 C61.9100057,56.9639973 63.1419933,56.698 64.4860001,56.698 C66.1940086,56.698 67.6639939,57.0199968 68.8960001,57.664 C70.1280062,58.3080032 71.149996,59.1619947 71.9620001,60.226 C72.7740041,61.2900053 73.3759981,62.5289929 73.7680001,63.943 C74.160002,65.3570071 74.3560001,66.8339923 74.3560001,68.374 C74.3560001,69.8300073 74.160002,71.2299933 73.7680001,72.574 C73.3759981,73.9180067 72.781004,75.1079948 71.9830001,76.144 C71.1849961,77.1800052 70.191006,78.0059969 69.0010001,78.622 C67.8109941,79.2380031 66.418008,79.546 64.8220001,79.546 C63.4779933,79.546 62.2390057,79.2730027 61.1050001,78.727 C59.9709944,78.1809973 59.0400037,77.3760053 58.3120001,76.312 L58.2280001,76.312 L58.2280001,86.602 L52.2640001,86.602 L52.2640001,57.286 Z M97.4560001,79 L91.7860001,79 L91.7860001,75.976 L91.6600001,75.976 C90.9039963,77.2360063 89.9240061,78.1459972 88.7200001,78.706 C87.5159941,79.2660028 86.2840064,79.546 85.0240001,79.546 C83.4279921,79.546 82.1190052,79.3360021 81.0970001,78.916 C80.074995,78.4959979 79.270003,77.9010039 78.6820001,77.131 C78.0939971,76.3609962 77.6810013,75.4230055 77.4430001,74.317 C77.2049989,73.2109945 77.0860001,71.9860067 77.0860001,70.642 L77.0860001,57.286 L83.0500001,57.286 L83.0500001,69.55 C83.0500001,71.342009 83.3299973,72.6789956 83.8900001,73.561 C84.4500029,74.4430044 85.4439929,74.884 86.8720001,74.884 C88.4960082,74.884 89.6719964,74.4010048 90.4000001,73.435 C91.1280037,72.4689952 91.4920001,70.8800111 91.4920001,68.668 L91.4920001,57.286 L97.4560001,57.286 L97.4560001,79 Z M101.32,49.012 L107.284,49.012 L107.284,79 L101.32,79 L101.32,49.012 Z M113.794,49.012 L119.464,49.012 L119.464,53.926 L113.794,53.926 L113.794,49.012 Z M122.446,49.012 L128.116,49.012 L128.116,53.926 L122.446,53.926 L122.446,49.012 Z M110.896,63.964 C110.980001,62.563993 111.329997,61.4020046 111.946,60.478 C112.562003,59.5539954 113.345995,58.8120028 114.298,58.252 C115.250005,57.6919972 116.320994,57.2930012 117.511,57.055 C118.701006,56.8169988 119.897994,56.698 121.102,56.698 C122.194006,56.698 123.299995,56.7749992 124.42,56.929 C125.540006,57.0830008 126.561996,57.3839978 127.486,57.832 C128.410005,58.2800022 129.165997,58.902996 129.754,59.701 C130.342003,60.499004 130.636,61.5559934 130.636,62.872 L130.636,74.17 C130.636,75.1500049 130.692,76.0879955 130.804,76.984 C130.916001,77.8800045 131.111999,78.5519978 131.392,79 L125.344,79 C125.232,78.6639983 125.141,78.3210018 125.071,77.971 C125.001,77.6209982 124.952,77.2640018 124.924,76.9 C123.971995,77.8800049 122.852007,78.565998 121.564,78.958 C120.275994,79.350002 118.960007,79.546 117.616,79.546 C116.579995,79.546 115.614005,79.4200013 114.718,79.168 C113.821996,78.9159987 113.038003,78.5240027 112.366,77.992 C111.693997,77.4599973 111.169002,76.7880041 110.791,75.976 C110.412998,75.1639959 110.224,74.1980056 110.224,73.078 C110.224,71.8459938 110.440998,70.831004 110.875,70.033 C111.309002,69.234996 111.868997,68.5980024 112.555,68.122 C113.241004,67.6459976 114.024996,67.2890012 114.907,67.051 C115.789005,66.8129988 116.677996,66.6240007 117.574,66.484 C118.470005,66.3439993 119.351996,66.2320004 120.22,66.148 C121.088004,66.0639996 121.857997,65.9380008 122.53,65.77 C123.202003,65.6019992 123.733998,65.3570016 124.126,65.035 C124.518002,64.7129984 124.7,64.2440031 124.672,63.628 C124.672,62.9839968 124.567001,62.4730019 124.357,62.095 C124.146999,61.7169981 123.867002,61.4230011 123.517,61.213 C123.166998,61.0029989 122.761002,60.8630004 122.299,60.793 C121.836998,60.7229997 121.340003,60.688 120.808,60.688 C119.631994,60.688 118.708003,60.9399975 118.036,61.444 C117.363997,61.9480025 116.972001,62.7879941 116.86,63.964 L110.896,63.964 Z M124.672,68.374 C124.419999,68.5980011 124.105002,68.7729994 123.727,68.899 C123.348998,69.0250006 122.943002,69.1299996 122.509,69.214 C122.074998,69.2980004 121.620003,69.3679997 121.144,69.424 C120.667998,69.4800003 120.192003,69.5499996 119.716,69.634 C119.267998,69.7180004 118.827002,69.8299993 118.393,69.97 C117.958998,70.1100007 117.581002,70.2989988 117.259,70.537 C116.936999,70.7750012 116.678001,71.0759982 116.482,71.44 C116.285999,71.8040018 116.188,72.2659972 116.188,72.826 C116.188,73.3580027 116.285999,73.8059982 116.482,74.17 C116.678001,74.5340018 116.943998,74.820999 117.28,75.031 C117.616002,75.241001 118.007998,75.3879996 118.456,75.472 C118.904002,75.5560004 119.365998,75.598 119.842,75.598 C121.018006,75.598 121.927997,75.402002 122.572,75.01 C123.216003,74.617998 123.691999,74.1490027 124,73.603 C124.308002,73.0569973 124.497,72.5040028 124.567,71.944 C124.637,71.3839972 124.672,70.9360017 124.672,70.6 L124.672,68.374 Z M134.416,57.286 L140.086,57.286 L140.086,61.318 L140.17,61.318 C140.450002,60.6459966 140.827998,60.0230029 141.304,59.449 C141.780003,58.8749971 142.325997,58.385002 142.942,57.979 C143.558003,57.572998 144.215997,57.2580011 144.916,57.034 C145.616004,56.8099989 146.343996,56.698 147.1,56.698 C147.492002,56.698 147.925998,56.7679993 148.402,56.908 L148.402,62.452 C148.121999,62.3959997 147.786002,62.3470002 147.394,62.305 C147.001998,62.2629998 146.624002,62.242 146.26,62.242 C145.167995,62.242 144.244004,62.4239982 143.488,62.788 C142.731996,63.1520018 142.123002,63.6489969 141.661,64.279 C141.198998,64.9090031 140.870001,65.6439958 140.674,66.484 C140.477999,67.3240042 140.38,68.2339951 140.38,69.214 L140.38,79 L134.416,79 L134.416,57.286 Z M149.662,63.964 C149.746001,62.563993 150.095997,61.4020046 150.712,60.478 C151.328003,59.5539954 152.111995,58.8120028 153.064,58.252 C154.016005,57.6919972 155.086994,57.2930012 156.277,57.055 C157.467006,56.8169988 158.663994,56.698 159.868,56.698 C160.960006,56.698 162.065995,56.7749992 163.186,56.929 C164.306006,57.0830008 165.327996,57.3839978 166.252,57.832 C167.176005,58.2800022 167.931997,58.902996 168.52,59.701 C169.108003,60.499004 169.402,61.5559934 169.402,62.872 L169.402,74.17 C169.402,75.1500049 169.458,76.0879955 169.57,76.984 C169.682001,77.8800045 169.877999,78.5519978 170.158,79 L164.11,79 C163.998,78.6639983 163.907001,78.3210018 163.837,77.971 C163.767,77.6209982 163.718,77.2640018 163.69,76.9 C162.737995,77.8800049 161.618007,78.565998 160.33,78.958 C159.041994,79.350002 157.726007,79.546 156.382,79.546 C155.345995,79.546 154.380005,79.4200013 153.484,79.168 C152.587996,78.9159987 151.804004,78.5240027 151.132,77.992 C150.459997,77.4599973 149.935002,76.7880041 149.557,75.976 C149.178998,75.1639959 148.99,74.1980056 148.99,73.078 C148.99,71.8459938 149.206998,70.831004 149.641,70.033 C150.075002,69.234996 150.634997,68.5980024 151.321,68.122 C152.007004,67.6459976 152.790996,67.2890012 153.673,67.051 C154.555005,66.8129988 155.443996,66.6240007 156.34,66.484 C157.236005,66.3439993 158.117996,66.2320004 158.986,66.148 C159.854005,66.0639996 160.623997,65.9380008 161.296,65.77 C161.968004,65.6019992 162.499998,65.3570016 162.892,65.035 C163.284002,64.7129984 163.466,64.2440031 163.438,63.628 C163.438,62.9839968 163.333001,62.4730019 163.123,62.095 C162.912999,61.7169981 162.633002,61.4230011 162.283,61.213 C161.932998,61.0029989 161.527002,60.8630004 161.065,60.793 C160.602998,60.7229997 160.106003,60.688 159.574,60.688 C158.397994,60.688 157.474004,60.9399975 156.802,61.444 C156.129997,61.9480025 155.738001,62.7879941 155.626,63.964 L149.662,63.964 Z M163.438,68.374 C163.185999,68.5980011 162.871002,68.7729994 162.493,68.899 C162.114998,69.0250006 161.709002,69.1299996 161.275,69.214 C160.840998,69.2980004 160.386003,69.3679997 159.91,69.424 C159.433998,69.4800003 158.958003,69.5499996 158.482,69.634 C158.033998,69.7180004 157.593002,69.8299993 157.159,69.97 C156.724998,70.1100007 156.347002,70.2989988 156.025,70.537 C155.702999,70.7750012 155.444001,71.0759982 155.248,71.44 C155.051999,71.8040018 154.954,72.2659972 154.954,72.826 C154.954,73.3580027 155.051999,73.8059982 155.248,74.17 C155.444001,74.5340018 155.709999,74.820999 156.046,75.031 C156.382002,75.241001 156.773998,75.3879996 157.222,75.472 C157.670002,75.5560004 158.131998,75.598 158.608,75.598 C159.784006,75.598 160.693997,75.402002 161.338,75.01 C161.982003,74.617998 162.457999,74.1490027 162.766,73.603 C163.074002,73.0569973 163.263,72.5040028 163.333,71.944 C163.403001,71.3839972 163.438,70.9360017 163.438,70.6 L163.438,68.374 Z M194.98,75.094 C195.960005,75.094 196.778997,74.898002 197.437,74.506 C198.095004,74.113998 198.626998,73.6030031 199.033,72.973 C199.439002,72.3429968 199.725999,71.6080042 199.894,70.768 C200.062001,69.9279958 200.146,69.0740043 200.146,68.206 C200.146,67.3379957 200.055001,66.4840042 199.873,65.644 C199.690999,64.8039958 199.390002,64.0550033 198.97,63.397 C198.549998,62.7389967 198.011004,62.207002 197.353,61.801 C196.694997,61.394998 195.890005,61.192 194.938,61.192 C193.957995,61.192 193.139004,61.394998 192.481,61.801 C191.822997,62.207002 191.291002,62.7319968 190.885,63.376 C190.478998,64.0200032 190.192001,64.7619958 190.024,65.602 C189.855999,66.4420042 189.772,67.3099955 189.772,68.206 C189.772,69.0740043 189.862999,69.9279958 190.045,70.768 C190.227001,71.6080042 190.520998,72.3429968 190.927,72.973 C191.333002,73.6030031 191.871997,74.113998 192.544,74.506 C193.216004,74.898002 194.027995,75.094 194.98,75.094 Z M184.018,57.286 L189.688,57.286 L189.688,60.058 L189.772,60.058 C190.500004,58.8819941 191.423995,58.0280027 192.544,57.496 C193.664006,56.9639973 194.895994,56.698 196.24,56.698 C197.948009,56.698 199.417994,57.0199968 200.65,57.664 C201.882006,58.3080032 202.903996,59.1619947 203.716,60.226 C204.528004,61.2900053 205.129998,62.5289929 205.522,63.943 C205.914002,65.3570071 206.11,66.8339923 206.11,68.374 C206.11,69.8300073 205.914002,71.2299933 205.522,72.574 C205.129998,73.9180067 204.535004,75.1079948 203.737,76.144 C202.938996,77.1800052 201.945006,78.0059969 200.755,78.622 C199.564994,79.2380031 198.172008,79.546 196.576,79.546 C195.231994,79.546 193.993006,79.2730027 192.859,78.727 C191.724995,78.1809973 190.794004,77.3760053 190.066,76.312 L189.982,76.312 L189.982,86.602 L184.018,86.602 L184.018,57.286 Z M208.84,57.286 L214.51,57.286 L214.51,61.318 L214.594,61.318 C214.874002,60.6459966 215.251998,60.0230029 215.728,59.449 C216.204003,58.8749971 216.749997,58.385002 217.366,57.979 C217.982003,57.572998 218.639997,57.2580011 219.34,57.034 C220.040004,56.8099989 220.767996,56.698 221.524,56.698 C221.916002,56.698 222.349998,56.7679993 222.826,56.908 L222.826,62.452 C222.545999,62.3959997 222.210002,62.3470002 221.818,62.305 C221.425998,62.2629998 221.048002,62.242 220.684,62.242 C219.591995,62.242 218.668004,62.4239982 217.912,62.788 C217.155996,63.1520018 216.547003,63.6489969 216.085,64.279 C215.622998,64.9090031 215.294001,65.6439958 215.098,66.484 C214.901999,67.3240042 214.804,68.2339951 214.804,69.214 L214.804,79 L208.84,79 L208.84,57.286 Z M228.874,68.164 C228.874,69.0320043 228.957999,69.8789959 229.126,70.705 C229.294001,71.5310041 229.580998,72.2729967 229.987,72.931 C230.393002,73.5890033 230.931997,74.113998 231.604,74.506 C232.276004,74.898002 233.115995,75.094 234.124,75.094 C235.132005,75.094 235.978997,74.898002 236.665,74.506 C237.351004,74.113998 237.896998,73.5890033 238.303,72.931 C238.709002,72.2729967 238.995999,71.5310041 239.164,70.705 C239.332001,69.8789959 239.416,69.0320043 239.416,68.164 C239.416,67.2959957 239.332001,66.4420042 239.164,65.602 C238.995999,64.7619958 238.709002,64.0200032 238.303,63.376 C237.896998,62.7319968 237.351004,62.207002 236.665,61.801 C235.978997,61.394998 235.132005,61.192 234.124,61.192 C233.115995,61.192 232.276004,61.394998 231.604,61.801 C230.931997,62.207002 230.393002,62.7319968 229.987,63.376 C229.580998,64.0200032 229.294001,64.7619958 229.126,65.602 C228.957999,66.4420042 228.874,67.2959957 228.874,68.164 Z M222.91,68.164 C222.91,66.4279913 223.175998,64.8530071 223.708,63.439 C224.240003,62.0249929 224.995995,60.821005 225.976,59.827 C226.956005,58.832995 228.131993,58.0630027 229.504,57.517 C230.876007,56.9709973 232.415992,56.698 234.124,56.698 C235.832009,56.698 237.378993,56.9709973 238.765,57.517 C240.151007,58.0630027 241.333995,58.832995 242.314,59.827 C243.294005,60.821005 244.049998,62.0249929 244.582,63.439 C245.114003,64.8530071 245.38,66.4279913 245.38,68.164 C245.38,69.9000087 245.114003,71.467993 244.582,72.868 C244.049998,74.268007 243.294005,75.464995 242.314,76.459 C241.333995,77.453005 240.151007,78.2159973 238.765,78.748 C237.378993,79.2800027 235.832009,79.546 234.124,79.546 C232.415992,79.546 230.876007,79.2800027 229.504,78.748 C228.131993,78.2159973 226.956005,77.453005 225.976,76.459 C224.995995,75.464995 224.240003,74.268007 223.708,72.868 C223.175998,71.467993 222.91,69.9000087 222.91,68.164 Z M263.818,68.08 C263.818,67.1839955 263.734001,66.3230041 263.566,65.497 C263.397999,64.6709959 263.111002,63.9430032 262.705,63.313 C262.298998,62.6829969 261.774004,62.172002 261.13,61.78 C260.485997,61.387998 259.674005,61.192 258.694,61.192 C257.713995,61.192 256.888004,61.387998 256.216,61.78 C255.543997,62.172002 255.005002,62.6899968 254.599,63.334 C254.192998,63.9780032 253.899001,64.7129959 253.717,65.539 C253.534999,66.3650041 253.444,67.2259955 253.444,68.122 C253.444,68.9620042 253.541999,69.8019958 253.738,70.642 C253.934001,71.4820042 254.248998,72.2309967 254.683,72.889 C255.117002,73.5470033 255.662997,74.078998 256.321,74.485 C256.979004,74.891002 257.769996,75.094 258.694,75.094 C259.674005,75.094 260.492997,74.898002 261.151,74.506 C261.809004,74.113998 262.333998,73.5890033 262.726,72.931 C263.118002,72.2729967 263.397999,71.5240042 263.566,70.684 C263.734001,69.8439958 263.818,68.9760045 263.818,68.08 Z M263.902,76.228 L263.818,76.228 C263.117997,77.4040059 262.201006,78.2509974 261.067,78.769 C259.932995,79.2870026 258.652007,79.546 257.224,79.546 C255.599992,79.546 254.172006,79.2310032 252.94,78.601 C251.707994,77.9709969 250.693004,77.1170054 249.895,76.039 C249.096996,74.9609946 248.495002,73.722007 248.089,72.322 C247.682998,70.921993 247.48,69.4660076 247.48,67.954 C247.48,66.4979927 247.682998,65.0910068 248.089,63.733 C248.495002,62.3749932 249.096996,61.1780052 249.895,60.142 C250.693004,59.1059948 251.693994,58.2730032 252.898,57.643 C254.102006,57.0129969 255.501992,56.698 257.098,56.698 C258.386007,56.698 259.610995,56.9709973 260.773,57.517 C261.935006,58.0630027 262.851997,58.8679947 263.524,59.932 L263.608,59.932 L263.608,49.012 L269.572,49.012 L269.572,79 L263.902,79 L263.902,76.228 Z M293.596,79 L287.926,79 L287.926,75.976 L287.8,75.976 C287.043997,77.2360063 286.064006,78.1459972 284.86,78.706 C283.655994,79.2660028 282.424007,79.546 281.164,79.546 C279.567992,79.546 278.259005,79.3360021 277.237,78.916 C276.214995,78.4959979 275.410003,77.9010039 274.822,77.131 C274.233997,76.3609962 273.821002,75.4230055 273.583,74.317 C273.344999,73.2109945 273.226,71.9860067 273.226,70.642 L273.226,57.286 L279.19,57.286 L279.19,69.55 C279.19,71.342009 279.469998,72.6789956 280.03,73.561 C280.590003,74.4430044 281.583993,74.884 283.012,74.884 C284.636008,74.884 285.811997,74.4010048 286.54,73.435 C287.268004,72.4689952 287.632,70.8800111 287.632,68.668 L287.632,57.286 L293.596,57.286 L293.596,79 Z M297.838,49.012 L303.802,49.012 L303.802,65.098 L311.32,57.286 L318.376,57.286 L310.186,65.266 L319.3,79 L312.076,79 L306.112,69.298 L303.802,71.524 L303.802,79 L297.838,79 L297.838,49.012 Z M328.12,57.286 L332.488,57.286 L332.488,61.276 L328.12,61.276 L328.12,72.028 C328.12,73.036005 328.287999,73.7079983 328.624,74.044 C328.960002,74.3800017 329.631995,74.548 330.64,74.548 C330.976002,74.548 331.297999,74.5340001 331.606,74.506 C331.914002,74.4779999 332.207999,74.4360003 332.488,74.38 L332.488,79 C331.983998,79.0840004 331.424003,79.1399999 330.808,79.168 C330.191997,79.1960001 329.590003,79.21 329.002,79.21 C328.077996,79.21 327.203005,79.1470006 326.377,79.021 C325.550996,78.8949994 324.823004,78.6500018 324.193,78.286 C323.562997,77.9219982 323.066002,77.4040034 322.702,76.732 C322.337999,76.0599966 322.156,75.1780055 322.156,74.086 L322.156,61.276 L318.544,61.276 L318.544,57.286 L322.156,57.286 L322.156,50.776 L328.12,50.776 L328.12,57.286 Z M349.12,65.812 C348.839999,64.2999924 348.343004,63.1520039 347.629,62.368 C346.914997,61.5839961 345.830008,61.192 344.374,61.192 C343.421996,61.192 342.631004,61.3529984 342.001,61.675 C341.370997,61.9970016 340.867002,62.3959976 340.489,62.872 C340.110999,63.3480024 339.845001,63.8519973 339.691,64.384 C339.537,64.9160027 339.446001,65.3919979 339.418,65.812 L349.12,65.812 Z M339.418,69.592 C339.502001,71.5240097 339.991996,72.9239957 340.888,73.792 C341.784005,74.6600043 343.071992,75.094 344.752,75.094 C345.956006,75.094 346.991996,74.793003 347.86,74.191 C348.728005,73.588997 349.259999,72.9520034 349.456,72.28 L354.706,72.28 C353.865996,74.884013 352.578009,76.7459944 350.842,77.866 C349.105992,78.9860056 347.006013,79.546 344.542,79.546 C342.833992,79.546 341.294007,79.2730027 339.922,78.727 C338.549994,78.1809973 337.388005,77.404005 336.436,76.396 C335.483996,75.387995 334.749003,74.184007 334.231,72.784 C333.712998,71.383993 333.454,69.8440084 333.454,68.164 C333.454,66.5399919 333.719998,65.028007 334.252,63.628 C334.784003,62.227993 335.539996,61.0170051 336.52,59.995 C337.500005,58.9729949 338.668994,58.1680029 340.027,57.58 C341.385007,56.9919971 342.889992,56.698 344.542,56.698 C346.39001,56.698 347.999994,57.0549964 349.372,57.769 C350.744007,58.4830036 351.870996,59.441994 352.753,60.646 C353.635005,61.850006 354.271998,63.2219923 354.664,64.762 C355.056002,66.3020077 355.196001,67.9119916 355.084,69.592 L339.418,69.592 Z M357.772,57.286 L363.442,57.286 L363.442,61.318 L363.526,61.318 C363.806002,60.6459966 364.183998,60.0230029 364.66,59.449 C365.136003,58.8749971 365.681997,58.385002 366.298,57.979 C366.914004,57.572998 367.571997,57.2580011 368.272,57.034 C368.972004,56.8099989 369.699997,56.698 370.456,56.698 C370.848002,56.698 371.281998,56.7679993 371.758,56.908 L371.758,62.452 C371.477999,62.3959997 371.142002,62.3470002 370.75,62.305 C370.357998,62.2629998 369.980002,62.242 369.616,62.242 C368.523995,62.242 367.600004,62.4239982 366.844,62.788 C366.087997,63.1520018 365.479003,63.6489969 365.017,64.279 C364.554998,64.9090031 364.226001,65.6439958 364.03,66.484 C363.833999,67.3240042 363.736,68.2339951 363.736,69.214 L363.736,79 L357.772,79 L357.772,57.286 Z M373.522,72.532 L380.116,72.532 L380.116,79 L373.522,79 L373.522,72.532 Z" id="Populära-produkter." fill="#191611"></path>
            <path d="M7.492,19.124 L12.616,19.124 C13.3720038,19.124 14.0999965,19.0680006 14.8,18.956 C15.5000035,18.8439994 16.1159973,18.6270016 16.648,18.305 C17.1800027,17.9829984 17.6069984,17.5280029 17.929,16.94 C18.2510016,16.3519971 18.412,15.5820048 18.412,14.63 C18.412,13.6779952 18.2510016,12.9080029 17.929,12.32 C17.6069984,11.7319971 17.1800027,11.2770016 16.648,10.955 C16.1159973,10.6329984 15.5000035,10.4160006 14.8,10.304 C14.0999965,10.1919994 13.3720038,10.136 12.616,10.136 L7.492,10.136 L7.492,19.124 Z M0.898,5.012 L14.422,5.012 C16.2980094,5.012 17.8939934,5.28499727 19.21,5.831 C20.5260066,6.37700273 21.5969959,7.09799552 22.423,7.994 C23.2490041,8.89000448 23.8509981,9.91199426 24.229,11.06 C24.6070019,12.2080057 24.796,13.3979938 24.796,14.63 C24.796,15.834006 24.6070019,17.0169942 24.229,18.179 C23.8509981,19.3410058 23.2490041,20.3699955 22.423,21.266 C21.5969959,22.1620045 20.5260066,22.8829973 19.21,23.429 C17.8939934,23.9750027 16.2980094,24.248 14.422,24.248 L7.492,24.248 L7.492,35 L0.898,35 L0.898,5.012 Z M33.574,24.164 C33.574,25.0320043 33.6579992,25.8789959 33.826,26.705 C33.9940008,27.5310041 34.280998,28.2729967 34.687,28.931 C35.093002,29.5890033 35.6319966,30.113998 36.304,30.506 C36.9760034,30.898002 37.815995,31.094 38.824,31.094 C39.832005,31.094 40.6789966,30.898002 41.365,30.506 C42.0510034,30.113998 42.596998,29.5890033 43.003,28.931 C43.409002,28.2729967 43.6959992,27.5310041 43.864,26.705 C44.0320008,25.8789959 44.116,25.0320043 44.116,24.164 C44.116,23.2959957 44.0320008,22.4420042 43.864,21.602 C43.6959992,20.7619958 43.409002,20.0200032 43.003,19.376 C42.596998,18.7319968 42.0510034,18.207002 41.365,17.801 C40.6789966,17.394998 39.832005,17.192 38.824,17.192 C37.815995,17.192 36.9760034,17.394998 36.304,17.801 C35.6319966,18.207002 35.093002,18.7319968 34.687,19.376 C34.280998,20.0200032 33.9940008,20.7619958 33.826,21.602 C33.6579992,22.4420042 33.574,23.2959957 33.574,24.164 Z M27.61,24.164 C27.61,22.4279913 27.8759973,20.8530071 28.408,19.439 C28.9400027,18.0249929 29.6959951,16.821005 30.676,15.827 C31.6560049,14.832995 32.8319931,14.0630027 34.204,13.517 C35.5760069,12.9709973 37.1159915,12.698 38.824,12.698 C40.5320085,12.698 42.0789931,12.9709973 43.465,13.517 C44.8510069,14.0630027 46.0339951,14.832995 47.014,15.827 C47.9940049,16.821005 48.7499973,18.0249929 49.282,19.439 C49.8140027,20.8530071 50.08,22.4279913 50.08,24.164 C50.08,25.9000087 49.8140027,27.467993 49.282,28.868 C48.7499973,30.268007 47.9940049,31.464995 47.014,32.459 C46.0339951,33.453005 44.8510069,34.2159973 43.465,34.748 C42.0789931,35.2800027 40.5320085,35.546 38.824,35.546 C37.1159915,35.546 35.5760069,35.2800027 34.204,34.748 C32.8319931,34.2159973 31.6560049,33.453005 30.676,32.459 C29.6959951,31.464995 28.9400027,30.268007 28.408,28.868 C27.8759973,27.467993 27.61,25.9000087 27.61,24.164 Z M64.906,31.094 C65.8860049,31.094 66.7049967,30.898002 67.363,30.506 C68.0210033,30.113998 68.552998,29.6030031 68.959,28.973 C69.365002,28.3429968 69.6519992,27.6080042 69.82,26.768 C69.9880008,25.9279958 70.072,25.0740043 70.072,24.206 C70.072,23.3379957 69.9810009,22.4840042 69.799,21.644 C69.6169991,20.8039958 69.3160021,20.0550033 68.896,19.397 C68.4759979,18.7389967 67.9370033,18.207002 67.279,17.801 C66.6209967,17.394998 65.8160048,17.192 64.864,17.192 C63.8839951,17.192 63.0650033,17.394998 62.407,17.801 C61.7489967,18.207002 61.217002,18.7319968 60.811,19.376 C60.404998,20.0200032 60.1180008,20.7619958 59.95,21.602 C59.7819992,22.4420042 59.698,23.3099955 59.698,24.206 C59.698,25.0740043 59.7889991,25.9279958 59.971,26.768 C60.1530009,27.6080042 60.446998,28.3429968 60.853,28.973 C61.259002,29.6030031 61.7979966,30.113998 62.47,30.506 C63.1420034,30.898002 63.9539952,31.094 64.906,31.094 Z M53.944,13.286 L59.614,13.286 L59.614,16.058 L59.698,16.058 C60.4260036,14.8819941 61.3499944,14.0280027 62.47,13.496 C63.5900056,12.9639973 64.8219933,12.698 66.166,12.698 C67.8740085,12.698 69.3439938,13.0199968 70.576,13.664 C71.8080062,14.3080032 72.8299959,15.1619947 73.642,16.226 C74.4540041,17.2900053 75.055998,18.5289929 75.448,19.943 C75.840002,21.3570071 76.036,22.8339923 76.036,24.374 C76.036,25.8300073 75.840002,27.2299933 75.448,28.574 C75.055998,29.9180067 74.461004,31.1079948 73.663,32.144 C72.864996,33.1800052 71.8710059,34.0059969 70.681,34.622 C69.4909941,35.2380031 68.098008,35.546 66.502,35.546 C65.1579933,35.546 63.9190057,35.2730027 62.785,34.727 C61.6509943,34.1809973 60.7200036,33.3760053 59.992,32.312 L59.908,32.312 L59.908,42.602 L53.944,42.602 L53.944,13.286 Z M99.976,35 L94.306,35 L94.306,31.976 L94.18,31.976 C93.4239962,33.2360063 92.444006,34.1459972 91.24,34.706 C90.035994,35.2660028 88.8040063,35.546 87.544,35.546 C85.947992,35.546 84.6390051,35.3360021 83.617,34.916 C82.5949949,34.4959979 81.7900029,33.9010039 81.202,33.131 C80.6139971,32.3609962 80.2010012,31.4230055 79.963,30.317 C79.7249988,29.2109945 79.606,27.9860067 79.606,26.642 L79.606,13.286 L85.57,13.286 L85.57,25.55 C85.57,27.342009 85.8499972,28.6789956 86.41,29.561 C86.9700028,30.4430044 87.9639929,30.884 89.392,30.884 C91.0160081,30.884 92.1919964,30.4010048 92.92,29.435 C93.6480036,28.4689952 94.012,26.8800111 94.012,24.668 L94.012,13.286 L99.976,13.286 L99.976,35 Z M104.68,5.012 L110.644,5.012 L110.644,35 L104.68,35 L104.68,5.012 Z M117.994,5.012 L123.664,5.012 L123.664,9.926 L117.994,9.926 L117.994,5.012 Z M126.646,5.012 L132.316,5.012 L132.316,9.926 L126.646,9.926 L126.646,5.012 Z M115.096,19.964 C115.18,18.563993 115.529997,17.4020046 116.146,16.478 C116.762003,15.5539954 117.545995,14.8120028 118.498,14.252 C119.450005,13.6919972 120.520994,13.2930012 121.711,13.055 C122.901006,12.8169988 124.097994,12.698 125.302,12.698 C126.394005,12.698 127.499994,12.7749992 128.62,12.929 C129.740006,13.0830008 130.761995,13.3839978 131.686,13.832 C132.610005,14.2800022 133.365997,14.902996 133.954,15.701 C134.542003,16.499004 134.836,17.5559934 134.836,18.872 L134.836,30.17 C134.836,31.1500049 134.891999,32.0879955 135.004,32.984 C135.116001,33.8800045 135.311999,34.5519978 135.592,35 L129.544,35 C129.431999,34.6639983 129.341,34.3210018 129.271,33.971 C129.201,33.6209982 129.152,33.2640018 129.124,32.9 C128.171995,33.8800049 127.052006,34.565998 125.764,34.958 C124.475994,35.350002 123.160007,35.546 121.816,35.546 C120.779995,35.546 119.814004,35.4200013 118.918,35.168 C118.021996,34.9159987 117.238003,34.5240027 116.566,33.992 C115.893997,33.4599973 115.369002,32.7880041 114.991,31.976 C114.612998,31.1639959 114.424,30.1980056 114.424,29.078 C114.424,27.8459938 114.640998,26.831004 115.075,26.033 C115.509002,25.234996 116.068997,24.5980024 116.755,24.122 C117.441003,23.6459976 118.224996,23.2890012 119.107,23.051 C119.989004,22.8129988 120.877996,22.6240007 121.774,22.484 C122.670004,22.3439993 123.551996,22.2320004 124.42,22.148 C125.288004,22.0639996 126.057997,21.9380008 126.73,21.77 C127.402003,21.6019992 127.933998,21.3570016 128.326,21.035 C128.718002,20.7129984 128.9,20.2440031 128.872,19.628 C128.872,18.9839968 128.767001,18.4730019 128.557,18.095 C128.346999,17.7169981 128.067002,17.4230011 127.717,17.213 C127.366998,17.0029989 126.961002,16.8630004 126.499,16.793 C126.036998,16.7229997 125.540003,16.688 125.008,16.688 C123.831994,16.688 122.908003,16.9399975 122.236,17.444 C121.563997,17.9480025 121.172001,18.7879941 121.06,19.964 L115.096,19.964 Z M128.872,24.374 C128.619999,24.5980011 128.305002,24.7729994 127.927,24.899 C127.548998,25.0250006 127.143002,25.1299996 126.709,25.214 C126.274998,25.2980004 125.820002,25.3679997 125.344,25.424 C124.867998,25.4800003 124.392002,25.5499996 123.916,25.634 C123.467998,25.7180004 123.027002,25.8299993 122.593,25.97 C122.158998,26.1100007 121.781002,26.2989988 121.459,26.537 C121.136998,26.7750012 120.878001,27.0759982 120.682,27.44 C120.485999,27.8040018 120.388,28.2659972 120.388,28.826 C120.388,29.3580027 120.485999,29.8059982 120.682,30.17 C120.878001,30.5340018 121.143998,30.820999 121.48,31.031 C121.816002,31.241001 122.207998,31.3879996 122.656,31.472 C123.104002,31.5560004 123.565998,31.598 124.042,31.598 C125.218006,31.598 126.127997,31.402002 126.772,31.01 C127.416003,30.617998 127.891998,30.1490027 128.2,29.603 C128.508002,29.0569973 128.697,28.5040028 128.767,27.944 C128.837,27.3839972 128.872,26.9360017 128.872,26.6 L128.872,24.374 Z M139.456,13.286 L145.126,13.286 L145.126,17.318 L145.21,17.318 C145.490001,16.6459966 145.867998,16.0230029 146.344,15.449 C146.820002,14.8749971 147.365997,14.385002 147.982,13.979 C148.598003,13.572998 149.255997,13.2580011 149.956,13.034 C150.656004,12.8099989 151.383996,12.698 152.14,12.698 C152.532002,12.698 152.965998,12.7679993 153.442,12.908 L153.442,18.452 C153.161999,18.3959997 152.826002,18.3470002 152.434,18.305 C152.041998,18.2629998 151.664002,18.242 151.3,18.242 C150.207995,18.242 149.284004,18.4239982 148.528,18.788 C147.771996,19.1520018 147.163002,19.6489969 146.701,20.279 C146.238998,20.9090031 145.910001,21.6439958 145.714,22.484 C145.517999,23.3240042 145.42,24.2339951 145.42,25.214 L145.42,35 L139.456,35 L139.456,13.286 Z M155.542,19.964 C155.626,18.563993 155.975997,17.4020046 156.592,16.478 C157.208003,15.5539954 157.991995,14.8120028 158.944,14.252 C159.896005,13.6919972 160.966994,13.2930012 162.157,13.055 C163.347006,12.8169988 164.543994,12.698 165.748,12.698 C166.840005,12.698 167.945994,12.7749992 169.066,12.929 C170.186006,13.0830008 171.207995,13.3839978 172.132,13.832 C173.056005,14.2800022 173.811997,14.902996 174.4,15.701 C174.988003,16.499004 175.282,17.5559934 175.282,18.872 L175.282,30.17 C175.282,31.1500049 175.337999,32.0879955 175.45,32.984 C175.562001,33.8800045 175.757999,34.5519978 176.038,35 L169.99,35 C169.877999,34.6639983 169.787,34.3210018 169.717,33.971 C169.647,33.6209982 169.598,33.2640018 169.57,32.9 C168.617995,33.8800049 167.498006,34.565998 166.21,34.958 C164.921994,35.350002 163.606007,35.546 162.262,35.546 C161.225995,35.546 160.260004,35.4200013 159.364,35.168 C158.467996,34.9159987 157.684003,34.5240027 157.012,33.992 C156.339997,33.4599973 155.815002,32.7880041 155.437,31.976 C155.058998,31.1639959 154.87,30.1980056 154.87,29.078 C154.87,27.8459938 155.086998,26.831004 155.521,26.033 C155.955002,25.234996 156.514997,24.5980024 157.201,24.122 C157.887003,23.6459976 158.670996,23.2890012 159.553,23.051 C160.435004,22.8129988 161.323996,22.6240007 162.22,22.484 C163.116004,22.3439993 163.997996,22.2320004 164.866,22.148 C165.734004,22.0639996 166.503997,21.9380008 167.176,21.77 C167.848003,21.6019992 168.379998,21.3570016 168.772,21.035 C169.164002,20.7129984 169.346,20.2440031 169.318,19.628 C169.318,18.9839968 169.213001,18.4730019 169.003,18.095 C168.792999,17.7169981 168.513002,17.4230011 168.163,17.213 C167.812998,17.0029989 167.407002,16.8630004 166.945,16.793 C166.482998,16.7229997 165.986003,16.688 165.454,16.688 C164.277994,16.688 163.354003,16.9399975 162.682,17.444 C162.009997,17.9480025 161.618001,18.7879941 161.506,19.964 L155.542,19.964 Z M169.318,24.374 C169.065999,24.5980011 168.751002,24.7729994 168.373,24.899 C167.994998,25.0250006 167.589002,25.1299996 167.155,25.214 C166.720998,25.2980004 166.266002,25.3679997 165.79,25.424 C165.313998,25.4800003 164.838002,25.5499996 164.362,25.634 C163.913998,25.7180004 163.473002,25.8299993 163.039,25.97 C162.604998,26.1100007 162.227002,26.2989988 161.905,26.537 C161.582998,26.7750012 161.324001,27.0759982 161.128,27.44 C160.931999,27.8040018 160.834,28.2659972 160.834,28.826 C160.834,29.3580027 160.931999,29.8059982 161.128,30.17 C161.324001,30.5340018 161.589998,30.820999 161.926,31.031 C162.262002,31.241001 162.653998,31.3879996 163.102,31.472 C163.550002,31.5560004 164.011998,31.598 164.488,31.598 C165.664006,31.598 166.573997,31.402002 167.218,31.01 C167.862003,30.617998 168.337998,30.1490027 168.646,29.603 C168.954002,29.0569973 169.143,28.5040028 169.213,27.944 C169.283,27.3839972 169.318,26.9360017 169.318,26.6 L169.318,24.374 Z M202.54,31.094 C203.520005,31.094 204.338997,30.898002 204.997,30.506 C205.655003,30.113998 206.186998,29.6030031 206.593,28.973 C206.999002,28.3429968 207.285999,27.6080042 207.454,26.768 C207.622001,25.9279958 207.706,25.0740043 207.706,24.206 C207.706,23.3379957 207.615001,22.4840042 207.433,21.644 C207.250999,20.8039958 206.950002,20.0550033 206.53,19.397 C206.109998,18.7389967 205.571003,18.207002 204.913,17.801 C204.254997,17.394998 203.450005,17.192 202.498,17.192 C201.517995,17.192 200.699003,17.394998 200.041,17.801 C199.382997,18.207002 198.851002,18.7319968 198.445,19.376 C198.038998,20.0200032 197.752001,20.7619958 197.584,21.602 C197.415999,22.4420042 197.332,23.3099955 197.332,24.206 C197.332,25.0740043 197.422999,25.9279958 197.605,26.768 C197.787001,27.6080042 198.080998,28.3429968 198.487,28.973 C198.893002,29.6030031 199.431997,30.113998 200.104,30.506 C200.776003,30.898002 201.587995,31.094 202.54,31.094 Z M191.578,13.286 L197.248,13.286 L197.248,16.058 L197.332,16.058 C198.060004,14.8819941 198.983994,14.0280027 200.104,13.496 C201.224006,12.9639973 202.455993,12.698 203.8,12.698 C205.508009,12.698 206.977994,13.0199968 208.21,13.664 C209.442006,14.3080032 210.463996,15.1619947 211.276,16.226 C212.088004,17.2900053 212.689998,18.5289929 213.082,19.943 C213.474002,21.3570071 213.67,22.8339923 213.67,24.374 C213.67,25.8300073 213.474002,27.2299933 213.082,28.574 C212.689998,29.9180067 212.095004,31.1079948 211.297,32.144 C210.498996,33.1800052 209.505006,34.0059969 208.315,34.622 C207.124994,35.2380031 205.732008,35.546 204.136,35.546 C202.791993,35.546 201.553006,35.2730027 200.419,34.727 C199.284994,34.1809973 198.354004,33.3760053 197.626,32.312 L197.542,32.312 L197.542,42.602 L191.578,42.602 L191.578,13.286 Z M217.24,13.286 L222.91,13.286 L222.91,17.318 L222.994,17.318 C223.274001,16.6459966 223.651998,16.0230029 224.128,15.449 C224.604002,14.8749971 225.149997,14.385002 225.766,13.979 C226.382003,13.572998 227.039996,13.2580011 227.74,13.034 C228.440003,12.8099989 229.167996,12.698 229.924,12.698 C230.316002,12.698 230.749998,12.7679993 231.226,12.908 L231.226,18.452 C230.945999,18.3959997 230.610002,18.3470002 230.218,18.305 C229.825998,18.2629998 229.448002,18.242 229.084,18.242 C227.991995,18.242 227.068004,18.4239982 226.312,18.788 C225.555996,19.1520018 224.947002,19.6489969 224.485,20.279 C224.022998,20.9090031 223.694001,21.6439958 223.498,22.484 C223.301999,23.3240042 223.204,24.2339951 223.204,25.214 L223.204,35 L217.24,35 L217.24,13.286 Z M238.87,24.164 C238.87,25.0320043 238.953999,25.8789959 239.122,26.705 C239.290001,27.5310041 239.576998,28.2729967 239.983,28.931 C240.389002,29.5890033 240.927997,30.113998 241.6,30.506 C242.272003,30.898002 243.111995,31.094 244.12,31.094 C245.128005,31.094 245.974997,30.898002 246.661,30.506 C247.347003,30.113998 247.892998,29.5890033 248.299,28.931 C248.705002,28.2729967 248.991999,27.5310041 249.16,26.705 C249.328001,25.8789959 249.412,25.0320043 249.412,24.164 C249.412,23.2959957 249.328001,22.4420042 249.16,21.602 C248.991999,20.7619958 248.705002,20.0200032 248.299,19.376 C247.892998,18.7319968 247.347003,18.207002 246.661,17.801 C245.974997,17.394998 245.128005,17.192 244.12,17.192 C243.111995,17.192 242.272003,17.394998 241.6,17.801 C240.927997,18.207002 240.389002,18.7319968 239.983,19.376 C239.576998,20.0200032 239.290001,20.7619958 239.122,21.602 C238.953999,22.4420042 238.87,23.2959957 238.87,24.164 Z M232.906,24.164 C232.906,22.4279913 233.171997,20.8530071 233.704,19.439 C234.236003,18.0249929 234.991995,16.821005 235.972,15.827 C236.952005,14.832995 238.127993,14.0630027 239.5,13.517 C240.872007,12.9709973 242.411991,12.698 244.12,12.698 C245.828009,12.698 247.374993,12.9709973 248.761,13.517 C250.147007,14.0630027 251.329995,14.832995 252.31,15.827 C253.290005,16.821005 254.045997,18.0249929 254.578,19.439 C255.110003,20.8530071 255.376,22.4279913 255.376,24.164 C255.376,25.9000087 255.110003,27.467993 254.578,28.868 C254.045997,30.268007 253.290005,31.464995 252.31,32.459 C251.329995,33.453005 250.147007,34.2159973 248.761,34.748 C247.374993,35.2800027 245.828009,35.546 244.12,35.546 C242.411991,35.546 240.872007,35.2800027 239.5,34.748 C238.127993,34.2159973 236.952005,33.453005 235.972,32.459 C234.991995,31.464995 234.236003,30.268007 233.704,28.868 C233.171997,27.467993 232.906,25.9000087 232.906,24.164 Z M274.654,24.08 C274.654,23.1839955 274.570001,22.3230041 274.402,21.497 C274.233999,20.6709959 273.947002,19.9430032 273.541,19.313 C273.134998,18.6829969 272.610003,18.172002 271.966,17.78 C271.321997,17.387998 270.510005,17.192 269.53,17.192 C268.549995,17.192 267.724003,17.387998 267.052,17.78 C266.379997,18.172002 265.841002,18.6899968 265.435,19.334 C265.028998,19.9780032 264.735001,20.7129959 264.553,21.539 C264.370999,22.3650041 264.28,23.2259955 264.28,24.122 C264.28,24.9620042 264.377999,25.8019958 264.574,26.642 C264.770001,27.4820042 265.084998,28.2309967 265.519,28.889 C265.953002,29.5470033 266.498997,30.078998 267.157,30.485 C267.815003,30.891002 268.605995,31.094 269.53,31.094 C270.510005,31.094 271.328997,30.898002 271.987,30.506 C272.645003,30.113998 273.169998,29.5890033 273.562,28.931 C273.954002,28.2729967 274.233999,27.5240042 274.402,26.684 C274.570001,25.8439958 274.654,24.9760045 274.654,24.08 Z M274.738,32.228 L274.654,32.228 C273.953997,33.4040059 273.037006,34.2509974 271.903,34.769 C270.768994,35.2870026 269.488007,35.546 268.06,35.546 C266.435992,35.546 265.008006,35.2310032 263.776,34.601 C262.543994,33.9709969 261.529004,33.1170054 260.731,32.039 C259.932996,30.9609946 259.331002,29.722007 258.925,28.322 C258.518998,26.921993 258.316,25.4660076 258.316,23.954 C258.316,22.4979927 258.518998,21.0910068 258.925,19.733 C259.331002,18.3749932 259.932996,17.1780052 260.731,16.142 C261.529004,15.1059948 262.529994,14.2730032 263.734,13.643 C264.938006,13.0129969 266.337992,12.698 267.934,12.698 C269.222006,12.698 270.446994,12.9709973 271.609,13.517 C272.771006,14.0630027 273.687997,14.8679947 274.36,15.932 L274.444,15.932 L274.444,5.012 L280.408,5.012 L280.408,35 L274.738,35 L274.738,32.228 Z M305.272,35 L299.602,35 L299.602,31.976 L299.476,31.976 C298.719996,33.2360063 297.740006,34.1459972 296.536,34.706 C295.331994,35.2660028 294.100006,35.546 292.84,35.546 C291.243992,35.546 289.935005,35.3360021 288.913,34.916 C287.890995,34.4959979 287.086003,33.9010039 286.498,33.131 C285.909997,32.3609962 285.497001,31.4230055 285.259,30.317 C285.020999,29.2109945 284.902,27.9860067 284.902,26.642 L284.902,13.286 L290.866,13.286 L290.866,25.55 C290.866,27.342009 291.145997,28.6789956 291.706,29.561 C292.266003,30.4430044 293.259993,30.884 294.688,30.884 C296.312008,30.884 297.487996,30.4010048 298.216,29.435 C298.944004,28.4689952 299.308,26.8800111 299.308,24.668 L299.308,13.286 L305.272,13.286 L305.272,35 Z M310.354,5.012 L316.318,5.012 L316.318,21.098 L323.836,13.286 L330.892,13.286 L322.702,21.266 L331.816,35 L324.592,35 L318.628,25.298 L316.318,27.524 L316.318,35 L310.354,35 L310.354,5.012 Z M341.476,13.286 L345.844,13.286 L345.844,17.276 L341.476,17.276 L341.476,28.028 C341.476,29.036005 341.643998,29.7079983 341.98,30.044 C342.316002,30.3800017 342.987995,30.548 343.996,30.548 C344.332002,30.548 344.653998,30.5340001 344.962,30.506 C345.270002,30.4779999 345.563999,30.4360003 345.844,30.38 L345.844,35 C345.339997,35.0840004 344.780003,35.1399999 344.164,35.168 C343.547997,35.1960001 342.946003,35.21 342.358,35.21 C341.433995,35.21 340.559004,35.1470006 339.733,35.021 C338.906996,34.8949994 338.179003,34.6500018 337.549,34.286 C336.918997,33.9219982 336.422002,33.4040034 336.058,32.732 C335.693998,32.0599966 335.512,31.1780055 335.512,30.086 L335.512,17.276 L331.9,17.276 L331.9,13.286 L335.512,13.286 L335.512,6.776 L341.476,6.776 L341.476,13.286 Z M363.316,21.812 C363.035999,20.2999924 362.539004,19.1520039 361.825,18.368 C361.110996,17.5839961 360.026007,17.192 358.57,17.192 C357.617995,17.192 356.827003,17.3529984 356.197,17.675 C355.566997,17.9970016 355.063002,18.3959976 354.685,18.872 C354.306998,19.3480024 354.041001,19.8519973 353.887,20.384 C353.732999,20.9160027 353.642,21.3919979 353.614,21.812 L363.316,21.812 Z M353.614,25.592 C353.698,27.5240097 354.187996,28.9239957 355.084,29.792 C355.980004,30.6600043 357.267992,31.094 358.948,31.094 C360.152006,31.094 361.187996,30.793003 362.056,30.191 C362.924004,29.588997 363.455999,28.9520034 363.652,28.28 L368.902,28.28 C368.061996,30.884013 366.774009,32.7459944 365.038,33.866 C363.301991,34.9860056 361.202012,35.546 358.738,35.546 C357.029991,35.546 355.490007,35.2730027 354.118,34.727 C352.745993,34.1809973 351.584005,33.404005 350.632,32.396 C349.679995,31.387995 348.945003,30.184007 348.427,28.784 C347.908997,27.383993 347.65,25.8440084 347.65,24.164 C347.65,22.5399919 347.915997,21.028007 348.448,19.628 C348.980003,18.227993 349.735995,17.0170051 350.716,15.995 C351.696005,14.9729949 352.864993,14.1680029 354.223,13.58 C355.581007,12.9919971 357.085992,12.698 358.738,12.698 C360.586009,12.698 362.195993,13.0549964 363.568,13.769 C364.940007,14.4830036 366.066996,15.441994 366.949,16.646 C367.831004,17.850006 368.467998,19.2219923 368.86,20.762 C369.252002,22.3020077 369.392001,23.9119916 369.28,25.592 L353.614,25.592 Z M372.808,13.286 L378.478,13.286 L378.478,17.318 L378.562,17.318 C378.842001,16.6459966 379.219998,16.0230029 379.696,15.449 C380.172002,14.8749971 380.717997,14.385002 381.334,13.979 C381.950003,13.572998 382.607996,13.2580011 383.308,13.034 C384.008004,12.8099989 384.735996,12.698 385.492,12.698 C385.884002,12.698 386.317998,12.7679993 386.794,12.908 L386.794,18.452 C386.513999,18.3959997 386.178002,18.3470002 385.786,18.305 C385.393998,18.2629998 385.016002,18.242 384.652,18.242 C383.559995,18.242 382.636004,18.4239982 381.88,18.788 C381.123996,19.1520018 380.515002,19.6489969 380.053,20.279 C379.590998,20.9090031 379.262001,21.6439958 379.066,22.484 C378.869999,23.3240042 378.772,24.2339951 378.772,25.214 L378.772,35 L372.808,35 L372.808,13.286 Z M389.398,28.532 L395.992,28.532 L395.992,35 L389.398,35 L389.398,28.532 Z" id="Populära-produkter.-Copy" fill="#191611" opacity="0.200000003"></path>
            <path d="M602.392,6.268 L598.252,0.148 L601.528,0.148 L604.048,4.252 L606.658,0.148 L609.754,0.148 L605.632,6.286 L610.114,13 L606.748,13 L603.94,8.554 L601.078,13 L597.91,13 L602.392,6.268 Z M614.398,6.268 L610.258,0.148 L613.534,0.148 L616.054,4.252 L618.664,0.148 L621.76,0.148 L617.638,6.286 L622.12,13 L618.754,13 L615.946,8.554 L613.084,13 L609.916,13 L614.398,6.268 Z M623.254,0.148 L626.08,0.148 L626.08,10.624 L632.344,10.624 L632.344,13 L623.254,13 L623.254,0.148 Z M633.55,6.556 C633.586,5.955997 633.735999,5.45800198 634,5.062 C634.264001,4.66599802 634.599998,4.3480012 635.008,4.108 C635.416002,3.8679988 635.874997,3.69700051 636.385,3.595 C636.895003,3.49299949 637.407997,3.442 637.924,3.442 C638.392002,3.442 638.865998,3.47499967 639.346,3.541 C639.826002,3.60700033 640.263998,3.73599904 640.66,3.928 C641.056002,4.12000096 641.379999,4.38699829 641.632,4.729 C641.884001,5.07100171 642.01,5.52399718 642.01,6.088 L642.01,10.93 C642.01,11.3500021 642.034,11.7519981 642.082,12.136 C642.13,12.5200019 642.213999,12.807999 642.334,13 L639.742,13 C639.694,12.8559993 639.655,12.7090008 639.625,12.559 C639.595,12.4089992 639.574,12.2560008 639.562,12.1 C639.153998,12.5200021 638.674003,12.8139992 638.122,12.982 C637.569997,13.1500008 637.006003,13.234 636.43,13.234 C635.985998,13.234 635.572002,13.1800005 635.188,13.072 C634.803998,12.9639995 634.468001,12.7960011 634.18,12.568 C633.891999,12.3399989 633.667001,12.0520017 633.505,11.704 C633.342999,11.3559983 633.262,10.9420024 633.262,10.462 C633.262,9.93399736 633.354999,9.49900171 633.541,9.157 C633.727001,8.81499829 633.966999,8.54200102 634.261,8.338 C634.555001,8.13399898 634.890998,7.98100051 635.269,7.879 C635.647002,7.77699949 636.027998,7.6960003 636.412,7.636 C636.796002,7.5759997 637.173998,7.52800018 637.546,7.492 C637.918002,7.45599982 638.247999,7.40200036 638.536,7.33 C638.824001,7.25799964 639.051999,7.15300069 639.22,7.015 C639.388001,6.87699931 639.466,6.67600132 639.454,6.412 C639.454,6.13599862 639.409,5.91700081 639.319,5.755 C639.229,5.59299919 639.109001,5.46700045 638.959,5.377 C638.808999,5.28699955 638.635001,5.22700015 638.437,5.197 C638.238999,5.16699985 638.026001,5.152 637.798,5.152 C637.293997,5.152 636.898001,5.25999892 636.61,5.476 C636.321999,5.69200108 636.154,6.05199748 636.106,6.556 L633.55,6.556 Z M639.454,8.446 C639.345999,8.54200048 639.211001,8.61699973 639.049,8.671 C638.886999,8.72500027 638.713001,8.76999982 638.527,8.806 C638.340999,8.84200018 638.146001,8.87199988 637.942,8.896 C637.737999,8.92000012 637.534001,8.94999982 637.33,8.986 C637.137999,9.02200018 636.949001,9.0699997 636.763,9.13 C636.576999,9.1900003 636.415001,9.27099949 636.277,9.373 C636.138999,9.47500051 636.028,9.60399922 635.944,9.76 C635.86,9.91600078 635.818,10.1139988 635.818,10.354 C635.818,10.5820011 635.86,10.7739992 635.944,10.93 C636.028,11.0860008 636.141999,11.2089996 636.286,11.299 C636.430001,11.3890004 636.597999,11.4519998 636.79,11.488 C636.982001,11.5240002 637.179999,11.542 637.384,11.542 C637.888003,11.542 638.277999,11.4580008 638.554,11.29 C638.830001,11.1219992 639.033999,10.9210012 639.166,10.687 C639.298001,10.4529988 639.379,10.2160012 639.409,9.976 C639.439,9.7359988 639.454,9.54400072 639.454,9.4 L639.454,8.446 Z M643.99,3.694 L646.42,3.694 L646.42,5.422 L646.456,5.422 C646.576001,5.13399856 646.737999,4.86700123 646.942,4.621 C647.146001,4.37499877 647.379999,4.16500087 647.644,3.991 C647.908001,3.81699913 648.189999,3.68200048 648.49,3.586 C648.790001,3.48999952 649.101998,3.442 649.426,3.442 C649.594001,3.442 649.779999,3.4719997 649.984,3.532 L649.984,5.908 C649.863999,5.88399988 649.720001,5.86300009 649.552,5.845 C649.383999,5.82699991 649.222001,5.818 649.066,5.818 C648.597998,5.818 648.202002,5.89599922 647.878,6.052 C647.553998,6.20800078 647.293001,6.42099865 647.095,6.691 C646.896999,6.96100135 646.756,7.2759982 646.672,7.636 C646.588,7.9960018 646.546,8.3859979 646.546,8.806 L646.546,13 L643.99,13 L643.99,3.694 Z M654.826,10.804 C655.186002,10.804 655.503999,10.7320007 655.78,10.588 C656.056001,10.4439993 656.283999,10.2520012 656.464,10.012 C656.644001,9.7719988 656.779,9.49900153 656.869,9.193 C656.959,8.88699847 657.004,8.56600168 657.004,8.23 C657.004,7.84599808 656.968,7.48300171 656.896,7.141 C656.824,6.79899829 656.704001,6.49600132 656.536,6.232 C656.367999,5.96799868 656.146001,5.75800078 655.87,5.602 C655.593999,5.44599922 655.246002,5.368 654.826,5.368 C654.465998,5.368 654.157001,5.43999928 653.899,5.584 C653.640999,5.72800072 653.425001,5.92299877 653.251,6.169 C653.076999,6.41500123 652.951,6.69699841 652.873,7.015 C652.795,7.33300159 652.756,7.66599826 652.756,8.014 C652.756,8.35000168 652.789,8.68299835 652.855,9.013 C652.921,9.34300165 653.034999,9.63999868 653.197,9.904 C653.359001,10.1680013 653.571999,10.3839992 653.836,10.552 C654.100001,10.7200008 654.429998,10.804 654.826,10.804 Z M659.434,12.406 C659.434,12.7780019 659.383001,13.2039976 659.281,13.684 C659.178999,14.1640024 658.960002,14.6109979 658.624,15.025 C658.287998,15.4390021 657.802003,15.7899986 657.166,16.078 C656.529997,16.3660014 655.678005,16.51 654.61,16.51 C654.153998,16.51 653.689002,16.4530006 653.215,16.339 C652.740998,16.2249994 652.309002,16.0480012 651.919,15.808 C651.528998,15.5679988 651.205001,15.2590019 650.947,14.881 C650.688999,14.5029981 650.542,14.0500026 650.506,13.522 L653.044,13.522 C653.164001,14.0020024 653.397998,14.3349991 653.746,14.521 C654.094002,14.7070009 654.495998,14.8 654.952,14.8 C655.672004,14.8 656.196998,14.5840022 656.527,14.152 C656.857002,13.7199978 657.016,13.1740033 657.004,12.514 L657.004,11.29 L656.968,11.29 C656.691999,11.7820025 656.299003,12.1449988 655.789,12.379 C655.278997,12.6130012 654.742003,12.73 654.178,12.73 C653.481997,12.73 652.882003,12.6070012 652.378,12.361 C651.873997,12.1149988 651.460002,11.7790021 651.136,11.353 C650.811998,10.9269979 650.575001,10.4290028 650.425,9.859 C650.274999,9.28899715 650.2,8.68600318 650.2,8.05 C650.2,7.449997 650.286999,6.87100279 650.461,6.313 C650.635001,5.75499721 650.889998,5.26300213 651.226,4.837 C651.562002,4.41099787 651.978998,4.07200126 652.477,3.82 C652.975002,3.56799874 653.547997,3.442 654.196,3.442 C654.808003,3.442 655.344998,3.55599886 655.807,3.784 C656.269002,4.01200114 656.655998,4.3959973 656.968,4.936 L657.004,4.936 L657.004,3.694 L659.434,3.694 L659.434,12.406 Z M667.75,7.348 C667.629999,6.69999676 667.417002,6.20800168 667.111,5.872 C666.804998,5.53599832 666.340003,5.368 665.716,5.368 C665.307998,5.368 664.969001,5.43699931 664.699,5.575 C664.428999,5.71300069 664.213001,5.88399898 664.051,6.088 C663.888999,6.29200102 663.775,6.50799886 663.709,6.736 C663.643,6.96400114 663.604,7.1679991 663.592,7.348 L667.75,7.348 Z M663.592,8.968 C663.628,9.79600414 663.837998,10.3959981 664.222,10.768 C664.606002,11.1400019 665.157996,11.326 665.878,11.326 C666.394003,11.326 666.837998,11.1970013 667.21,10.939 C667.582002,10.6809987 667.81,10.4080014 667.894,10.12 L670.144,10.12 C669.783998,11.2360056 669.232004,12.0339976 668.488,12.514 C667.743996,12.9940024 666.844005,13.234 665.788,13.234 C665.055996,13.234 664.396003,13.1170012 663.808,12.883 C663.219997,12.6489988 662.722002,12.3160022 662.314,11.884 C661.905998,11.4519978 661.591001,10.936003 661.369,10.336 C661.146999,9.735997 661.036,9.0760036 661.036,8.356 C661.036,7.65999652 661.149999,7.012003 661.378,6.412 C661.606001,5.811997 661.929998,5.29300219 662.35,4.855 C662.770002,4.41699781 663.270997,4.07200126 663.853,3.82 C664.435003,3.56799874 665.079996,3.442 665.788,3.442 C666.580004,3.442 667.269997,3.59499847 667.858,3.901 C668.446003,4.20700153 668.928998,4.61799742 669.307,5.134 C669.685002,5.65000258 669.957999,6.2379967 670.126,6.898 C670.294001,7.5580033 670.354,8.2479964 670.306,8.968 L663.592,8.968 Z M671.944,10.228 L674.77,10.228 L674.77,13 C674.77,13.408002 674.695001,13.7829983 674.545,14.125 C674.394999,14.4670017 674.194001,14.7639987 673.942,15.016 C673.689999,15.2680013 673.393002,15.4749992 673.051,15.637 C672.708998,15.7990008 672.346002,15.9099997 671.962,15.97 L671.962,14.674 C672.142001,14.6379998 672.312999,14.5660005 672.475,14.458 C672.637001,14.3499995 672.777999,14.2210007 672.898,14.071 C673.018001,13.9209993 673.108,13.7530009 673.168,13.567 C673.228,13.3809991 673.252,13.192001 673.24,13 L671.944,13 L671.944,10.228 Z M690.16,2.596 C689.499997,3.17200288 688.915003,3.8799958 688.405,4.72 C687.894997,5.5600042 687.469002,6.45399526 687.127,7.402 C686.784998,8.35000474 686.521001,9.30999514 686.335,10.282 C686.148999,11.2540049 686.05,12.1599958 686.038,13 L683.302,13 C683.446001,11.1159906 683.886996,9.3040087 684.625,7.564 C685.363004,5.8239913 686.331994,4.22800726 687.532,2.776 L681.556,2.776 L681.556,0.4 L690.16,0.4 L690.16,2.596 Z M699.934,5.962 L703.03,5.962 C703.678003,5.962 704.163998,5.81800144 704.488,5.53 C704.812002,5.24199856 704.974,4.77400324 704.974,4.126 C704.974,3.50199688 704.812002,3.04900141 704.488,2.767 C704.163998,2.48499859 703.678003,2.344 703.03,2.344 L699.934,2.344 L699.934,5.962 Z M697.108,0.148 L704.038,0.148 C704.614003,0.148 705.132998,0.24099907 705.595,0.427 C706.057002,0.61300093 706.452998,0.86799838 706.783,1.192 C707.113002,1.51600162 707.364999,1.89099787 707.539,2.317 C707.713001,2.74300213 707.8,3.20199754 707.8,3.694 C707.8,4.45000378 707.641002,5.10399724 707.323,5.656 C707.004998,6.20800276 706.486004,6.62799856 705.766,6.916 L705.766,6.952 C706.114002,7.04800048 706.401999,7.19499901 706.63,7.393 C706.858001,7.59100099 707.043999,7.82499865 707.188,8.095 C707.332001,8.36500135 707.437,8.66199838 707.503,8.986 C707.569,9.31000162 707.614,9.63399838 707.638,9.958 C707.65,10.162001 707.662,10.4019986 707.674,10.678 C707.686,10.9540014 707.707,11.2359986 707.737,11.524 C707.767,11.8120014 707.815,12.0849987 707.881,12.343 C707.947,12.6010013 708.045999,12.8199991 708.178,13 L705.352,13 C705.195999,12.591998 705.1,12.1060028 705.064,11.542 C705.028,10.9779972 704.974,10.4380026 704.902,9.922 C704.806,9.24999664 704.602002,8.75800156 704.29,8.446 C703.977998,8.13399844 703.468004,7.978 702.76,7.978 L699.934,7.978 L699.934,13 L697.108,13 L697.108,0.148 Z M710.104,0.148 L719.716,0.148 L719.716,2.524 L712.93,2.524 L712.93,5.278 L719.158,5.278 L719.158,7.474 L712.93,7.474 L712.93,10.624 L719.86,10.624 L719.86,13 L710.104,13 L710.104,0.148 Z M721.57,3.694 L723.982,3.694 L723.982,4.954 L724.018,4.954 C724.354002,4.4739976 724.758998,4.10200132 725.233,3.838 C725.707002,3.57399868 726.249997,3.442 726.862,3.442 C727.450003,3.442 727.986998,3.55599886 728.473,3.784 C728.959002,4.01200114 729.327999,4.41399712 729.58,4.99 C729.856001,4.58199796 730.230998,4.22200156 730.705,3.91 C731.179002,3.59799844 731.739997,3.442 732.388,3.442 C732.880002,3.442 733.335998,3.5019994 733.756,3.622 C734.176002,3.7420006 734.535999,3.93399868 734.836,4.198 C735.136002,4.46200132 735.369999,4.80699787 735.538,5.233 C735.706001,5.65900213 735.79,6.171997 735.79,6.772 L735.79,13 L733.234,13 L733.234,7.726 C733.234,7.41399844 733.222,7.12000138 733.198,6.844 C733.174,6.56799862 733.108001,6.32800102 733,6.124 C732.891999,5.91999898 732.733001,5.7580006 732.523,5.638 C732.312999,5.5179994 732.028002,5.458 731.668,5.458 C731.307998,5.458 731.017001,5.52699931 730.795,5.665 C730.572999,5.80300069 730.399001,5.98299889 730.273,6.205 C730.146999,6.42700111 730.063,6.67899859 730.021,6.961 C729.979,7.24300141 729.958,7.52799856 729.958,7.816 L729.958,13 L727.402,13 L727.402,7.78 C727.402,7.50399862 727.396,7.23100135 727.384,6.961 C727.372,6.69099865 727.321,6.44200114 727.231,6.214 C727.141,5.98599886 726.991001,5.80300069 726.781,5.665 C726.570999,5.52699931 726.262002,5.458 725.854,5.458 C725.733999,5.458 725.575001,5.48499973 725.377,5.539 C725.178999,5.59300027 724.987001,5.69499925 724.801,5.845 C724.614999,5.99500075 724.456001,6.21099859 724.324,6.493 C724.191999,6.77500141 724.126,7.14399772 724.126,7.6 L724.126,13 L721.57,13 L721.57,3.694 Z M598.144,36.148 L608.548,36.148 L608.548,38.092 L604.462,38.092 L604.462,49 L602.212,49 L602.212,38.092 L598.144,38.092 L598.144,36.148 Z M614.02,38.704 L614.416,37.534 L616.396,38.308 L616.396,36.148 L617.62,36.148 L617.62,38.308 L619.582,37.534 L620.014,38.704 L617.962,39.388 L619.222,41.08 L618.268,41.782 L616.99,40.018 L615.766,41.782 L614.758,41.08 L616.018,39.388 L614.02,38.704 Z M625.972,36.4 L634.594,36.4 L634.594,38.11 C633.933997,38.8540037 633.334003,39.624996 632.794,40.423 C632.253997,41.221004 631.783002,42.0669955 631.381,42.961 C630.978998,43.8550045 630.652001,44.799995 630.4,45.796 C630.147999,46.792005 629.98,47.8599943 629.896,49 L627.646,49 C627.718,48.003995 627.888999,47.0200049 628.159,46.048 C628.429001,45.0759951 628.776998,44.1340046 629.203,43.222 C629.629002,42.3099954 630.123997,41.4340042 630.688,40.594 C631.252003,39.7539958 631.857997,38.9680037 632.506,38.236 L625.972,38.236 L625.972,36.4 Z M636.718,36.148 L642.856,36.148 C644.272007,36.148 645.333996,36.4539969 646.042,37.066 C646.750004,37.6780031 647.104,38.5299945 647.104,39.622 C647.104,40.2340031 647.014001,40.740998 646.834,41.143 C646.653999,41.545002 646.444001,41.8689988 646.204,42.115 C645.963999,42.3610012 645.727001,42.5379995 645.493,42.646 C645.258999,42.7540005 645.088001,42.8259998 644.98,42.862 L644.98,42.898 C645.172001,42.9220001 645.378999,42.9819995 645.601,43.078 C645.823001,43.1740005 646.029999,43.3269989 646.222,43.537 C646.414001,43.7470011 646.572999,44.0199983 646.699,44.356 C646.825001,44.6920017 646.888,45.1119975 646.888,45.616 C646.888,46.3720038 646.944999,47.0589969 647.059,47.677 C647.173001,48.2950031 647.349999,48.7359987 647.59,49 L645.178,49 C645.009999,48.7239986 644.911,48.4180017 644.881,48.082 C644.851,47.7459983 644.836,47.4220016 644.836,47.11 C644.836,46.5219971 644.8,46.0150021 644.728,45.589 C644.656,45.1629979 644.524001,44.8090014 644.332,44.527 C644.139999,44.2449986 643.879002,44.0380007 643.549,43.906 C643.218998,43.7739993 642.796003,43.708 642.28,43.708 L638.968,43.708 L638.968,49 L636.718,49 L636.718,36.148 Z M638.968,41.998 L642.658,41.998 C643.378004,41.998 643.923998,41.8270017 644.296,41.485 C644.668002,41.1429983 644.854,40.6300034 644.854,39.946 C644.854,39.537998 644.794001,39.2050013 644.674,38.947 C644.553999,38.6889987 644.389001,38.4880007 644.179,38.344 C643.968999,38.1999993 643.729001,38.1040002 643.459,38.056 C643.188999,38.0079998 642.910001,37.984 642.622,37.984 L638.968,37.984 L638.968,41.998 Z M598.882,79.132 L604.12,79.132 L604.12,81.076 L598.882,81.076 L598.882,79.132 Z M610.006,72.148 C610.906004,72.148 611.640997,72.3549979 612.211,72.769 C612.781003,73.1830021 613.224998,73.7109968 613.543,74.353 C613.861002,74.9950032 614.076999,75.6999962 614.191,76.468 C614.305001,77.2360038 614.362,77.9799964 614.362,78.7 C614.362,79.4200036 614.305001,80.1639962 614.191,80.932 C614.076999,81.7000038 613.861002,82.4049968 613.543,83.047 C613.224998,83.6890032 612.781003,84.2169979 612.211,84.631 C611.640997,85.0450021 610.906004,85.252 610.006,85.252 C609.105996,85.252 608.371003,85.0450021 607.801,84.631 C607.230997,84.2169979 606.787002,83.6890032 606.469,83.047 C606.150998,82.4049968 605.935001,81.7000038 605.821,80.932 C605.706999,80.1639962 605.65,79.4200036 605.65,78.7 C605.65,77.9799964 605.706999,77.2360038 605.821,76.468 C605.935001,75.6999962 606.150998,74.9950032 606.469,74.353 C606.787002,73.7109968 607.230997,73.1830021 607.801,72.769 C608.371003,72.3549979 609.105996,72.148 610.006,72.148 Z M610.006,83.542 C610.450002,83.542 610.821998,83.4130013 611.122,83.155 C611.422002,82.8969987 611.658999,82.5490022 611.833,82.111 C612.007001,81.6729978 612.13,81.1600029 612.202,80.572 C612.274,79.9839971 612.31,79.3600033 612.31,78.7 C612.31,78.0399967 612.274,77.4190029 612.202,76.837 C612.13,76.2549971 612.007001,75.7420022 611.833,75.298 C611.658999,74.8539978 611.422002,74.5030013 611.122,74.245 C610.821998,73.9869987 610.450002,73.858 610.006,73.858 C609.549998,73.858 609.175001,73.9869987 608.881,74.245 C608.586999,74.5030013 608.353001,74.8539978 608.179,75.298 C608.004999,75.7420022 607.882,76.2549971 607.81,76.837 C607.738,77.4190029 607.702,78.0399967 607.702,78.7 C607.702,79.3600033 607.738,79.9839971 607.81,80.572 C607.882,81.1600029 608.004999,81.6729978 608.179,82.111 C608.353001,82.5490022 608.586999,82.8969987 608.881,83.155 C609.175001,83.4130013 609.549998,83.542 610.006,83.542 Z M616.252,82.57 L618.754,82.57 L618.754,85 L616.252,85 L616.252,82.57 Z M625.018,72.148 C625.918005,72.148 626.652997,72.3549979 627.223,72.769 C627.793003,73.1830021 628.236998,73.7109968 628.555,74.353 C628.873002,74.9950032 629.088999,75.6999962 629.203,76.468 C629.317001,77.2360038 629.374,77.9799964 629.374,78.7 C629.374,79.4200036 629.317001,80.1639962 629.203,80.932 C629.088999,81.7000038 628.873002,82.4049968 628.555,83.047 C628.236998,83.6890032 627.793003,84.2169979 627.223,84.631 C626.652997,85.0450021 625.918005,85.252 625.018,85.252 C624.117995,85.252 623.383003,85.0450021 622.813,84.631 C622.242997,84.2169979 621.799002,83.6890032 621.481,83.047 C621.162998,82.4049968 620.947001,81.7000038 620.833,80.932 C620.718999,80.1639962 620.662,79.4200036 620.662,78.7 C620.662,77.9799964 620.718999,77.2360038 620.833,76.468 C620.947001,75.6999962 621.162998,74.9950032 621.481,74.353 C621.799002,73.7109968 622.242997,73.1830021 622.813,72.769 C623.383003,72.3549979 624.117995,72.148 625.018,72.148 Z M625.018,83.542 C625.462002,83.542 625.833999,83.4130013 626.134,83.155 C626.434001,82.8969987 626.670999,82.5490022 626.845,82.111 C627.019001,81.6729978 627.142,81.1600029 627.214,80.572 C627.286,79.9839971 627.322,79.3600033 627.322,78.7 C627.322,78.0399967 627.286,77.4190029 627.214,76.837 C627.142,76.2549971 627.019001,75.7420022 626.845,75.298 C626.670999,74.8539978 626.434001,74.5030013 626.134,74.245 C625.833999,73.9869987 625.462002,73.858 625.018,73.858 C624.561998,73.858 624.187001,73.9869987 623.893,74.245 C623.598999,74.5030013 623.365001,74.8539978 623.191,75.298 C623.016999,75.7420022 622.894,76.2549971 622.822,76.837 C622.75,77.4190029 622.714,78.0399967 622.714,78.7 C622.714,79.3600033 622.75,79.9839971 622.822,80.572 C622.894,81.1600029 623.016999,81.6729978 623.191,82.111 C623.365001,82.5490022 623.598999,82.8969987 623.893,83.155 C624.187001,83.4130013 624.561998,83.542 625.018,83.542 Z M639.328,85 L630.724,85 C630.736,83.9559948 630.987998,83.0440039 631.48,82.264 C631.972002,81.4839961 632.643996,80.8060029 633.496,80.23 C633.904002,79.9299985 634.329998,79.6390014 634.774,79.357 C635.218002,79.0749986 635.625998,78.7720016 635.998,78.448 C636.370002,78.1239984 636.675999,77.7730019 636.916,77.395 C637.156001,77.0169981 637.282,76.5820025 637.294,76.09 C637.294,75.8619989 637.267,75.6190013 637.213,75.361 C637.159,75.1029987 637.054001,74.8630011 636.898,74.641 C636.741999,74.4189989 636.526001,74.2330007 636.25,74.083 C635.973999,73.9329993 635.614002,73.858 635.17,73.858 C634.761998,73.858 634.423001,73.9389992 634.153,74.101 C633.882999,74.2630008 633.667001,74.4849986 633.505,74.767 C633.342999,75.0490014 633.223,75.3819981 633.145,75.766 C633.067,76.1500019 633.022,76.5639978 633.01,77.008 L630.958,77.008 C630.958,76.3119965 631.050999,75.667003 631.237,75.073 C631.423001,74.478997 631.701998,73.9660022 632.074,73.534 C632.446002,73.1019978 632.898997,72.7630012 633.433,72.517 C633.967003,72.2709988 634.587996,72.148 635.296,72.148 C636.064004,72.148 636.705997,72.2739987 637.222,72.526 C637.738003,72.7780013 638.154998,73.0959981 638.473,73.48 C638.791002,73.8640019 639.015999,74.2809978 639.148,74.731 C639.280001,75.1810022 639.346,75.609998 639.346,76.018 C639.346,76.5220025 639.268001,76.977998 639.112,77.386 C638.955999,77.794002 638.746001,78.1689983 638.482,78.511 C638.217999,78.8530017 637.918002,79.1679986 637.582,79.456 C637.245998,79.7440014 636.898002,80.0139987 636.538,80.266 C636.177998,80.5180013 635.818002,80.7579989 635.458,80.986 C635.097998,81.2140011 634.765002,81.4419989 634.459,81.67 C634.152998,81.8980011 633.886001,82.1349988 633.658,82.381 C633.429999,82.6270012 633.274,82.8879986 633.19,83.164 L639.328,83.164 L639.328,85 Z M645.376,74.704 L645.772,73.534 L647.752,74.308 L647.752,72.148 L648.976,72.148 L648.976,74.308 L650.938,73.534 L651.37,74.704 L649.318,75.388 L650.578,77.08 L649.624,77.782 L648.346,76.018 L647.122,77.782 L646.114,77.08 L647.374,75.388 L645.376,74.704 Z M658.714,80.392 L662.53,80.392 L662.53,74.848 L662.494,74.848 L658.714,80.392 Z M666.094,82.012 L664.474,82.012 L664.474,85 L662.53,85 L662.53,82.012 L657.13,82.012 L657.13,79.978 L662.53,72.4 L664.474,72.4 L664.474,80.392 L666.094,80.392 L666.094,82.012 Z M676.012,85 L667.408,85 C667.42,83.9559948 667.671998,83.0440039 668.164,82.264 C668.656002,81.4839961 669.327996,80.8060029 670.18,80.23 C670.588002,79.9299985 671.013998,79.6390014 671.458,79.357 C671.902002,79.0749986 672.309998,78.7720016 672.682,78.448 C673.054002,78.1239984 673.359999,77.7730019 673.6,77.395 C673.840001,77.0169981 673.966,76.5820025 673.978,76.09 C673.978,75.8619989 673.951,75.6190013 673.897,75.361 C673.843,75.1029987 673.738001,74.8630011 673.582,74.641 C673.425999,74.4189989 673.210001,74.2330007 672.934,74.083 C672.657999,73.9329993 672.298002,73.858 671.854,73.858 C671.445998,73.858 671.107001,73.9389992 670.837,74.101 C670.566999,74.2630008 670.351001,74.4849986 670.189,74.767 C670.026999,75.0490014 669.907,75.3819981 669.829,75.766 C669.751,76.1500019 669.706,76.5639978 669.694,77.008 L667.642,77.008 C667.642,76.3119965 667.734999,75.667003 667.921,75.073 C668.107001,74.478997 668.385998,73.9660022 668.758,73.534 C669.130002,73.1019978 669.582997,72.7630012 670.117,72.517 C670.651003,72.2709988 671.271996,72.148 671.98,72.148 C672.748004,72.148 673.389997,72.2739987 673.906,72.526 C674.422003,72.7780013 674.838998,73.0959981 675.157,73.48 C675.475002,73.8640019 675.699999,74.2809978 675.832,74.731 C675.964001,75.1810022 676.03,75.609998 676.03,76.018 C676.03,76.5220025 675.952001,76.977998 675.796,77.386 C675.639999,77.794002 675.430001,78.1689983 675.166,78.511 C674.901999,78.8530017 674.602002,79.1679986 674.266,79.456 C673.929998,79.7440014 673.582002,80.0139987 673.222,80.266 C672.861998,80.5180013 672.502002,80.7579989 672.142,80.986 C671.781998,81.2140011 671.449002,81.4419989 671.143,81.67 C670.836998,81.8980011 670.570001,82.1349988 670.342,82.381 C670.113999,82.6270012 669.958,82.8879986 669.874,83.164 L676.012,83.164 L676.012,85 Z M691.654,83.182 L682.582,83.182 L682.582,81.346 L691.654,81.346 L691.654,83.182 Z M691.654,79.546 L682.582,79.546 L682.582,77.71 L691.654,77.71 L691.654,79.546 Z M698.404,79.132 L703.642,79.132 L703.642,81.076 L698.404,81.076 L698.404,79.132 Z M709.528,72.148 C710.428004,72.148 711.162997,72.3549979 711.733,72.769 C712.303003,73.1830021 712.746998,73.7109968 713.065,74.353 C713.383002,74.9950032 713.598999,75.6999962 713.713,76.468 C713.827001,77.2360038 713.884,77.9799964 713.884,78.7 C713.884,79.4200036 713.827001,80.1639962 713.713,80.932 C713.598999,81.7000038 713.383002,82.4049968 713.065,83.047 C712.746998,83.6890032 712.303003,84.2169979 711.733,84.631 C711.162997,85.0450021 710.428004,85.252 709.528,85.252 C708.627995,85.252 707.893003,85.0450021 707.323,84.631 C706.752997,84.2169979 706.309002,83.6890032 705.991,83.047 C705.672998,82.4049968 705.457001,81.7000038 705.343,80.932 C705.228999,80.1639962 705.172,79.4200036 705.172,78.7 C705.172,77.9799964 705.228999,77.2360038 705.343,76.468 C705.457001,75.6999962 705.672998,74.9950032 705.991,74.353 C706.309002,73.7109968 706.752997,73.1830021 707.323,72.769 C707.893003,72.3549979 708.627995,72.148 709.528,72.148 Z M709.528,83.542 C709.972002,83.542 710.343999,83.4130013 710.644,83.155 C710.944002,82.8969987 711.180999,82.5490022 711.355,82.111 C711.529001,81.6729978 711.652,81.1600029 711.724,80.572 C711.796,79.9839971 711.832,79.3600033 711.832,78.7 C711.832,78.0399967 711.796,77.4190029 711.724,76.837 C711.652,76.2549971 711.529001,75.7420022 711.355,75.298 C711.180999,74.8539978 710.944002,74.5030013 710.644,74.245 C710.343999,73.9869987 709.972002,73.858 709.528,73.858 C709.071998,73.858 708.697001,73.9869987 708.403,74.245 C708.108999,74.5030013 707.875001,74.8539978 707.701,75.298 C707.526999,75.7420022 707.404,76.2549971 707.332,76.837 C707.26,77.4190029 707.224,78.0399967 707.224,78.7 C707.224,79.3600033 707.26,79.9839971 707.332,80.572 C707.404,81.1600029 707.526999,81.6729978 707.701,82.111 C707.875001,82.5490022 708.108999,82.8969987 708.403,83.155 C708.697001,83.4130013 709.071998,83.542 709.528,83.542 Z M715.774,82.57 L718.276,82.57 L718.276,85 L715.774,85 L715.774,82.57 Z M724.54,73.768 C723.987997,73.768 723.520002,73.9329984 723.136,74.263 C722.751998,74.5930017 722.56,75.0699969 722.56,75.694 C722.56,76.294003 722.745998,76.7529984 723.118,77.071 C723.490002,77.3890016 723.963997,77.548 724.54,77.548 C725.116003,77.548 725.589998,77.3890016 725.962,77.071 C726.334002,76.7529984 726.52,76.294003 726.52,75.694 C726.52,75.0699969 726.328002,74.5930017 725.944,74.263 C725.559998,73.9329984 725.092003,73.768 724.54,73.768 Z M724.54,85.252 C723.903997,85.252 723.313003,85.1620009 722.767,84.982 C722.220997,84.8019991 721.750002,84.5410017 721.354,84.199 C720.957998,83.8569983 720.649001,83.4400025 720.427,82.948 C720.204999,82.4559975 720.094,81.9040031 720.094,81.292 C720.094,80.499996 720.300998,79.8340027 720.715,79.294 C721.129002,78.7539973 721.689996,78.3940009 722.398,78.214 L722.398,78.178 C721.821997,77.9619989 721.381002,77.6290023 721.075,77.179 C720.768998,76.7289977 720.616,76.1980031 720.616,75.586 C720.616,74.5059946 720.954997,73.663003 721.633,73.057 C722.311003,72.450997 723.279994,72.148 724.54,72.148 C725.800006,72.148 726.768997,72.450997 727.447,73.057 C728.125003,73.663003 728.464,74.5059946 728.464,75.586 C728.464,76.1980031 728.311002,76.7289977 728.005,77.179 C727.698998,77.6290023 727.258003,77.9619989 726.682,78.178 L726.682,78.214 C727.390004,78.3940009 727.950998,78.7539973 728.365,79.294 C728.779002,79.8340027 728.986,80.499996 728.986,81.292 C728.986,81.9040031 728.875001,82.4559975 728.653,82.948 C728.430999,83.4400025 728.122002,83.8569983 727.726,84.199 C727.329998,84.5410017 726.859003,84.8019991 726.313,84.982 C725.766997,85.1620009 725.176003,85.252 724.54,85.252 Z M724.54,83.632 C725.224003,83.632 725.793998,83.428002 726.25,83.02 C726.706002,82.611998 726.934,82.0360037 726.934,81.292 C726.934,80.5959965 726.706002,80.053002 726.25,79.663 C725.793998,79.272998 725.224003,79.078 724.54,79.078 C723.855997,79.078 723.286002,79.272998 722.83,79.663 C722.373998,80.053002 722.146,80.5959965 722.146,81.292 C722.146,82.0360037 722.373998,82.611998 722.83,83.02 C723.286002,83.428002 723.855997,83.632 724.54,83.632 Z M731.56,80.392 L735.376,80.392 L735.376,74.848 L735.34,74.848 L731.56,80.392 Z M738.94,82.012 L737.32,82.012 L737.32,85 L735.376,85 L735.376,82.012 L729.976,82.012 L729.976,79.978 L735.376,72.4 L737.32,72.4 L737.32,80.392 L738.94,80.392 L738.94,82.012 Z" id="XXLarge,-7-REm-T-*-7" fill="#000000"></path>
        </g>
    </g>
</svg>