<?xml version="1.0" encoding="UTF-8"?>
<svg width="739px" height="86px" viewBox="0 0 739 86" version="1.1" xmlns="http://www.w3.org/2000/svg" xmlns:xlink="http://www.w3.org/1999/xlink">
    <!-- Generator: Sketch 49.3 (51167) - http://www.bohemiancoding.com/sketch -->
    <title>Type_tracking3</title>
    <desc>Created with Sketch.</desc>
    <defs></defs>
    <g id="Sketches" stroke="none" stroke-width="1" fill="none" fill-rule="evenodd">
        <g id="Type_tracking3">
            <path d="M6.136,49.392 L10.528,49.392 C11.1760032,49.392 11.799997,49.3440005 12.4,49.248 C13.000003,49.1519995 13.5279977,48.9660014 13.984,48.69 C14.4400023,48.4139986 14.8059986,48.0240025 15.082,47.52 C15.3580014,47.0159975 15.496,46.3560041 15.496,45.54 C15.496,44.7239959 15.3580014,44.0640025 15.082,43.56 C14.8059986,43.0559975 14.4400023,42.6660014 13.984,42.39 C13.5279977,42.1139986 13.000003,41.9280005 12.4,41.832 C11.799997,41.7359995 11.1760032,41.688 10.528,41.688 L6.136,41.688 L6.136,49.392 Z M0.484,37.296 L12.076,37.296 C13.684008,37.296 15.0519944,37.5299977 16.18,37.998 C17.3080056,38.4660023 18.2259965,39.0839962 18.934,39.852 C19.6420035,40.6200038 20.1579984,41.4959951 20.482,42.48 C20.8060016,43.4640049 20.968,44.4839947 20.968,45.54 C20.968,46.5720052 20.8060016,47.585995 20.482,48.582 C20.1579984,49.578005 19.6420035,50.4599962 18.934,51.228 C18.2259965,51.9960038 17.3080056,52.6139977 16.18,53.082 C15.0519944,53.5500023 13.684008,53.784 12.076,53.784 L6.136,53.784 L6.136,63 L0.484,63 L0.484,37.296 Z M27.772,53.712 C27.772,54.4560037 27.8439993,55.1819965 27.988,55.89 C28.1320007,56.5980035 28.3779982,57.2339972 28.726,57.798 C29.0740017,58.3620028 29.5359971,58.8119983 30.112,59.148 C30.6880029,59.4840017 31.4079957,59.652 32.272,59.652 C33.1360043,59.652 33.861997,59.4840017 34.45,59.148 C35.0380029,58.8119983 35.5059982,58.3620028 35.854,57.798 C36.2020017,57.2339972 36.4479993,56.5980035 36.592,55.89 C36.7360007,55.1819965 36.808,54.4560037 36.808,53.712 C36.808,52.9679963 36.7360007,52.2360036 36.592,51.516 C36.4479993,50.7959964 36.2020017,50.1600028 35.854,49.608 C35.5059982,49.0559972 35.0380029,48.6060017 34.45,48.258 C33.861997,47.9099983 33.1360043,47.736 32.272,47.736 C31.4079957,47.736 30.6880029,47.9099983 30.112,48.258 C29.5359971,48.6060017 29.0740017,49.0559972 28.726,49.608 C28.3779982,50.1600028 28.1320007,50.7959964 27.988,51.516 C27.8439993,52.2360036 27.772,52.9679963 27.772,53.712 Z M22.66,53.712 C22.66,52.2239926 22.8879977,50.8740061 23.344,49.662 C23.8000023,48.4499939 24.4479958,47.4180043 25.288,46.566 C26.1280042,45.7139957 27.1359941,45.0540023 28.312,44.586 C29.4880059,44.1179977 30.8079927,43.884 32.272,43.884 C33.7360073,43.884 35.061994,44.1179977 36.25,44.586 C37.4380059,45.0540023 38.4519958,45.7139957 39.292,46.566 C40.1320042,47.4180043 40.7799977,48.4499939 41.236,49.662 C41.6920023,50.8740061 41.92,52.2239926 41.92,53.712 C41.92,55.2000074 41.6920023,56.543994 41.236,57.744 C40.7799977,58.944006 40.1320042,59.9699957 39.292,60.822 C38.4519958,61.6740043 37.4380059,62.3279977 36.25,62.784 C35.061994,63.2400023 33.7360073,63.468 32.272,63.468 C30.8079927,63.468 29.4880059,63.2400023 28.312,62.784 C27.1359941,62.3279977 26.1280042,61.6740043 25.288,60.822 C24.4479958,59.9699957 23.8000023,58.944006 23.344,57.744 C22.8879977,56.543994 22.66,55.2000074 22.66,53.712 Z M53.9079999,59.652 C54.7480041,59.652 55.4499971,59.4840017 56.0139999,59.148 C56.5780028,58.8119983 57.0339982,58.3740027 57.3819999,57.834 C57.7300017,57.2939973 57.9759992,56.6640036 58.1199999,55.944 C58.2640007,55.2239964 58.3359999,54.4920037 58.3359999,53.748 C58.3359999,53.0039963 58.2580007,52.2720036 58.1019999,51.552 C57.9459992,50.8319964 57.6880017,50.1900028 57.3279999,49.626 C56.9679981,49.0619972 56.5060028,48.6060017 55.9419999,48.258 C55.3779971,47.9099983 54.688004,47.736 53.8719999,47.736 C53.0319957,47.736 52.3300028,47.9099983 51.7659999,48.258 C51.2019971,48.6060017 50.7460017,49.0559972 50.3979999,49.608 C50.0499982,50.1600028 49.8040007,50.7959964 49.6599999,51.516 C49.5159992,52.2360036 49.4439999,52.9799962 49.4439999,53.748 C49.4439999,54.4920037 49.5219992,55.2239964 49.6779999,55.944 C49.8340007,56.6640036 50.0859982,57.2939973 50.4339999,57.834 C50.7820017,58.3740027 51.2439971,58.8119983 51.8199999,59.148 C52.3960028,59.4840017 53.0919959,59.652 53.9079999,59.652 Z M44.5119999,44.388 L49.3719999,44.388 L49.3719999,46.764 L49.4439999,46.764 C50.0680031,45.755995 50.8599951,45.0240023 51.8199999,44.568 C52.7800047,44.1119977 53.8359942,43.884 54.9879999,43.884 C56.4520073,43.884 57.7119947,44.1599972 58.7679999,44.712 C59.8240052,45.2640028 60.6999965,45.9959954 61.3959999,46.908 C62.0920034,47.8200046 62.6079983,48.8819939 62.9439999,50.094 C63.2800016,51.3060061 63.4479999,52.5719934 63.4479999,53.892 C63.4479999,55.1400062 63.2800016,56.3399942 62.9439999,57.492 C62.6079983,58.6440058 62.0980034,59.6639956 61.4139999,60.552 C60.7299965,61.4400044 59.878005,62.1479974 58.8579999,62.676 C57.8379948,63.2040026 56.6440068,63.468 55.2759999,63.468 C54.1239942,63.468 53.0620048,63.2340023 52.0899999,62.766 C51.1179951,62.2979977 50.3200031,61.6080046 49.6959999,60.696 L49.6239999,60.696 L49.6239999,69.516 L44.5119999,69.516 L44.5119999,44.388 Z M83.2479999,63 L78.3879999,63 L78.3879999,60.408 L78.2799999,60.408 C77.6319967,61.4880054 76.7920051,62.2679976 75.7599999,62.748 C74.7279948,63.2280024 73.6720053,63.468 72.5919999,63.468 C71.2239931,63.468 70.1020043,63.2880018 69.2259999,62.928 C68.3499955,62.5679982 67.6600024,62.0580033 67.1559999,61.398 C66.6519974,60.7379967 66.2980009,59.9340047 66.0939999,58.986 C65.8899989,58.0379953 65.7879999,56.9880058 65.7879999,55.836 L65.7879999,44.388 L70.8999999,44.388 L70.8999999,54.9 C70.8999999,56.4360077 71.1399975,57.5819962 71.6199999,58.338 C72.1000023,59.0940038 72.9519938,59.472 74.1759999,59.472 C75.5680069,59.472 76.5759968,59.0580041 77.1999999,58.23 C77.824003,57.4019959 78.1359999,56.0400095 78.1359999,54.144 L78.1359999,44.388 L83.2479999,44.388 L83.2479999,63 Z M86.5599999,37.296 L91.6719999,37.296 L91.6719999,63 L86.5599999,63 L86.5599999,37.296 Z M97.2519999,37.296 L102.112,37.296 L102.112,41.508 L97.2519999,41.508 L97.2519999,37.296 Z M104.668,37.296 L109.528,37.296 L109.528,41.508 L104.668,41.508 L104.668,37.296 Z M94.7679999,50.112 C94.8400002,48.911994 95.1399972,47.916004 95.6679999,47.124 C96.1960025,46.331996 96.8679958,45.6960024 97.6839999,45.216 C98.5000039,44.7359976 99.4179948,44.394001 100.438,44.19 C101.458005,43.985999 102.483995,43.884 103.516,43.884 C104.452005,43.884 105.399995,43.9499993 106.36,44.082 C107.320005,44.2140007 108.195996,44.4719981 108.988,44.856 C109.780004,45.2400019 110.427997,45.7739966 110.932,46.458 C111.436002,47.1420034 111.688,48.0479944 111.688,49.176 L111.688,58.86 C111.688,59.7000042 111.735999,60.5039962 111.832,61.272 C111.928,62.0400038 112.095999,62.6159981 112.336,63 L107.152,63 C107.055999,62.7119986 106.978,62.4180015 106.918,62.118 C106.858,61.8179985 106.816,61.5120016 106.792,61.2 C105.975996,62.0400042 105.016005,62.6279983 103.912,62.964 C102.807994,63.3000017 101.680006,63.468 100.528,63.468 C99.6399954,63.468 98.8120037,63.3600011 98.0439999,63.144 C97.275996,62.9279989 96.6040027,62.5920023 96.0279999,62.136 C95.451997,61.6799977 95.0020015,61.1040035 94.6779999,60.408 C94.3539982,59.7119965 94.1919999,58.8840048 94.1919999,57.924 C94.1919999,56.8679947 94.377998,55.9980034 94.7499999,55.314 C95.1220017,54.6299966 95.6019969,54.084002 96.1899999,53.676 C96.7780028,53.267998 97.4499961,52.962001 98.2059999,52.758 C98.9620036,52.553999 99.723996,52.3920006 100.492,52.272 C101.260004,52.1519994 102.015996,52.0560004 102.76,51.984 C103.504004,51.9119996 104.163997,51.8040007 104.74,51.66 C105.316003,51.5159993 105.771998,51.3060014 106.108,51.03 C106.444002,50.7539986 106.6,50.3520026 106.576,49.824 C106.576,49.2719972 106.486001,48.8340016 106.306,48.51 C106.125999,48.1859984 105.886001,47.9340009 105.586,47.754 C105.285998,47.5739991 104.938002,47.4540003 104.542,47.394 C104.145998,47.3339997 103.720002,47.304 103.264,47.304 C102.255995,47.304 101.464003,47.5199978 100.888,47.952 C100.311997,48.3840022 99.9760003,49.103995 99.8799999,50.112 L94.7679999,50.112 Z M106.576,53.892 C106.359999,54.084001 106.090001,54.2339995 105.766,54.342 C105.441998,54.4500005 105.094002,54.5399996 104.722,54.612 C104.349998,54.6840004 103.960002,54.7439998 103.552,54.792 C103.143998,54.8400002 102.736002,54.8999996 102.328,54.972 C101.943998,55.0440004 101.566002,55.1399994 101.194,55.26 C100.821998,55.3800006 100.498001,55.541999 100.222,55.746 C99.9459985,55.950001 99.7240007,56.2079984 99.5559999,56.52 C99.387999,56.8320016 99.3039999,57.2279976 99.3039999,57.708 C99.3039999,58.1640023 99.387999,58.5479984 99.5559999,58.86 C99.7240007,59.1720016 99.9519984,59.4179991 100.24,59.598 C100.528001,59.7780009 100.863998,59.9039996 101.248,59.976 C101.632002,60.0480004 102.027998,60.084 102.436,60.084 C103.444005,60.084 104.223997,59.9160017 104.776,59.58 C105.328003,59.2439983 105.735999,58.8420023 106,58.374 C106.264001,57.9059977 106.426,57.4320024 106.486,56.952 C106.546,56.4719976 106.576,56.0880014 106.576,55.8 L106.576,53.892 Z M114.928,44.388 L119.788,44.388 L119.788,47.844 L119.86,47.844 C120.100001,47.2679971 120.423998,46.7340025 120.832,46.242 C121.240002,45.7499975 121.707997,45.3300017 122.236,44.982 C122.764002,44.6339983 123.327997,44.364001 123.928,44.172 C124.528003,43.979999 125.151997,43.884 125.8,43.884 C126.136002,43.884 126.507998,43.9439994 126.916,44.064 L126.916,48.816 C126.675999,48.7679998 126.388002,48.7260002 126.052,48.69 C125.715998,48.6539998 125.392001,48.636 125.08,48.636 C124.143995,48.636 123.352003,48.7919984 122.704,49.104 C122.055997,49.4160016 121.534002,49.8419973 121.138,50.382 C120.741998,50.9220027 120.460001,51.5519964 120.292,52.272 C120.123999,52.9920036 120.04,53.7719958 120.04,54.612 L120.04,63 L114.928,63 L114.928,44.388 Z M127.996,50.112 C128.068,48.911994 128.367997,47.916004 128.896,47.124 C129.424002,46.331996 130.095996,45.6960024 130.912,45.216 C131.728004,44.7359976 132.645995,44.394001 133.666,44.19 C134.686005,43.985999 135.711995,43.884 136.744,43.884 C137.680004,43.884 138.627995,43.9499993 139.588,44.082 C140.548005,44.2140007 141.423996,44.4719981 142.216,44.856 C143.008004,45.2400019 143.655997,45.7739966 144.16,46.458 C144.664002,47.1420034 144.916,48.0479944 144.916,49.176 L144.916,58.86 C144.916,59.7000042 144.963999,60.5039962 145.06,61.272 C145.156,62.0400038 145.323999,62.6159981 145.564,63 L140.38,63 C140.283999,62.7119986 140.206,62.4180015 140.146,62.118 C140.085999,61.8179985 140.044,61.5120016 140.02,61.2 C139.203996,62.0400042 138.244005,62.6279983 137.14,62.964 C136.035994,63.3000017 134.908006,63.468 133.756,63.468 C132.867995,63.468 132.040004,63.3600011 131.272,63.144 C130.503996,62.9279989 129.832003,62.5920023 129.256,62.136 C128.679997,61.6799977 128.230001,61.1040035 127.906,60.408 C127.581998,59.7119965 127.42,58.8840048 127.42,57.924 C127.42,56.8679947 127.605998,55.9980034 127.978,55.314 C128.350002,54.6299966 128.829997,54.084002 129.418,53.676 C130.006003,53.267998 130.677996,52.962001 131.434,52.758 C132.190004,52.553999 132.951996,52.3920006 133.72,52.272 C134.488004,52.1519994 135.243996,52.0560004 135.988,51.984 C136.732004,51.9119996 137.391997,51.8040007 137.968,51.66 C138.544003,51.5159993 138.999998,51.3060014 139.336,51.03 C139.672001,50.7539986 139.828,50.3520026 139.804,49.824 C139.804,49.2719972 139.714001,48.8340016 139.534,48.51 C139.353999,48.1859984 139.114001,47.9340009 138.814,47.754 C138.513998,47.5739991 138.166002,47.4540003 137.77,47.394 C137.373998,47.3339997 136.948002,47.304 136.492,47.304 C135.483995,47.304 134.692003,47.5199978 134.116,47.952 C133.539997,48.3840022 133.204,49.103995 133.108,50.112 L127.996,50.112 Z M139.804,53.892 C139.587999,54.084001 139.318001,54.2339995 138.994,54.342 C138.669998,54.4500005 138.322002,54.5399996 137.95,54.612 C137.577998,54.6840004 137.188002,54.7439998 136.78,54.792 C136.371998,54.8400002 135.964002,54.8999996 135.556,54.972 C135.171998,55.0440004 134.794002,55.1399994 134.422,55.26 C134.049998,55.3800006 133.726001,55.541999 133.45,55.746 C133.173998,55.950001 132.952001,56.2079984 132.784,56.52 C132.615999,56.8320016 132.532,57.2279976 132.532,57.708 C132.532,58.1640023 132.615999,58.5479984 132.784,58.86 C132.952001,59.1720016 133.179998,59.4179991 133.468,59.598 C133.756001,59.7780009 134.091998,59.9039996 134.476,59.976 C134.860002,60.0480004 135.255998,60.084 135.664,60.084 C136.672005,60.084 137.451997,59.9160017 138.004,59.58 C138.556003,59.2439983 138.963998,58.8420023 139.228,58.374 C139.492001,57.9059977 139.653999,57.4320024 139.714,56.952 C139.774,56.4719976 139.804,56.0880014 139.804,55.8 L139.804,53.892 Z M166.84,59.652 C167.680004,59.652 168.381997,59.4840017 168.946,59.148 C169.510003,58.8119983 169.965998,58.3740027 170.314,57.834 C170.662001,57.2939973 170.907999,56.6640036 171.052,55.944 C171.196,55.2239964 171.268,54.4920037 171.268,53.748 C171.268,53.0039963 171.190001,52.2720036 171.034,51.552 C170.877999,50.8319964 170.620002,50.1900028 170.26,49.626 C169.899998,49.0619972 169.438003,48.6060017 168.874,48.258 C168.309997,47.9099983 167.620004,47.736 166.804,47.736 C165.963996,47.736 165.262003,47.9099983 164.698,48.258 C164.133997,48.6060017 163.678001,49.0559972 163.33,49.608 C162.981998,50.1600028 162.736,50.7959964 162.592,51.516 C162.447999,52.2360036 162.376,52.9799962 162.376,53.748 C162.376,54.4920037 162.453999,55.2239964 162.61,55.944 C162.766001,56.6640036 163.017998,57.2939973 163.366,57.834 C163.714001,58.3740027 164.175997,58.8119983 164.752,59.148 C165.328003,59.4840017 166.023996,59.652 166.84,59.652 Z M157.444,44.388 L162.304,44.388 L162.304,46.764 L162.376,46.764 C163.000003,45.755995 163.791995,45.0240023 164.752,44.568 C165.712005,44.1119977 166.767994,43.884 167.92,43.884 C169.384007,43.884 170.643994,44.1599972 171.7,44.712 C172.756005,45.2640028 173.631996,45.9959954 174.328,46.908 C175.024003,47.8200046 175.539998,48.8819939 175.876,50.094 C176.212001,51.3060061 176.38,52.5719934 176.38,53.892 C176.38,55.1400062 176.212001,56.3399942 175.876,57.492 C175.539998,58.6440058 175.030003,59.6639956 174.346,60.552 C173.661996,61.4400044 172.810005,62.1479974 171.79,62.676 C170.769995,63.2040026 169.576007,63.468 168.208,63.468 C167.055994,63.468 165.994005,63.2340023 165.022,62.766 C164.049995,62.2979977 163.252003,61.6080046 162.628,60.696 L162.556,60.696 L162.556,69.516 L157.444,69.516 L157.444,44.388 Z M178.72,44.388 L183.58,44.388 L183.58,47.844 L183.652,47.844 C183.892001,47.2679971 184.215998,46.7340025 184.624,46.242 C185.032002,45.7499975 185.499997,45.3300017 186.028,44.982 C186.556002,44.6339983 187.119997,44.364001 187.72,44.172 C188.320003,43.979999 188.943996,43.884 189.592,43.884 C189.928001,43.884 190.299998,43.9439994 190.708,44.064 L190.708,48.816 C190.467999,48.7679998 190.180001,48.7260002 189.844,48.69 C189.507998,48.6539998 189.184001,48.636 188.872,48.636 C187.935995,48.636 187.144003,48.7919984 186.496,49.104 C185.847996,49.4160016 185.326002,49.8419973 184.93,50.382 C184.533998,50.9220027 184.252001,51.5519964 184.084,52.272 C183.915999,52.9920036 183.832,53.7719958 183.832,54.612 L183.832,63 L178.72,63 L178.72,44.388 Z M195.892,53.712 C195.892,54.4560037 195.963999,55.1819965 196.108,55.89 C196.252,56.5980035 196.497998,57.2339972 196.846,57.798 C197.194001,58.3620028 197.655997,58.8119983 198.232,59.148 C198.808003,59.4840017 199.527995,59.652 200.392,59.652 C201.256004,59.652 201.981997,59.4840017 202.57,59.148 C203.158003,58.8119983 203.625998,58.3620028 203.974,57.798 C204.322001,57.2339972 204.567999,56.5980035 204.712,55.89 C204.856,55.1819965 204.928,54.4560037 204.928,53.712 C204.928,52.9679963 204.856,52.2360036 204.712,51.516 C204.567999,50.7959964 204.322001,50.1600028 203.974,49.608 C203.625998,49.0559972 203.158003,48.6060017 202.57,48.258 C201.981997,47.9099983 201.256004,47.736 200.392,47.736 C199.527995,47.736 198.808003,47.9099983 198.232,48.258 C197.655997,48.6060017 197.194001,49.0559972 196.846,49.608 C196.497998,50.1600028 196.252,50.7959964 196.108,51.516 C195.963999,52.2360036 195.892,52.9679963 195.892,53.712 Z M190.78,53.712 C190.78,52.2239926 191.007997,50.8740061 191.464,49.662 C191.920002,48.4499939 192.567995,47.4180043 193.408,46.566 C194.248004,45.7139957 195.255994,45.0540023 196.432,44.586 C197.608006,44.1179977 198.927992,43.884 200.392,43.884 C201.856007,43.884 203.181994,44.1179977 204.37,44.586 C205.558006,45.0540023 206.571995,45.7139957 207.412,46.566 C208.252004,47.4180043 208.899997,48.4499939 209.356,49.662 C209.812002,50.8740061 210.04,52.2239926 210.04,53.712 C210.04,55.2000074 209.812002,56.543994 209.356,57.744 C208.899997,58.944006 208.252004,59.9699957 207.412,60.822 C206.571995,61.6740043 205.558006,62.3279977 204.37,62.784 C203.181994,63.2400023 201.856007,63.468 200.392,63.468 C198.927992,63.468 197.608006,63.2400023 196.432,62.784 C195.255994,62.3279977 194.248004,61.6740043 193.408,60.822 C192.567995,59.9699957 191.920002,58.944006 191.464,57.744 C191.007997,56.543994 190.78,55.2000074 190.78,53.712 Z M225.844,53.64 C225.844,52.8719962 225.772,52.1340035 225.628,51.426 C225.483999,50.7179965 225.238001,50.0940027 224.89,49.554 C224.541998,49.0139973 224.092002,48.5760017 223.54,48.24 C222.987997,47.9039983 222.292004,47.736 221.452,47.736 C220.611995,47.736 219.904003,47.9039983 219.328,48.24 C218.751997,48.5760017 218.290001,49.0199972 217.942,49.572 C217.593998,50.1240028 217.342,50.7539965 217.186,51.462 C217.029999,52.1700035 216.952,52.9079962 216.952,53.676 C216.952,54.3960036 217.035999,55.1159964 217.204,55.836 C217.372,56.5560036 217.641998,57.1979972 218.014,57.762 C218.386002,58.3260028 218.853997,58.7819983 219.418,59.13 C219.982002,59.4780017 220.659996,59.652 221.452,59.652 C222.292004,59.652 222.993997,59.4840017 223.558,59.148 C224.122002,58.8119983 224.571998,58.3620028 224.908,57.798 C225.244001,57.2339972 225.483999,56.5920036 225.628,55.872 C225.772,55.1519964 225.844,54.4080038 225.844,53.64 Z M225.916,60.624 L225.844,60.624 C225.243997,61.632005 224.458005,62.3579978 223.486,62.802 C222.513995,63.2460022 221.416006,63.468 220.192,63.468 C218.799993,63.468 217.576005,63.1980027 216.52,62.658 C215.463994,62.1179973 214.594003,61.3860046 213.91,60.462 C213.225996,59.5379954 212.710001,58.476006 212.362,57.276 C212.013998,56.075994 211.84,54.8280065 211.84,53.532 C211.84,52.2839938 212.013998,51.0780058 212.362,49.914 C212.710001,48.7499942 213.225996,47.7240044 213.91,46.836 C214.594003,45.9479956 215.451994,45.2340027 216.484,44.694 C217.516005,44.1539973 218.715993,43.884 220.084,43.884 C221.188005,43.884 222.237995,44.1179977 223.234,44.586 C224.230005,45.0540023 225.015997,45.7439954 225.592,46.656 L225.664,46.656 L225.664,37.296 L230.776,37.296 L230.776,63 L225.916,63 L225.916,60.624 Z M251.368,63 L246.508,63 L246.508,60.408 L246.4,60.408 C245.751996,61.4880054 244.912005,62.2679976 243.88,62.748 C242.847994,63.2280024 241.792005,63.468 240.712,63.468 C239.343993,63.468 238.222004,63.2880018 237.346,62.928 C236.469995,62.5679982 235.780002,62.0580033 235.276,61.398 C234.771997,60.7379967 234.418001,59.9340047 234.214,58.986 C234.009999,58.0379953 233.908,56.9880058 233.908,55.836 L233.908,44.388 L239.02,44.388 L239.02,54.9 C239.02,56.4360077 239.259997,57.5819962 239.74,58.338 C240.220002,59.0940038 241.071994,59.472 242.296,59.472 C243.688007,59.472 244.695997,59.0580041 245.32,58.23 C245.944003,57.4019959 246.256,56.0400095 246.256,54.144 L246.256,44.388 L251.368,44.388 L251.368,63 Z M255.004,37.296 L260.116,37.296 L260.116,51.084 L266.56,44.388 L272.608,44.388 L265.588,51.228 L273.4,63 L267.208,63 L262.096,54.684 L260.116,56.592 L260.116,63 L255.004,63 L255.004,37.296 Z M280.96,44.388 L284.704,44.388 L284.704,47.808 L280.96,47.808 L280.96,57.024 C280.96,57.8880043 281.103998,58.4639986 281.392,58.752 C281.680001,59.0400014 282.255995,59.184 283.12,59.184 C283.408001,59.184 283.683998,59.1720001 283.948,59.148 C284.212001,59.1239999 284.463998,59.0880002 284.704,59.04 L284.704,63 C284.271997,63.0720004 283.792002,63.1199999 283.264,63.144 C282.735997,63.1680001 282.220002,63.18 281.716,63.18 C280.923996,63.18 280.174003,63.1260005 279.466,63.018 C278.757996,62.9099995 278.134002,62.7000016 277.594,62.388 C277.053997,62.0759984 276.628001,61.6320029 276.316,61.056 C276.003998,60.4799971 275.848,59.7240047 275.848,58.788 L275.848,47.808 L272.752,47.808 L272.752,44.388 L275.848,44.388 L275.848,38.808 L280.96,38.808 L280.96,44.388 Z M298.96,51.696 C298.719998,50.3999935 298.294003,49.4160034 297.682,48.744 C297.069996,48.0719966 296.140006,47.736 294.892,47.736 C294.075995,47.736 293.398002,47.8739986 292.858,48.15 C292.317997,48.4260014 291.886001,48.767998 291.562,49.176 C291.237998,49.584002 291.01,50.0159977 290.878,50.472 C290.745999,50.9280023 290.668,51.3359982 290.644,51.696 L298.96,51.696 Z M290.644,54.936 C290.716,56.5920083 291.135996,57.7919963 291.904,58.536 C292.672003,59.2800037 293.775992,59.652 295.216,59.652 C296.248005,59.652 297.135996,59.3940026 297.88,58.878 C298.624003,58.3619974 299.079999,57.8160029 299.248,57.24 L303.748,57.24 C303.027996,59.4720112 301.924007,61.0679952 300.436,62.028 C298.947992,62.9880048 297.14801,63.468 295.036,63.468 C293.571992,63.468 292.252005,63.2340023 291.076,62.766 C289.899994,62.2979977 288.904004,61.6320043 288.088,60.768 C287.271995,59.9039957 286.642002,58.872006 286.198,57.672 C285.753997,56.471994 285.532,55.1520072 285.532,53.712 C285.532,52.319993 285.759997,51.024006 286.216,49.824 C286.672002,48.623994 287.319995,47.5860044 288.16,46.71 C289.000004,45.8339956 290.001994,45.1440025 291.166,44.64 C292.330005,44.1359975 293.619992,43.884 295.036,43.884 C296.620007,43.884 297.999994,44.1899969 299.176,44.802 C300.352005,45.4140031 301.317996,46.2359948 302.074,47.268 C302.830003,48.3000052 303.375998,49.4759934 303.712,50.796 C304.048001,52.1160066 304.168,53.4959928 304.072,54.936 L290.644,54.936 Z M306.376,44.388 L311.236,44.388 L311.236,47.844 L311.308,47.844 C311.548001,47.2679971 311.871997,46.7340025 312.28,46.242 C312.688002,45.7499975 313.155997,45.3300017 313.684,44.982 C314.212002,44.6339983 314.775997,44.364001 315.376,44.172 C315.976003,43.979999 316.599996,43.884 317.248,43.884 C317.584001,43.884 317.955997,43.9439994 318.364,44.064 L318.364,48.816 C318.123998,48.7679998 317.836001,48.7260002 317.5,48.69 C317.163998,48.6539998 316.840001,48.636 316.528,48.636 C315.591995,48.636 314.800003,48.7919984 314.152,49.104 C313.503996,49.4160016 312.982001,49.8419973 312.586,50.382 C312.189998,50.9220027 311.908,51.5519964 311.74,52.272 C311.571999,52.9920036 311.488,53.7719958 311.488,54.612 L311.488,63 L306.376,63 L306.376,44.388 Z M319.875999,57.456 L325.527999,57.456 L325.527999,63 L319.875999,63 L319.875999,57.456 Z" id="Populära-produkter." fill="#191611"></path>
            <path d="M6.136,13.392 L10.528,13.392 C11.1760032,13.392 11.799997,13.3440005 12.4,13.248 C13.000003,13.1519995 13.5279977,12.9660014 13.984,12.69 C14.4400023,12.4139986 14.8059986,12.0240025 15.082,11.52 C15.3580014,11.0159975 15.496,10.3560041 15.496,9.54 C15.496,8.72399592 15.3580014,8.06400252 15.082,7.56 C14.8059986,7.05599748 14.4400023,6.66600138 13.984,6.39 C13.5279977,6.11399862 13.000003,5.92800048 12.4,5.832 C11.799997,5.73599952 11.1760032,5.688 10.528,5.688 L6.136,5.688 L6.136,13.392 Z M0.484,1.296 L12.076,1.296 C13.684008,1.296 15.0519944,1.52999766 16.18,1.998 C17.3080056,2.46600234 18.2259965,3.08399616 18.934,3.852 C19.6420035,4.62000384 20.1579984,5.49599508 20.482,6.48 C20.8060016,7.46400492 20.968,8.48399472 20.968,9.54 C20.968,10.5720052 20.8060016,11.585995 20.482,12.582 C20.1579984,13.578005 19.6420035,14.4599962 18.934,15.228 C18.2259965,15.9960038 17.3080056,16.6139977 16.18,17.082 C15.0519944,17.5500023 13.684008,17.784 12.076,17.784 L6.136,17.784 L6.136,27 L0.484,27 L0.484,1.296 Z M28.492,17.712 C28.492,18.4560037 28.5639993,19.1819965 28.708,19.89 C28.8520007,20.5980035 29.0979983,21.2339972 29.446,21.798 C29.7940017,22.3620028 30.2559971,22.8119983 30.832,23.148 C31.4080029,23.4840017 32.1279957,23.652 32.992,23.652 C33.8560043,23.652 34.5819971,23.4840017 35.17,23.148 C35.7580029,22.8119983 36.2259983,22.3620028 36.574,21.798 C36.9220017,21.2339972 37.1679993,20.5980035 37.312,19.89 C37.4560007,19.1819965 37.528,18.4560037 37.528,17.712 C37.528,16.9679963 37.4560007,16.2360036 37.312,15.516 C37.1679993,14.7959964 36.9220017,14.1600028 36.574,13.608 C36.2259983,13.0559972 35.7580029,12.6060017 35.17,12.258 C34.5819971,11.9099983 33.8560043,11.736 32.992,11.736 C32.1279957,11.736 31.4080029,11.9099983 30.832,12.258 C30.2559971,12.6060017 29.7940017,13.0559972 29.446,13.608 C29.0979983,14.1600028 28.8520007,14.7959964 28.708,15.516 C28.5639993,16.2360036 28.492,16.9679963 28.492,17.712 Z M23.38,17.712 C23.38,16.2239926 23.6079977,14.8740061 24.064,13.662 C24.5200023,12.4499939 25.1679958,11.4180043 26.008,10.566 C26.8480042,9.71399574 27.8559941,9.05400234 29.032,8.586 C30.2080059,8.11799766 31.5279927,7.884 32.992,7.884 C34.4560073,7.884 35.7819941,8.11799766 36.97,8.586 C38.1580059,9.05400234 39.1719958,9.71399574 40.012,10.566 C40.8520042,11.4180043 41.4999977,12.4499939 41.956,13.662 C42.4120023,14.8740061 42.64,16.2239926 42.64,17.712 C42.64,19.2000074 42.4120023,20.543994 41.956,21.744 C41.4999977,22.944006 40.8520042,23.9699957 40.012,24.822 C39.1719958,25.6740043 38.1580059,26.3279977 36.97,26.784 C35.7819941,27.2400023 34.4560073,27.468 32.992,27.468 C31.5279927,27.468 30.2080059,27.2400023 29.032,26.784 C27.8559941,26.3279977 26.8480042,25.6740043 26.008,24.822 C25.1679958,23.9699957 24.5200023,22.944006 24.064,21.744 C23.6079977,20.543994 23.38,19.2000074 23.38,17.712 Z M55.348,23.652 C56.1880042,23.652 56.8899972,23.4840017 57.454,23.148 C58.0180028,22.8119983 58.4739983,22.3740027 58.822,21.834 C59.1700017,21.2939973 59.4159993,20.6640036 59.56,19.944 C59.7040007,19.2239964 59.776,18.4920037 59.776,17.748 C59.776,17.0039963 59.6980008,16.2720036 59.542,15.552 C59.3859992,14.8319964 59.1280018,14.1900028 58.768,13.626 C58.4079982,13.0619972 57.9460028,12.6060017 57.382,12.258 C56.8179972,11.9099983 56.1280041,11.736 55.312,11.736 C54.4719958,11.736 53.7700028,11.9099983 53.206,12.258 C52.6419972,12.6060017 52.1860017,13.0559972 51.838,13.608 C51.4899983,14.1600028 51.2440007,14.7959964 51.1,15.516 C50.9559993,16.2360036 50.884,16.9799962 50.884,17.748 C50.884,18.4920037 50.9619992,19.2239964 51.118,19.944 C51.2740008,20.6640036 51.5259983,21.2939973 51.874,21.834 C52.2220017,22.3740027 52.6839971,22.8119983 53.26,23.148 C53.8360029,23.4840017 54.5319959,23.652 55.348,23.652 Z M45.952,8.388 L50.812,8.388 L50.812,10.764 L50.884,10.764 C51.5080031,9.75599496 52.2999952,9.02400228 53.26,8.568 C54.2200048,8.11199772 55.2759942,7.884 56.428,7.884 C57.8920073,7.884 59.1519947,8.15999724 60.208,8.712 C61.2640053,9.26400276 62.1399965,9.99599544 62.836,10.908 C63.5320035,11.8200046 64.0479983,12.8819939 64.384,14.094 C64.7200017,15.3060061 64.888,16.5719934 64.888,17.892 C64.888,19.1400062 64.7200017,20.3399942 64.384,21.492 C64.0479983,22.6440058 63.5380034,23.6639956 62.854,24.552 C62.1699966,25.4400044 61.3180051,26.1479974 60.298,26.676 C59.2779949,27.2040026 58.0840068,27.468 56.716,27.468 C55.5639942,27.468 54.5020049,27.2340023 53.53,26.766 C52.5579951,26.2979977 51.7600031,25.6080046 51.136,24.696 L51.064,24.696 L51.064,33.516 L45.952,33.516 L45.952,8.388 Z M85.408,27 L80.548,27 L80.548,24.408 L80.44,24.408 C79.7919968,25.4880054 78.9520052,26.2679976 77.92,26.748 C76.8879948,27.2280024 75.8320054,27.468 74.752,27.468 C73.3839932,27.468 72.2620044,27.2880018 71.386,26.928 C70.5099956,26.5679982 69.8200025,26.0580033 69.316,25.398 C68.8119975,24.7379967 68.458001,23.9340047 68.254,22.986 C68.049999,22.0379953 67.948,20.9880058 67.948,19.836 L67.948,8.388 L73.06,8.388 L73.06,18.9 C73.06,20.4360077 73.2999976,21.5819962 73.78,22.338 C74.2600024,23.0940038 75.1119939,23.472 76.336,23.472 C77.728007,23.472 78.7359969,23.0580041 79.36,22.23 C79.9840031,21.4019959 80.296,20.0400095 80.296,18.144 L80.296,8.388 L85.408,8.388 L85.408,27 Z M89.44,1.296 L94.552,1.296 L94.552,27 L89.44,27 L89.44,1.296 Z M100.852,1.296 L105.712,1.296 L105.712,5.508 L100.852,5.508 L100.852,1.296 Z M108.268,1.296 L113.128,1.296 L113.128,5.508 L108.268,5.508 L108.268,1.296 Z M98.368,14.112 C98.4400004,12.911994 98.7399974,11.916004 99.268,11.124 C99.7960026,10.331996 100.467996,9.6960024 101.284,9.216 C102.100004,8.7359976 103.017995,8.39400102 104.038,8.19 C105.058005,7.98599898 106.083995,7.884 107.116,7.884 C108.052005,7.884 108.999995,7.94999934 109.96,8.082 C110.920005,8.21400066 111.795996,8.47199808 112.588,8.856 C113.380004,9.24000192 114.027997,9.77399658 114.532,10.458 C115.036003,11.1420034 115.288,12.0479944 115.288,13.176 L115.288,22.86 C115.288,23.7000042 115.336,24.5039962 115.432,25.272 C115.528,26.0400038 115.695999,26.6159981 115.936,27 L110.752,27 C110.656,26.7119986 110.578,26.4180015 110.518,26.118 C110.458,25.8179985 110.416,25.5120016 110.392,25.2 C109.575996,26.0400042 108.616006,26.6279983 107.512,26.964 C106.407994,27.3000017 105.280006,27.468 104.128,27.468 C103.239996,27.468 102.412004,27.3600011 101.644,27.144 C100.875996,26.9279989 100.204003,26.5920023 99.628,26.136 C99.0519971,25.6799977 98.6020016,25.1040035 98.278,24.408 C97.9539984,23.7119965 97.792,22.8840048 97.792,21.924 C97.792,20.8679947 97.9779981,19.9980034 98.35,19.314 C98.7220019,18.6299966 99.2019971,18.084002 99.79,17.676 C100.378003,17.267998 101.049996,16.962001 101.806,16.758 C102.562004,16.553999 103.323996,16.3920006 104.092,16.272 C104.860004,16.1519994 105.615996,16.0560004 106.36,15.984 C107.104004,15.9119996 107.763997,15.8040007 108.34,15.66 C108.916003,15.5159993 109.371998,15.3060014 109.708,15.03 C110.044002,14.7539986 110.2,14.3520026 110.176,13.824 C110.176,13.2719972 110.086001,12.8340016 109.906,12.51 C109.725999,12.1859984 109.486002,11.9340009 109.186,11.754 C108.885998,11.5739991 108.538002,11.4540003 108.142,11.394 C107.745998,11.3339997 107.320002,11.304 106.864,11.304 C105.855995,11.304 105.064003,11.5199978 104.488,11.952 C103.911997,12.3840022 103.576,13.103995 103.48,14.112 L98.368,14.112 Z M110.176,17.892 C109.959999,18.084001 109.690002,18.2339995 109.366,18.342 C109.041998,18.4500005 108.694002,18.5399996 108.322,18.612 C107.949998,18.6840004 107.560002,18.7439998 107.152,18.792 C106.743998,18.8400002 106.336002,18.8999996 105.928,18.972 C105.543998,19.0440004 105.166002,19.1399994 104.794,19.26 C104.421998,19.3800006 104.098001,19.541999 103.822,19.746 C103.545999,19.950001 103.324001,20.2079984 103.156,20.52 C102.987999,20.8320016 102.904,21.2279976 102.904,21.708 C102.904,22.1640023 102.987999,22.5479984 103.156,22.86 C103.324001,23.1720016 103.551999,23.4179991 103.84,23.598 C104.128001,23.7780009 104.463998,23.9039996 104.848,23.976 C105.232002,24.0480004 105.627998,24.084 106.036,24.084 C107.044005,24.084 107.823997,23.9160017 108.376,23.58 C108.928003,23.2439983 109.335999,22.8420023 109.6,22.374 C109.864001,21.9059977 110.026,21.4320024 110.086,20.952 C110.146,20.4719976 110.176,20.0880014 110.176,19.8 L110.176,17.892 Z M119.248,8.388 L124.108,8.388 L124.108,11.844 L124.18,11.844 C124.420001,11.2679971 124.743998,10.7340025 125.152,10.242 C125.560002,9.74999754 126.027997,9.33000174 126.556,8.982 C127.084003,8.63399826 127.647997,8.36400096 128.248,8.172 C128.848003,7.97999904 129.471997,7.884 130.12,7.884 C130.456002,7.884 130.827998,7.9439994 131.236,8.064 L131.236,12.816 C130.995999,12.7679998 130.708002,12.7260002 130.372,12.69 C130.035998,12.6539998 129.712002,12.636 129.4,12.636 C128.463995,12.636 127.672003,12.7919984 127.024,13.104 C126.375997,13.4160016 125.854002,13.8419973 125.458,14.382 C125.061998,14.9220027 124.780001,15.5519964 124.612,16.272 C124.443999,16.9920036 124.36,17.7719958 124.36,18.612 L124.36,27 L119.248,27 L119.248,8.388 Z M133.036,14.112 C133.108,12.911994 133.407997,11.916004 133.936,11.124 C134.464003,10.331996 135.135996,9.6960024 135.952,9.216 C136.768004,8.7359976 137.685995,8.39400102 138.706,8.19 C139.726005,7.98599898 140.751995,7.884 141.784,7.884 C142.720005,7.884 143.667995,7.94999934 144.628,8.082 C145.588005,8.21400066 146.463996,8.47199808 147.256,8.856 C148.048004,9.24000192 148.695997,9.77399658 149.2,10.458 C149.704003,11.1420034 149.956,12.0479944 149.956,13.176 L149.956,22.86 C149.956,23.7000042 150.004,24.5039962 150.1,25.272 C150.196,26.0400038 150.363999,26.6159981 150.604,27 L145.42,27 C145.324,26.7119986 145.246,26.4180015 145.186,26.118 C145.126,25.8179985 145.084,25.5120016 145.06,25.2 C144.243996,26.0400042 143.284006,26.6279983 142.18,26.964 C141.075994,27.3000017 139.948006,27.468 138.796,27.468 C137.907996,27.468 137.080004,27.3600011 136.312,27.144 C135.543996,26.9279989 134.872003,26.5920023 134.296,26.136 C133.719997,25.6799977 133.270002,25.1040035 132.946,24.408 C132.621998,23.7119965 132.46,22.8840048 132.46,21.924 C132.46,20.8679947 132.645998,19.9980034 133.018,19.314 C133.390002,18.6299966 133.869997,18.084002 134.458,17.676 C135.046003,17.267998 135.717996,16.962001 136.474,16.758 C137.230004,16.553999 137.991996,16.3920006 138.76,16.272 C139.528004,16.1519994 140.283996,16.0560004 141.028,15.984 C141.772004,15.9119996 142.431997,15.8040007 143.008,15.66 C143.584003,15.5159993 144.039998,15.3060014 144.376,15.03 C144.712002,14.7539986 144.868,14.3520026 144.844,13.824 C144.844,13.2719972 144.754001,12.8340016 144.574,12.51 C144.393999,12.1859984 144.154002,11.9340009 143.854,11.754 C143.553998,11.5739991 143.206002,11.4540003 142.81,11.394 C142.413998,11.3339997 141.988002,11.304 141.532,11.304 C140.523995,11.304 139.732003,11.5199978 139.156,11.952 C138.579997,12.3840022 138.244,13.103995 138.148,14.112 L133.036,14.112 Z M144.844,17.892 C144.627999,18.084001 144.358002,18.2339995 144.034,18.342 C143.709998,18.4500005 143.362002,18.5399996 142.99,18.612 C142.617998,18.6840004 142.228002,18.7439998 141.82,18.792 C141.411998,18.8400002 141.004002,18.8999996 140.596,18.972 C140.211998,19.0440004 139.834002,19.1399994 139.462,19.26 C139.089998,19.3800006 138.766001,19.541999 138.49,19.746 C138.213999,19.950001 137.992001,20.2079984 137.824,20.52 C137.655999,20.8320016 137.572,21.2279976 137.572,21.708 C137.572,22.1640023 137.655999,22.5479984 137.824,22.86 C137.992001,23.1720016 138.219999,23.4179991 138.508,23.598 C138.796001,23.7780009 139.131998,23.9039996 139.516,23.976 C139.900002,24.0480004 140.295998,24.084 140.704,24.084 C141.712005,24.084 142.491997,23.9160017 143.044,23.58 C143.596003,23.2439983 144.003999,22.8420023 144.268,22.374 C144.532001,21.9059977 144.694,21.4320024 144.754,20.952 C144.814,20.4719976 144.844,20.0880014 144.844,19.8 L144.844,17.892 Z M173.32,23.652 C174.160004,23.652 174.861997,23.4840017 175.426,23.148 C175.990003,22.8119983 176.445998,22.3740027 176.794,21.834 C177.142002,21.2939973 177.387999,20.6640036 177.532,19.944 C177.676001,19.2239964 177.748,18.4920037 177.748,17.748 C177.748,17.0039963 177.670001,16.2720036 177.514,15.552 C177.357999,14.8319964 177.100002,14.1900028 176.74,13.626 C176.379998,13.0619972 175.918003,12.6060017 175.354,12.258 C174.789997,11.9099983 174.100004,11.736 173.284,11.736 C172.443996,11.736 171.742003,11.9099983 171.178,12.258 C170.613997,12.6060017 170.158002,13.0559972 169.81,13.608 C169.461998,14.1600028 169.216001,14.7959964 169.072,15.516 C168.927999,16.2360036 168.856,16.9799962 168.856,17.748 C168.856,18.4920037 168.933999,19.2239964 169.09,19.944 C169.246001,20.6640036 169.497998,21.2939973 169.846,21.834 C170.194002,22.3740027 170.655997,22.8119983 171.232,23.148 C171.808003,23.4840017 172.503996,23.652 173.32,23.652 Z M163.924,8.388 L168.784,8.388 L168.784,10.764 L168.856,10.764 C169.480003,9.75599496 170.271995,9.02400228 171.232,8.568 C172.192005,8.11199772 173.247994,7.884 174.4,7.884 C175.864007,7.884 177.123995,8.15999724 178.18,8.712 C179.236005,9.26400276 180.111997,9.99599544 180.808,10.908 C181.504003,11.8200046 182.019998,12.8819939 182.356,14.094 C182.692002,15.3060061 182.86,16.5719934 182.86,17.892 C182.86,19.1400062 182.692002,20.3399942 182.356,21.492 C182.019998,22.6440058 181.510003,23.6639956 180.826,24.552 C180.141997,25.4400044 179.290005,26.1479974 178.27,26.676 C177.249995,27.2040026 176.056007,27.468 174.688,27.468 C173.535994,27.468 172.474005,27.2340023 171.502,26.766 C170.529995,26.2979977 169.732003,25.6080046 169.108,24.696 L169.036,24.696 L169.036,33.516 L163.924,33.516 L163.924,8.388 Z M185.92,8.388 L190.78,8.388 L190.78,11.844 L190.852,11.844 C191.092001,11.2679971 191.415998,10.7340025 191.824,10.242 C192.232002,9.74999754 192.699997,9.33000174 193.228,8.982 C193.756003,8.63399826 194.319997,8.36400096 194.92,8.172 C195.520003,7.97999904 196.143997,7.884 196.792,7.884 C197.128002,7.884 197.499998,7.9439994 197.908,8.064 L197.908,12.816 C197.667999,12.7679998 197.380002,12.7260002 197.044,12.69 C196.707998,12.6539998 196.384002,12.636 196.072,12.636 C195.135995,12.636 194.344003,12.7919984 193.696,13.104 C193.047997,13.4160016 192.526002,13.8419973 192.13,14.382 C191.733998,14.9220027 191.452001,15.5519964 191.284,16.272 C191.115999,16.9920036 191.032,17.7719958 191.032,18.612 L191.032,27 L185.92,27 L185.92,8.388 Z M204.46,17.712 C204.46,18.4560037 204.531999,19.1819965 204.676,19.89 C204.820001,20.5980035 205.065998,21.2339972 205.414,21.798 C205.762002,22.3620028 206.223997,22.8119983 206.8,23.148 C207.376003,23.4840017 208.095996,23.652 208.96,23.652 C209.824004,23.652 210.549997,23.4840017 211.138,23.148 C211.726003,22.8119983 212.193998,22.3620028 212.542,21.798 C212.890002,21.2339972 213.135999,20.5980035 213.28,19.89 C213.424001,19.1819965 213.496,18.4560037 213.496,17.712 C213.496,16.9679963 213.424001,16.2360036 213.28,15.516 C213.135999,14.7959964 212.890002,14.1600028 212.542,13.608 C212.193998,13.0559972 211.726003,12.6060017 211.138,12.258 C210.549997,11.9099983 209.824004,11.736 208.96,11.736 C208.095996,11.736 207.376003,11.9099983 206.8,12.258 C206.223997,12.6060017 205.762002,13.0559972 205.414,13.608 C205.065998,14.1600028 204.820001,14.7959964 204.676,15.516 C204.531999,16.2360036 204.46,16.9679963 204.46,17.712 Z M199.348,17.712 C199.348,16.2239926 199.575998,14.8740061 200.032,13.662 C200.488002,12.4499939 201.135996,11.4180043 201.976,10.566 C202.816004,9.71399574 203.823994,9.05400234 205,8.586 C206.176006,8.11799766 207.495993,7.884 208.96,7.884 C210.424007,7.884 211.749994,8.11799766 212.938,8.586 C214.126006,9.05400234 215.139996,9.71399574 215.98,10.566 C216.820004,11.4180043 217.467998,12.4499939 217.924,13.662 C218.380002,14.8740061 218.608,16.2239926 218.608,17.712 C218.608,19.2000074 218.380002,20.543994 217.924,21.744 C217.467998,22.944006 216.820004,23.9699957 215.98,24.822 C215.139996,25.6740043 214.126006,26.3279977 212.938,26.784 C211.749994,27.2400023 210.424007,27.468 208.96,27.468 C207.495993,27.468 206.176006,27.2400023 205,26.784 C203.823994,26.3279977 202.816004,25.6740043 201.976,24.822 C201.135996,23.9699957 200.488002,22.944006 200.032,21.744 C199.575998,20.543994 199.348,19.2000074 199.348,17.712 Z M235.132,17.64 C235.132,16.8719962 235.060001,16.1340035 234.916,15.426 C234.771999,14.7179965 234.526002,14.0940027 234.178,13.554 C233.829998,13.0139973 233.380003,12.5760017 232.828,12.24 C232.275997,11.9039983 231.580004,11.736 230.74,11.736 C229.899996,11.736 229.192003,11.9039983 228.616,12.24 C228.039997,12.5760017 227.578002,13.0199972 227.23,13.572 C226.881998,14.1240028 226.630001,14.7539965 226.474,15.462 C226.317999,16.1700035 226.24,16.9079962 226.24,17.676 C226.24,18.3960036 226.323999,19.1159964 226.492,19.836 C226.660001,20.5560036 226.929998,21.1979972 227.302,21.762 C227.674002,22.3260028 228.141997,22.7819983 228.706,23.13 C229.270003,23.4780017 229.947996,23.652 230.74,23.652 C231.580004,23.652 232.281997,23.4840017 232.846,23.148 C233.410003,22.8119983 233.859998,22.3620028 234.196,21.798 C234.532002,21.2339972 234.771999,20.5920036 234.916,19.872 C235.060001,19.1519964 235.132,18.4080038 235.132,17.64 Z M235.204,24.624 L235.132,24.624 C234.531997,25.632005 233.746005,26.3579978 232.774,26.802 C231.801995,27.2460022 230.704006,27.468 229.48,27.468 C228.087993,27.468 226.864005,27.1980027 225.808,26.658 C224.751995,26.1179973 223.882003,25.3860046 223.198,24.462 C222.513997,23.5379954 221.998002,22.476006 221.65,21.276 C221.301998,20.075994 221.128,18.8280065 221.128,17.532 C221.128,16.2839938 221.301998,15.0780058 221.65,13.914 C221.998002,12.7499942 222.513997,11.7240044 223.198,10.836 C223.882003,9.94799556 224.739995,9.2340027 225.772,8.694 C226.804005,8.1539973 228.003993,7.884 229.372,7.884 C230.476006,7.884 231.525995,8.11799766 232.522,8.586 C233.518005,9.05400234 234.303997,9.74399544 234.88,10.656 L234.952,10.656 L234.952,1.296 L240.064,1.296 L240.064,27 L235.204,27 L235.204,24.624 Z M261.376,27 L256.516,27 L256.516,24.408 L256.408,24.408 C255.759997,25.4880054 254.920005,26.2679976 253.888,26.748 C252.855995,27.2280024 251.800005,27.468 250.72,27.468 C249.351993,27.468 248.230004,27.2880018 247.354,26.928 C246.477996,26.5679982 245.788003,26.0580033 245.284,25.398 C244.779997,24.7379967 244.426001,23.9340047 244.222,22.986 C244.017999,22.0379953 243.916,20.9880058 243.916,19.836 L243.916,8.388 L249.028,8.388 L249.028,18.9 C249.028,20.4360077 249.267998,21.5819962 249.748,22.338 C250.228002,23.0940038 251.079994,23.472 252.304,23.472 C253.696007,23.472 254.703997,23.0580041 255.328,22.23 C255.952003,21.4019959 256.264,20.0400095 256.264,18.144 L256.264,8.388 L261.376,8.388 L261.376,27 Z M265.732,1.296 L270.844,1.296 L270.844,15.084 L277.288,8.388 L283.336,8.388 L276.316,15.228 L284.128,27 L277.936,27 L272.824,18.684 L270.844,20.592 L270.844,27 L265.732,27 L265.732,1.296 Z M292.408,8.388 L296.152,8.388 L296.152,11.808 L292.408,11.808 L292.408,21.024 C292.408,21.8880043 292.551999,22.4639986 292.84,22.752 C293.128001,23.0400014 293.703996,23.184 294.568,23.184 C294.856001,23.184 295.131999,23.1720001 295.396,23.148 C295.660001,23.1239999 295.911999,23.0880002 296.152,23.04 L296.152,27 C295.719998,27.0720004 295.240003,27.1199999 294.712,27.144 C294.183997,27.1680001 293.668003,27.18 293.164,27.18 C292.371996,27.18 291.622004,27.1260005 290.914,27.018 C290.205996,26.9099995 289.582003,26.7000016 289.042,26.388 C288.501997,26.0759984 288.076002,25.6320029 287.764,25.056 C287.451998,24.4799971 287.296,23.7240047 287.296,22.788 L287.296,11.808 L284.2,11.808 L284.2,8.388 L287.296,8.388 L287.296,2.808 L292.408,2.808 L292.408,8.388 Z M311.128,15.696 C310.887999,14.3999935 310.462003,13.4160034 309.85,12.744 C309.237997,12.0719966 308.308006,11.736 307.06,11.736 C306.243996,11.736 305.566003,11.8739986 305.026,12.15 C304.485997,12.4260014 304.054002,12.767998 303.73,13.176 C303.405998,13.584002 303.178001,14.0159977 303.046,14.472 C302.913999,14.9280023 302.836,15.3359982 302.812,15.696 L311.128,15.696 Z M302.812,18.936 C302.884,20.5920083 303.303996,21.7919963 304.072,22.536 C304.840004,23.2800037 305.943993,23.652 307.384,23.652 C308.416005,23.652 309.303996,23.3940026 310.048,22.878 C310.792004,22.3619974 311.247999,21.8160029 311.416,21.24 L315.916,21.24 C315.195996,23.4720112 314.092007,25.0679952 312.604,26.028 C311.115993,26.9880048 309.316011,27.468 307.204,27.468 C305.739993,27.468 304.420006,27.2340023 303.244,26.766 C302.067994,26.2979977 301.072004,25.6320043 300.256,24.768 C299.439996,23.9039957 298.810002,22.872006 298.366,21.672 C297.921998,20.471994 297.7,19.1520072 297.7,17.712 C297.7,16.319993 297.927998,15.024006 298.384,13.824 C298.840002,12.623994 299.487996,11.5860044 300.328,10.71 C301.168004,9.83399562 302.169994,9.14400252 303.334,8.64 C304.498006,8.13599748 305.787993,7.884 307.204,7.884 C308.788008,7.884 310.167994,8.18999694 311.344,8.802 C312.520006,9.41400306 313.485996,10.2359948 314.242,11.268 C314.998004,12.3000052 315.543998,13.4759934 315.88,14.796 C316.216002,16.1160066 316.336,17.4959928 316.24,18.936 L302.812,18.936 Z M319.264,8.388 L324.124,8.388 L324.124,11.844 L324.196,11.844 C324.436001,11.2679971 324.759998,10.7340025 325.168,10.242 C325.576002,9.74999754 326.043997,9.33000174 326.572,8.982 C327.100003,8.63399826 327.663997,8.36400096 328.264,8.172 C328.864003,7.97999904 329.487997,7.884 330.136,7.884 C330.472002,7.884 330.843998,7.9439994 331.252,8.064 L331.252,12.816 C331.011999,12.7679998 330.724002,12.7260002 330.388,12.69 C330.051998,12.6539998 329.728002,12.636 329.416,12.636 C328.479995,12.636 327.688003,12.7919984 327.04,13.104 C326.391997,13.4160016 325.870002,13.8419973 325.474,14.382 C325.077998,14.9220027 324.796001,15.5519964 324.628,16.272 C324.459999,16.9920036 324.376,17.7719958 324.376,18.612 L324.376,27 L319.264,27 L319.264,8.388 Z M333.484,21.456 L339.136,21.456 L339.136,27 L333.484,27 L333.484,21.456 Z" id="Populära-produkter.-Copy-2" fill="#191611" opacity="0.200000003"></path>
            <path d="M602.392,6.268 L598.252,0.148 L601.528,0.148 L604.048,4.252 L606.658,0.148 L609.754,0.148 L605.632,6.286 L610.114,13 L606.748,13 L603.94,8.554 L601.078,13 L597.91,13 L602.392,6.268 Z M611.248,0.148 L614.074,0.148 L614.074,10.624 L620.338,10.624 L620.338,13 L611.248,13 L611.248,0.148 Z M621.544,6.556 C621.58,5.955997 621.729999,5.45800198 621.994,5.062 C622.258001,4.66599802 622.593998,4.3480012 623.002,4.108 C623.410002,3.8679988 623.868997,3.69700051 624.379,3.595 C624.889003,3.49299949 625.401997,3.442 625.918,3.442 C626.386002,3.442 626.859998,3.47499967 627.34,3.541 C627.820002,3.60700033 628.257998,3.73599904 628.654,3.928 C629.050002,4.12000096 629.373999,4.38699829 629.626,4.729 C629.878001,5.07100171 630.004,5.52399718 630.004,6.088 L630.004,10.93 C630.004,11.3500021 630.028,11.7519981 630.076,12.136 C630.124,12.5200019 630.207999,12.807999 630.328,13 L627.736,13 C627.688,12.8559993 627.649,12.7090008 627.619,12.559 C627.589,12.4089992 627.568,12.2560008 627.556,12.1 C627.147998,12.5200021 626.668003,12.8139992 626.116,12.982 C625.563997,13.1500008 625.000003,13.234 624.424,13.234 C623.979998,13.234 623.566002,13.1800005 623.182,13.072 C622.797998,12.9639995 622.462001,12.7960011 622.174,12.568 C621.885999,12.3399989 621.661001,12.0520017 621.499,11.704 C621.336999,11.3559983 621.256,10.9420024 621.256,10.462 C621.256,9.93399736 621.348999,9.49900171 621.535,9.157 C621.721001,8.81499829 621.960999,8.54200102 622.255,8.338 C622.549001,8.13399898 622.884998,7.98100051 623.263,7.879 C623.641002,7.77699949 624.021998,7.6960003 624.406,7.636 C624.790002,7.5759997 625.167998,7.52800018 625.54,7.492 C625.912002,7.45599982 626.241999,7.40200036 626.53,7.33 C626.818001,7.25799964 627.045999,7.15300069 627.214,7.015 C627.382001,6.87699931 627.46,6.67600132 627.448,6.412 C627.448,6.13599862 627.403,5.91700081 627.313,5.755 C627.223,5.59299919 627.103001,5.46700045 626.953,5.377 C626.802999,5.28699955 626.629001,5.22700015 626.431,5.197 C626.232999,5.16699985 626.020001,5.152 625.792,5.152 C625.287997,5.152 624.892001,5.25999892 624.604,5.476 C624.315999,5.69200108 624.148,6.05199748 624.1,6.556 L621.544,6.556 Z M627.448,8.446 C627.339999,8.54200048 627.205001,8.61699973 627.043,8.671 C626.880999,8.72500027 626.707001,8.76999982 626.521,8.806 C626.334999,8.84200018 626.140001,8.87199988 625.936,8.896 C625.731999,8.92000012 625.528001,8.94999982 625.324,8.986 C625.131999,9.02200018 624.943001,9.0699997 624.757,9.13 C624.570999,9.1900003 624.409001,9.27099949 624.271,9.373 C624.132999,9.47500051 624.022,9.60399922 623.938,9.76 C623.854,9.91600078 623.812,10.1139988 623.812,10.354 C623.812,10.5820011 623.854,10.7739992 623.938,10.93 C624.022,11.0860008 624.135999,11.2089996 624.28,11.299 C624.424001,11.3890004 624.591999,11.4519998 624.784,11.488 C624.976001,11.5240002 625.173999,11.542 625.378,11.542 C625.882003,11.542 626.271999,11.4580008 626.548,11.29 C626.824001,11.1219992 627.027999,10.9210012 627.16,10.687 C627.292001,10.4529988 627.373,10.2160012 627.403,9.976 C627.433,9.7359988 627.448,9.54400072 627.448,9.4 L627.448,8.446 Z M631.984,3.694 L634.414,3.694 L634.414,5.422 L634.45,5.422 C634.570001,5.13399856 634.731999,4.86700123 634.936,4.621 C635.140001,4.37499877 635.373999,4.16500087 635.638,3.991 C635.902001,3.81699913 636.183998,3.68200048 636.484,3.586 C636.784002,3.48999952 637.095998,3.442 637.42,3.442 C637.588001,3.442 637.773999,3.4719997 637.978,3.532 L637.978,5.908 C637.857999,5.88399988 637.714001,5.86300009 637.546,5.845 C637.377999,5.82699991 637.216001,5.818 637.06,5.818 C636.591998,5.818 636.196002,5.89599922 635.872,6.052 C635.547998,6.20800078 635.287001,6.42099865 635.089,6.691 C634.890999,6.96100135 634.75,7.2759982 634.666,7.636 C634.582,7.9960018 634.54,8.3859979 634.54,8.806 L634.54,13 L631.984,13 L631.984,3.694 Z M642.82,10.804 C643.180002,10.804 643.497999,10.7320007 643.774,10.588 C644.050001,10.4439993 644.277999,10.2520012 644.458,10.012 C644.638001,9.7719988 644.773,9.49900153 644.863,9.193 C644.953,8.88699847 644.998,8.56600168 644.998,8.23 C644.998,7.84599808 644.962,7.48300171 644.89,7.141 C644.818,6.79899829 644.698001,6.49600132 644.53,6.232 C644.361999,5.96799868 644.140001,5.75800078 643.864,5.602 C643.587999,5.44599922 643.240002,5.368 642.82,5.368 C642.459998,5.368 642.151001,5.43999928 641.893,5.584 C641.634999,5.72800072 641.419001,5.92299877 641.245,6.169 C641.070999,6.41500123 640.945,6.69699841 640.867,7.015 C640.789,7.33300159 640.75,7.66599826 640.75,8.014 C640.75,8.35000168 640.783,8.68299835 640.849,9.013 C640.915,9.34300165 641.028999,9.63999868 641.191,9.904 C641.353001,10.1680013 641.565999,10.3839992 641.83,10.552 C642.094001,10.7200008 642.423998,10.804 642.82,10.804 Z M647.428,12.406 C647.428,12.7780019 647.377001,13.2039976 647.275,13.684 C647.172999,14.1640024 646.954002,14.6109979 646.618,15.025 C646.281998,15.4390021 645.796003,15.7899986 645.16,16.078 C644.523997,16.3660014 643.672005,16.51 642.604,16.51 C642.147998,16.51 641.683002,16.4530006 641.209,16.339 C640.734998,16.2249994 640.303002,16.0480012 639.913,15.808 C639.522998,15.5679988 639.199001,15.2590019 638.941,14.881 C638.682999,14.5029981 638.536,14.0500026 638.5,13.522 L641.038,13.522 C641.158001,14.0020024 641.391998,14.3349991 641.74,14.521 C642.088002,14.7070009 642.489998,14.8 642.946,14.8 C643.666004,14.8 644.190998,14.5840022 644.521,14.152 C644.851002,13.7199978 645.01,13.1740033 644.998,12.514 L644.998,11.29 L644.962,11.29 C644.685999,11.7820025 644.293003,12.1449988 643.783,12.379 C643.272997,12.6130012 642.736003,12.73 642.172,12.73 C641.475997,12.73 640.876003,12.6070012 640.372,12.361 C639.867997,12.1149988 639.454002,11.7790021 639.13,11.353 C638.805998,10.9269979 638.569001,10.4290028 638.419,9.859 C638.268999,9.28899715 638.194,8.68600318 638.194,8.05 C638.194,7.449997 638.280999,6.87100279 638.455,6.313 C638.629001,5.75499721 638.883998,5.26300213 639.22,4.837 C639.556002,4.41099787 639.972998,4.07200126 640.471,3.82 C640.969002,3.56799874 641.541997,3.442 642.19,3.442 C642.802003,3.442 643.338998,3.55599886 643.801,3.784 C644.263002,4.01200114 644.649998,4.3959973 644.962,4.936 L644.998,4.936 L644.998,3.694 L647.428,3.694 L647.428,12.406 Z M655.744,7.348 C655.623999,6.69999676 655.411002,6.20800168 655.105,5.872 C654.798998,5.53599832 654.334003,5.368 653.71,5.368 C653.301998,5.368 652.963001,5.43699931 652.693,5.575 C652.422999,5.71300069 652.207001,5.88399898 652.045,6.088 C651.882999,6.29200102 651.769,6.50799886 651.703,6.736 C651.637,6.96400114 651.598,7.1679991 651.586,7.348 L655.744,7.348 Z M651.586,8.968 C651.622,9.79600414 651.831998,10.3959981 652.216,10.768 C652.600002,11.1400019 653.151996,11.326 653.872,11.326 C654.388003,11.326 654.831998,11.1970013 655.204,10.939 C655.576002,10.6809987 655.804,10.4080014 655.888,10.12 L658.138,10.12 C657.777998,11.2360056 657.226004,12.0339976 656.482,12.514 C655.737996,12.9940024 654.838005,13.234 653.782,13.234 C653.049996,13.234 652.390003,13.1170012 651.802,12.883 C651.213997,12.6489988 650.716002,12.3160022 650.308,11.884 C649.899998,11.4519978 649.585001,10.936003 649.363,10.336 C649.140999,9.735997 649.03,9.0760036 649.03,8.356 C649.03,7.65999652 649.143999,7.012003 649.372,6.412 C649.600001,5.811997 649.923998,5.29300219 650.344,4.855 C650.764002,4.41699781 651.264997,4.07200126 651.847,3.82 C652.429003,3.56799874 653.073996,3.442 653.782,3.442 C654.574004,3.442 655.263997,3.59499847 655.852,3.901 C656.440003,4.20700153 656.922998,4.61799742 657.301,5.134 C657.679002,5.65000258 657.951999,6.2379967 658.12,6.898 C658.288001,7.5580033 658.348,8.2479964 658.3,8.968 L651.586,8.968 Z M659.938,10.228 L662.764,10.228 L662.764,13 C662.764,13.408002 662.689001,13.7829983 662.539,14.125 C662.388999,14.4670017 662.188001,14.7639987 661.936,15.016 C661.683999,15.2680013 661.387002,15.4749992 661.045,15.637 C660.702998,15.7990008 660.340002,15.9099997 659.956,15.97 L659.956,14.674 C660.136001,14.6379998 660.306999,14.5660005 660.469,14.458 C660.631001,14.3499995 660.771999,14.2210007 660.892,14.071 C661.012001,13.9209993 661.102,13.7530009 661.162,13.567 C661.222,13.3809991 661.246,13.192001 661.234,13 L659.938,13 L659.938,10.228 Z M673.996,6.466 C673.659998,6.466 673.363001,6.52899937 673.105,6.655 C672.846999,6.78100063 672.634001,6.95199892 672.466,7.168 C672.297999,7.38400108 672.172,7.63299859 672.088,7.915 C672.004,8.19700141 671.962,8.49399844 671.962,8.806 C671.962,9.09400144 672.007,9.37899859 672.097,9.661 C672.187,9.94300141 672.318999,10.1949989 672.493,10.417 C672.667001,10.6390011 672.879999,10.8159993 673.132,10.948 C673.384001,11.0800007 673.671998,11.146 673.996,11.146 C674.308002,11.146 674.580999,11.0800007 674.815,10.948 C675.049001,10.8159993 675.249999,10.6420011 675.418,10.426 C675.586001,10.2099989 675.712,9.96400138 675.796,9.688 C675.88,9.41199862 675.922,9.13000144 675.922,8.842 C675.922,8.5419985 675.883,8.25100141 675.805,7.969 C675.727,7.68699859 675.610001,7.43500111 675.454,7.213 C675.297999,6.99099889 675.097001,6.81100069 674.851,6.673 C674.604999,6.53499931 674.320002,6.466 673.996,6.466 Z M675.832,3.64 C675.748,3.2199979 675.556002,2.85400156 675.256,2.542 C674.955998,2.22999844 674.584002,2.074 674.14,2.074 C673.683998,2.074 673.303002,2.20899865 672.997,2.479 C672.690998,2.74900135 672.448001,3.07899805 672.268,3.469 C672.087999,3.85900195 671.956,4.27599778 671.872,4.72 C671.788,5.16400222 671.74,5.55999826 671.728,5.908 L671.764,5.944 C672.112002,5.43999748 672.519998,5.08000108 672.988,4.864 C673.456002,4.64799892 673.995997,4.54 674.608,4.54 C675.148003,4.54 675.675997,4.65699883 676.192,4.891 C676.708003,5.12500117 677.145998,5.43999802 677.506,5.836 C677.842002,6.22000192 678.087999,6.65799754 678.244,7.15 C678.400001,7.64200246 678.478,8.13999748 678.478,8.644 C678.478,9.29200324 678.373001,9.89499721 678.163,10.453 C677.952999,11.0110028 677.653002,11.4969979 677.263,11.911 C676.872998,12.3250021 676.408003,12.6489988 675.868,12.883 C675.327997,13.1170012 674.728003,13.234 674.068,13.234 C673.119995,13.234 672.334003,13.0450019 671.71,12.667 C671.085997,12.2889981 670.588002,11.7940031 670.216,11.182 C669.843998,10.5699969 669.586001,9.87700387 669.442,9.103 C669.297999,8.32899613 669.226,7.54000402 669.226,6.736 C669.226,5.9559961 669.315999,5.1760039 669.496,4.396 C669.676001,3.6159961 669.963998,2.91100315 670.36,2.281 C670.756002,1.65099685 671.265997,1.13800198 671.89,0.742 C672.514003,0.34599802 673.275996,0.148 674.176,0.148 C674.716003,0.148 675.219998,0.22599922 675.688,0.382 C676.156002,0.53800078 676.569998,0.76299853 676.93,1.057 C677.290002,1.35100147 677.583999,1.71399784 677.812,2.146 C678.040001,2.57800216 678.19,3.07599718 678.262,3.64 L675.832,3.64 Z M687.928,5.962 L691.024,5.962 C691.672003,5.962 692.157998,5.81800144 692.482,5.53 C692.806002,5.24199856 692.968,4.77400324 692.968,4.126 C692.968,3.50199688 692.806002,3.04900141 692.482,2.767 C692.157998,2.48499859 691.672003,2.344 691.024,2.344 L687.928,2.344 L687.928,5.962 Z M685.102,0.148 L692.032,0.148 C692.608003,0.148 693.126998,0.24099907 693.589,0.427 C694.051002,0.61300093 694.446998,0.86799838 694.777,1.192 C695.107002,1.51600162 695.358999,1.89099787 695.533,2.317 C695.707001,2.74300213 695.794,3.20199754 695.794,3.694 C695.794,4.45000378 695.635002,5.10399724 695.317,5.656 C694.998998,6.20800276 694.480004,6.62799856 693.76,6.916 L693.76,6.952 C694.108002,7.04800048 694.395999,7.19499901 694.624,7.393 C694.852001,7.59100099 695.037999,7.82499865 695.182,8.095 C695.326001,8.36500135 695.431,8.66199838 695.497,8.986 C695.563,9.31000162 695.608,9.63399838 695.632,9.958 C695.644,10.162001 695.656,10.4019986 695.668,10.678 C695.68,10.9540014 695.701,11.2359986 695.731,11.524 C695.761,11.8120014 695.809,12.0849987 695.875,12.343 C695.941,12.6010013 696.039999,12.8199991 696.172,13 L693.346,13 C693.189999,12.591998 693.094,12.1060028 693.058,11.542 C693.022,10.9779972 692.968,10.4380026 692.896,9.922 C692.8,9.24999664 692.596002,8.75800156 692.284,8.446 C691.971998,8.13399844 691.462004,7.978 690.754,7.978 L687.928,7.978 L687.928,13 L685.102,13 L685.102,0.148 Z M698.098,0.148 L707.71,0.148 L707.71,2.524 L700.924,2.524 L700.924,5.278 L707.152,5.278 L707.152,7.474 L700.924,7.474 L700.924,10.624 L707.854,10.624 L707.854,13 L698.098,13 L698.098,0.148 Z M709.564,3.694 L711.976,3.694 L711.976,4.954 L712.012,4.954 C712.348002,4.4739976 712.752998,4.10200132 713.227,3.838 C713.701002,3.57399868 714.243997,3.442 714.856,3.442 C715.444003,3.442 715.980998,3.55599886 716.467,3.784 C716.953002,4.01200114 717.321999,4.41399712 717.574,4.99 C717.850001,4.58199796 718.224998,4.22200156 718.699,3.91 C719.173002,3.59799844 719.733997,3.442 720.382,3.442 C720.874002,3.442 721.329998,3.5019994 721.75,3.622 C722.170002,3.7420006 722.529999,3.93399868 722.83,4.198 C723.130001,4.46200132 723.363999,4.80699787 723.532,5.233 C723.700001,5.65900213 723.784,6.171997 723.784,6.772 L723.784,13 L721.228,13 L721.228,7.726 C721.228,7.41399844 721.216,7.12000138 721.192,6.844 C721.168,6.56799862 721.102001,6.32800102 720.994,6.124 C720.885999,5.91999898 720.727001,5.7580006 720.517,5.638 C720.306999,5.5179994 720.022002,5.458 719.662,5.458 C719.301998,5.458 719.011001,5.52699931 718.789,5.665 C718.566999,5.80300069 718.393001,5.98299889 718.267,6.205 C718.140999,6.42700111 718.057,6.67899859 718.015,6.961 C717.973,7.24300141 717.952,7.52799856 717.952,7.816 L717.952,13 L715.396,13 L715.396,7.78 C715.396,7.50399862 715.39,7.23100135 715.378,6.961 C715.366,6.69099865 715.315,6.44200114 715.225,6.214 C715.135,5.98599886 714.985001,5.80300069 714.775,5.665 C714.564999,5.52699931 714.256002,5.458 713.848,5.458 C713.727999,5.458 713.569001,5.48499973 713.371,5.539 C713.172999,5.59300027 712.981001,5.69499925 712.795,5.845 C712.608999,5.99500075 712.450001,6.21099859 712.318,6.493 C712.185999,6.77500141 712.12,7.14399772 712.12,7.6 L712.12,13 L709.564,13 L709.564,3.694 Z M598.144,36.148 L608.548,36.148 L608.548,38.092 L604.462,38.092 L604.462,49 L602.212,49 L602.212,38.092 L598.144,38.092 L598.144,36.148 Z M614.02,38.704 L614.416,37.534 L616.396,38.308 L616.396,36.148 L617.62,36.148 L617.62,38.308 L619.582,37.534 L620.014,38.704 L617.962,39.388 L619.222,41.08 L618.268,41.782 L616.99,40.018 L615.766,41.782 L614.758,41.08 L616.018,39.388 L614.02,38.704 Z M632.452,39.586 C632.404,39.0699974 632.221002,38.6530016 631.903,38.335 C631.584998,38.0169984 631.156003,37.858 630.616,37.858 C630.243998,37.858 629.923001,37.9269993 629.653,38.065 C629.382999,38.2030007 629.155001,38.3859989 628.969,38.614 C628.782999,38.8420011 628.633001,39.1029985 628.519,39.397 C628.404999,39.6910015 628.312,39.9999984 628.24,40.324 C628.168,40.6480016 628.117,40.9689984 628.087,41.287 C628.057,41.6050016 628.03,41.9019986 628.006,42.178 L628.042,42.214 C628.318001,41.7099975 628.698998,41.3350012 629.185,41.089 C629.671002,40.8429988 630.195997,40.72 630.76,40.72 C631.384003,40.72 631.941998,40.8279989 632.434,41.044 C632.926002,41.2600011 633.342998,41.5569981 633.685,41.935 C634.027002,42.3130019 634.287999,42.7599974 634.468,43.276 C634.648001,43.7920026 634.738,44.349997 634.738,44.95 C634.738,45.5620031 634.639001,46.1289974 634.441,46.651 C634.242999,47.1730026 633.958002,47.6289981 633.586,48.019 C633.213998,48.4090019 632.770003,48.7119989 632.254,48.928 C631.737997,49.1440011 631.168003,49.252 630.544,49.252 C629.619995,49.252 628.861003,49.0810017 628.267,48.739 C627.672997,48.3969983 627.205002,47.929003 626.863,47.335 C626.520998,46.740997 626.284001,46.045004 626.152,45.247 C626.019999,44.448996 625.954,43.5880046 625.954,42.664 C625.954,41.9079962 626.034999,41.1460038 626.197,40.378 C626.359001,39.6099962 626.625998,38.9110031 626.998,38.281 C627.370002,37.6509968 627.858997,37.138002 628.465,36.742 C629.071003,36.345998 629.817996,36.148 630.706,36.148 C631.210003,36.148 631.683998,36.2319992 632.128,36.4 C632.572002,36.5680008 632.964998,36.8019985 633.307,37.102 C633.649002,37.4020015 633.927999,37.7619979 634.144,38.182 C634.360001,38.6020021 634.48,39.0699974 634.504,39.586 L632.452,39.586 Z M630.472,47.542 C630.844002,47.542 631.167999,47.4670007 631.444,47.317 C631.720001,47.1669993 631.950999,46.9720012 632.137,46.732 C632.323001,46.4919988 632.461,46.2130016 632.551,45.895 C632.641,45.5769984 632.686,45.2500017 632.686,44.914 C632.686,44.5779983 632.641,44.2540016 632.551,43.942 C632.461,43.6299984 632.323001,43.3570012 632.137,43.123 C631.950999,42.8889988 631.720001,42.7000007 631.444,42.556 C631.167999,42.4119993 630.844002,42.34 630.472,42.34 C630.099998,42.34 629.773001,42.4089993 629.491,42.547 C629.208999,42.6850007 628.972001,42.8709988 628.78,43.105 C628.587999,43.3390012 628.444,43.6119984 628.348,43.924 C628.252,44.2360016 628.204,44.5659983 628.204,44.914 C628.204,45.2620017 628.252,45.5919984 628.348,45.904 C628.444,46.2160016 628.587999,46.4949988 628.78,46.741 C628.972001,46.9870012 629.208999,47.1819993 629.491,47.326 C629.773001,47.4700007 630.099998,47.542 630.472,47.542 Z M636.718,36.148 L642.856,36.148 C644.272007,36.148 645.333996,36.4539969 646.042,37.066 C646.750004,37.6780031 647.104,38.5299945 647.104,39.622 C647.104,40.2340031 647.014001,40.740998 646.834,41.143 C646.653999,41.545002 646.444001,41.8689988 646.204,42.115 C645.963999,42.3610012 645.727001,42.5379995 645.493,42.646 C645.258999,42.7540005 645.088001,42.8259998 644.98,42.862 L644.98,42.898 C645.172001,42.9220001 645.378999,42.9819995 645.601,43.078 C645.823001,43.1740005 646.029999,43.3269989 646.222,43.537 C646.414001,43.7470011 646.572999,44.0199983 646.699,44.356 C646.825001,44.6920017 646.888,45.1119975 646.888,45.616 C646.888,46.3720038 646.944999,47.0589969 647.059,47.677 C647.173001,48.2950031 647.349999,48.7359987 647.59,49 L645.178,49 C645.009999,48.7239986 644.911,48.4180017 644.881,48.082 C644.851,47.7459983 644.836,47.4220016 644.836,47.11 C644.836,46.5219971 644.8,46.0150021 644.728,45.589 C644.656,45.1629979 644.524001,44.8090014 644.332,44.527 C644.139999,44.2449986 643.879002,44.0380007 643.549,43.906 C643.218998,43.7739993 642.796003,43.708 642.28,43.708 L638.968,43.708 L638.968,49 L636.718,49 L636.718,36.148 Z M638.968,41.998 L642.658,41.998 C643.378004,41.998 643.923998,41.8270017 644.296,41.485 C644.668002,41.1429983 644.854,40.6300034 644.854,39.946 C644.854,39.537998 644.794001,39.2050013 644.674,38.947 C644.553999,38.6889987 644.389001,38.4880007 644.179,38.344 C643.968999,38.1999993 643.729001,38.1040002 643.459,38.056 C643.188999,38.0079998 642.910001,37.984 642.622,37.984 L638.968,37.984 L638.968,41.998 Z M598.882,79.132 L604.12,79.132 L604.12,81.076 L598.882,81.076 L598.882,79.132 Z M610.006,72.148 C610.906004,72.148 611.640997,72.3549979 612.211,72.769 C612.781003,73.1830021 613.224998,73.7109968 613.543,74.353 C613.861002,74.9950032 614.076999,75.6999962 614.191,76.468 C614.305001,77.2360038 614.362,77.9799964 614.362,78.7 C614.362,79.4200036 614.305001,80.1639962 614.191,80.932 C614.076999,81.7000038 613.861002,82.4049968 613.543,83.047 C613.224998,83.6890032 612.781003,84.2169979 612.211,84.631 C611.640997,85.0450021 610.906004,85.252 610.006,85.252 C609.105996,85.252 608.371003,85.0450021 607.801,84.631 C607.230997,84.2169979 606.787002,83.6890032 606.469,83.047 C606.150998,82.4049968 605.935001,81.7000038 605.821,80.932 C605.706999,80.1639962 605.65,79.4200036 605.65,78.7 C605.65,77.9799964 605.706999,77.2360038 605.821,76.468 C605.935001,75.6999962 606.150998,74.9950032 606.469,74.353 C606.787002,73.7109968 607.230997,73.1830021 607.801,72.769 C608.371003,72.3549979 609.105996,72.148 610.006,72.148 Z M610.006,83.542 C610.450002,83.542 610.821998,83.4130013 611.122,83.155 C611.422002,82.8969987 611.658999,82.5490022 611.833,82.111 C612.007001,81.6729978 612.13,81.1600029 612.202,80.572 C612.274,79.9839971 612.31,79.3600033 612.31,78.7 C612.31,78.0399967 612.274,77.4190029 612.202,76.837 C612.13,76.2549971 612.007001,75.7420022 611.833,75.298 C611.658999,74.8539978 611.422002,74.5030013 611.122,74.245 C610.821998,73.9869987 610.450002,73.858 610.006,73.858 C609.549998,73.858 609.175001,73.9869987 608.881,74.245 C608.586999,74.5030013 608.353001,74.8539978 608.179,75.298 C608.004999,75.7420022 607.882,76.2549971 607.81,76.837 C607.738,77.4190029 607.702,78.0399967 607.702,78.7 C607.702,79.3600033 607.738,79.9839971 607.81,80.572 C607.882,81.1600029 608.004999,81.6729978 608.179,82.111 C608.353001,82.5490022 608.586999,82.8969987 608.881,83.155 C609.175001,83.4130013 609.549998,83.542 610.006,83.542 Z M616.252,82.57 L618.754,82.57 L618.754,85 L616.252,85 L616.252,82.57 Z M625.018,72.148 C625.918005,72.148 626.652997,72.3549979 627.223,72.769 C627.793003,73.1830021 628.236998,73.7109968 628.555,74.353 C628.873002,74.9950032 629.088999,75.6999962 629.203,76.468 C629.317001,77.2360038 629.374,77.9799964 629.374,78.7 C629.374,79.4200036 629.317001,80.1639962 629.203,80.932 C629.088999,81.7000038 628.873002,82.4049968 628.555,83.047 C628.236998,83.6890032 627.793003,84.2169979 627.223,84.631 C626.652997,85.0450021 625.918005,85.252 625.018,85.252 C624.117995,85.252 623.383003,85.0450021 622.813,84.631 C622.242997,84.2169979 621.799002,83.6890032 621.481,83.047 C621.162998,82.4049968 620.947001,81.7000038 620.833,80.932 C620.718999,80.1639962 620.662,79.4200036 620.662,78.7 C620.662,77.9799964 620.718999,77.2360038 620.833,76.468 C620.947001,75.6999962 621.162998,74.9950032 621.481,74.353 C621.799002,73.7109968 622.242997,73.1830021 622.813,72.769 C623.383003,72.3549979 624.117995,72.148 625.018,72.148 Z M625.018,83.542 C625.462002,83.542 625.833999,83.4130013 626.134,83.155 C626.434001,82.8969987 626.670999,82.5490022 626.845,82.111 C627.019001,81.6729978 627.142,81.1600029 627.214,80.572 C627.286,79.9839971 627.322,79.3600033 627.322,78.7 C627.322,78.0399967 627.286,77.4190029 627.214,76.837 C627.142,76.2549971 627.019001,75.7420022 626.845,75.298 C626.670999,74.8539978 626.434001,74.5030013 626.134,74.245 C625.833999,73.9869987 625.462002,73.858 625.018,73.858 C624.561998,73.858 624.187001,73.9869987 623.893,74.245 C623.598999,74.5030013 623.365001,74.8539978 623.191,75.298 C623.016999,75.7420022 622.894,76.2549971 622.822,76.837 C622.75,77.4190029 622.714,78.0399967 622.714,78.7 C622.714,79.3600033 622.75,79.9839971 622.822,80.572 C622.894,81.1600029 623.016999,81.6729978 623.191,82.111 C623.365001,82.5490022 623.598999,82.8969987 623.893,83.155 C624.187001,83.4130013 624.561998,83.542 625.018,83.542 Z M639.328,85 L630.724,85 C630.736,83.9559948 630.987998,83.0440039 631.48,82.264 C631.972002,81.4839961 632.643996,80.8060029 633.496,80.23 C633.904002,79.9299985 634.329998,79.6390014 634.774,79.357 C635.218002,79.0749986 635.625998,78.7720016 635.998,78.448 C636.370002,78.1239984 636.675999,77.7730019 636.916,77.395 C637.156001,77.0169981 637.282,76.5820025 637.294,76.09 C637.294,75.8619989 637.267,75.6190013 637.213,75.361 C637.159,75.1029987 637.054001,74.8630011 636.898,74.641 C636.741999,74.4189989 636.526001,74.2330007 636.25,74.083 C635.973999,73.9329993 635.614002,73.858 635.17,73.858 C634.761998,73.858 634.423001,73.9389992 634.153,74.101 C633.882999,74.2630008 633.667001,74.4849986 633.505,74.767 C633.342999,75.0490014 633.223,75.3819981 633.145,75.766 C633.067,76.1500019 633.022,76.5639978 633.01,77.008 L630.958,77.008 C630.958,76.3119965 631.050999,75.667003 631.237,75.073 C631.423001,74.478997 631.701998,73.9660022 632.074,73.534 C632.446002,73.1019978 632.898997,72.7630012 633.433,72.517 C633.967003,72.2709988 634.587996,72.148 635.296,72.148 C636.064004,72.148 636.705997,72.2739987 637.222,72.526 C637.738003,72.7780013 638.154998,73.0959981 638.473,73.48 C638.791002,73.8640019 639.015999,74.2809978 639.148,74.731 C639.280001,75.1810022 639.346,75.609998 639.346,76.018 C639.346,76.5220025 639.268001,76.977998 639.112,77.386 C638.955999,77.794002 638.746001,78.1689983 638.482,78.511 C638.217999,78.8530017 637.918002,79.1679986 637.582,79.456 C637.245998,79.7440014 636.898002,80.0139987 636.538,80.266 C636.177998,80.5180013 635.818002,80.7579989 635.458,80.986 C635.097998,81.2140011 634.765002,81.4419989 634.459,81.67 C634.152998,81.8980011 633.886001,82.1349988 633.658,82.381 C633.429999,82.6270012 633.274,82.8879986 633.19,83.164 L639.328,83.164 L639.328,85 Z M645.376,74.704 L645.772,73.534 L647.752,74.308 L647.752,72.148 L648.976,72.148 L648.976,74.308 L650.938,73.534 L651.37,74.704 L649.318,75.388 L650.578,77.08 L649.624,77.782 L648.346,76.018 L647.122,77.782 L646.114,77.08 L647.374,75.388 L645.376,74.704 Z M660.802,77.62 C661.138002,77.6320001 661.473998,77.6080003 661.81,77.548 C662.146002,77.4879997 662.445999,77.3830008 662.71,77.233 C662.974001,77.0829992 663.186999,76.8760013 663.349,76.612 C663.511001,76.3479987 663.592,76.0240019 663.592,75.64 C663.592,75.0999973 663.409002,74.6680016 663.043,74.344 C662.676998,74.0199984 662.206003,73.858 661.63,73.858 C661.269998,73.858 660.958001,73.9299993 660.694,74.074 C660.429999,74.2180007 660.211001,74.4129988 660.037,74.659 C659.862999,74.9050012 659.734,75.1809985 659.65,75.487 C659.566,75.7930015 659.53,76.1079984 659.542,76.432 L657.49,76.432 C657.514,75.8199969 657.627999,75.2530026 657.832,74.731 C658.036001,74.2089974 658.314998,73.7560019 658.669,73.372 C659.023002,72.9879981 659.451997,72.6880011 659.956,72.472 C660.460003,72.2559989 661.029997,72.148 661.666,72.148 C662.158002,72.148 662.640998,72.2199993 663.115,72.364 C663.589002,72.5080007 664.014998,72.7179986 664.393,72.994 C664.771002,73.2700014 665.073999,73.6209979 665.302,74.047 C665.530001,74.4730021 665.644,74.9619972 665.644,75.514 C665.644,76.1500032 665.500001,76.7049976 665.212,77.179 C664.923999,77.6530024 664.474003,77.9979989 663.862,78.214 L663.862,78.25 C664.582004,78.3940007 665.142998,78.7509971 665.545,79.321 C665.947002,79.8910028 666.148,80.5839959 666.148,81.4 C666.148,82.000003 666.028001,82.5369976 665.788,83.011 C665.547999,83.4850024 665.224002,83.8869983 664.816,84.217 C664.407998,84.5470016 663.934003,84.8019991 663.394,84.982 C662.853997,85.1620009 662.284003,85.252 661.684,85.252 C660.951996,85.252 660.313003,85.1470011 659.767,84.937 C659.220997,84.726999 658.765002,84.4300019 658.399,84.046 C658.032998,83.6619981 657.754001,83.2000027 657.562,82.66 C657.369999,82.1199973 657.268,81.5200033 657.256,80.86 L659.308,80.86 C659.284,81.6280038 659.472998,82.2669974 659.875,82.777 C660.277002,83.2870026 660.879996,83.542 661.684,83.542 C662.368003,83.542 662.940998,83.347002 663.403,82.957 C663.865002,82.5669981 664.096,82.0120036 664.096,81.292 C664.096,80.7999975 664.000001,80.4100014 663.808,80.122 C663.615999,79.8339986 663.364002,79.6150008 663.052,79.465 C662.739998,79.3149992 662.389002,79.2220002 661.999,79.186 C661.608998,79.1499998 661.210002,79.1379999 660.802,79.15 L660.802,77.62 Z M673.816,75.586 C673.768,75.0699974 673.585002,74.6530016 673.267,74.335 C672.948998,74.0169984 672.520003,73.858 671.98,73.858 C671.607998,73.858 671.287001,73.9269993 671.017,74.065 C670.746999,74.2030007 670.519001,74.3859989 670.333,74.614 C670.146999,74.8420011 669.997001,75.1029985 669.883,75.397 C669.768999,75.6910015 669.676,75.9999984 669.604,76.324 C669.532,76.6480016 669.481,76.9689984 669.451,77.287 C669.421,77.6050016 669.394,77.9019986 669.37,78.178 L669.406,78.214 C669.682001,77.7099975 670.062998,77.3350012 670.549,77.089 C671.035002,76.8429988 671.559997,76.72 672.124,76.72 C672.748003,76.72 673.305998,76.8279989 673.798,77.044 C674.290002,77.2600011 674.706998,77.5569981 675.049,77.935 C675.391002,78.3130019 675.651999,78.7599974 675.832,79.276 C676.012001,79.7920026 676.102,80.349997 676.102,80.95 C676.102,81.5620031 676.003001,82.1289974 675.805,82.651 C675.606999,83.1730026 675.322002,83.6289981 674.95,84.019 C674.577998,84.4090019 674.134003,84.7119989 673.618,84.928 C673.101997,85.1440011 672.532003,85.252 671.908,85.252 C670.983995,85.252 670.225003,85.0810017 669.631,84.739 C669.036997,84.3969983 668.569002,83.929003 668.227,83.335 C667.884998,82.740997 667.648001,82.045004 667.516,81.247 C667.383999,80.448996 667.318,79.5880046 667.318,78.664 C667.318,77.9079962 667.398999,77.1460038 667.561,76.378 C667.723001,75.6099962 667.989998,74.9110031 668.362,74.281 C668.734002,73.6509968 669.222997,73.138002 669.829,72.742 C670.435003,72.345998 671.181996,72.148 672.07,72.148 C672.574003,72.148 673.047998,72.2319992 673.492,72.4 C673.936002,72.5680008 674.328998,72.8019985 674.671,73.102 C675.013002,73.4020015 675.291999,73.7619979 675.508,74.182 C675.724001,74.6020021 675.844,75.0699974 675.868,75.586 L673.816,75.586 Z M671.836,83.542 C672.208002,83.542 672.531999,83.4670007 672.808,83.317 C673.084001,83.1669993 673.314999,82.9720012 673.501,82.732 C673.687001,82.4919988 673.825,82.2130016 673.915,81.895 C674.005,81.5769984 674.05,81.2500017 674.05,80.914 C674.05,80.5779983 674.005,80.2540016 673.915,79.942 C673.825,79.6299984 673.687001,79.3570012 673.501,79.123 C673.314999,78.8889988 673.084001,78.7000007 672.808,78.556 C672.531999,78.4119993 672.208002,78.34 671.836,78.34 C671.463998,78.34 671.137001,78.4089993 670.855,78.547 C670.572999,78.6850007 670.336001,78.8709988 670.144,79.105 C669.951999,79.3390012 669.808,79.6119984 669.712,79.924 C669.616,80.2360016 669.568,80.5659983 669.568,80.914 C669.568,81.2620017 669.616,81.5919984 669.712,81.904 C669.808,82.2160016 669.951999,82.4949988 670.144,82.741 C670.336001,82.9870012 670.572999,83.1819993 670.855,83.326 C671.137001,83.4700007 671.463998,83.542 671.836,83.542 Z M691.654,83.182 L682.582,83.182 L682.582,81.346 L691.654,81.346 L691.654,83.182 Z M691.654,79.546 L682.582,79.546 L682.582,77.71 L691.654,77.71 L691.654,79.546 Z M698.404,79.132 L703.642,79.132 L703.642,81.076 L698.404,81.076 L698.404,79.132 Z M709.528,72.148 C710.428004,72.148 711.162997,72.3549979 711.733,72.769 C712.303003,73.1830021 712.746998,73.7109968 713.065,74.353 C713.383002,74.9950032 713.598999,75.6999962 713.713,76.468 C713.827001,77.2360038 713.884,77.9799964 713.884,78.7 C713.884,79.4200036 713.827001,80.1639962 713.713,80.932 C713.598999,81.7000038 713.383002,82.4049968 713.065,83.047 C712.746998,83.6890032 712.303003,84.2169979 711.733,84.631 C711.162997,85.0450021 710.428004,85.252 709.528,85.252 C708.627995,85.252 707.893003,85.0450021 707.323,84.631 C706.752997,84.2169979 706.309002,83.6890032 705.991,83.047 C705.672998,82.4049968 705.457001,81.7000038 705.343,80.932 C705.228999,80.1639962 705.172,79.4200036 705.172,78.7 C705.172,77.9799964 705.228999,77.2360038 705.343,76.468 C705.457001,75.6999962 705.672998,74.9950032 705.991,74.353 C706.309002,73.7109968 706.752997,73.1830021 707.323,72.769 C707.893003,72.3549979 708.627995,72.148 709.528,72.148 Z M709.528,83.542 C709.972002,83.542 710.343999,83.4130013 710.644,83.155 C710.944002,82.8969987 711.180999,82.5490022 711.355,82.111 C711.529001,81.6729978 711.652,81.1600029 711.724,80.572 C711.796,79.9839971 711.832,79.3600033 711.832,78.7 C711.832,78.0399967 711.796,77.4190029 711.724,76.837 C711.652,76.2549971 711.529001,75.7420022 711.355,75.298 C711.180999,74.8539978 710.944002,74.5030013 710.644,74.245 C710.343999,73.9869987 709.972002,73.858 709.528,73.858 C709.071998,73.858 708.697001,73.9869987 708.403,74.245 C708.108999,74.5030013 707.875001,74.8539978 707.701,75.298 C707.526999,75.7420022 707.404,76.2549971 707.332,76.837 C707.26,77.4190029 707.224,78.0399967 707.224,78.7 C707.224,79.3600033 707.26,79.9839971 707.332,80.572 C707.404,81.1600029 707.526999,81.6729978 707.701,82.111 C707.875001,82.5490022 708.108999,82.8969987 708.403,83.155 C708.697001,83.4130013 709.071998,83.542 709.528,83.542 Z M715.774,82.57 L718.276,82.57 L718.276,85 L715.774,85 L715.774,82.57 Z M720.166,72.4 L728.788,72.4 L728.788,74.11 C728.127997,74.8540037 727.528003,75.624996 726.988,76.423 C726.447997,77.221004 725.977002,78.0669955 725.575,78.961 C725.172998,79.8550045 724.846001,80.799995 724.594,81.796 C724.341999,82.792005 724.174,83.8599943 724.09,85 L721.84,85 C721.912,84.003995 722.082999,83.0200049 722.353,82.048 C722.623001,81.0759951 722.970998,80.1340046 723.397,79.222 C723.823002,78.3099954 724.317997,77.4340042 724.882,76.594 C725.446003,75.7539958 726.051997,74.9680037 726.7,74.236 L720.166,74.236 L720.166,72.4 Z M738.85,85 L730.246,85 C730.258,83.9559948 730.509998,83.0440039 731.002,82.264 C731.494002,81.4839961 732.165996,80.8060029 733.018,80.23 C733.426002,79.9299985 733.851998,79.6390014 734.296,79.357 C734.740002,79.0749986 735.147998,78.7720016 735.52,78.448 C735.892002,78.1239984 736.197999,77.7730019 736.438,77.395 C736.678001,77.0169981 736.804,76.5820025 736.816,76.09 C736.816,75.8619989 736.789,75.6190013 736.735,75.361 C736.681,75.1029987 736.576001,74.8630011 736.42,74.641 C736.263999,74.4189989 736.048001,74.2330007 735.772,74.083 C735.495999,73.9329993 735.136002,73.858 734.692,73.858 C734.283998,73.858 733.945001,73.9389992 733.675,74.101 C733.404999,74.2630008 733.189001,74.4849986 733.027,74.767 C732.864999,75.0490014 732.745,75.3819981 732.667,75.766 C732.589,76.1500019 732.544,76.5639978 732.532,77.008 L730.48,77.008 C730.48,76.3119965 730.572999,75.667003 730.759,75.073 C730.945001,74.478997 731.223998,73.9660022 731.596,73.534 C731.968002,73.1019978 732.420997,72.7630012 732.955,72.517 C733.489003,72.2709988 734.109996,72.148 734.818,72.148 C735.586004,72.148 736.227997,72.2739987 736.744,72.526 C737.260003,72.7780013 737.676998,73.0959981 737.995,73.48 C738.313002,73.8640019 738.537999,74.2809978 738.67,74.731 C738.802001,75.1810022 738.868,75.609998 738.868,76.018 C738.868,76.5220025 738.790001,76.977998 738.634,77.386 C738.477999,77.794002 738.268001,78.1689983 738.004,78.511 C737.739999,78.8530017 737.440002,79.1679986 737.104,79.456 C736.767998,79.7440014 736.420002,80.0139987 736.06,80.266 C735.699998,80.5180013 735.340002,80.7579989 734.98,80.986 C734.619998,81.2140011 734.287002,81.4419989 733.981,81.67 C733.674998,81.8980011 733.408001,82.1349988 733.18,82.381 C732.951999,82.6270012 732.796,82.8879986 732.712,83.164 L738.85,83.164 L738.85,85 Z" id="XLarge,-6-REm-T-*-6R" fill="#000000"></path>
        </g>
    </g>
</svg>