<?xml version="1.0" encoding="UTF-8"?>
<svg width="174px" height="235px" viewBox="0 0 174 235" version="1.1" xmlns="http://www.w3.org/2000/svg" xmlns:xlink="http://www.w3.org/1999/xlink">
    <!-- Generator: Sketch 49.3 (51167) - http://www.bohemiancoding.com/sketch -->
    <title>Type_Roboto</title>
    <desc>Created with Sketch.</desc>
    <defs></defs>
    <g id="Sketches" stroke="none" stroke-width="1" fill="none" fill-rule="evenodd">
        <g id="Type_Roboto" fill="#000000">
            <g id="Group-5">
                <path d="M9.47379064,129.404242 L5.2729818,129.404242 L5.2729818,138.652956 L0,138.652956 L0,113.388175 L9.50894385,113.388175 C12.5321352,113.388175 14.8639416,114.053335 16.504433,115.383676 C18.1449245,116.714017 18.9651579,118.593818 18.9651579,121.023136 C18.9651579,122.746795 18.5872646,124.18412 17.8314668,125.335154 C17.075669,126.486188 15.9302716,127.402953 14.3952403,128.085476 L19.9318712,138.410026 L19.9318712,138.652956 L14.2722041,138.652956 L9.47379064,129.404242 Z M5.2729818,125.187661 L9.52652045,125.187661 C10.8506314,125.187661 11.8759232,124.85508 12.6024265,124.18991 C13.3289299,123.52474 13.6921761,122.607975 13.6921761,121.439589 C13.6921761,120.248066 13.3494357,119.311057 12.6639446,118.628535 C11.9784536,117.946012 10.9267972,117.604756 9.50894385,117.604756 L5.2729818,117.604756 L5.2729818,125.187661 Z M21.8477213,129.091902 C21.8477213,127.229425 22.2109675,125.569416 22.9374708,124.111825 C23.6639742,122.654234 24.7097718,121.526354 26.074895,120.728149 C27.4400182,119.929945 29.0248264,119.530848 30.8293669,119.530848 C33.3955642,119.530848 35.4900888,120.305905 37.1130036,121.856041 C38.7359183,123.406177 39.6411045,125.511555 39.8285892,128.172237 L39.8637424,129.456298 C39.8637424,132.336775 39.0493678,134.647485 37.4205942,136.388496 C35.7918205,138.129507 33.6064844,139 30.8645201,139 C28.1225559,139 25.9342903,138.132399 24.2996578,136.397172 C22.6650253,134.661945 21.8477213,132.302071 21.8477213,129.317481 L21.8477213,129.091902 Z M26.9273604,129.456298 C26.9273604,131.237798 27.2671714,132.599931 27.9468035,133.542738 C28.6264357,134.485545 29.5989982,134.956941 30.8645201,134.956941 C32.0948887,134.956941 33.0557336,134.491329 33.7470835,133.56009 C34.4384335,132.628851 34.7841033,131.13947 34.7841033,129.091902 C34.7841033,127.345107 34.4384335,125.99165 33.7470835,125.031491 C33.0557336,124.071332 32.0831711,123.59126 30.8293669,123.59126 C29.5872806,123.59126 28.6264357,124.06844 27.9468035,125.022815 C27.2671714,125.97719 26.9273604,127.455003 26.9273604,129.456298 Z M60.1295691,129.438946 C60.1295691,132.446673 59.4792412,134.792087 58.1785659,136.475257 C56.8778905,138.158427 55.0616594,139 52.729818,139 C50.6674859,139 49.0211603,138.219159 47.7907917,136.657455 L47.5622958,138.652956 L42.9923783,138.652956 L42.9923783,112 L48.0720174,112 L48.0720174,121.561054 C49.243797,120.207577 50.7846641,119.530848 52.6946648,119.530848 C55.0147884,119.530848 56.8339489,120.372421 58.152201,122.055591 C59.470453,123.738762 60.1295691,126.107311 60.1295691,129.161311 L60.1295691,129.438946 Z M55.04993,129.07455 C55.04993,127.177368 54.7452719,125.792099 54.1359465,124.918702 C53.5266211,124.045304 52.6185055,123.608612 51.4115726,123.608612 C49.7945167,123.608612 48.6813428,124.262204 48.0720174,125.569409 L48.0720174,132.978792 C48.6930606,134.297564 49.8179521,134.956941 51.4467258,134.956941 C53.0872172,134.956941 54.1652383,134.158748 54.6808213,132.562339 C54.926895,131.798839 55.04993,130.636255 55.04993,129.07455 Z M62.4672577,129.091902 C62.4672577,127.229425 62.830504,125.569416 63.5570073,124.111825 C64.2835107,122.654234 65.3293083,121.526354 66.6944315,120.728149 C68.0595547,119.929945 69.6443628,119.530848 71.4489034,119.530848 C74.0151007,119.530848 76.1096253,120.305905 77.7325401,121.856041 C79.3554548,123.406177 80.2606409,125.511555 80.4481257,128.172237 L80.4832789,129.456298 C80.4832789,132.336775 79.6689043,134.647485 78.0401307,136.388496 C76.411357,138.129507 74.2260209,139 71.4840566,139 C68.7420924,139 66.5538268,138.132399 64.9191943,136.397172 C63.2845617,134.661945 62.4672577,132.302071 62.4672577,129.317481 L62.4672577,129.091902 Z M67.5468969,129.456298 C67.5468969,131.237798 67.8867079,132.599931 68.56634,133.542738 C69.2459722,134.485545 70.2185347,134.956941 71.4840566,134.956941 C72.7144252,134.956941 73.67527,134.491329 74.36662,133.56009 C75.05797,132.628851 75.4036398,131.13947 75.4036398,129.091902 C75.4036398,127.345107 75.05797,125.99165 74.36662,125.031491 C73.67527,124.071332 72.7027076,123.59126 71.4489034,123.59126 C70.206817,123.59126 69.2459722,124.06844 68.56634,125.022815 C67.8867079,125.97719 67.5468969,127.455003 67.5468969,129.456298 Z M89.6934204,115.262211 L89.6934204,119.877892 L92.9450925,119.877892 L92.9450925,123.556555 L89.6934204,123.556555 L89.6934204,132.926735 C89.6934204,133.620826 89.8281731,134.11825 90.0976824,134.419023 C90.3671917,134.719796 90.882767,134.87018 91.6444237,134.87018 C92.2068779,134.87018 92.7048768,134.829692 93.1384352,134.748715 L93.1384352,138.548843 C92.1424226,138.849616 91.1171308,139 90.0625292,139 C86.5003192,139 84.6840881,137.224311 84.6137813,133.672879 L84.6137813,123.556555 L81.8366776,123.556555 L81.8366776,119.877892 L84.6137813,119.877892 L84.6137813,115.262211 L89.6934204,115.262211 Z M94.9839788,129.091902 C94.9839788,127.229425 95.3472251,125.569416 96.0737284,124.111825 C96.8002318,122.654234 97.8460294,121.526354 99.2111526,120.728149 C100.576276,119.929945 102.161084,119.530848 103.965625,119.530848 C106.531822,119.530848 108.626346,120.305905 110.249261,121.856041 C111.872176,123.406177 112.777362,125.511555 112.964847,128.172237 L113,129.456298 C113,132.336775 112.185625,134.647485 110.556852,136.388496 C108.928078,138.129507 106.742742,139 104.000778,139 C101.258813,139 99.0705479,138.132399 97.4359154,136.397172 C95.8012829,134.661945 94.9839788,132.302071 94.9839788,129.317481 L94.9839788,129.091902 Z M100.063618,129.456298 C100.063618,131.237798 100.403429,132.599931 101.083061,133.542738 C101.762693,134.485545 102.735256,134.956941 104.000778,134.956941 C105.231146,134.956941 106.191991,134.491329 106.883341,133.56009 C107.574691,132.628851 107.920361,131.13947 107.920361,129.091902 C107.920361,127.345107 107.574691,125.99165 106.883341,125.031491 C106.191991,124.071332 105.219429,123.59126 103.965625,123.59126 C102.723538,123.59126 101.762693,124.06844 101.083061,125.022815 C100.403429,125.97719 100.063618,127.455003 100.063618,129.456298 Z" id="Roboto"></path>
                <text id="Sans-serif" font-family="HelveticaNeue-Bold, Helvetica Neue" font-size="36" font-weight="bold">
                    <tspan x="0" y="234">Sans-serif</tspan>
                </text>
                <path d="M57.4635569,70.4878049 L25.4785506,70.4878049 L19.3977509,88.7804878 L0,88.7804878 L32.9579342,0 L49.8625573,0 L83.0029155,88.7804878 L63.6051645,88.7804878 L57.4635569,70.4878049 Z M30.4039983,55.6707317 L52.5381091,55.6707317 L41.4102457,22.4390244 L30.4039983,55.6707317 Z M128.244065,88.7804878 C127.433288,87.195114 126.845483,85.223589 126.480633,82.8658537 C122.224052,87.621975 116.69058,90 109.88005,90 C103.43437,90 98.0934545,88.1301 93.8571429,84.3902439 C89.6208312,80.6503878 87.5027072,75.9349878 87.5027072,70.2439024 C87.5027072,63.2519976 90.0870212,57.8861976 95.2557268,54.1463415 C100.424432,50.4064854 107.893607,48.5162604 117.663474,48.4756098 L125.750937,48.4756098 L125.750937,44.695122 C125.750937,41.6463262 124.970576,39.2073262 123.409829,37.3780488 C121.849083,35.5487713 119.386384,34.6341463 116.021658,34.6341463 C113.06232,34.6341463 110.741505,35.3455213 109.059142,36.7682927 C107.376779,38.191064 106.53561,40.142264 106.53561,42.6219512 L88.9620991,42.6219512 C88.9620991,38.8007939 90.1377086,35.2642439 92.4889629,32.0121951 C94.8402172,28.7601463 98.1643545,26.2093588 102.461474,24.3597561 C106.758594,22.5101534 111.582647,21.5853659 116.933778,21.5853659 C125.041551,21.5853659 131.477,23.6280284 136.240317,27.7134146 C141.003633,31.7988009 143.385256,37.5406134 143.385256,44.9390244 L143.385256,73.5365854 C143.425795,79.7967793 144.297368,84.5325043 146,87.7439024 L146,88.7804878 L128.244065,88.7804878 Z M113.710954,76.5243902 C116.305441,76.5243902 118.697199,75.9451277 120.886297,74.7865854 C123.075396,73.628043 124.696927,72.0731805 125.750937,70.1219512 L125.750937,58.7804878 L119.183673,58.7804878 C110.386739,58.7804878 105.70457,61.8292378 105.137026,67.9268293 L105.076218,68.9634146 C105.076218,71.1585476 105.846445,72.9674726 107.386922,74.3902439 C108.927399,75.8130152 111.035389,76.5243902 113.710954,76.5243902 Z" id="Aa"></path>
                <path d="M4.73825716,169.520566 L1.7093152,169.520566 L1.7093152,174.820051 L0,174.820051 L0,161.719794 L4.26885972,161.719794 C5.72134207,161.719794 6.83873297,162.055695 7.62106595,162.727506 C8.40339892,163.399318 8.79455954,164.377029 8.79455954,165.660668 C8.79455954,166.476439 8.57757611,167.187229 8.14360272,167.793059 C7.70962933,168.398889 7.10591351,168.851755 6.33243713,169.151671 L9.36137909,174.712082 L9.36137909,174.820051 L7.53692867,174.820051 L4.73825716,169.520566 Z M1.7093152,168.107969 L4.32199905,168.107969 C5.16632822,168.107969 5.83794363,167.886035 6.33686541,167.442159 C6.8357872,166.998284 7.08524435,166.40446 7.08524435,165.660668 C7.08524435,164.850896 6.84759582,164.230079 6.37229163,163.798201 C5.89698745,163.366322 5.21061127,163.147386 4.3131425,163.141388 L1.7093152,163.141388 L1.7093152,168.107969 Z M10.4861616,169.862468 C10.4861616,168.908736 10.6706714,168.050989 11.0396963,167.289203 C11.4087213,166.527417 11.9223964,165.939591 12.580737,165.525707 C13.2390776,165.111823 13.9904012,164.904884 14.8347303,164.904884 C16.1396027,164.904884 17.1949983,165.363749 18.0009489,166.281491 C18.8068995,167.199233 19.2098687,168.419872 19.2098687,169.943445 L19.2098687,170.060411 C19.2098687,171.008145 19.0312633,171.858394 18.6740471,172.611183 C18.3168309,173.363971 17.806108,173.950298 17.141863,174.37018 C16.4776181,174.790062 15.7144858,175 14.8524435,175 C13.5534755,175 12.501032,174.541136 11.6950814,173.623393 C10.8891309,172.705651 10.4861616,171.49101 10.4861616,169.979434 L10.4861616,169.862468 Z M12.1334809,170.060411 C12.1334809,171.140108 12.3799859,172.006852 12.8730033,172.660668 C13.3660207,173.314485 14.0258275,173.641388 14.8524435,173.641388 C15.6849638,173.641388 16.3462467,173.309986 16.8363119,172.647172 C17.3263771,171.984358 17.571406,171.056133 17.571406,169.862468 C17.571406,168.794768 17.3219488,167.929523 16.823027,167.26671 C16.3241053,166.603896 15.6613463,166.272494 14.8347303,166.272494 C14.0258276,166.272494 13.3734012,166.599397 12.8774316,167.253213 C12.381462,167.90703 12.1334809,168.842753 12.1334809,170.060411 Z M29.3771944,170.060411 C29.3771944,171.547994 29.0406486,172.74314 28.3675471,173.645887 C27.6944455,174.548633 26.7910859,175 25.6574411,175 C24.4470391,175 23.5112058,174.565129 22.849913,173.695373 L22.770204,174.820051 L21.2645896,174.820051 L21.2645896,161 L22.9030523,161 L22.9030523,166.155527 C23.5643451,165.321761 24.4765612,164.904884 25.639728,164.904884 C26.8028947,164.904884 27.7165869,165.351752 28.3808319,166.245501 C29.0450769,167.13925 29.3771944,168.362889 29.3771944,169.916452 L29.3771944,170.060411 Z M27.7387316,169.871465 C27.7387316,168.737784 27.5232243,167.862043 27.0922031,167.244216 C26.6611819,166.626389 26.0412292,166.317481 25.2323264,166.317481 C24.1518213,166.317481 23.3754043,166.82733 22.9030523,167.847044 L22.9030523,172.057841 C23.4049263,173.077554 24.1872476,173.587404 25.2500395,173.587404 C26.0353247,173.587404 26.6464209,173.278495 27.0833465,172.660668 C27.5202721,172.042842 27.7387316,171.113117 27.7387316,169.871465 Z M31.0068006,169.862468 C31.0068006,168.908736 31.1913103,168.050989 31.5603353,167.289203 C31.9293603,166.527417 32.4430354,165.939591 33.1013759,165.525707 C33.7597165,165.111823 34.5110401,164.904884 35.3553693,164.904884 C36.6602416,164.904884 37.7156373,165.363749 38.5215879,166.281491 C39.3275384,167.199233 39.7305077,168.419872 39.7305077,169.943445 L39.7305077,170.060411 C39.7305077,171.008145 39.5519023,171.858394 39.1946861,172.611183 C38.8374699,173.363971 38.326747,173.950298 37.662502,174.37018 C36.998257,174.790062 36.2351248,175 35.3730824,175 C34.0741144,175 33.021671,174.541136 32.2157204,173.623393 C31.4097698,172.705651 31.0068006,171.49101 31.0068006,169.979434 L31.0068006,169.862468 Z M32.6541199,170.060411 C32.6541199,171.140108 32.9006249,172.006852 33.3936423,172.660668 C33.8866596,173.314485 34.5464664,173.641388 35.3730824,173.641388 C36.2056028,173.641388 36.8668856,173.309986 37.3569508,172.647172 C37.847016,171.984358 38.0920449,171.056133 38.0920449,169.862468 C38.0920449,168.794768 37.8425878,167.929523 37.343666,167.26671 C36.8447442,166.603896 36.1819853,166.272494 35.3553693,166.272494 C34.5464665,166.272494 33.8940401,166.599397 33.3980705,167.253213 C32.902101,167.90703 32.6541199,168.842753 32.6541199,170.060411 Z M44.0082239,162.727506 L44.0082239,165.084833 L45.7972481,165.084833 L45.7972481,166.371465 L44.0082239,166.371465 L44.0082239,172.40874 C44.0082239,172.798631 44.0879321,173.091044 44.2473509,173.28599 C44.4067697,173.480935 44.6783681,173.578406 45.062154,173.578406 C45.2510948,173.578406 45.5108845,173.542417 45.8415309,173.470437 L45.8415309,174.820051 C45.4105097,174.940018 44.9913036,175 44.5839,175 C43.8517545,175 43.2997014,174.775067 42.9277242,174.325193 C42.555747,173.875319 42.3697612,173.236508 42.3697612,172.40874 L42.3697612,166.371465 L40.6250198,166.371465 L40.6250198,165.084833 L42.3697612,165.084833 L42.3697612,162.727506 L44.0082239,162.727506 Z M47.2762929,169.862468 C47.2762929,168.908736 47.4608026,168.050989 47.8298276,167.289203 C48.1988526,166.527417 48.7125277,165.939591 49.3708683,165.525707 C50.0292088,165.111823 50.7805324,164.904884 51.6248616,164.904884 C52.929734,164.904884 53.9851296,165.363749 54.7910802,166.281491 C55.5970308,167.199233 56,168.419872 56,169.943445 L56,170.060411 C56,171.008145 55.8213946,171.858394 55.4641784,172.611183 C55.1069622,173.363971 54.5962393,173.950298 53.9319943,174.37018 C53.2677493,174.790062 52.5046171,175 51.6425747,175 C50.3436068,175 49.2911633,174.541136 48.4852127,173.623393 C47.6792621,172.705651 47.2762929,171.49101 47.2762929,169.979434 L47.2762929,169.862468 Z M48.9236122,170.060411 C48.9236122,171.140108 49.1701172,172.006852 49.6631346,172.660668 C50.156152,173.314485 50.8159588,173.641388 51.6425747,173.641388 C52.4750951,173.641388 53.136378,173.309986 53.6264431,172.647172 C54.1165083,171.984358 54.3615372,171.056133 54.3615372,169.862468 C54.3615372,168.794768 54.1120801,167.929523 53.6131583,167.26671 C53.1142365,166.603896 52.4514776,166.272494 51.6248616,166.272494 C50.8159588,166.272494 50.1635324,166.599397 49.6675629,167.253213 C49.1715933,167.90703 48.9236122,168.842753 48.9236122,170.060411 Z" id="Roboto-Copy"></path>
            </g>
        </g>
    </g>
</svg>