<?xml version="1.0" encoding="UTF-8"?>
<svg width="27px" height="47px" viewBox="0 0 27 47" version="1.1" xmlns="http://www.w3.org/2000/svg" xmlns:xlink="http://www.w3.org/1999/xlink">
    <!-- Generator: Sketch 49.1 (51147) - http://www.bohemiancoding.com/sketch -->
    <title>Group</title>
    <desc>Created with Sketch.</desc>
    <defs></defs>
    <g id="-" stroke="none" stroke-width="1" fill="none" fill-rule="evenodd">
        <g id="3Style-Menu" transform="translate(-120.000000, -7.000000)" fill="#191611">
            <g id="Menu">
                <g id="content" transform="translate(120.000000, 7.000000)">
                    <g id="Group">
                        <path d="M15.452237,0 C15.7243047,0 15.9862958,0 16.2583636,0 C19.9463926,0.161290323 22.6569931,1.31878558 23.8561064,3.81404175 C24.4808545,5.11385199 24.5816203,6.85958254 24.0878678,8.4345351 C23.6444982,9.84819734 22.8686014,10.9487666 22.0725514,12.0018975 C23.191052,12.8937381 24.420395,13.6337761 25.3272874,14.7248577 C26.2341798,15.8064516 26.8891576,17.0967742 27,18.9278937 C27,19.1745731 27,19.43074 27,19.6774194 C26.8186215,23.1214421 25.1962918,25.3889943 23.0802096,27.0398482 C20.9641274,28.6907021 18.1225312,29.8102467 14.4848851,30 C14.1422813,30 13.789601,30 13.4469972,30 C10.2728738,29.8766603 7.62273277,29.1366224 5.67795244,27.8178368 C3.76340185,26.5180266 2.2216848,24.6963947 2,21.8216319 C2,21.6603416 2,21.4895636 2,21.3282732 C2.01007658,21.3282732 2.01007658,21.3282732 2.02015316,21.3282732 C2.10076582,19.8387097 2.69528416,18.6717268 3.56187021,17.8178368 C4.44860943,16.9449715 5.53688029,16.3282732 7.11890367,16.1954459 C8.82184603,16.0531309 10.293027,16.5180266 11.1999194,17.2865275 C12.1370415,18.0740038 12.7315599,19.2504744 12.5098751,20.9392789 C14.6763402,20.9582543 15.9258364,20.0189753 16.4699718,18.5009488 C16.6412737,18.0170778 16.802499,17.2960152 16.6009674,16.6982922 C16.1676743,15.426945 14.0314389,15.483871 12.4494156,15.170778 C11.2402257,14.9335863 9.62797259,14.573055 9.25513906,13.5673624 C8.94276501,12.7419355 9.65820234,12.2011385 10.1418783,11.8026565 C10.9883112,11.1100569 11.8246675,10.7020873 12.7214833,10.1328273 C12.9834744,9.971537 13.860137,9.50664137 13.8198307,9.11764706 C13.789601,8.82352941 13.2656187,8.68121442 12.8424023,8.60531309 C11.52237,8.35863378 9.91011689,8.36812144 8.45908908,8.36812144 C6.29262394,8.36812144 3.4006449,8.5483871 2.44336961,7.59013283 C1.73800887,6.87855787 2.5038291,5.73055028 2.97742846,5.18975332 C4.12615881,3.88045541 5.75856509,2.87476281 7.3808948,2.09677419 C9.73881499,0.958254269 12.1874244,0.170777989 15.452237,0 Z M10.1116485,17.5426945 C9.21483273,17.0872865 7.7738815,16.8121442 6.40346634,17.1442125 C5.24465941,17.4288425 4.42845627,18.0455408 3.80370818,18.8899431 C3.18903668,19.7058824 2.77589682,20.8159393 2.93712213,22.1821632 C3.20918984,24.573055 4.72067715,26.1764706 6.45384925,27.2580645 C8.26763402,28.3965844 10.4542523,29.0607211 13.3764611,29.1461101 C16.3389762,29.2314991 18.6767432,28.6053131 20.611447,27.5996205 C23.4429665,26.1195446 25.7101975,23.8804554 26.0729545,20.1612903 C26.4256348,16.5654649 24.4304716,14.71537 22.3244659,13.2732448 C21.9314792,12.9981025 21.2966546,12.6755218 21.1858122,12.2390892 C21.0648932,11.7931689 21.3974204,11.4041746 21.6291818,11.0910816 C22.2136235,10.3036053 22.7476824,9.53510436 23.1104393,8.56736243 C23.6041919,7.24857685 23.6848045,5.46489564 23.070133,4.20303605 C21.9717856,1.93548387 19.1301894,0.69259962 15.4925433,0.853889943 C12.4494156,0.986717268 10.1821846,1.68880455 8.00564289,2.72296015 C6.94760177,3.21631879 5.9802499,3.79506641 5.10358726,4.44971537 C4.50906892,4.89563567 3.77347844,5.48387097 3.35026199,6.13851992 C3.04796453,6.59392789 2.90689238,7.15370019 3.52156389,7.28652751 C4.11608222,7.41935484 4.84159613,7.17267552 5.34542523,6.99240987 C5.92986699,6.78368121 6.42361951,6.54648956 6.86698912,6.33776091 C8.87222894,5.38899431 10.72632,4.33586338 12.7920193,3.55787476 C13.8399839,3.16888046 15.0088674,2.80834915 16.4498186,2.82732448 C15.694075,3.35863378 14.8778718,3.84250474 14.6964933,4.91461101 C15.3413946,4.92409867 15.9359129,4.64895636 16.560661,4.4971537 C17.2156389,4.34535104 17.9209996,4.24098672 18.6767432,4.33586338 C20.0169287,4.50664137 20.923821,5.21821632 21.5586457,6.02466793 C20.7424426,5.85388994 19.573559,5.90132827 19.2108021,6.44212524 C19.5130996,6.88804554 19.9161628,7.24857685 20.2083837,7.71347249 C20.5106812,8.19734345 20.6719065,8.77609108 20.5912938,9.4971537 C20.4401451,10.7874763 19.6440951,11.6129032 18.7271262,12.1537002 C18.827892,11.8026565 18.8883515,11.3377609 18.8581217,10.9013283 C18.827892,10.5218216 18.7875857,9.91461101 18.4349053,9.86717268 C18.152761,9.82922201 17.7396211,10.2466793 17.5280129,10.4079696 C16.68158,11.0531309 15.8049174,11.6223909 14.898025,12.1347249 C13.5880693,12.8842505 12.3486497,13.5483871 10.6457074,13.7381404 C11.7541314,14.2789374 13.185006,14.4117647 14.5151149,14.629981 C18.6767432,15.313093 22.3345425,16.4231499 23.7049577,19.6110057 C23.3321241,19.4497154 23.0096735,19.3263757 22.5360742,19.1935484 C22.3043128,19.1271347 21.4478033,18.8330171 21.2059653,19.0512334 C21.0245869,19.2220114 21.2261185,19.7058824 21.3168077,19.943074 C21.4175736,20.256167 21.528416,20.5882353 21.5888755,20.8538899 C22.082628,23.0740038 21.0951229,24.7628083 19.9564692,25.7779886 C19.9262394,25.8064516 19.8657799,25.8823529 19.8053204,25.8538899 C19.9161628,25.3036053 19.936316,24.6110057 19.8053204,23.9848197 C19.7448609,23.7096774 19.5836356,23.0455408 19.2712616,23.0550285 C19.0495768,23.0645161 18.7775091,23.6148008 18.6565901,23.8045541 C18.4752116,24.1176471 18.3039097,24.402277 18.1225312,24.6394687 C16.9435711,26.2523719 15.1499395,27.2865275 12.7013301,27.5616698 C13.0338573,27.2106262 13.426844,26.7362429 13.6283757,26.1764706 C13.6787586,26.0246679 13.7996775,25.6736243 13.668682,25.5597723 C13.4973801,25.398482 12.9028617,25.654649 12.6711004,25.7210626 C12.3083434,25.8159393 11.9455865,25.9013283 11.6332124,25.9582543 C9.94034663,26.2713472 8.41878275,25.9013283 7.44135429,25.28463 C6.93752519,24.9620493 6.47400242,24.601518 6.13139863,24.1366224 C6.45384925,24.1745731 6.92744861,24.1650854 7.22974607,24.1176471 C7.50181378,24.0796964 8.01571947,23.9848197 8.01571947,23.7381404 C8.01571947,23.6148008 7.65296252,23.3586338 7.53204353,23.2447818 C7.02821443,22.7703985 6.53446191,22.2201139 6.53446191,21.3187856 C6.54453849,20.4364326 7.05844418,19.8671727 7.51189037,19.373814 C7.46150746,20.256167 7.70334543,21.0341556 8.52962515,21.1574953 C8.68077388,21.0056926 8.61023781,20.7305503 8.66062072,20.5218216 C8.75130996,20.1328273 9.07376058,19.829222 9.37605804,19.686907 C10.4240226,19.1935484 11.643289,20.028463 11.8347441,20.9772296 C11.9959694,19.2314991 11.3006852,18.1404175 10.1116485,17.5426945 Z M5.31519549,7.4857685 C6.97783152,7.55218216 8.79161628,7.5426945 10.5852479,7.5426945 C12.1672713,7.5426945 14.2430472,7.69449715 14.6662636,8.75711575 C15.0390971,9.68690702 14.0515921,10.2656546 13.5276098,10.626186 C12.7214833,11.1669829 11.8448206,11.6223909 11.0689238,12.1726755 C10.6860137,12.4478178 10.2023378,12.7134725 10.0914954,13.1878558 C10.4945586,13.4060721 11.0084643,13.2827324 11.3812979,13.1878558 C11.7843611,13.0929791 12.1874244,12.9506641 12.5199516,12.8083491 C14.2833535,12.0967742 15.8653769,11.0721063 17.2861749,9.99051233 C17.5582426,9.78178368 17.910923,9.4686907 18.2636034,9.43074004 C19.1704958,9.33586338 19.3417977,10.3795066 19.2813382,11.2144213 C19.7650141,10.6736243 20.2083837,9.84819734 20.1277711,8.90891841 C20.0773881,8.34914611 19.8254736,7.9316888 19.5534059,7.59962049 C19.3417977,7.33396584 18.7573559,6.87855787 18.7271262,6.5085389 C18.6565901,5.76850095 19.6541717,5.5597723 20.4401451,5.54079696 C19.7347844,5.028463 18.8782749,4.62049336 17.5179363,4.76280835 C16.923418,4.82922201 16.4699718,4.95256167 15.9762193,5.09487666 C15.5630794,5.21821632 14.8375655,5.54079696 14.4143491,5.35104364 C14.0112858,5.17077799 14.2329706,4.50664137 14.3941959,4.20303605 C14.5856509,3.83301708 14.9584845,3.5199241 15.0491737,3.33017078 C11.3107618,4.25047438 8.68077388,6.21442125 5.31519549,7.4857685 Z M16.2986699,20.4174573 C15.331318,21.3282732 14.0415155,21.8216319 12.31842,21.7267552 C12.0866586,22.1442125 11.7742846,22.5806452 11.4115276,22.7988615 C11.7944377,21.6129032 11.2906086,20.113852 10.1620314,20 C9.5675131,19.943074 9.16444982,20.313093 9.10399033,20.711575 C9.063684,20.9582543 9.15437324,21.1385199 9.02337767,21.3662239 C8.88230552,21.6034156 8.47924224,21.6413662 8.19709794,21.5464896 C7.68319226,21.3851992 7.3808948,20.8444023 7.21966949,20.398482 C6.89721886,21.1005693 6.89721886,21.7267552 7.30028214,22.3055028 C7.48166062,22.5616698 7.69326884,22.7419355 7.91495365,22.9411765 C8.10640871,23.1024668 8.43893591,23.3776091 8.48931882,23.6148008 C8.61023781,24.2979127 7.80411125,24.4781784 7.21966949,24.5635674 C8.02579605,25.170778 8.85207578,25.626186 10.2627973,25.6356736 C10.8875453,25.6356736 11.5626763,25.5313093 12.1068118,25.398482 C12.4897219,25.3036053 13.4469972,24.9335863 13.860137,25.056926 C14.5654978,25.28463 13.9609029,26.6413662 13.7089883,26.9449715 C15.4723902,26.5370019 16.8931882,25.5787476 17.790004,24.288425 C18.0923015,23.8425047 18.3039097,23.3206831 18.6565901,22.9222011 C18.7573559,22.8083491 18.9085046,22.6850095 19.0596534,22.6470588 C19.4929464,22.5237192 19.7650141,22.8178368 19.9262394,23.0834915 C20.1680774,23.4819734 20.2889964,24.0796964 20.2688432,24.71537 C20.7625957,24.0322581 21.2462717,23.2732448 21.2462717,22.0398482 C21.2462717,21.4990512 21.1253527,21.0056926 20.9943571,20.56926 C20.8129786,19.9905123 20.2688432,18.8045541 21.1051995,18.5863378 C21.719871,18.4250474 22.2640064,18.7381404 22.757759,18.8235294 C21.4478033,17.0967742 19.2914148,16.0531309 16.7218863,15.56926 C18.3643692,16.6413662 17.3869407,19.3927894 16.2986699,20.4174573 Z" id="Shape" fill-rule="nonzero"></path>
                        <text id="Style" font-family="HelveticaNeue-Medium, Helvetica Neue" font-size="12" font-weight="400">
                            <tspan x="0" y="44">Style</tspan>
                        </text>
                    </g>
                </g>
            </g>
        </g>
    </g>
</svg>