<?xml version="1.0" encoding="UTF-8"?>
<svg width="137px" height="196px" viewBox="0 0 137 196" version="1.1" xmlns="http://www.w3.org/2000/svg" xmlns:xlink="http://www.w3.org/1999/xlink">
    <!-- Generator: Sketch 48.2 (47327) - http://www.bohemiancoding.com/sketch -->
    <title>Shape</title>
    <desc>Created with Sketch.</desc>
    <defs></defs>
    <g id="Strategy" stroke="none" stroke-width="1" fill="none" fill-rule="evenodd" transform="translate(-1303.000000, -1966.000000)">
        <g id="Shape" transform="translate(0.000000, 1966.000000)" fill="#000000" fill-rule="nonzero">
            <path d="M1404.2505,-13 C1406.29827,-13 1408.27019,-13 1410.31795,-13 C1438.07651,-11.7860215 1458.4783,-3.07394054 1467.50363,15.7070209 C1472.2059,25.4902593 1472.96433,38.6297913 1469.24802,50.4839342 C1465.91092,61.1240987 1460.07101,69.4077166 1454.0794,77.3342821 C1462.49798,84.0468691 1471.75084,89.616888 1478.57672,97.8290955 C1485.40259,105.969892 1490.33239,115.68172 1491.16667,129.463947 C1491.16667,131.32062 1491.16667,133.248703 1491.16667,135.105376 C1489.80149,161.027388 1477.59076,178.094497 1461.66371,190.519924 C1445.73667,202.945351 1424.34892,211.37179 1396.96957,212.8 C1394.3909,212.8 1391.7364,212.8 1389.15773,212.8 C1365.26716,211.871664 1345.32044,206.301645 1330.68272,196.375585 C1316.27254,186.592347 1304.66855,172.881531 1303,151.244149 C1303,150.030171 1303,148.744782 1303,147.530803 C1303.07584,147.530803 1303.07584,147.530803 1303.15169,147.530803 C1303.75843,136.319355 1308.23317,127.535863 1314.75568,121.108918 C1321.42987,114.539152 1329.62092,109.89747 1341.52828,108.897723 C1354.34576,107.826565 1365.41885,111.32568 1372.24473,117.10993 C1379.29813,123.037002 1383.77287,131.891904 1382.10433,144.602973 C1398.41059,144.745794 1407.81513,137.676154 1411.91065,126.250474 C1413.19999,122.608539 1414.41348,117.181341 1412.89661,112.682479 C1409.63536,103.113472 1393.55663,103.541935 1381.64927,101.185389 C1372.5481,99.4001265 1360.41321,96.6865275 1357.60701,89.1170145 C1355.25588,82.9043011 1360.64074,78.8339026 1364.2812,75.8346616 C1370.65202,70.6216951 1376.947,67.5510436 1383.69703,63.2664137 C1385.66895,62.0524352 1392.2673,58.5533207 1391.96393,55.6254902 C1391.7364,53.4117647 1387.79256,52.3406072 1384.60715,51.7693232 C1374.6717,49.9126502 1362.53681,49.9840607 1351.61541,49.9840607 C1335.30915,49.9840607 1313.54219,51.3408602 1306.3371,44.1283997 C1301.02808,38.7726123 1306.79215,30.1319418 1310.35678,26.0615433 C1319.00289,16.2068944 1331.28947,8.6373814 1343.5002,2.78172043 C1361.24748,-5.78753953 1379.67735,-11.714611 1404.2505,-13 Z M1364.05367,119.038014 C1357.30364,115.61031 1346.45808,113.539405 1336.14342,116.038773 C1327.42147,118.181088 1321.27818,122.82277 1316.57591,129.178305 C1311.94948,135.319608 1308.83992,143.674636 1310.05341,153.957748 C1312.10117,171.953194 1323.47763,184.021569 1336.52264,192.162366 C1350.17439,200.731626 1366.63234,205.730361 1388.62683,206.373055 C1410.92469,207.01575 1428.52029,202.302657 1443.08216,194.733144 C1464.39406,183.593106 1481.45875,166.740228 1484.1891,138.747312 C1486.84361,111.682732 1471.82668,97.757685 1455.97548,86.9032891 C1453.0176,84.8323846 1448.23949,82.4044276 1447.40521,79.1195446 C1446.4951,75.7632511 1448.99792,72.8354206 1450.74231,70.4788741 C1455.14121,64.5518027 1459.16089,58.7675522 1461.89124,51.4836812 C1465.60755,41.5576218 1466.2143,28.1324478 1461.58787,18.6348514 C1453.32097,1.56774194 1431.93323,-7.78703352 1404.55388,-6.57305503 C1381.64927,-5.57330803 1364.58458,-0.288931056 1348.20247,7.49481341 C1340.23895,11.2081594 1332.95801,15.5641999 1326.35967,20.4915244 C1321.88493,23.8478178 1316.34838,28.2752688 1313.16297,33.2025933 C1310.88768,36.6302973 1309.82588,40.8435168 1314.4523,41.8432638 C1318.92705,42.8430108 1324.38775,40.9863378 1328.1799,39.6295383 C1332.5788,38.0585073 1336.29511,36.2732448 1339.6322,34.7022138 C1354.72498,27.5611638 1368.6801,19.6345984 1384.22793,13.7789374 C1392.11561,10.8511069 1400.91341,8.13750791 1411.75897,8.28032891 C1406.07074,12.2793169 1399.92745,15.9212524 1398.56227,23.9906388 C1403.41623,24.0620493 1407.89097,21.9911448 1412.59324,20.8485769 C1417.52304,19.7060089 1422.83206,18.9204934 1428.52029,19.6345984 C1438.60742,20.9199873 1445.43329,26.2757748 1450.21141,32.3456673 C1444.06812,31.0602783 1435.27032,31.4173308 1432.53997,35.4877293 C1434.81526,38.8440228 1437.84899,41.5576218 1440.04843,45.0567362 C1442.32373,48.6986717 1443.53722,53.0547122 1442.93047,58.4819102 C1441.79283,68.1937381 1435.80122,74.4064516 1428.8995,78.4768501 C1429.65793,75.8346616 1430.11299,72.3355471 1429.88546,69.0506641 C1429.65793,66.1942441 1429.35456,61.6239722 1426.70005,61.2669197 C1424.57645,60.9812777 1421.46688,64.1233397 1419.87418,65.3373182 C1413.50336,70.1932321 1406.90501,74.4778621 1400.07913,78.3340291 C1390.21954,83.9754586 1380.89084,88.9741935 1368.07336,90.4024035 C1376.4161,94.472802 1387.18581,95.472549 1397.1971,97.1149905 C1428.52029,102.256546 1456.05132,110.611575 1466.36598,134.605503 C1463.55979,133.391524 1461.13281,132.463188 1457.56818,131.463441 C1455.82379,130.963567 1449.37713,128.749842 1447.5569,130.392283 C1446.19172,131.677672 1447.70859,135.319608 1448.39117,137.10487 C1449.1496,139.461417 1449.98388,141.960784 1450.43894,143.960278 C1454.15525,160.670335 1446.72263,173.381404 1438.15236,181.022328 C1437.92483,181.236559 1437.46977,181.807843 1437.01471,181.593612 C1437.84899,177.451803 1438.00067,172.238836 1437.01471,167.525743 C1436.55965,165.454839 1435.34616,160.456104 1432.99503,160.527514 C1431.32648,160.598925 1429.27872,164.740734 1428.3686,166.168944 C1427.00343,168.52549 1425.71409,170.667805 1424.34892,172.453068 C1415.47528,184.592853 1401.97521,192.376597 1383.54534,194.447502 C1386.04817,191.805313 1389.00605,188.234788 1390.52291,184.021569 C1390.90212,182.879001 1391.81224,180.236812 1390.82628,179.379886 C1389.53695,178.165908 1385.06221,180.093991 1383.31782,180.593865 C1380.58746,181.30797 1377.85711,181.950664 1375.50598,182.379127 C1362.76434,184.735674 1351.31204,181.950664 1343.95526,177.308982 C1340.16311,174.881025 1336.67432,172.167426 1334.09566,168.668311 C1336.52264,168.953953 1340.08726,168.882543 1342.36256,168.52549 C1344.41032,168.239848 1348.27832,167.525743 1348.27832,165.66907 C1348.27832,164.740734 1345.54796,162.81265 1344.63785,161.955724 C1340.84569,158.385199 1337.12938,154.24339 1337.12938,147.459393 C1337.20523,140.818216 1341.07322,136.533586 1344.48616,132.82024 C1344.10695,139.461417 1345.92718,145.317078 1352.14631,146.245414 C1353.28396,145.102846 1352.75306,143.031942 1353.13227,141.460911 C1353.81486,138.53308 1356.24184,136.247944 1358.51713,135.176787 C1366.40481,131.463441 1375.58182,137.747565 1377.02284,144.888615 C1378.23633,131.749083 1373.00316,123.536875 1364.05367,119.038014 Z M1327.95237,43.3428843 C1340.46648,43.8427577 1354.11823,43.7713472 1367.6183,43.7713472 C1379.52566,43.7713472 1395.14933,44.9139152 1398.33474,52.9118912 C1401.14094,59.9101202 1393.70832,64.2661607 1389.76448,66.9797596 C1383.69703,71.0501581 1377.09868,74.4778621 1371.25877,78.6196711 C1368.37673,80.6905756 1364.73626,82.6900696 1363.90199,86.2605946 C1366.93571,87.9030361 1370.80371,86.9746996 1373.6099,86.2605946 C1376.64362,85.5464896 1379.67735,84.4753321 1382.18017,83.4041746 C1395.45271,78.0483871 1407.36007,70.3360531 1418.05394,62.1952562 C1420.10171,60.6242252 1422.75621,58.2676787 1425.41072,57.9820367 C1432.2366,57.2679317 1433.52593,65.1230867 1433.07087,71.4072106 C1436.71134,67.3368121 1440.04843,61.1240987 1439.44169,54.0544592 C1439.06247,49.8412397 1437.1664,46.6991777 1435.11863,44.1998102 C1433.52593,42.2003163 1429.12703,38.7726123 1428.8995,35.9876028 C1428.3686,30.4175838 1435.87707,28.8465528 1441.79283,28.7037318 C1436.48381,24.8475648 1430.03715,21.7769133 1419.79833,22.8480708 C1415.32359,23.3479443 1411.91065,24.2762808 1408.19434,25.3474383 C1405.08478,26.2757748 1399.62408,28.7037318 1396.43867,27.2755218 C1393.40494,25.9187223 1395.07349,20.9199873 1396.28698,18.6348514 C1397.728,15.8498419 1400.53419,13.4932954 1401.21678,12.0650854 C1373.079,18.9919039 1353.28396,33.7738773 1327.95237,43.3428843 Z M1410.62132,140.675395 C1403.34039,147.530803 1393.63247,151.244149 1380.66331,150.530044 C1378.91892,153.672106 1376.56778,156.956989 1373.83743,158.599431 C1376.71947,149.673118 1372.92731,138.390259 1364.43289,137.533333 C1359.95815,137.10487 1356.92443,139.88988 1356.46937,142.889121 C1356.16599,144.745794 1356.84858,146.102593 1355.86262,147.816445 C1354.80082,149.601708 1351.7671,149.88735 1349.64349,149.173245 C1345.77549,147.959266 1343.5002,143.888868 1342.28671,140.532574 C1339.85973,145.816951 1339.85973,150.530044 1342.89346,154.886085 C1344.25863,156.814168 1345.85134,158.170968 1347.51988,159.670588 C1348.9609,160.884567 1351.46372,162.955471 1351.84294,164.740734 C1352.75306,169.88229 1346.68561,171.239089 1342.28671,171.881784 C1348.35416,176.452056 1354.57329,179.87976 1365.19132,179.95117 C1369.89359,179.95117 1374.97508,179.165655 1379.0706,178.165908 C1381.95264,177.451803 1389.15773,174.666793 1392.2673,175.59513 C1397.57631,177.308982 1393.02573,187.520683 1391.12965,189.805819 C1404.40219,186.735168 1415.09606,179.522707 1421.8461,169.810879 C1424.12139,166.454586 1425.71409,162.527008 1428.3686,159.527767 C1429.12703,158.670841 1430.26468,157.742505 1431.40232,157.456863 C1434.66358,156.528526 1436.71134,158.742252 1437.92483,160.741746 C1439.74506,163.740987 1440.65518,168.239848 1440.50349,173.024352 C1444.2198,167.882796 1447.86027,162.169956 1447.86027,152.886591 C1447.86027,148.816192 1446.95015,145.102846 1445.96419,141.817963 C1444.59902,137.461923 1440.50349,128.53561 1446.79847,126.893169 C1451.4249,125.67919 1455.52042,128.035737 1459.23673,128.678431 C1449.37713,115.68172 1433.14672,107.826565 1413.80673,104.18463 C1426.16915,112.254016 1418.81237,132.963061 1410.62132,140.675395 Z"></path>
        </g>
    </g>
</svg>