<?xml version="1.0" encoding="UTF-8"?>
<svg width="54px" height="60px" viewBox="0 0 54 60" version="1.1" xmlns="http://www.w3.org/2000/svg" xmlns:xlink="http://www.w3.org/1999/xlink">
    <!-- Generator: Sketch 49.3 (51167) - http://www.bohemiancoding.com/sketch -->
    <title>Shape</title>
    <desc>Created with Sketch.</desc>
    <defs>
        <rect id="path-1" x="0" y="0" width="54" height="60"></rect>
    </defs>
    <g id="3Style2" stroke="none" stroke-width="1" fill="none" fill-rule="evenodd">
        <g id="Group">
            <g id="Shape">
                <mask id="mask-2" fill="white">
                    <use xlink:href="#path-1"></use>
                </mask>
                <g id="Mask"></g>
                <path d="M29.0568319,-5 C29.6444982,-5 30.210399,-5 30.7980653,-5 C38.764208,-4.6516129 44.6191052,-2.15142315 47.2091898,3.23833017 C48.5586457,6.0459203 48.7762999,9.81669829 47.7097944,13.2185958 C46.7521161,16.2721063 45.076179,18.6493359 43.356711,20.9240987 C45.7726723,22.8504744 48.4280532,24.4489564 50.3869407,26.8056926 C52.3458283,29.1419355 53.7605804,31.9290323 54,35.8842505 C54,36.4170778 54,36.9703985 54,37.5032258 C53.6082225,44.942315 50.1039903,49.8402277 45.5332527,53.4060721 C40.9625151,56.9719165 34.8246675,59.3901328 26.9673519,59.8 C26.2273277,59.8 25.4655381,59.8 24.7255139,59.8 C17.8694075,59.5335863 12.1451028,57.9351044 7.94437727,55.0865275 C3.808948,52.2789374 0.478839178,48.3442125 0,42.1347249 C0,41.7863378 0,41.4174573 0,41.0690702 C0.0217654172,41.0690702 0.0217654172,41.0690702 0.0435308343,41.0690702 C0.217654172,37.8516129 1.50181378,35.3309298 3.37363966,33.4865275 C5.28899637,31.6011385 7.63966143,30.2690702 11.0568319,29.9821632 C14.7351874,29.6747628 17.9129383,30.6789374 19.8718259,32.3388994 C21.8960097,34.0398482 23.1801693,36.5810247 22.7013301,40.2288425 C27.3808948,40.2698292 30.0798065,38.2409867 31.2551391,34.9620493 C31.6251511,33.916888 31.9733978,32.3593928 31.5380895,31.0683112 C30.6021765,28.3222011 25.9879081,28.4451613 22.5707376,27.7688805 C19.9588875,27.2565465 16.4764208,26.4777989 15.6711004,24.3055028 C14.9963724,22.5225806 16.541717,21.3544592 17.5864571,20.4937381 C19.4147521,18.997723 21.2212817,18.1165085 23.1584039,16.886907 C23.7243047,16.5385199 25.617896,15.5343454 25.5308343,14.6941176 C25.4655381,14.0588235 24.3337364,13.7514231 23.4195889,13.5874763 C20.5683192,13.054649 17.0858525,13.0751423 13.9516324,13.0751423 C9.27206771,13.0751423 3.02539299,13.4645161 0.957678356,11.3946869 C-0.565900846,9.85768501 1.08827086,7.37798861 2.11124547,6.20986717 C4.59250302,3.38178368 8.1185006,1.20948767 11.6227328,-0.470967742 C16.7158404,-2.93017078 22.0048368,-4.63111954 29.0568319,-5 Z M17.5211608,32.8922201 C15.5840387,31.9085389 12.471584,31.3142315 9.5114873,32.0314991 C7.00846433,32.6462998 5.24546554,33.9783681 3.89600967,35.802277 C2.56831923,37.5647059 1.67593712,39.9624288 2.0241838,42.9134725 C2.61185006,48.0777989 5.87666264,51.5411765 9.62031439,53.8774194 C13.5380895,56.3366224 18.261185,57.7711575 24.573156,57.9555977 C30.9721886,58.140038 36.0217654,56.7874763 40.2007255,54.6151803 C46.3168077,51.4182163 51.2140266,46.5817837 51.9975816,38.5483871 C52.7593712,30.7814042 48.4498186,26.7851992 43.9008464,23.6702087 C43.0519952,23.0759013 41.6807739,22.3791271 41.4413543,21.4364326 C41.1801693,20.4732448 41.8984281,19.6330171 42.3990326,18.9567362 C43.6614268,17.2557875 44.814994,15.5958254 45.598549,13.5055028 C46.6650544,10.656926 46.8391778,6.80417457 45.5114873,4.07855787 C43.1390568,-0.819354839 37.0012092,-3.50398482 29.1438936,-3.15559772 C22.5707376,-2.8686907 17.6735187,-1.35218216 12.9721886,0.881593928 C10.6868198,1.94724858 8.59733978,3.19734345 6.70374849,4.6113852 C5.41958888,5.57457306 3.83071342,6.84516129 2.9165659,8.25920304 C2.26360339,9.24288425 1.95888755,10.4519924 3.28657799,10.7388994 C4.57073761,11.0258065 6.13784764,10.4929791 7.2261185,10.1036053 C8.4885127,9.65275142 9.55501814,9.14041746 10.5126965,8.68956357 C14.8440145,6.6402277 18.8488513,4.3654649 23.3107618,2.68500949 C25.5743652,1.84478178 28.0991536,1.06603416 31.2116082,1.10702087 C29.5792019,2.25464896 27.8162031,3.29981025 27.4244256,5.61555977 C28.8174123,5.63605313 30.1015719,5.04174573 31.4510278,4.71385199 C32.8657799,4.38595825 34.3893591,4.16053131 36.0217654,4.3654649 C38.9165659,4.73434535 40.8754534,6.27134725 42.2466747,8.01328273 C40.4836759,7.64440228 37.9588875,7.74686907 37.1753325,8.91499051 C37.828295,9.87817837 38.6989117,10.656926 39.3301088,11.6611006 C39.9830713,12.7062619 40.331318,13.9563567 40.1571947,15.513852 C39.8307134,18.3009488 38.1112455,20.083871 36.1305925,21.2519924 C36.3482467,20.4937381 36.4788392,19.4895636 36.4135429,18.5468691 C36.3482467,17.7271347 36.261185,16.4155598 35.4993954,16.313093 C34.8899637,16.2311195 33.9975816,17.1328273 33.5405079,17.4812144 C31.7122128,18.8747628 29.8186215,20.1043643 27.859734,21.2110057 C25.0302297,22.829981 22.3530834,24.2645161 18.6747279,24.6743833 C21.0689238,25.8425047 24.1596131,26.1294118 27.0326481,26.600759 C36.0217654,28.0762808 43.9226119,30.4740038 46.8827086,37.3597723 C46.0773881,37.0113852 45.3808948,36.7449715 44.3579202,36.4580645 C43.8573156,36.314611 42.0072551,35.6793169 41.4848851,36.1506641 C41.0931076,36.5195446 41.528416,37.5647059 41.7243047,38.0770398 C41.9419589,38.7533207 42.1813785,39.4705882 42.311971,40.0444023 C43.3784764,44.8398482 41.2454655,48.487666 38.7859734,50.6804554 C38.7206771,50.7419355 38.5900846,50.9058824 38.4594921,50.8444023 C38.6989117,49.6557875 38.7424426,48.1597723 38.4594921,46.8072106 C38.3288996,46.2129032 37.980653,44.7783681 37.305925,44.7988615 C36.8270859,44.8193548 36.2394196,46.0079696 35.9782346,46.4178368 C35.5864571,47.0941176 35.216445,47.7089184 34.8246675,48.2212524 C32.2781137,51.7051233 28.4038694,53.9388994 23.114873,54.5332068 C23.8331318,53.7749526 24.6819831,52.7502846 25.1172914,51.5411765 C25.2261185,51.2132827 25.4873035,50.4550285 25.2043531,50.2091082 C24.834341,49.8607211 23.5501814,50.4140417 23.0495768,50.5574953 C22.2660218,50.7624288 21.4824667,50.9468691 20.8077388,51.0698292 C17.1511487,51.7461101 13.8645707,50.9468691 11.7533253,49.6148008 C10.6650544,48.9180266 9.66384522,48.1392789 8.92382104,47.1351044 C9.62031439,47.2170778 10.643289,47.1965844 11.2962515,47.0941176 C11.8839178,47.0121442 12.9939541,46.8072106 12.9939541,46.2743833 C12.9939541,46.0079696 12.210399,45.454649 11.949214,45.2087287 C10.8609432,44.1840607 9.79443773,42.9954459 9.79443773,41.0485769 C9.81620314,39.1426945 10.9262394,37.913093 11.9056832,36.8474383 C11.7968561,38.7533207 12.3192261,40.4337761 14.1039903,40.7001898 C14.4304716,40.372296 14.2781137,39.7779886 14.3869407,39.3271347 C14.5828295,38.486907 15.2793229,37.8311195 15.9322854,37.5237192 C18.1958888,36.4580645 20.8295042,38.2614801 21.2430472,40.3108159 C21.5912938,36.540038 20.08948,34.1833017 17.5211608,32.8922201 Z M7.16082225,11.16926 C10.7521161,11.3127135 14.6698912,11.2922201 18.5441354,11.2922201 C21.9613059,11.2922201 26.4449819,11.6201139 27.3591294,13.91537 C28.1644498,15.9237192 26.0314389,17.173814 24.8996372,17.9525617 C23.1584039,19.1206831 21.2648126,20.1043643 19.5888755,21.2929791 C18.7617896,21.8872865 17.7170496,22.4611006 17.47763,23.4857685 C18.3482467,23.9571157 19.458283,23.6907021 20.2636034,23.4857685 C21.1342201,23.2808349 22.0048368,22.9734345 22.7230955,22.6660342 C26.5320435,21.1290323 29.949214,18.9157495 33.0181378,16.5795066 C33.6058041,16.1286528 34.3675937,15.4523719 35.1293833,15.3703985 C37.0882709,15.1654649 37.458283,17.4197343 37.3276904,19.2231499 C38.3724305,18.0550285 39.3301088,16.2721063 39.1559855,14.2432638 C39.0471584,13.0341556 38.503023,12.1324478 37.9153567,11.4151803 C37.458283,10.8413662 36.1958888,9.85768501 36.1305925,9.05844402 C35.9782346,7.45996205 38.1330109,7.00910816 39.8307134,6.96812144 C38.3071342,5.86148008 36.4570738,4.98026565 33.5187424,5.28766603 C32.2345828,5.43111954 31.2551391,5.69753321 30.1886336,6.00493359 C29.2962515,6.27134725 27.7291415,6.96812144 26.814994,6.55825427 C25.9443773,6.16888046 26.4232164,4.73434535 26.7714631,4.07855787 C27.185006,3.27931689 27.9903265,2.60303605 28.1862152,2.19316888 C20.1112455,4.18102467 14.4304716,8.42314991 7.16082225,11.16926 Z M30.885127,39.1017078 C28.7956469,41.0690702 26.0096735,42.1347249 22.2877872,41.9297913 C21.7871826,42.8314991 21.1124547,43.7741935 20.3288996,44.2455408 C21.1559855,41.683871 20.0677146,38.4459203 17.6299879,38.2 C16.3458283,38.0770398 15.4752116,38.8762808 15.3446191,39.7370019 C15.2575574,40.2698292 15.4534462,40.659203 15.1704958,41.1510436 C14.8657799,41.6633776 13.9951632,41.745351 13.3857316,41.5404175 C12.2756953,41.1920304 11.6227328,40.0239089 11.2744861,39.0607211 C10.5779927,40.5772296 10.5779927,41.9297913 11.4486094,43.1798861 C11.8403869,43.7332068 12.2974607,44.1225806 12.7762999,44.5529412 C13.1898428,44.9013283 13.9081016,45.4956357 14.0169287,46.0079696 C14.2781137,47.4834915 12.5368803,47.8728653 11.2744861,48.0573055 C13.0157195,49.3688805 14.8004837,50.3525617 17.8476421,50.373055 C19.1970979,50.373055 20.6553809,50.1476281 21.8307134,49.8607211 C22.6577993,49.6557875 24.7255139,48.8565465 25.617896,49.1229602 C27.1414752,49.6148008 25.8355502,52.545351 25.2914148,53.2011385 C29.1003628,52.3199241 32.1692866,50.2500949 34.1064087,47.4629981 C34.7593712,46.4998102 35.216445,45.3726755 35.9782346,44.5119545 C36.1958888,44.2660342 36.52237,43.9996205 36.8488513,43.9176471 C37.7847642,43.6512334 38.3724305,44.2865275 38.7206771,44.8603416 C39.2430472,45.7210626 39.5042322,47.0121442 39.4607013,48.3851992 C40.5272068,46.9096774 41.5719468,45.2702087 41.5719468,42.6060721 C41.5719468,41.4379507 41.3107618,40.372296 41.0278114,39.4296015 C40.6360339,38.1795066 39.4607013,35.6178368 41.267231,35.1464896 C42.5949214,34.7981025 43.7702539,35.4743833 44.8367594,35.6588235 C42.0072551,31.9290323 37.3494559,29.6747628 31.7992745,28.6296015 C35.3470375,30.945351 33.235792,36.888425 30.885127,39.1017078 Z" fill="#FFFFFF" fill-rule="nonzero" mask="url(#mask-2)"></path>
            </g>
        </g>
    </g>
</svg>